<?xml version="1.0" encoding="UTF-8"?>
<svg version="1.1" xmlns="http://www.w3.org/2000/svg" width="96" height="96">
<path d="M0 0 C0.83071518 0.30932968 1.66143036 0.61865936 2.51731873 0.93736267 C5.13896801 1.91607364 7.75499112 2.90891453 10.37109375 3.90234375 C12.16045288 4.57321167 13.95016362 5.24314258 15.74023438 5.91210938 C20.10049123 7.54389009 24.45576547 9.18835472 28.80859375 10.83984375 C29.1245714 65.469804 29.1245714 65.469804 19.79101562 75.71728516 C13.31631675 81.44576387 5.1577052 84.39058406 -3.01513672 86.82763672 C-5.7813607 87.70917128 -7.81828354 88.64698234 -10.2265625 90.21875 C-13.92066091 92.23857983 -15.16989154 91.83826104 -19.19140625 90.83984375 C-22.0246582 89.52050781 -22.0246582 89.52050781 -24.9296875 87.85546875 C-25.99767578 87.24960938 -27.06566406 86.64375 -28.16601562 86.01953125 C-29.26751953 85.38273437 -30.36902344 84.7459375 -31.50390625 84.08984375 C-33.6874894 82.84503349 -35.87108297 81.60024151 -38.0546875 80.35546875 C-39.01673096 79.80149414 -39.97877441 79.24751953 -40.9699707 78.67675781 C-43.97920349 76.86621886 -43.97920349 76.86621886 -46.50019836 75.90470886 C-50.07974122 74.32067438 -52.60498447 73.19637954 -54.20481873 69.49557495 C-54.81377872 66.50434004 -55.13903484 63.5897744 -55.3828125 60.546875 C-55.50325424 59.44566818 -55.62369598 58.34446136 -55.74778748 57.20988464 C-56.12229534 53.69346713 -56.43813606 50.17446998 -56.75390625 46.65234375 C-56.99824899 44.30234628 -57.24625802 41.95272695 -57.49804688 39.60351562 C-58.49503871 29.99156691 -59.38308096 20.5121922 -59.19140625 10.83984375 C-53.52624527 8.66064185 -47.85220903 6.50711574 -42.16870117 4.3762207 C-40.23900941 3.64872739 -38.31186428 2.91443975 -36.38745117 2.1730957 C-33.61117603 1.10496604 -30.82647789 0.06209187 -28.0390625 -0.9765625 C-27.18868912 -1.30983047 -26.33831573 -1.64309845 -25.46217346 -1.98646545 C-16.13885656 -5.40112076 -9.01673085 -3.45928606 0 0 Z M-15.19140625 8.83984375 C-16.4150335 23.06451054 -13.51097786 33.1160634 -7.19140625 45.83984375 C-9.83140625 46.16984375 -12.47140625 46.49984375 -15.19140625 46.83984375 C-15.19140625 49.47984375 -15.19140625 52.11984375 -15.19140625 54.83984375 C-11.23140625 55.16984375 -7.27140625 55.49984375 -3.19140625 55.83984375 C-2.84207031 56.69449219 -2.49273437 57.54914062 -2.1328125 58.4296875 C-1.67777344 59.53441406 -1.22273438 60.63914063 -0.75390625 61.77734375 C-0.30144531 62.87949219 0.15101562 63.98164062 0.6171875 65.1171875 C1.55283983 67.70553291 1.55283983 67.70553291 2.80859375 68.83984375 C4.32787413 68.91164339 5.85026857 68.92376382 7.37109375 68.90234375 C8.19738281 68.89332031 9.02367188 68.88429687 9.875 68.875 C10.51308594 68.86339844 11.15117188 68.85179687 11.80859375 68.83984375 C7.25300389 58.34120719 2.69018031 47.84581704 -1.90234375 37.36328125 C-2.21632111 36.64646179 -2.53029846 35.92964233 -2.85379028 35.19110107 C-4.41594425 31.62497789 -5.97905026 28.0592761 -7.54345703 24.49414062 C-8.12405188 23.1692833 -8.70461953 21.84441405 -9.28515625 20.51953125 C-9.79755859 19.35147949 -10.30996094 18.18342773 -10.83789062 16.97998047 C-12.00081511 14.28201245 -13.11696959 11.57401579 -14.19140625 8.83984375 C-14.52140625 8.83984375 -14.85140625 8.83984375 -15.19140625 8.83984375 Z " fill="#F44235" transform="translate(63.19140625,4.16015625)"/>
<path d="M0 0 C2.0563694 12.2334939 -3.98358943 22.35834118 -9 33.125 C-9.84973316 34.98863775 -10.69740423 36.85321716 -11.54296875 38.71875 C-13.20406018 42.37647527 -14.876407 46.02868874 -16.55859375 49.67675781 C-20.11982758 57.41510193 -23.56046161 65.2069956 -27 73 C-23.7 73 -20.4 73 -17 73 C-16.54625 71.4325 -16.0925 69.865 -15.625 68.25 C-14.64848268 64.87657653 -13.59035502 62.18071004 -12 59 C-8.04 59 -4.08 59 0 59 C0 71.21 0 83.42 0 96 C-4.33913512 94.55362163 -7.45367933 93.34564042 -11.30078125 91.13671875 C-12.27853516 90.57919922 -13.25628906 90.02167969 -14.26367188 89.44726562 C-15.26978516 88.86654297 -16.27589844 88.28582031 -17.3125 87.6875 C-19.30843807 86.54530083 -21.30452979 85.40337011 -23.30078125 84.26171875 C-24.17903564 83.75600342 -25.05729004 83.25028809 -25.9621582 82.72924805 C-28.81597588 81.01489063 -28.81597588 81.01489063 -31.28193665 80.08052063 C-34.86717784 78.49396089 -37.41084829 77.361132 -39.01512146 73.65473938 C-39.62234391 70.66397474 -39.94769235 67.74913474 -40.19140625 64.70703125 C-40.31184799 63.60582443 -40.43228973 62.50461761 -40.55638123 61.37004089 C-40.93088909 57.85362338 -41.24672981 54.33462623 -41.5625 50.8125 C-41.80684274 48.46250253 -42.05485177 46.1128832 -42.30664062 43.76367188 C-43.30363246 34.15172316 -44.19167471 24.67234845 -44 15 C-38.21816422 12.85759452 -32.43404589 10.72151671 -26.64770508 8.59130859 C-24.6789627 7.86551244 -22.71085909 7.13798119 -20.7434082 6.40869141 C-17.91783513 5.36165525 -15.09003517 4.32084909 -12.26171875 3.28125 C-11.38037766 2.95314331 -10.49903656 2.62503662 -9.59098816 2.2869873 C-8.77036392 1.98667603 -7.94973969 1.68636475 -7.10424805 1.37695312 C-6.38254929 1.11047974 -5.66085052 0.84400635 -4.9172821 0.56945801 C-3 -0 -3 -0 0 0 Z " fill="#D43A2F" transform="translate(48,0)"/>
<path d="M0 0 C0.33 0 0.66 0 1 0 C0.979375 1.13953125 0.95875 2.2790625 0.9375 3.453125 C1.00680357 16.71839336 4.46298202 27.03045544 10 39 C7.03 39 4.06 39 1 39 C1 41.64 1 44.28 1 47 C-2.96 47 -6.92 47 -11 47 C-11.45375 48.381875 -11.9075 49.76375 -12.375 51.1875 C-13.47975443 54.50699909 -14.64632091 57.77199601 -16 61 C-19.3 61 -22.6 61 -26 61 C-24.05729655 54.91191077 -21.84735473 49.11277507 -19.19921875 43.30078125 C-18.84036087 42.5032695 -18.48150299 41.70575775 -18.11177063 40.88407898 C-16.97443396 38.3583518 -15.83128224 35.8353139 -14.6875 33.3125 C-13.18950146 29.99695134 -11.6939379 26.68030946 -10.19921875 23.36328125 C-9.83923798 22.56536163 -9.4792572 21.76744202 -9.10836792 20.94534302 C-5.98287318 14.00094049 -2.96387073 7.01485332 0 0 Z " fill="#DDDBDB" transform="translate(47,12)"/>
<path d="M0 0 C3.20282727 3.65487797 4.57678067 7.74960752 6.1875 12.25 C7.5796875 16.08625 7.5796875 16.08625 9 20 C3.39 20 -2.22 20 -8 20 C-6.05419294 12.83123715 -3.51919364 6.53763246 0 0 Z " fill="#F44234" transform="translate(48,31)"/>
<path d="M0 0 C0.33 0 0.66 0 1 0 C1 6.27 1 12.54 1 19 C-1.64 19 -4.28 19 -7 19 C-5.17778624 12.38757278 -2.94776396 6.19479329 0 0 Z " fill="#D54136" transform="translate(47,32)"/>
</svg>
