<?xml version="1.0" encoding="UTF-8"?>
<svg version="1.1" xmlns="http://www.w3.org/2000/svg" width="512" height="512">
<path d="M0 0 C18.5466094 6.7474618 37.03043935 13.62898859 55.4375 20.75 C57.47582133 21.5366919 59.51423316 22.32314934 61.55273438 23.109375 C68.36876589 25.73886722 75.18436837 28.36947145 82 31 C94.87 35.95 107.74 40.9 121 46 C121 117.28 121 188.56 121 262 C100.21 262 79.42 262 58 262 C56.19108632 257.1762302 54.48055387 252.52535295 52.98901367 247.625 C52.6189621 246.41378479 52.24891052 245.20256958 51.86764526 243.95465088 C51.46771216 242.63644634 51.06782138 241.31822895 50.66796875 240 C50.23949675 238.59431094 49.81078957 237.18869356 49.38186646 235.78314209 C48.46245839 232.76859626 47.5446378 229.75357352 46.62808228 226.73815918 C45.16951105 221.93958585 43.7074716 217.14207366 42.24487305 212.34472656 C40.45700743 206.47974394 38.66994514 200.61451777 36.88389683 194.74898148 C33.60835508 183.9922557 30.32572008 173.23770922 27.0390625 162.484375 C26.79707689 161.69263382 26.55509129 160.90089264 26.30577278 160.0851593 C25.10504259 156.15667672 23.90419273 152.22823074 22.70327759 148.29980469 C21.57630764 144.61317848 20.44949195 140.92650524 19.32324409 137.23965836 C18.89191505 135.82836415 18.4601685 134.41719748 18.02799797 133.00616074 C16.96423273 129.53110777 15.90777107 126.05415937 14.86639404 122.57232666 C12.94030764 116.15922366 10.9562507 109.78942005 8.71709633 103.4777298 C0.74885099 80.98700432 -1.48101067 61.01867108 -0.75531006 37.2244873 C-0.63952383 32.99928 -0.59187573 28.77323535 -0.53710938 24.546875 C-0.42169798 16.36245218 -0.2359191 8.18183601 0 0 Z " fill="#45C0BC" transform="translate(278,250)"/>
<path d="M0 0 C1.99908438 41.29921144 1.39913443 77.10525641 -13.15164185 116.34008789 C-16.45594891 125.27872203 -19.35507792 134.29273264 -22.1015625 143.4140625 C-22.42110209 144.47500689 -22.42110209 144.47500689 -22.74709702 145.55738449 C-23.83651638 149.18075373 -24.92053583 152.8057111 -26.00201416 156.43145752 C-27.95219397 162.9629025 -29.94280784 169.48205541 -31.92873764 176.00269699 C-33.04314346 179.66391795 -34.15439155 183.32609642 -35.265625 186.98828125 C-35.48822432 187.72179998 -35.71082363 188.45531872 -35.94016838 189.21106529 C-38.5549294 197.82788653 -41.16843888 206.44508733 -43.78125 215.0625 C-43.99671982 215.77314606 -44.21218964 216.48379211 -44.43418884 217.2159729 C-48.95977343 232.14287767 -53.47921161 247.0716412 -58 262 C-78.79 262 -99.58 262 -121 262 C-121 190.72 -121 119.44 -121 46 C-98.02194824 36.8087793 -98.02194824 36.8087793 -88.4921875 33.1875 C-86.87218338 32.56956573 -86.87218338 32.56956573 -85.2194519 31.93914795 C-81.771894 30.62453708 -78.32347231 29.31221011 -74.875 28 C-72.46381489 27.08119191 -70.05268277 26.16224477 -67.64160156 25.24316406 C-62.77865541 23.3897439 -57.91535579 21.53725586 -53.05175781 19.68554688 C-46.42665851 17.16297306 -39.80299785 14.63664141 -33.1796875 12.109375 C-30.28391256 11.00478303 -27.38809579 9.90030082 -24.49224854 8.79589844 C-22.67298171 8.10202686 -20.85376731 7.4080178 -19.03460693 6.71386719 C-16.53893427 5.76174411 -14.04295225 4.81043683 -11.546875 3.859375 C-10.45401688 3.44217194 -10.45401688 3.44217194 -9.33908081 3.01654053 C-1.41631403 0 -1.41631403 0 0 0 Z " fill="#45C0BC" transform="translate(237,250)"/>
<path d="M0 0 C39.93 0 79.86 0 121 0 C121 62.7 121 125.4 121 190 C116.56812797 189.11362559 112.6101349 187.84736255 108.4140625 186.25390625 C107.66130539 185.97141525 106.90854828 185.68892426 106.13298035 185.39787292 C103.62881242 184.45670072 101.12688212 183.50973016 98.625 182.5625 C96.85122543 181.89402042 95.0773795 181.22573013 93.3034668 180.55761719 C77.59197977 174.6320764 61.90950319 168.62990725 46.23486328 162.60766602 C30.83945348 156.69414782 15.42059933 150.84919285 0 145 C0 97.15 0 49.3 0 0 Z " fill="#45C0BC" transform="translate(116,0)"/>
<path d="M0 0 C39.93 0 79.86 0 121 0 C121 47.52 121 95.04 121 144 C114.50787408 146.95096633 108.20662123 149.79953514 101.546875 152.2421875 C100.7807338 152.52722137 100.01459259 152.81225525 99.22523499 153.10592651 C97.58587001 153.71559521 95.94588691 154.3236041 94.30532837 154.93005371 C89.86552506 156.57186841 85.43090139 158.22756061 80.99609375 159.8828125 C80.08433884 160.2228833 79.17258392 160.5629541 78.23320007 160.91333008 C68.73500766 164.46177924 59.2717273 168.09920878 49.8125 171.75 C48.19477452 172.37369871 46.5770176 172.99731588 44.95922852 173.62084961 C44.16893753 173.92545609 43.37864655 174.23006256 42.56440735 174.54389954 C41.78260605 174.845233 41.00080475 175.14656647 40.1953125 175.45703125 C39.42402512 175.75437668 38.65273773 176.05172211 37.858078 176.358078 C30.61045055 179.15161443 23.3606659 181.9393831 16.10287476 184.7064209 C14.23476424 185.41945972 12.36797417 186.13595498 10.5012207 186.85253906 C9.40124756 187.27116211 8.30127441 187.68978516 7.16796875 188.12109375 C6.21172607 188.4864624 5.2554834 188.85183105 4.27026367 189.22827148 C2 190 2 190 0 190 C0 127.3 0 64.6 0 0 Z " fill="#45C0BC" transform="translate(278,0)"/>
<path d="M0 0 C0 21.12 0 42.24 0 64 C-4.56060037 63.08787993 -8.65065513 61.75123964 -12.97265625 60.11328125 C-13.75671341 59.81940018 -14.54077057 59.5255191 -15.34858704 59.22273254 C-17.92146138 58.25677179 -20.49204913 57.28488955 -23.0625 56.3125 C-24.84518053 55.64102217 -26.62789578 54.96963651 -28.41064453 54.29833984 C-40.75788713 49.64063161 -53.07593751 44.90838097 -65.375 40.125 C-66.15706818 39.82091217 -66.93913635 39.51682434 -67.74490356 39.20352173 C-69.94251398 38.34814418 -72.13942083 37.4909943 -74.3359375 36.6328125 C-75.31123161 36.25259697 -75.31123161 36.25259697 -76.30622864 35.86470032 C-78.57785017 34.97459044 -80.81651205 34.09174398 -83 33 C-83 32.34 -83 31.68 -83 31 C-81.24586792 30.33750244 -81.24586792 30.33750244 -79.45629883 29.66162109 C-75.92818961 28.32910766 -72.40012124 26.99648611 -68.87207031 25.66381836 C-64.81291691 24.13053588 -60.75365635 22.59753753 -56.69433594 21.06469727 C-46.72975138 17.30144675 -36.76668948 13.53429706 -26.80859375 9.75390625 C-25.08944738 9.1016975 -23.37029076 8.44951577 -21.65112305 7.79736328 C-19.2080112 6.87058358 -16.76511709 5.94325138 -14.32290649 5.01409912 C-12.08560156 4.16291998 -9.84756946 3.31368053 -7.609375 2.46484375 C-6.94800034 2.21255508 -6.28662567 1.96026642 -5.60520935 1.70033264 C-1.11375392 0 -1.11375392 0 0 0 Z " fill="#45C0BC" transform="translate(399,188)"/>
<path d="M0 0 C18.18161861 6.66659349 36.34689026 13.32876664 54.42504883 20.26489258 C57.91173995 21.60051516 61.40216492 22.92609243 64.89257812 24.25195312 C67.12262862 25.10616335 69.35245598 25.9609564 71.58203125 26.81640625 C72.62019485 27.20905167 73.65835846 27.60169708 74.72798157 28.00624084 C75.67215439 28.37100021 76.61632721 28.73575958 77.58911133 29.11157227 C78.42017899 29.42925064 79.25124664 29.74692902 80.10749817 30.07423401 C82 31 82 31 83 33 C62.11887214 41.09607065 41.23605404 49.18875214 20.2996521 57.14105225 C18.68449409 57.75486555 17.06976685 58.36981361 15.45547485 58.98590088 C13.21896098 59.83898646 10.98085481 60.68774073 8.7421875 61.53515625 C8.08279678 61.78744492 7.42340607 62.03973358 6.74403381 62.29966736 C2.2291694 64 2.2291694 64 0 64 C0 42.88 0 21.76 0 0 Z " fill="#45C0BC" transform="translate(116,188)"/>
</svg>
