<?xml version="1.0" encoding="UTF-8"?>
<svg version="1.1" xmlns="http://www.w3.org/2000/svg" width="480" height="480">
<path d="M0 0 C1.09432063 -0.00538554 2.18864126 -0.01077108 3.31612313 -0.01631981 C6.96624594 -0.0305749 10.61600485 -0.02350148 14.2661438 -0.01637268 C16.88998709 -0.02207752 19.51382789 -0.02904222 22.13766479 -0.03717041 C28.51496336 -0.05432732 34.89216326 -0.05520487 41.2694789 -0.04995751 C46.45558361 -0.04590859 51.64165927 -0.04736791 56.8277626 -0.05270576 C57.56716405 -0.05345419 58.30656551 -0.05420261 59.06837306 -0.05497371 C60.57069222 -0.05650526 62.07301137 -0.05804361 63.57533051 -0.05958868 C77.6497889 -0.07330259 91.72419163 -0.06788395 105.79864873 -0.05640347 C118.65908836 -0.04647329 131.51938407 -0.05940996 144.3798015 -0.08333766 C157.6024296 -0.10775287 170.82499074 -0.11733052 184.04764092 -0.11068493 C191.4641241 -0.10719795 198.88049666 -0.10939019 206.29696274 -0.12693596 C213.27216472 -0.14323385 220.24708796 -0.13843864 227.22228241 -0.11963081 C229.77841006 -0.11594754 232.3345581 -0.11904568 234.89066696 -0.1295166 C238.38771268 -0.14274542 241.88385209 -0.13116081 245.38085938 -0.11352539 C246.38545318 -0.1231304 247.39004699 -0.1327354 248.42508304 -0.14263147 C259.58385383 -0.0273401 268.73825987 3.67576084 276.81741333 11.38768005 C286.58506335 21.6279583 289.90701382 33.54570341 290.02835083 47.3525238 C290.05390494 49.12914701 290.08030392 50.90575823 290.10745239 52.68235779 C290.12070557 53.60459137 290.13395874 54.52682495 290.14761353 55.477005 C290.78052873 104.71789799 290.78052873 104.71789799 312.76272583 147.48924255 C320.01364179 154.17145922 327.25219446 156.51811439 336.81741333 159.38768005 C336.81741333 166.64768005 336.81741333 173.90768005 336.81741333 181.38768005 C334.52803833 182.06830505 332.23866333 182.74893005 329.87991333 183.45018005 C317.01986643 187.61363408 309.43338833 195.60208613 303.16116333 207.5400238 C291.589826 232.83756485 290.43672129 260.20587231 290.28323364 287.56565857 C290.13590703 303.73151539 288.08628262 317.23216624 276.76272583 329.53611755 C267.65381306 338.20604658 257.94462796 340.84866918 245.62809753 340.77536011 C244.53307134 340.78074565 243.43804514 340.78613118 242.30983633 340.79167992 C238.65737961 340.80593502 235.00528656 340.79886161 231.35281372 340.79173279 C228.72734792 340.79743759 226.10188459 340.80440228 223.47642517 340.81253052 C217.09545161 340.82968697 210.71457667 340.83056515 204.33358604 340.82531761 C199.14508907 340.82126897 193.95662113 340.8227277 188.76812553 340.82806587 C187.65859027 340.82918851 187.65859027 340.82918851 186.52664016 340.83033382 C185.02375527 340.83186536 183.52087039 340.83340371 182.01798552 340.83494879 C167.93878851 340.84866228 153.85964714 340.84324412 139.78045141 340.83176357 C126.91286974 340.82183125 114.04543186 340.83477386 101.17787237 340.85869776 C87.94959904 340.88310612 74.72139264 340.89269245 61.49309725 340.88604504 C54.07273357 340.88255682 46.65248046 340.88475864 39.23213387 340.90229607 C32.25447265 340.91858342 25.27709021 340.91380943 18.29943657 340.89499092 C15.74127632 340.89130512 13.18309573 340.89441318 10.62495422 340.90487671 C7.12755791 340.91808798 3.63107034 340.90653643 0.13371277 340.8888855 C-0.87379388 340.8984905 -1.88130053 340.90809551 -2.91933769 340.91799158 C-14.18516365 340.80134964 -23.8568888 336.1788119 -32.12399292 328.6103363 C-41.50424648 318.70332985 -44.45901339 306.14052488 -44.49118042 292.8759613 C-44.5137975 291.05824675 -44.53692798 289.24053852 -44.56051636 287.4228363 C-44.56966064 286.48713806 -44.57880493 285.55143982 -44.58822632 284.58738708 C-44.91739151 254.75821046 -45.48119833 216.67150922 -67.12789917 193.28611755 C-74.37881513 186.60390088 -81.6173678 184.25724571 -91.18258667 181.38768005 C-91.18258667 174.12768005 -91.18258667 166.86768005 -91.18258667 159.38768005 C-88.89321167 158.70705505 -86.60383667 158.02643005 -84.24508667 157.32518005 C-71.5436787 153.21308555 -64.25402992 145.42507484 -57.74899292 133.83299255 C-48.46081191 114.79366824 -45.15166358 92.41592667 -44.97164917 71.42674255 C-44.94358616 69.55433789 -44.91492173 67.68194217 -44.88571167 65.80955505 C-44.84456204 62.91144518 -44.80759416 60.0135033 -44.78121948 57.11521912 C-44.60917211 39.64351131 -43.483783 24.66489987 -31.12789917 11.23924255 C-22.02142278 2.5716325 -12.31355948 -0.07334093 0 0 Z " fill="#7C4DFF" transform="translate(117.18258666992188,69.61231994628906)"/>
<path d="M0 0 C101.12958963 0 101.12958963 0 116.9296875 14.80859375 C125.90575426 24.38178083 129.60413264 35.61167773 129.37890625 48.5546875 C127.972426 61.34350788 120.91602741 71.04839536 111.45703125 79.234375 C107.61556033 81.99485967 103.48555613 83.57660849 99 85 C100.02738281 85.3403125 101.05476563 85.680625 102.11328125 86.03125 C115.59955837 90.67189998 125.5460709 96.37744385 133 109 C133.598125 110.010625 134.19625 111.02125 134.8125 112.0625 C140.05189605 125.02311127 138.96536676 138.78617653 133.96875 151.65625 C128.94804829 162.64751591 120.42664452 171.29822365 109.08886719 175.75048828 C73.43767961 188.40725891 40.78601362 182 0 182 C0 121.94 0 61.88 0 0 Z " fill="#FEFDFF" transform="translate(175,149)"/>
<path d="M0 0 C11.4159375 -0.12375 11.4159375 -0.12375 23.0625 -0.25 C25.43187744 -0.28641602 27.80125488 -0.32283203 30.24243164 -0.36035156 C44.64102999 -0.48928891 60.84191695 -0.6234249 72 10 C78.24824407 16.46953605 78.789013 23.49460473 78.64526367 32.0871582 C78.22703463 40.25602418 75.94171458 44.99142827 70.25 50.8125 C60.35690432 57.4713144 50.89086952 59.30797561 39.16015625 59.1953125 C38.16463745 59.19329834 37.16911865 59.19128418 36.14343262 59.18920898 C32.44974107 59.17880065 28.75611556 59.15087832 25.0625 59.125 C16.791875 59.08375 8.52125 59.0425 0 59 C0 39.53 0 20.06 0 0 Z " fill="#7D4EFF" transform="translate(204,248)"/>
<path d="M0 0 C7.239375 -0.04125 14.47875 -0.0825 21.9375 -0.125 C24.20488037 -0.14320801 26.47226074 -0.16141602 28.80834961 -0.18017578 C30.63134526 -0.18602404 32.45434354 -0.1911188 34.27734375 -0.1953125 C35.20293091 -0.20554443 36.12851807 -0.21577637 37.08215332 -0.22631836 C46.26619613 -0.2287509 56.43285521 0.88111881 63.50390625 7.3828125 C69.3044348 13.99714654 70.6182863 19.87454711 70.41015625 28.453125 C69.61772197 35.30579482 66.79559511 40.62807053 61.8125 45.375 C52.78211122 52.31993952 42.33975422 53.16385801 31.34765625 53.09765625 C30.54871948 53.09664917 29.74978271 53.09564209 28.92663574 53.09460449 C25.97190901 53.08941362 23.0172029 53.07545269 20.0625 53.0625 C10.1315625 53.0315625 10.1315625 53.0315625 0 53 C0 35.51 0 18.02 0 0 Z " fill="#7C4DFF" transform="translate(204,173)"/>
</svg>
