<?xml version="1.0" encoding="UTF-8"?>
<svg version="1.1" xmlns="http://www.w3.org/2000/svg" width="323" height="322">
<path d="M0 0 C3.77018176 1.80273254 7.36177029 3.8073877 10.96875 5.9140625 C11.80390137 6.39713867 12.63905273 6.88021484 13.49951172 7.37792969 C17.42312575 9.65048694 21.34033056 11.93340474 25.24707031 14.23486328 C32.92119252 18.75259799 40.67018596 23.11520544 48.46875 27.4140625 C58.06763855 32.71044916 67.573295 38.14039318 77.0222168 43.69946289 C85.38726239 48.60882124 93.83899349 53.35366508 102.33447266 58.03344727 C105.22686278 59.63650794 108.10080405 61.26771288 110.96875 62.9140625 C111.95794434 63.46980957 112.94713867 64.02555664 113.96630859 64.59814453 C114.93004395 65.16774902 115.8937793 65.73735352 116.88671875 66.32421875 C118.17292114 67.07070679 118.17292114 67.07070679 119.48510742 67.83227539 C123.83118178 71.47515125 126.55648593 75.24274523 127.43738651 80.95065212 C127.62600153 84.66560014 127.65700866 88.36386278 127.6315918 92.08178711 C127.64001616 93.5067834 127.65054622 94.93176854 127.66300964 96.35673523 C127.68996274 100.20818194 127.68538248 104.05897834 127.67330909 107.9104774 C127.66615498 111.13354383 127.67469251 114.35649173 127.68321449 117.5795489 C127.70313693 125.18684981 127.69763163 132.79383624 127.67553711 140.40112305 C127.65317767 148.23237299 127.67077292 156.06279838 127.70858639 163.89397043 C127.73988015 170.633983 127.7477183 177.37374114 127.73663265 184.11381727 C127.73016417 188.13219164 127.73205789 192.15009056 127.75595665 196.16840935 C127.77729653 199.94862601 127.76911929 203.727685 127.73886299 207.50782967 C127.7325655 208.88923465 127.73632395 210.27073066 127.75127411 211.65206909 C127.83755086 220.33202884 127.00740818 226.39291964 120.96875 232.9140625 C118.16162109 235.15063477 118.16162109 235.15063477 115.2421875 236.73046875 C114.14237549 237.34100098 113.04256348 237.9515332 111.90942383 238.58056641 C110.72097657 239.21277321 109.5324155 239.84476612 108.34375 240.4765625 C107.09599289 241.16096298 105.84951433 241.84769898 104.60424805 242.53662109 C102.01975884 243.96420014 99.43009813 245.38166035 96.83642578 246.79248047 C91.34999293 249.78793583 85.93979233 252.91503133 80.52410889 256.03591919 C71.12973621 261.44307072 61.68689245 266.76225985 52.21875 272.0390625 C42.87975197 277.24475776 33.6255725 282.58266898 24.40063477 287.98754883 C18.50711933 291.43879542 12.60241479 294.86670683 6.65625 298.2265625 C6.01034912 298.59370361 5.36444824 298.96084473 4.69897461 299.33911133 C-1.96188133 303.08179104 -7.45165623 303.90611036 -15.03125 302.9140625 C-20.02629456 301.16611587 -24.47873608 298.57145782 -29.03125 295.9140625 C-29.87703613 295.42566895 -30.72282227 294.93727539 -31.59423828 294.43408203 C-36.61403376 291.53205403 -41.61704379 288.60252209 -46.61328125 285.66015625 C-52.87031461 281.98856372 -59.19061514 278.43878685 -65.53125 274.9140625 C-74.70622056 269.80934155 -83.792352 264.57210591 -92.8425293 259.24975586 C-101.70408704 254.0591135 -110.67359426 249.0751373 -119.68505859 244.15063477 C-122.8154197 242.43019821 -125.92730957 240.68167437 -129.03125 238.9140625 C-130.04106934 238.34800293 -131.05088867 237.78194336 -132.09130859 237.19873047 C-133.05504395 236.62912598 -134.0187793 236.05952148 -135.01171875 235.47265625 C-135.86016357 234.97950928 -136.7086084 234.4863623 -137.58276367 233.97827148 C-141.90617258 230.33339938 -144.62456526 226.56715247 -145.49716854 220.87454891 C-145.68142603 217.15514168 -145.7080353 213.45259642 -145.67822266 209.73046875 C-145.68500746 208.30385221 -145.69391542 206.87724444 -145.70477295 205.45065308 C-145.72747107 201.59512018 -145.71876986 197.74025994 -145.70287752 193.88471603 C-145.69016893 189.83922335 -145.70197235 185.7937861 -145.70980835 181.74829102 C-145.71889055 174.95611287 -145.70695474 168.16420706 -145.68310547 161.37207031 C-145.65589672 153.53292674 -145.66471191 145.69443349 -145.6922375 137.85530567 C-145.71496852 131.11022046 -145.71810923 124.36533039 -145.70504415 117.62021923 C-145.69727147 113.59803301 -145.69614745 109.5761519 -145.71272659 105.5539856 C-145.72723064 101.77141183 -145.71704311 97.98967187 -145.68825531 94.20718765 C-145.68167589 92.82375596 -145.68348817 91.4402534 -145.69456863 90.05685043 C-145.75207835 82.14377405 -145.5156373 75.98396779 -140.03125 69.9140625 C-137.578125 67.875 -137.578125 67.875 -134.78125 66.2890625 C-133.64171875 65.63164063 -132.5021875 64.97421875 -131.328125 64.296875 C-129.89634866 63.5016756 -128.46399431 62.70751654 -127.03125 61.9140625 C-125.14011122 60.84987085 -123.2495301 59.78468783 -121.359375 58.71875 C-117.05396036 56.2968062 -112.74198002 53.88704305 -108.42578125 51.484375 C-102.83699491 48.36996867 -97.27037065 45.21917504 -91.71875 42.0390625 C-90.88158447 41.55953125 -90.04441895 41.08 -89.18188477 40.5859375 C-87.41864158 39.57544126 -85.65554365 38.56469153 -83.89257812 37.55371094 C-77.24157605 33.74243705 -70.58397836 29.9426732 -63.92700195 26.1418457 C-58.37713696 22.97253486 -52.82915989 19.80008527 -47.28877258 16.61422729 C-44.76795336 15.16496234 -42.24597204 13.71772629 -39.72390747 12.27062988 C-37.96251413 11.25888077 -36.20278631 10.24423377 -34.44311523 9.22949219 C-11.29565086 -4.04663781 -11.29565086 -4.04663781 0 0 Z " fill="#495295" transform="translate(171.03125,11.0859375)"/>
<path d="M0 0 C3.60733403 1.53671746 6.8996464 3.47105279 10.25 5.5 C12.30323996 6.7020714 14.35663212 7.90388286 16.41015625 9.10546875 C17.48539551 9.74274902 18.56063477 10.3800293 19.66845703 11.03662109 C24.72594091 14.01714911 29.83089119 16.91311879 34.93405151 19.81451416 C37.89626442 21.5004756 40.8543193 23.19369554 43.8125 24.88671875 C44.70146217 25.39531433 44.70146217 25.39531433 45.60838318 25.91418457 C49.1894474 27.9631642 52.76963803 30.01366467 56.34945679 32.06481934 C59.29501867 33.75233706 62.24115695 35.4388466 65.1875 37.125 C65.76506042 37.45562439 66.34262085 37.78624878 66.93768311 38.12689209 C75.36682567 42.95007904 83.82981541 47.70924595 92.3125 52.4375 C99.2209989 56.29689083 106.12341062 60.16309966 112.9375 64.1875 C113.54053955 64.53804443 114.1435791 64.88858887 114.76489258 65.24975586 C117.65829066 66.98268863 119.08601041 68.12901562 121 71 C119.20963542 71.9765625 117.41927083 72.953125 115.62890625 73.9296875 C113.83381685 74.91410024 113.83381685 74.91410024 113 77 C112.89494776 78.74822059 112.85341288 80.50040403 112.84178162 82.2517395 C112.8319928 83.36515717 112.82220398 84.47857483 112.81211853 85.62573242 C112.80636307 86.85283936 112.8006076 88.07994629 112.79467773 89.34423828 C112.78477814 90.63200165 112.77487854 91.91976501 112.76467896 93.24655151 C112.73760073 96.78349039 112.716607 100.32044266 112.69667697 103.85742807 C112.67483538 107.55169531 112.64743777 111.24592116 112.62062073 114.94015503 C112.57066908 121.93826094 112.52573944 128.93638979 112.48259836 135.93454063 C112.43324709 143.9006054 112.37832115 151.86662865 112.32291877 159.83265328 C112.20906079 176.2217306 112.10223008 192.61084595 112 209 C106.30188606 206.76277972 100.97202389 203.95895594 95.56933594 201.08740234 C94.35231605 200.44361646 93.13221636 199.80562061 91.90917969 199.17333984 C90.13575834 198.25623309 88.37238281 197.31978182 86.609375 196.3828125 C85.55717773 195.82996582 84.50498047 195.27711914 83.42089844 194.70751953 C81 193 81 193 80.27563477 190.84912109 C80.18467529 190.23891113 80.09371582 189.62870117 80 189 C77.85932543 187.925975 77.85932543 187.925975 75 187 C72.06743477 185.5710245 69.19440566 184.02815915 66.3125 182.5 C65.48685547 182.06510254 64.66121094 181.63020508 63.81054688 181.18212891 C59.46158672 178.87968968 55.14218521 176.53365039 50.85546875 174.1171875 C50.03973389 173.65763672 49.22399902 173.19808594 48.38354492 172.72460938 C46.81905127 171.83876272 45.25788119 170.94701514 43.70043945 170.04882812 C42.99491943 169.64857422 42.28939941 169.24832031 41.5625 168.8359375 C40.94503906 168.48063965 40.32757813 168.1253418 39.69140625 167.75927734 C37.85285403 166.79523387 37.85285403 166.79523387 35 167 C33.58823264 168.53430763 33.58823264 168.53430763 32.3125 170.5625 C25.40338035 180.1472101 15.84573588 186.27332323 4.20703125 188.71484375 C-8.95762689 190.41576418 -21.06131986 188.12458594 -31.72265625 179.96875 C-40.5028846 172.3782953 -47.63779154 162.81567775 -49 151 C-49.97168582 135.91497581 -47.26813799 124.89332482 -37.41015625 113.09765625 C-29.46000087 104.54890093 -19.39289483 99.73783691 -7.80078125 98.71875 C7.02212417 98.2977444 18.03258104 102.90899109 28.80078125 112.78125 C34 118.02664298 34 118.02664298 34 121 C41.85593188 118.18220585 48.84862344 114.3994903 56 110.125 C57.01578125 109.52558594 58.0315625 108.92617187 59.078125 108.30859375 C65.40380972 104.56995188 71.70339316 100.78736722 78 97 C76.36867711 92.65624082 74.16782102 89.2535929 71.3125 85.625 C70.6333252 84.75911255 70.6333252 84.75911255 69.94042969 83.87573242 C54.30122702 64.17111513 31.72106343 52.83661455 7 49 C-18.88568375 46.74380628 -44.05831047 53.11409923 -64.37841797 69.62304688 C-80.73000253 83.50786123 -91.80767958 101.14873433 -97 122 C-97.22429687 122.82886719 -97.44859375 123.65773438 -97.6796875 124.51171875 C-102.15437841 144.03485647 -98.69939723 164.33283363 -91.3046875 182.57421875 C-90.21163296 185.44430506 -89.54905643 188.00069117 -89 191 C-95.95899241 195.07829728 -102.92559998 199.14325006 -109.89990234 203.1953125 C-112.62108134 204.7794167 -115.33640524 206.373036 -118.05078125 207.96875 C-119.47092175 208.79241269 -120.89146018 209.61538986 -122.3125 210.4375 C-122.95638672 210.820271 -123.60027344 211.20304199 -124.26367188 211.59741211 C-125.79979337 212.47732432 -127.39633917 213.25020891 -129 214 C-129.99 213.67 -130.98 213.34 -132 213 C-132.14025132 194.99764104 -132.24601055 176.99542416 -132.31087303 158.99263668 C-132.34179232 150.63333291 -132.38393547 142.27436889 -132.45263672 133.9152832 C-132.51249838 126.6282532 -132.55116318 119.34146928 -132.56453097 112.05420023 C-132.57234351 108.19660477 -132.59066283 104.3397132 -132.63438034 100.48234367 C-132.67522944 96.84848618 -132.68764497 93.21561971 -132.67864609 89.58155441 C-132.68107344 87.61826153 -132.71329809 85.65507564 -132.746521 83.69206238 C-132.67898098 74.0360666 -132.67898098 74.0360666 -129.10241699 69.75747681 C-126.76193529 67.48784695 -124.35847396 65.67263488 -121.4453125 64.18359375 C-120.59606201 63.73709473 -119.74681152 63.2905957 -118.87182617 62.83056641 C-117.96537354 62.37085449 -117.0589209 61.91114258 -116.125 61.4375 C-114.1427992 60.39521445 -112.16238996 59.34951609 -110.18359375 58.30078125 C-109.16249512 57.76146973 -108.14139648 57.2221582 -107.08935547 56.66650391 C-102.04724595 53.94661774 -97.12017839 51.03730794 -92.1875 48.125 C-83.94793261 43.27847133 -75.66175849 38.53010665 -67.3125 33.875 C-59.71058402 29.63603299 -52.11954901 25.38102137 -44.5625 21.0625 C-43.73379395 20.59150879 -42.90508789 20.12051758 -42.05126953 19.63525391 C-37.65745463 17.1294129 -33.29133395 14.58524928 -28.95747375 11.97679138 C-26.61529366 10.5694552 -24.26542651 9.17523087 -21.91500854 7.78170776 C-20.22881782 6.77467595 -18.55380642 5.7489995 -16.87915039 4.72290039 C-6.67352081 -1.31723069 -6.67352081 -1.31723069 0 0 Z " fill="#7779B3" transform="translate(166,18)"/>
<path d="M0 0 C0.64646484 0.22461914 1.29292969 0.44923828 1.95898438 0.68066406 C20.67239467 7.39754644 35.97620887 20.6519523 47 37 C47 37.66 47 38.32 47 39 C46.29504395 39.39268066 45.59008789 39.78536133 44.86376953 40.18994141 C41.6165818 41.99996267 38.37078565 43.81246577 35.125 45.625 C34.01640625 46.24246094 32.9078125 46.85992187 31.765625 47.49609375 C30.12207031 48.41455078 30.12207031 48.41455078 28.4453125 49.3515625 C27.35895508 49.95774414 26.27259766 50.56392578 25.15332031 51.18847656 C21.3921065 53.34922343 17.74065641 55.66135852 14.11669922 58.04443359 C12 59 12 59 9.8190918 58.75488281 C7.41773943 57.75837476 6.498121 56.44252347 4.9375 54.375 C-1.73157325 46.403597 -11.06287324 41.52616789 -21.125 39.3125 C-37.00857161 38.03156681 -50.17873128 39.90325088 -63 50 C-71.67896983 57.8351811 -78.61931851 69.59859095 -79.40625 81.43359375 C-79.85041049 95.7309913 -77.62009708 107.79303271 -67.96484375 119.01171875 C-59.12289135 127.95914175 -48.59978265 134.50146056 -35.765625 135.16796875 C-21.08947551 135.24950291 -7.37256378 131.85799661 3.66796875 121.48828125 C5.76291738 119.14759085 7.39375185 116.69849688 9 114 C13.39058216 114.59820139 16.84159025 116.31904497 20.65625 118.45703125 C21.5933783 118.97338387 21.5933783 118.97338387 22.54943848 119.50016785 C23.86564818 120.22741871 25.18003258 120.95798178 26.49267578 121.69165039 C28.48911359 122.80642125 30.49200508 123.90882077 32.49609375 125.00976562 C33.77904965 125.72062584 35.06161497 126.43219153 36.34375 127.14453125 C37.23302185 127.63382866 37.23302185 127.63382866 38.14025879 128.13301086 C41.70815671 130.13681628 44.87417697 132.36157979 48 135 C31.00453144 159.01437635 10.31931775 173.86017218 -19 179 C-45.37442804 180.66750862 -69.42293385 175.39209417 -90 158 C-90.81339844 157.33226562 -91.62679687 156.66453125 -92.46484375 155.9765625 C-109.40240933 141.51830159 -121.16152637 119.26851183 -123 97 C-124.23461437 70.80302629 -118.63491264 46.52750998 -101.14453125 26.35546875 C-100.08298828 25.18951172 -100.08298828 25.18951172 -99 24 C-98.42636719 23.35675781 -97.85273437 22.71351562 -97.26171875 22.05078125 C-72.58794508 -4.15406191 -33.35029586 -11.76793476 0 0 Z " fill="#FCFCFC" transform="translate(193,75)"/>
<path d="M0 0 C0.99 0.495 0.99 0.495 2 1 C1.505 66.34 1.505 66.34 1 133 C-4.69897223 130.72041111 -10.01536139 127.96566072 -15.43066406 125.08740234 C-16.64768395 124.44361646 -17.86778364 123.80562061 -19.09082031 123.17333984 C-20.86424166 122.25623309 -22.62761719 121.31978182 -24.390625 120.3828125 C-25.44282227 119.82996582 -26.49501953 119.27711914 -27.57910156 118.70751953 C-30 117 -30 117 -30.72436523 114.84912109 C-30.81532471 114.23891113 -30.90628418 113.62870117 -31 113 C-33.14067457 111.925975 -33.14067457 111.925975 -36 111 C-38.93256523 109.5710245 -41.80559434 108.02815915 -44.6875 106.5 C-45.51314453 106.06510254 -46.33878906 105.63020508 -47.18945312 105.18212891 C-51.53841328 102.87968968 -55.85781479 100.53365039 -60.14453125 98.1171875 C-61.36813354 97.42786133 -61.36813354 97.42786133 -62.61645508 96.72460938 C-64.18094873 95.83876272 -65.74211881 94.94701514 -67.29956055 94.04882812 C-68.35784058 93.44844727 -68.35784058 93.44844727 -69.4375 92.8359375 C-70.05496094 92.48063965 -70.67242187 92.1253418 -71.30859375 91.75927734 C-73.14714597 90.79523387 -73.14714597 90.79523387 -76 91 C-77.41176736 92.53430763 -77.41176736 92.53430763 -78.6875 94.5625 C-85.59661965 104.1472101 -95.15426412 110.27332323 -106.79296875 112.71484375 C-119.95762689 114.41576418 -132.06131986 112.12458594 -142.72265625 103.96875 C-151.5028846 96.3782953 -158.63779154 86.81567775 -160 75 C-160.97168582 59.91497581 -158.26813799 48.89332482 -148.41015625 37.09765625 C-140.46000087 28.54890093 -130.39289483 23.73783691 -118.80078125 22.71875 C-103.97787583 22.2977444 -92.96741896 26.90899109 -82.19921875 36.78125 C-77 42.02664298 -77 42.02664298 -77 45 C-69.14406812 42.18220585 -62.15137656 38.3994903 -55 34.125 C-53.98421875 33.52558594 -52.9684375 32.92617187 -51.921875 32.30859375 C-49.91444578 31.12215161 -47.91043673 29.92990058 -45.91015625 28.73144531 C-43.97028509 27.57728707 -42.01959716 26.4411183 -40.05859375 25.32324219 C-39.15238281 24.80149414 -38.24617188 24.27974609 -37.3125 23.7421875 C-36.10013672 23.05552002 -36.10013672 23.05552002 -34.86328125 22.35498047 C-32.69516846 21.0542991 -32.69516846 21.0542991 -32 18 C-29.48730469 16.33007813 -29.48730469 16.33007813 -26.171875 14.53125 C-25.29284515 14.04887878 -25.29284515 14.04887878 -24.39605713 13.5567627 C-22.51872846 12.52895565 -20.63468723 11.51423969 -18.75 10.5 C-16.88125313 9.48291944 -15.01394386 8.46323788 -13.14678955 7.4432373 C-11.44354541 6.51463918 -9.73699115 5.59212018 -8.03027344 4.66992188 C-6.05954965 3.5838962 -4.1212536 2.43604229 -2.22753906 1.22070312 C-1.49245117 0.81787109 -0.75736328 0.41503906 0 0 Z " fill="#555E9F" transform="translate(277,94)"/>
<path d="M0 0 C3.77018176 1.80273254 7.36177029 3.8073877 10.96875 5.9140625 C11.80390137 6.39713867 12.63905273 6.88021484 13.49951172 7.37792969 C17.42312575 9.65048694 21.34033056 11.93340474 25.24707031 14.23486328 C32.92119252 18.75259799 40.67018596 23.11520544 48.46875 27.4140625 C58.06763855 32.71044916 67.573295 38.14039318 77.0222168 43.69946289 C85.38726239 48.60882124 93.83899349 53.35366508 102.33447266 58.03344727 C105.22686278 59.63650794 108.10080405 61.26771288 110.96875 62.9140625 C111.95794434 63.46980957 112.94713867 64.02555664 113.96630859 64.59814453 C114.93004395 65.16774902 115.8937793 65.73735352 116.88671875 66.32421875 C118.17292114 67.07070679 118.17292114 67.07070679 119.48510742 67.83227539 C123.83118178 71.47515125 126.55648593 75.24274523 127.43738651 80.95065212 C127.62600153 84.66560014 127.65700866 88.36386278 127.6315918 92.08178711 C127.64001616 93.5067834 127.65054622 94.93176854 127.66300964 96.35673523 C127.68996274 100.20818194 127.68538248 104.05897834 127.67330909 107.9104774 C127.66615498 111.13354383 127.67469251 114.35649173 127.68321449 117.5795489 C127.70313693 125.18684981 127.69763163 132.79383624 127.67553711 140.40112305 C127.65317767 148.23237299 127.67077292 156.06279838 127.70858639 163.89397043 C127.73988015 170.633983 127.7477183 177.37374114 127.73663265 184.11381727 C127.73016417 188.13219164 127.73205789 192.15009056 127.75595665 196.16840935 C127.77729653 199.94862601 127.76911929 203.727685 127.73886299 207.50782967 C127.7325655 208.88923465 127.73632395 210.27073066 127.75127411 211.65206909 C127.83755086 220.33202884 127.00740818 226.39291964 120.96875 232.9140625 C118.16162109 235.15063477 118.16162109 235.15063477 115.2421875 236.73046875 C114.14237549 237.34100098 113.04256348 237.9515332 111.90942383 238.58056641 C110.72097657 239.21277321 109.5324155 239.84476612 108.34375 240.4765625 C107.09599289 241.16096298 105.84951433 241.84769898 104.60424805 242.53662109 C102.01975884 243.96420014 99.43009813 245.38166035 96.83642578 246.79248047 C91.34999293 249.78793583 85.93979233 252.91503133 80.52410889 256.03591919 C71.12973621 261.44307072 61.68689245 266.76225985 52.21875 272.0390625 C42.87975197 277.24475776 33.6255725 282.58266898 24.40063477 287.98754883 C18.50711933 291.43879542 12.60241479 294.86670683 6.65625 298.2265625 C6.01034912 298.59370361 5.36444824 298.96084473 4.69897461 299.33911133 C-1.96188133 303.08179104 -7.45165623 303.90611036 -15.03125 302.9140625 C-20.02629456 301.16611587 -24.47873608 298.57145782 -29.03125 295.9140625 C-29.87703613 295.42566895 -30.72282227 294.93727539 -31.59423828 294.43408203 C-36.61403376 291.53205403 -41.61704379 288.60252209 -46.61328125 285.66015625 C-52.87031461 281.98856372 -59.19061514 278.43878685 -65.53125 274.9140625 C-74.70622056 269.80934155 -83.792352 264.57210591 -92.8425293 259.24975586 C-101.70408704 254.0591135 -110.67359426 249.0751373 -119.68505859 244.15063477 C-122.8154197 242.43019821 -125.92730957 240.68167437 -129.03125 238.9140625 C-130.04106934 238.34800293 -131.05088867 237.78194336 -132.09130859 237.19873047 C-133.05504395 236.62912598 -134.0187793 236.05952148 -135.01171875 235.47265625 C-135.86016357 234.97950928 -136.7086084 234.4863623 -137.58276367 233.97827148 C-141.90617258 230.33339938 -144.62456526 226.56715247 -145.49716854 220.87454891 C-145.68142603 217.15514168 -145.7080353 213.45259642 -145.67822266 209.73046875 C-145.68500746 208.30385221 -145.69391542 206.87724444 -145.70477295 205.45065308 C-145.72747107 201.59512018 -145.71876986 197.74025994 -145.70287752 193.88471603 C-145.69016893 189.83922335 -145.70197235 185.7937861 -145.70980835 181.74829102 C-145.71889055 174.95611287 -145.70695474 168.16420706 -145.68310547 161.37207031 C-145.65589672 153.53292674 -145.66471191 145.69443349 -145.6922375 137.85530567 C-145.71496852 131.11022046 -145.71810923 124.36533039 -145.70504415 117.62021923 C-145.69727147 113.59803301 -145.69614745 109.5761519 -145.71272659 105.5539856 C-145.72723064 101.77141183 -145.71704311 97.98967187 -145.68825531 94.20718765 C-145.68167589 92.82375596 -145.68348817 91.4402534 -145.69456863 90.05685043 C-145.75207835 82.14377405 -145.5156373 75.98396779 -140.03125 69.9140625 C-137.578125 67.875 -137.578125 67.875 -134.78125 66.2890625 C-133.64171875 65.63164063 -132.5021875 64.97421875 -131.328125 64.296875 C-129.89634866 63.5016756 -128.46399431 62.70751654 -127.03125 61.9140625 C-125.14011122 60.84987085 -123.2495301 59.78468783 -121.359375 58.71875 C-117.05396036 56.2968062 -112.74198002 53.88704305 -108.42578125 51.484375 C-102.83699491 48.36996867 -97.27037065 45.21917504 -91.71875 42.0390625 C-90.88158447 41.55953125 -90.04441895 41.08 -89.18188477 40.5859375 C-87.41864158 39.57544126 -85.65554365 38.56469153 -83.89257812 37.55371094 C-77.24157605 33.74243705 -70.58397836 29.9426732 -63.92700195 26.1418457 C-58.37713696 22.97253486 -52.82915989 19.80008527 -47.28877258 16.61422729 C-44.76795336 15.16496234 -42.24597204 13.71772629 -39.72390747 12.27062988 C-37.96251413 11.25888077 -36.20278631 10.24423377 -34.44311523 9.22949219 C-11.29565086 -4.04663781 -11.29565086 -4.04663781 0 0 Z M-25.96875 14.0390625 C-27.21207313 14.77391002 -28.45655989 15.50679197 -29.70214844 16.23779297 C-31.61319138 17.35991464 -33.52328109 18.48341711 -35.42959595 19.61355591 C-41.48405564 23.20263829 -47.62437741 26.62905719 -53.78125 30.0390625 C-62.92199813 35.13064172 -71.97493929 40.35774341 -80.99731445 45.65576172 C-88.27150069 49.91629682 -95.60462292 54.06122359 -102.96875 58.1640625 C-106.0402533 59.88091021 -109.11102695 61.59904894 -112.18115234 63.31835938 C-114.01908463 64.34737474 -115.85788808 65.37483641 -117.69775391 66.40039062 C-120.06621917 67.72588315 -122.42498637 69.06703083 -124.78125 70.4140625 C-125.79046509 70.97335449 -125.79046509 70.97335449 -126.82006836 71.54394531 C-127.7521814 72.08293457 -127.7521814 72.08293457 -128.703125 72.6328125 C-129.2300293 72.93123047 -129.75693359 73.22964844 -130.29980469 73.53710938 C-134.14048757 76.59145955 -136.66044836 78.75375156 -137.50853539 83.69475365 C-137.70490487 87.28006324 -137.74093165 90.83673358 -137.72583008 94.42749023 C-137.73752688 95.80618114 -137.75129906 97.18485577 -137.76698303 98.56350708 C-137.80251429 102.2971335 -137.8061044 106.03013813 -137.80167222 109.76390719 C-137.80048059 112.88517441 -137.81394277 116.00631323 -137.82705516 119.1275478 C-137.85735754 126.49308266 -137.86071749 133.85830107 -137.84790039 141.22387695 C-137.83521756 148.81334486 -137.87040652 156.40154139 -137.92878419 163.99076694 C-137.97713942 170.51586152 -137.99445351 177.04054923 -137.98730963 183.56581837 C-137.98343443 187.45916025 -137.99147416 191.35154432 -138.02991676 195.24471855 C-138.06482937 198.90697937 -138.06089155 202.56720965 -138.02757835 206.22946548 C-138.01907527 208.20695169 -138.049955 210.18448557 -138.08215332 212.16172791 C-138.07519694 218.61990118 -138.07519694 218.61990118 -135.28997612 224.24105167 C-133.28431399 226.03159099 -131.31505261 227.50205346 -129.03125 228.9140625 C-128.03931641 229.55738525 -127.04738281 230.20070801 -126.02539062 230.86352539 C-125.08888672 231.3661792 -124.15238281 231.86883301 -123.1875 232.38671875 C-122.11870605 232.96881104 -121.04991211 233.55090332 -119.94873047 234.15063477 C-118.82096191 234.75319092 -117.69319336 235.35574707 -116.53125 235.9765625 C-114.10401528 237.29444495 -111.68096526 238.6199431 -109.2578125 239.9453125 C-108.64825714 240.27757339 -108.03870178 240.60983429 -107.41067505 240.9521637 C-101.50776223 244.17812615 -95.70123742 247.56090033 -89.90625 250.9765625 C-81.8350987 255.72276779 -73.71309593 260.36132769 -65.53125 264.9140625 C-57.12209813 269.59391547 -48.77270641 274.36246889 -40.46875 279.2265625 C-39.47431885 279.80680176 -38.4798877 280.38704102 -37.45532227 280.98486328 C-33.03058078 283.56722472 -28.61419979 286.16104569 -24.21875 288.79296875 C-22.80238151 289.62550748 -21.38573687 290.4575767 -19.96875 291.2890625 C-19.35636475 291.66458252 -18.74397949 292.04010254 -18.11303711 292.42700195 C-13.83639751 294.90787249 -10.9217299 295.68492627 -6.03125 294.9140625 C2.08474811 291.56291246 9.62365049 286.89248987 17.15625 282.4140625 C25.60235497 277.43904151 34.0935069 272.56058642 42.65625 267.7890625 C52.81841199 262.12359852 62.93569389 256.3859119 73.02832031 250.59765625 C76.39924567 248.66757478 79.77364461 246.74361912 83.1484375 244.8203125 C85.03246518 243.74599013 86.91643452 242.67156553 88.80038452 241.59710693 C90.01683726 240.90359705 91.23348481 240.21042876 92.4503479 239.51763916 C96.29636201 237.3277069 100.13512525 235.12560632 103.96875 232.9140625 C105.41048584 232.08793457 105.41048584 232.08793457 106.88134766 231.24511719 C107.76226074 230.73110352 108.64317383 230.21708984 109.55078125 229.6875 C110.31237549 229.24583496 111.07396973 228.80416992 111.85864258 228.34912109 C115.3611753 225.96709086 117.61661266 223.97047452 118.96875 219.9140625 C119.07200543 218.05260933 119.11673623 216.1876972 119.12937927 214.32342529 C119.1394249 213.15985001 119.14947052 211.99627472 119.15982056 210.79743958 C119.16856705 208.88048531 119.16856705 208.88048531 119.17749023 206.92480469 C119.18703035 205.56627665 119.19692158 204.20775103 119.20713806 202.84922791 C119.23850454 198.3864937 119.25878752 193.92374097 119.27734375 189.4609375 C119.28228973 188.32145645 119.28228973 188.32145645 119.28733563 187.15895557 C119.31811509 179.99275581 119.34481821 172.82655178 119.36175442 165.66030502 C119.3836594 156.49962499 119.42563122 147.33953117 119.49519199 138.17908549 C119.54246274 131.73481088 119.56669199 125.29069426 119.5739513 118.84625173 C119.57890291 114.99878796 119.59393539 111.15198516 119.6336956 107.30471039 C119.67063103 103.6830914 119.67895014 100.06250898 119.66568947 96.44073677 C119.6657689 94.48465313 119.69557472 92.52864075 119.72637939 90.57279968 C119.69723821 83.05636108 119.69723821 83.05636108 116.09886169 76.69172668 C113.44446124 74.1046883 110.59986785 72.18218775 107.3203125 70.44140625 C105.70769531 69.56838867 105.70769531 69.56838867 104.0625 68.67773438 C102.9178125 68.07509766 101.773125 67.47246094 100.59375 66.8515625 C98.76523783 65.86718867 96.93983512 64.87721866 95.11468506 63.8866272 C93.8741629 63.21339835 92.6328247 62.54167108 91.39068604 61.87142944 C85.50318819 58.68748941 79.73068911 55.3194398 73.96875 51.9140625 C64.34335691 46.25013254 54.61562816 40.79077581 44.84179688 35.38769531 C37.85773955 31.52490308 30.89694715 27.62618612 23.96875 23.6640625 C22.71022217 22.94790771 22.71022217 22.94790771 21.42626953 22.21728516 C17.15669011 19.77859744 12.92582825 17.29104327 8.73046875 14.7265625 C7.87775391 14.21254883 7.02503906 13.69853516 6.14648438 13.16894531 C4.54106313 12.19876722 2.94391762 11.21469394 1.35742188 10.21386719 C-2.52174335 7.88325365 -6.07209361 5.98677528 -10.75512695 6.30859375 C-16.29311235 7.78174658 -21.10654089 11.09635492 -25.96875 14.0390625 Z " fill="#1F212B" transform="translate(171.03125,11.0859375)"/>
<path d="M0 0 C9.39300689 7.54370144 18.25378808 16.38318028 22.63598633 27.81152344 C15.67734919 32.65783653 8.43002931 36.83930849 1.01098633 40.93652344 C-1.16882241 42.14724268 -3.34851315 43.3581744 -5.52807617 44.56933594 C-6.54289063 45.12911133 -7.55770508 45.68888672 -8.60327148 46.265625 C-10.89483274 47.54880203 -13.14166698 48.88081849 -15.38745117 50.24121094 C-18.36401367 51.81152344 -18.36401367 51.81152344 -22.36401367 51.81152344 C-23.82104492 50.27246094 -23.82104492 50.27246094 -25.17651367 48.18652344 C-31.59227384 39.11486255 -40.87080213 33.09302746 -51.89916992 31.09667969 C-65.22525514 29.55499313 -77.24999575 31.55602029 -88.08276367 39.83886719 C-96.06718074 46.74320044 -102.476756 55.16199799 -104.36401367 65.81152344 C-105.06832511 80.94602979 -103.31210647 93.13518987 -93.17651367 105.06152344 C-84.29531607 114.41247033 -73.82148564 118.7703151 -60.98901367 119.24902344 C-49.2743596 118.92940654 -37.48945761 114.82372388 -29.03979492 106.53027344 C-26.22398107 103.41619564 -23.69365705 100.30598851 -21.36401367 96.81152344 C-17.47620783 97.4088743 -14.55889587 98.58348735 -11.11791992 100.47167969 C-9.6233728 101.28572266 -9.6233728 101.28572266 -8.09863281 102.11621094 C-7.0518335 102.69628906 -6.00503418 103.27636719 -4.92651367 103.87402344 C-3.85715576 104.463125 -2.78779785 105.05222656 -1.68603516 105.65917969 C0.44495515 106.83498739 2.57446511 108.01348254 4.70239258 109.19482422 C7.21953855 110.58201968 9.74887043 111.93814269 12.29223633 113.27636719 C13.55286704 113.95435476 14.8133047 114.63270151 16.07348633 115.31152344 C17.14469727 115.87871094 18.2159082 116.44589844 19.31958008 117.03027344 C21.63598633 118.81152344 21.63598633 118.81152344 22.69458008 121.20605469 C22.50691217 129.55102081 11.27995867 139.14916682 5.63598633 144.81152344 C-13.84080685 162.90142422 -39.49433435 172.10631105 -66.01635742 171.15527344 C-94.2103291 169.35743421 -117.39072203 155.78657711 -135.91479492 134.87792969 C-152.10242674 114.61111792 -158.49556331 89.47692432 -156.36401367 63.81152344 C-153.00312945 38.16585731 -140.03297969 14.58799395 -119.66381836 -1.53417969 C-83.5683897 -28.48172896 -35.53867239 -27.8430257 0 0 Z M-130.17651367 13.68652344 C-137.03480716 21.66070014 -141.99755749 30.56118312 -146.23901367 40.12402344 C-146.52534668 40.76936035 -146.81167969 41.41469727 -147.10668945 42.07958984 C-155.27362653 61.26673546 -155.16497253 87.10911118 -147.62963867 106.48339844 C-137.35741236 131.1852919 -120.12134322 150.04196455 -95.36401367 160.81152344 C-73.96733022 169.04519641 -50.97426929 169.43688542 -29.36401367 161.81152344 C-28.71754883 161.5869043 -28.07108398 161.36228516 -27.4050293 161.13085938 C-8.59540398 154.37944214 6.45447005 141.12072496 17.63598633 124.81152344 C17.96598633 123.82152344 18.29598633 122.83152344 18.63598633 121.81152344 C17.79414795 121.3477832 16.95230957 120.88404297 16.08496094 120.40625 C12.93312714 118.66982186 9.78169208 116.93267112 6.63037109 115.1953125 C5.27175421 114.4464203 3.91303223 113.69771872 2.55419922 112.94921875 C0.59029276 111.86737531 -1.37322268 110.78482505 -3.33666992 109.70214844 C-3.93488052 109.37281311 -4.53309113 109.04347778 -5.14942932 108.7041626 C-10.03351502 106.00958235 -10.03351502 106.00958235 -12.25289917 104.67956543 C-16.03666443 102.37623573 -16.03666443 102.37623573 -20.36401367 101.81152344 C-21.89429223 103.58324383 -21.89429223 103.58324383 -23.36401367 105.87402344 C-29.70707613 114.384968 -40.26170011 120.14039083 -50.55151367 122.56152344 C-66.466555 123.6051327 -79.48930596 121.95035576 -92.36401367 111.81152344 C-101.04438007 103.97508155 -108.05497249 92.1622712 -108.73510742 80.30761719 C-109.12576971 64.27306545 -105.65302377 51.90477684 -94.55932617 39.85058594 C-84.10076538 29.91278336 -71.7921954 26.3847101 -57.76245117 26.62402344 C-45.75518063 27.28649354 -33.72896362 32.31763343 -25.24291992 40.97558594 C-23.56551386 42.88587131 -21.9389298 44.81629207 -20.36401367 46.81152344 C-16.30746364 46.22311288 -13.45243061 44.91909103 -9.94213867 42.82714844 C-8.91604492 42.22128906 -7.88995117 41.61542969 -6.83276367 40.99121094 C-5.77057617 40.35441406 -4.70838867 39.71761719 -3.61401367 39.06152344 C-1.51555631 37.81588742 0.58339461 36.57108247 2.68286133 35.32714844 C3.68639648 34.73095703 4.68993164 34.13476562 5.72387695 33.52050781 C9.65592315 31.21296896 13.63363283 28.99439433 17.63598633 26.81152344 C12.78383771 11.74729458 -4.67639925 -0.6306277 -18.17651367 -7.56347656 C-31.43469566 -14.05352983 -45.27777448 -17.36697336 -59.98901367 -17.37597656 C-61.01897461 -17.38822266 -62.04893555 -17.40046875 -63.11010742 -17.41308594 C-89.58097223 -17.46303097 -112.31415727 -5.12238519 -130.17651367 13.68652344 Z " fill="#272934" transform="translate(222.364013671875,87.1884765625)"/>
<path d="M0 0 C4.46395344 3.63314379 8.79415765 7.19123647 12 12 C11.92016602 14.00244141 11.92016602 14.00244141 11 16 C8.97241211 17.51708984 8.97241211 17.51708984 6.27734375 18.9609375 C5.27646729 19.50741943 4.27559082 20.05390137 3.24438477 20.61694336 C2.15311279 21.19710205 1.06184082 21.77726074 -0.0625 22.375 C-2.36825446 23.63215965 -4.67291655 24.89132458 -6.9765625 26.15234375 C-7.8597541 26.63300041 -7.8597541 26.63300041 -8.76078796 27.12336731 C-14.55387973 30.28126184 -20.25082126 33.59289961 -25.9375 36.9375 C-27.89431695 38.08500093 -29.8513513 39.23213122 -31.80859375 40.37890625 C-32.80101074 40.96043457 -33.79342773 41.54196289 -34.81591797 42.14111328 C-40.69761203 45.57488253 -46.59902378 48.974508 -52.5 52.375 C-53.37239822 52.87784012 -53.37239822 52.87784012 -54.26242065 53.39083862 C-57.50781976 55.26135951 -60.75368154 57.13107518 -64 59 C-69.16259035 54.10541297 -69.79445571 48.19099081 -70.23828125 41.30078125 C-70.50699238 26.86109379 -66.73663586 16.05107079 -56.75 5.3125 C-41.5580065 -9.04659912 -17.66957486 -11.8133729 0 0 Z " fill="#7779B4" transform="translate(187,124)"/>
<path d="M0 0 C0.98871094 0.57878906 1.97742188 1.15757812 2.99609375 1.75390625 C3.78234131 2.1809082 4.56858887 2.60791016 5.37866211 3.04785156 C8.27927654 4.63333831 11.13732183 6.28175164 13.99609375 7.94140625 C22.53715488 12.84143839 31.10650208 17.51709913 39.99609375 21.75390625 C33.9568022 33.59091769 24.81855848 38.85938515 12.76953125 43.63671875 C2.25024159 46.81488711 -9.11663473 45.00568459 -19.00390625 40.75390625 C-27.24757311 36.24674561 -35.07964372 29.44614776 -39.00390625 20.75390625 C-34.70757607 18.02437594 -30.36307616 15.38123893 -26.00390625 12.75390625 C-25.08770508 12.19719238 -24.17150391 11.64047852 -23.22753906 11.06689453 C-20.18679653 9.23145121 -17.12885686 7.42785705 -14.06640625 5.62890625 C-13.07181396 5.02409424 -12.07722168 4.41928223 -11.05249023 3.79614258 C-3.94865731 -0.32349208 -3.94865731 -0.32349208 0 0 Z " fill="#495296" transform="translate(161.00390625,162.24609375)"/>
<path d="M0 0 C1.31271105 2.62542211 1.12589711 4.56282198 1.12698364 7.50402832 C1.12980347 8.67345474 1.13262329 9.84288116 1.13552856 11.04774475 C1.13350433 12.33716476 1.1314801 13.62658478 1.12939453 14.95507812 C1.13074899 16.32156928 1.13252918 17.68806007 1.13470459 19.05455017 C1.13927357 22.7713987 1.13749155 26.48821956 1.1343255 30.20506859 C1.13179915 34.08922782 1.13414021 37.97338463 1.13571167 41.85754395 C1.13753256 48.38110786 1.13512917 54.90466046 1.13037109 61.42822266 C1.12492863 68.97744862 1.12669134 76.52664759 1.1321975 84.0758729 C1.13673092 90.54977859 1.13737805 97.02367614 1.13475883 103.49758291 C1.13319732 107.36753882 1.13299885 111.23748203 1.13629532 115.10743713 C1.13917735 118.74516124 1.1371922 122.38285043 1.13140106 126.02057076 C1.12944124 127.99779843 1.13242456 129.97502904 1.13552856 131.95225525 C1.13270874 133.12168167 1.12988892 134.29110809 1.12698364 135.49597168 C1.12660662 136.51656425 1.12622959 137.53715683 1.12584114 138.58867645 C1 141 1 141 0 143 C-4.75 141.125 -4.75 141.125 -7 140 C-7.00331015 139.30608973 -7.00662029 138.61217945 -7.01003075 137.89724159 C-7.09116967 121.03081262 -7.18323191 104.16448253 -7.28752708 87.29818153 C-7.33769818 79.14184072 -7.38414046 70.98551018 -7.421875 62.82910156 C-7.45476496 55.72188784 -7.49457937 48.61475286 -7.54279006 41.50762594 C-7.56808502 37.74272383 -7.5898573 33.97787416 -7.60334396 30.2129097 C-7.6185109 26.01503388 -7.6491337 21.81740999 -7.68115234 17.61962891 C-7.68331253 16.36446976 -7.68547272 15.10931061 -7.68769836 13.81611633 C-7.70444359 12.10812614 -7.70444359 12.10812614 -7.7215271 10.3656311 C-7.72705786 9.37193827 -7.73258862 8.37824543 -7.73828697 7.35444069 C-7.7728968 4.81066354 -7.7728968 4.81066354 -10 3 C-3.375 -1.125 -3.375 -1.125 0 0 Z " fill="#555E9F" transform="translate(289,90)"/>
<path d="M0 0 C0 1.32 0 2.64 0 4 C-1.63195312 4.16435547 -1.63195312 4.16435547 -3.296875 4.33203125 C-27.19503165 6.84690811 -46.72208832 14.66839291 -62.83203125 33.23046875 C-74.33596675 47.92648726 -80.61795677 64.43180124 -80.5 83.125 C-80.49355469 84.20958496 -80.48710938 85.29416992 -80.48046875 86.41162109 C-79.98949133 108.28918751 -70.9186195 126.49858564 -55.921875 142.171875 C-47.68721054 150.04055437 -37.1851182 155.11114326 -27 160 C-27 160.99 -27 161.98 -27 163 C-38.29736757 161.89018303 -47.51819511 155.17083691 -56 148 C-56.97324219 147.22527344 -57.94648437 146.45054687 -58.94921875 145.65234375 C-72.5745733 134.25542503 -82.85067932 113.67047766 -84.81469727 96.17773438 C-86.35605378 78.06324153 -84.74499346 61.20395848 -76 45 C-75.5359375 44.12859375 -75.071875 43.2571875 -74.59375 42.359375 C-63.5605053 22.86730936 -46.17032145 9.38344955 -25 2.5 C-16.61568332 0.20863395 -8.65453666 -0.16261134 0 0 Z " fill="#2C2D37" transform="translate(163,78)"/>
<path d="M0 0 C0.99 0.33 1.98 0.66 3 1 C3.39782129 18.29802357 3.69722614 35.59461283 3.88080692 52.89616966 C3.96833016 60.93054827 4.0875409 68.96207913 4.2824707 76.99462891 C4.45237579 83.9993385 4.56168933 91.00198621 4.59950441 98.00869906 C4.62160367 101.71721299 4.67315271 105.41983142 4.79741096 109.12644577 C5.52277034 131.62387543 5.52277034 131.62387543 1.36597443 137.18675232 C-2.57878893 140.64467688 -6.91882578 142.57147746 -11.85371971 144.22391891 C-15.21384792 145.43891957 -18.1114031 147.22327976 -21.1796875 149.046875 C-23.41022347 150.28348001 -25.64197486 151.51789554 -27.875 152.75 C-28.99390625 153.37003906 -30.1128125 153.99007812 -31.265625 154.62890625 C-33.45854435 155.84293503 -35.65345842 157.05336942 -37.85058594 158.25976562 C-39.95088001 159.42030021 -42.04278146 160.59615435 -44.12597656 161.78710938 C-45.09760742 162.33689453 -46.06923828 162.88667969 -47.0703125 163.453125 C-48.35446045 164.19030762 -48.35446045 164.19030762 -49.66455078 164.94238281 C-52 166 -52 166 -56 166 C-56 165.01 -56 164.02 -56 163 C-54.95380493 162.42052612 -54.95380493 162.42052612 -53.88647461 161.8293457 C-50.56959403 159.99139821 -47.25343911 158.15214521 -43.9375 156.3125 C-43.03170197 155.8102037 -43.03170197 155.8102037 -42.10760498 155.29776001 C-35.47640399 151.61942828 -28.85405411 147.92740515 -22.26171875 144.1796875 C-20.70626343 143.29543091 -20.70626343 143.29543091 -19.11938477 142.39331055 C-17.16122974 141.27780878 -15.20461848 140.1595916 -13.24975586 139.03833008 C-11.9234314 138.28265747 -11.9234314 138.28265747 -10.5703125 137.51171875 C-9.42199951 136.85369263 -9.42199951 136.85369263 -8.25048828 136.18237305 C-5.88676752 134.94050934 -3.48380525 133.97495565 -1 133 C-1.00092179 132.32062913 -1.00184359 131.64125826 -1.00279331 130.94130039 C-1.02484812 114.43414369 -1.04141135 97.92699163 -1.05181217 81.41982365 C-1.05697522 73.437185 -1.06401809 65.45455617 -1.07543945 57.47192383 C-1.08538602 50.51676201 -1.09185336 43.56160731 -1.09408849 36.60643858 C-1.09539565 32.92148073 -1.09848179 29.23654322 -1.10573006 25.55159187 C-1.1137434 21.44462292 -1.11399116 17.33768963 -1.11352539 13.23071289 C-1.11712067 12.00001068 -1.12071594 10.76930847 -1.12442017 9.50131226 C-1.1230455 8.38926926 -1.12167084 7.27722626 -1.12025452 6.13148499 C-1.12117631 5.15899339 -1.1220981 4.18650179 -1.12304783 3.18454075 C-1 1 -1 1 0 0 Z " fill="#20232F" transform="translate(279,94)"/>
<path d="M0 0 C0 1.32 0 2.64 0 4 C-0.5669458 4.30591064 -1.1338916 4.61182129 -1.71801758 4.92700195 C-12.9768997 11.01126152 -24.1813791 17.15526053 -35.18286133 23.6965332 C-35.92173584 24.1318335 -36.66061035 24.56713379 -37.421875 25.015625 C-38.06737305 25.40008789 -38.71287109 25.78455078 -39.37792969 26.18066406 C-41 27 -41 27 -43 27 C-43 66.27 -43 105.54 -43 146 C-44.32 146 -45.64 146 -47 146 C-47.39796834 130.39708047 -47.69729469 114.79554019 -47.88080692 99.1887989 C-47.96830212 91.94119299 -48.08744865 84.69674773 -48.2824707 77.45117188 C-48.45247451 71.13205039 -48.56170999 64.81521716 -48.59950441 58.49387252 C-48.6215999 55.14697278 -48.68200853 51.81176861 -48.79741096 48.46600723 C-49.47075506 28.13069392 -49.47075506 28.13069392 -45.37050629 22.9352684 C-41.40236167 19.56616461 -37.03262629 17.59044969 -32.16906166 15.83898926 C-28.72675733 14.50751196 -25.70428905 12.63428583 -22.5390625 10.7421875 C-20.23556943 9.45099183 -17.93090021 8.16189192 -15.625 6.875 C-14.73554687 6.37226562 -14.73554687 6.37226562 -13.828125 5.859375 C-12.08941864 4.87662793 -10.34557058 3.90299497 -8.6015625 2.9296875 C-7.09070068 2.08253174 -7.09070068 2.08253174 -5.54931641 1.21826172 C-3 0 -3 0 0 0 Z " fill="#22242F" transform="translate(89,70)"/>
<path d="M0 0 C5.11985376 -0.37192137 8.96751314 0.8596939 13.5625 2.9375 C14.26213867 3.25178955 14.96177734 3.5660791 15.68261719 3.88989258 C28.16684284 9.70234612 37.66123221 18.0554743 47 28 C46.505 29.485 46.505 29.485 46 31 C41.82271004 30.29198475 40.57519732 28.31174072 37.9375 25.09375 C27.89299408 14.23920328 13.60628005 8.04749099 0 3 C0 2.01 0 1.02 0 0 Z " fill="#2E2F39" transform="translate(181,81)"/>
<path d="M0 0 C-1.50201668 4.18206321 -3.92615821 5.40154222 -7.75 7.4609375 C-8.60911987 7.93051376 -8.60911987 7.93051376 -9.4855957 8.40957642 C-11.31821155 9.40864543 -13.15858134 10.39226647 -15 11.375 C-16.80528968 12.35054425 -18.60881489 13.3292619 -20.41162109 14.30938721 C-22.16926494 15.26353845 -23.93032161 16.21139417 -25.69140625 17.15917969 C-29.53930712 19.30005724 -33.2421701 21.62435356 -36.9140625 24.05322266 C-39 25 -39 25 -41.2734375 24.65380859 C-41.84320313 24.43805176 -42.41296875 24.22229492 -43 24 C-41.52861221 20.13110339 -39.66417313 18.93466452 -36.046875 17.046875 C-35.04100342 16.51336426 -34.03513184 15.97985352 -32.9987793 15.43017578 C-31.39063354 14.59848877 -31.39063354 14.59848877 -29.75 13.75 C-27.56298117 12.59791117 -25.37677945 11.44426985 -23.19140625 10.2890625 C-21.5983667 9.45036621 -21.5983667 9.45036621 -19.97314453 8.59472656 C-15.05525942 5.95688574 -10.27998087 3.0926329 -5.51171875 0.1953125 C-3 -1 -3 -1 0 0 Z " fill="#252734" transform="translate(146,39)"/>
<path d="M0 0 C-0.35508864 2.66477071 -0.68542228 3.74055578 -2.79418945 5.47973633 C-3.94213989 6.14912231 -3.94213989 6.14912231 -5.11328125 6.83203125 C-6.3672168 7.56389648 -6.3672168 7.56389648 -7.64648438 8.31054688 C-8.52626953 8.80619141 -9.40605469 9.30183594 -10.3125 9.8125 C-11.18068359 10.32748047 -12.04886719 10.84246094 -12.94335938 11.37304688 C-19.4289873 15.09120808 -19.4289873 15.09120808 -22.28198242 14.63549805 C-22.84892822 14.42578369 -23.41587402 14.21606934 -24 14 C-22.80789755 10.42369265 -22.04980948 10.14056189 -18.88671875 8.30078125 C-17.6327832 7.57084961 -17.6327832 7.57084961 -16.35351562 6.82617188 C-15.47373047 6.32666016 -14.59394531 5.82714844 -13.6875 5.3125 C-12.81931641 4.80138672 -11.95113281 4.29027344 -11.05664062 3.76367188 C-4.50915804 0 -4.50915804 0 0 0 Z " fill="#212330" transform="translate(214,264)"/>
<path d="M0 0 C5.94 0.33 11.88 0.66 18 1 C18 2.32 18 3.64 18 5 C11.8894576 5.11269443 6.04829486 4.89604368 0 4 C0 2.68 0 1.36 0 0 Z " fill="#2D2F38" transform="translate(145,241)"/>
<path d="M0 0 C-1.42816535 3.59344829 -2.99613978 4.93147722 -6.375 6.75 C-7.14585937 7.17796875 -7.91671875 7.6059375 -8.7109375 8.046875 C-11 9 -11 9 -15 9 C-14.8359375 7.20703125 -14.8359375 7.20703125 -14 5 C-11.6015625 3.26171875 -11.6015625 3.26171875 -8.625 1.6875 C-7.64789063 1.15511719 -6.67078125 0.62273438 -5.6640625 0.07421875 C-3 -1 -3 -1 0 0 Z " fill="#232532" transform="translate(164,29)"/>
</svg>
