<?xml version="1.0" encoding="UTF-8"?>
<svg version="1.1" xmlns="http://www.w3.org/2000/svg" width="240" height="240">
<path d="M0 0 C0.64594557 -0.00779995 1.29189114 -0.01559991 1.95741081 -0.02363622 C4.11428335 -0.04352458 6.26938504 -0.02780701 8.42626953 -0.01205444 C9.97553536 -0.01883209 11.52479312 -0.02773605 13.07403564 -0.03860474 C17.27662175 -0.06138768 21.47859373 -0.05256619 25.68119049 -0.03670931 C30.08044584 -0.02404499 34.47964882 -0.03579189 38.87890625 -0.04364014 C46.26653478 -0.05273517 53.65391333 -0.04075271 61.04150391 -0.01693726 C69.58101624 0.01027386 78.11993169 0.00145958 86.65942955 -0.02606928 C93.99293309 -0.0487636 101.32625701 -0.0519589 108.65978432 -0.03887594 C113.03905648 -0.03108315 117.41804814 -0.03003495 121.79730225 -0.04655838 C125.91467968 -0.06100872 130.03128806 -0.05097192 134.14858246 -0.0220871 C135.65905226 -0.01547918 137.16958685 -0.01736906 138.68003082 -0.02840042 C140.74361356 -0.04208137 142.80473777 -0.02491639 144.86816406 0 C146.02220734 0.00188513 147.17625061 0.00377026 148.36526489 0.00571251 C152.49612935 0.8526719 153.93611356 2.27143339 156.43408203 5.63491821 C157.54773044 10.19173851 157.48615541 14.34779938 157.08099365 18.99682617 C156.97731979 20.23032303 156.87364594 21.46381989 156.76683044 22.73469543 C156.64533836 24.08345004 156.52367431 25.43218917 156.40185547 26.78091431 C156.27813835 28.21554527 156.15509409 29.65023439 156.03266907 31.0849762 C155.69912753 34.96796592 155.35539728 38.84998948 155.00919247 42.73186827 C154.7204581 45.9794122 154.43662957 49.22737747 154.15275311 52.47534907 C153.4825447 60.14215382 152.80396783 67.80818635 152.12011719 75.4737854 C151.41622432 83.36564793 150.72619181 91.25863504 150.04304671 99.15231836 C149.45479772 105.94391239 148.8580182 112.73472029 148.25444627 119.5249697 C147.89460649 123.57408014 147.53791065 127.62340252 147.18938446 131.67350388 C146.86104224 135.48458584 146.52199055 139.29457022 146.17491722 143.10399055 C146.04981561 144.49635384 145.92838167 145.88905268 145.81103706 147.28209114 C144.28635808 165.31369986 144.28635808 165.31369986 139.01806641 171.44815063 C134.32616011 174.81149243 128.57112841 176.07827587 123.09033203 177.62319946 C121.88904663 177.97126144 120.68776123 178.31932343 119.45007324 178.67793274 C116.91011028 179.4089923 114.36927047 180.13352458 111.82470703 180.84805298 C109.24059835 181.57464106 106.66168416 182.31628226 104.08642578 183.07363892 C100.34309991 184.17240104 96.59320896 185.24506986 92.84033203 186.31069946 C91.70648071 186.64499466 90.57262939 186.97928986 89.40441895 187.32371521 C76.27236088 190.95281292 64.99549366 190.13397587 52.02783203 186.31069946 C50.81889282 185.96742111 49.60995361 185.62414276 48.36437988 185.27046204 C45.19303832 184.36385706 42.02739394 183.43997326 38.86303711 182.5093689 C36.28201642 181.75745593 33.6941697 181.03077693 31.10597992 180.30399799 C27.99218321 179.42566195 24.88531729 178.52356625 21.77783203 177.62319946 C20.62778687 177.29902542 19.4777417 176.97485138 18.29284668 176.64085388 C7.57013454 173.45097855 7.57013454 173.45097855 3.43408203 168.63491821 C-0.09810934 161.31056999 -0.44408459 153.20338107 -1.11572266 145.23013306 C-1.24495247 143.79182345 -1.37512085 142.35359792 -1.50614929 140.91545105 C-1.85689113 137.03425091 -2.19399212 133.15197933 -2.52810955 129.26931715 C-2.88065129 125.19473982 -3.24439993 121.12116065 -3.60650635 117.04742432 C-4.21244441 110.21070711 -4.80958814 103.37326529 -5.40136719 96.53530884 C-6.08473424 88.64021088 -6.78158217 80.74639163 -7.48574328 72.85312307 C-8.164411 65.24252315 -8.83396626 57.6311484 -9.49924469 50.01936722 C-9.7818706 46.78722921 -10.06758306 43.55538629 -10.35579681 40.32374191 C-10.69481245 36.51745852 -11.02579581 32.71055793 -11.35068703 28.90304375 C-11.47088172 27.50925905 -11.5937742 26.11570385 -11.71961784 24.72241783 C-11.89147386 22.81454388 -12.05239163 20.90569421 -12.21282959 18.99682617 C-12.3057214 17.93093954 -12.3986132 16.86505291 -12.49431992 15.76686668 C-12.61281411 10.58351764 -12.57677043 6.99601903 -9.41378784 2.7371006 C-5.97396068 0.19795928 -4.24209069 0.00692945 0 0 Z " fill="#138CE4" transform="translate(47.56591796875,24.365081787109375)"/>
<path d="M0 0 C30.03 0 60.06 0 91 0 C91 14.93466615 91 14.93466615 90.54101562 22.18676758 C90.49224777 23.00796585 90.44347992 23.82916412 90.39323425 24.67524719 C90.23456965 27.33191055 90.07048032 29.98820669 89.90625 32.64453125 C89.79380945 34.50923148 89.6817142 36.37395257 89.56994629 38.23869324 C89.27745815 43.10329091 88.98033681 47.96759446 88.68218994 52.83184814 C88.37772978 57.81285712 88.07773483 62.79413489 87.77734375 67.77539062 C87.1892211 77.51719251 86.59619455 87.25868901 86 97 C78.21088928 100.14811739 70.38256755 103.07904463 62.4375 105.8125 C60.68663086 106.44188477 60.68663086 106.44188477 58.90039062 107.08398438 C46.09418384 111.46334636 37.69295858 108.53342517 25.27685547 104.27978516 C22.98065857 103.49337588 20.68030473 102.72025805 18.37890625 101.94921875 C16.91901593 101.45648377 15.45937099 100.96302101 14 100.46875 C13.31156006 100.23643677 12.62312012 100.00412354 11.91381836 99.76477051 C7.11727972 98.11727972 7.11727972 98.11727972 6 97 C5.7571452 94.53547352 5.57387218 92.09594075 5.4375 89.625 C5.3950415 88.90634766 5.35258301 88.18769531 5.30883789 87.44726562 C4.98616194 81.62481504 4.91900368 75.83173486 5 70 C11.6 70 18.2 70 25 70 C25 74.29 25 78.58 25 83 C26.299375 83.268125 27.59875 83.53625 28.9375 83.8125 C32.26256565 84.5305893 35.32780837 85.46785666 38.5 86.6875 C46.40619323 89.36849286 53.04114318 86.87220601 60.51953125 83.83984375 C63 83 63 83 67 83 C66.98839844 82.26136719 66.97679687 81.52273437 66.96484375 80.76171875 C66.95582031 79.74722656 66.94679688 78.73273438 66.9375 77.6875 C66.92589844 76.70136719 66.91429687 75.71523437 66.90234375 74.69921875 C67.0320077 69.78754822 67.55516332 64.8932035 68 60 C53.48 60 38.96 60 24 60 C23.505 50.1 23.505 50.1 23 40 C38.18 40 53.36 40 69 40 C69.33 33.4 69.66 26.8 70 20 C47.23 20 24.46 20 1 20 C0.67 13.4 0.34 6.8 0 0 Z " fill="#FDFEFE" transform="translate(74,65)"/>
<path d="M0 0 C8.42313726 -0.04516427 16.84618055 -0.08186615 25.26940632 -0.10362434 C29.18054512 -0.11406657 33.09159686 -0.12823372 37.00268555 -0.15087891 C40.77631169 -0.17259173 44.54985404 -0.18456532 48.32353783 -0.18975449 C49.76406359 -0.19345306 51.20458471 -0.20067536 52.64507484 -0.21146011 C54.66088014 -0.22595347 56.67676956 -0.22681674 58.69262695 -0.22705078 C60.41471123 -0.23371262 60.41471123 -0.23371262 62.17158508 -0.24050903 C65 0 65 0 68 2 C68.12217329 5.08079006 68.05071948 7.92239301 67.828125 10.984375 C67.77142639 11.91634705 67.71472778 12.84831909 67.65631104 13.80853271 C66.89965815 25.63839233 65.82390826 37.44562225 64.75 49.25 C64.29824167 54.26160776 63.848349 59.2733824 63.3984375 64.28515625 C63.28315704 65.56385086 63.16787659 66.84254547 63.04910278 68.1599884 C62.27131979 76.82942401 61.53716134 85.50155536 60.82858276 94.17683792 C60.45351029 98.75182978 60.06973048 103.32610421 59.68762207 107.9005127 C59.48016313 110.413593 59.27691681 112.92702481 59.07800293 115.4407959 C58.80014385 118.94462809 58.50716058 122.44689833 58.2109375 125.94921875 C58.13291901 126.98412949 58.05490051 128.01904022 57.97451782 129.08531189 C57.10698311 138.99772623 57.10698311 138.99772623 54 143 C48.25919591 146.54063017 41.48353581 148.20933414 35.0390625 150.015625 C33.67048599 150.40666412 33.67048599 150.40666412 32.27426147 150.80560303 C30.36424095 151.34980305 28.45330628 151.89080412 26.54150391 152.42871094 C23.60993192 153.25424318 20.6817936 154.09119144 17.75390625 154.9296875 C15.89081553 155.45900441 14.02754065 155.98767368 12.1640625 156.515625 C11.28908112 156.76556213 10.41409973 157.01549927 9.51260376 157.27301025 C8.29521011 157.61401764 8.29521011 157.61401764 7.05322266 157.96191406 C6.34090485 158.16302795 5.62858704 158.36414185 4.89468384 158.5713501 C3 159 3 159 0 159 C0 151.08 0 143.16 0 135 C12.87 130.71 25.74 126.42 39 122 C39.52400391 113.13060547 39.52400391 113.13060547 40.05859375 104.08203125 C40.28177519 100.31314349 40.50502451 96.54426 40.72851562 92.77539062 C41.08244448 86.80676067 41.43613587 80.83811736 41.78833008 74.86938477 C42.07261725 70.05176072 42.35803861 65.23420504 42.64421272 60.41669273 C42.75264082 58.58813505 42.86067539 56.75955398 42.96829033 54.93094826 C43.12028199 52.34948973 43.27373439 49.76812155 43.42749023 47.18676758 C43.47064865 46.44804413 43.51380707 45.70932068 43.55827332 44.94821167 C43.95746389 38.28980727 44.48813096 31.65429754 45 25 C30.15 25 15.3 25 0 25 C0 16.75 0 8.5 0 0 Z " fill="#34C0F0" transform="translate(120,40)"/>
<path d="M0 0 C6.6 0 13.2 0 20 0 C20 4.29 20 8.58 20 13 C21.216875 13.2475 22.43375 13.495 23.6875 13.75 C29.90851309 15.12140544 35.92844024 17.08266534 42 19 C41.67 25.93 41.34 32.86 41 40 C36.16300582 39.1938343 31.83582097 38.08692496 27.23046875 36.53125 C26.50886063 36.29088013 25.7872525 36.05051025 25.04377747 35.80285645 C23.52951953 35.29732772 22.01599374 34.78960111 20.50317383 34.27978516 C18.17912768 33.49718069 15.85248309 32.72271186 13.52539062 31.94921875 C12.05192372 31.45620595 10.57861075 30.96273278 9.10546875 30.46875 C8.40761765 30.23643677 7.70976654 30.00412354 6.99076843 29.76477051 C2.11553664 28.11553664 2.11553664 28.11553664 1 27 C0.7571452 24.53547352 0.57387218 22.09594075 0.4375 19.625 C0.3950415 18.90634766 0.35258301 18.18769531 0.30883789 17.44726562 C-0.01383806 11.62481504 -0.08099632 5.83173486 0 0 Z " fill="#D3DEE8" transform="translate(79,135)"/>
<path d="M0 0 C16.83 0 33.66 0 51 0 C49.89594089 21.98917719 48.69886238 43.97268966 47.39422989 65.95087337 C47.17405361 69.66044584 46.95676087 73.37013124 46.7467041 77.08029175 C46.54559501 80.62847916 46.3359051 84.17605999 46.11985016 87.72336769 C46.00252046 89.68443515 45.89383465 91.64601367 45.78533936 93.60758972 C45.71180237 94.78718765 45.63826538 95.96678558 45.5625 97.18212891 C45.47162109 98.72895859 45.47162109 98.72895859 45.37890625 100.30703735 C44.99538658 103.03278848 44.55880841 104.73835285 43 107 C41.30581665 107.97454834 41.30581665 107.97454834 39.25634766 108.64746094 C38.48860016 108.90742859 37.72085266 109.16739624 36.92984009 109.4352417 C35.68453018 109.83081268 35.68453018 109.83081268 34.4140625 110.234375 C33.56073334 110.51726379 32.70740417 110.80015259 31.82821655 111.09161377 C30.02320745 111.68678952 28.21579872 112.27472947 26.40625 112.85595703 C23.63767199 113.74592654 20.87717527 114.65799734 18.1171875 115.57421875 C16.36240977 116.14975204 14.6072143 116.72401357 12.8515625 117.296875 C12.02540436 117.56868591 11.19924622 117.84049683 10.34805298 118.12054443 C9.18697525 118.49158295 9.18697525 118.49158295 8.00244141 118.87011719 C7.32452545 119.08899597 6.6466095 119.30787476 5.94815063 119.53338623 C4 120 4 120 0 120 C0 118.35 0 116.7 0 115 C12.87 110.71 25.74 106.42 39 102 C39.52400391 93.13060547 39.52400391 93.13060547 40.05859375 84.08203125 C40.28177519 80.31314349 40.50502451 76.54426 40.72851562 72.77539062 C41.08244448 66.80676067 41.43613587 60.83811736 41.78833008 54.86938477 C42.07261725 50.05176072 42.35803861 45.23420504 42.64421272 40.41669273 C42.75264082 38.58813505 42.86067539 36.75955398 42.96829033 34.93094826 C43.12028199 32.34948973 43.27373439 29.76812155 43.42749023 27.18676758 C43.47064865 26.44804413 43.51380707 25.70932068 43.55827332 24.94821167 C43.95746389 18.28980727 44.48813096 11.65429754 45 5 C30.15 5 15.3 5 0 5 C0 3.35 0 1.7 0 0 Z " fill="#33B7E4" transform="translate(120,60)"/>
<path d="M0 0 C15.18 0 30.36 0 46 0 C46 6.6 46 13.2 46 20 C31.15 20 16.3 20 1 20 C0.67 13.4 0.34 6.8 0 0 Z " fill="#D5DFE8" transform="translate(74,65)"/>
<path d="M0 0 C7.26 0 14.52 0 22 0 C22 12.375 22 12.375 21.5 17.6875 C21.36078125 19.20923828 21.36078125 19.20923828 21.21875 20.76171875 C21.1465625 21.50035156 21.074375 22.23898438 21 23 C18.06497405 24.00736628 15.12660539 25.00460504 12.1875 26 C11.35412109 26.28617188 10.52074219 26.57234375 9.66210938 26.8671875 C8.85966797 27.13789063 8.05722656 27.40859375 7.23046875 27.6875 C6.49207764 27.93886719 5.75368652 28.19023437 4.99291992 28.44921875 C3 29 3 29 0 29 C0 19.43 0 9.86 0 0 Z " fill="#33B6E3" transform="translate(120,125)"/>
<path d="M0 0 C7.92 0 15.84 0 24 0 C24 12 24 12 23 20 C15.41 20 7.82 20 0 20 C0 13.4 0 6.8 0 0 Z " fill="#32B6E3" transform="translate(120,85)"/>
<path d="M0 0 C7.59 0 15.18 0 23 0 C23 6.6 23 13.2 23 20 C15.74 20 8.48 20 1 20 C0.67 13.4 0.34 6.8 0 0 Z " fill="#D5DFE8" transform="translate(97,105)"/>
<path d="M0 0 C0.33 0 0.66 0 1 0 C1.495 3.96 1.495 3.96 2 8 C2.33 8 2.66 8 3 8 C2.50184814 18.19369278 1.9782535 28.38556833 1.40820312 38.57551575 C1.19364739 42.41879555 0.98335101 46.26175487 0.80566406 50.10693359 C0.6466442 53.46926025 0.45412701 56.82766539 0.25 60.1875 C0.21277832 61.15816406 0.17555664 62.12882812 0.13720703 63.12890625 C0.04608643 64.44761719 0.04608643 64.44761719 -0.046875 65.79296875 C-0.08651367 66.5408667 -0.12615234 67.28876465 -0.16699219 68.05932617 C-1.52797159 71.23002526 -3.88676393 71.72684565 -7 73 C-9.63004237 73.97084577 -12.28216095 74.84807027 -14.953125 75.69921875 C-15.6945575 75.9391304 -16.43598999 76.17904205 -17.19989014 76.42622375 C-18.7555676 76.92845365 -20.31199892 77.42835386 -21.86914062 77.92602539 C-24.25846025 78.69020586 -26.64497504 79.46269896 -29.03125 80.23632812 C-30.54671718 80.7244486 -32.0623369 81.21209576 -33.578125 81.69921875 C-34.2926886 81.93041916 -35.0072522 82.16161957 -35.74346924 82.39982605 C-40.76859638 84 -40.76859638 84 -43 84 C-43 83.01 -43 82.02 -43 81 C-30.13 76.71 -17.26 72.42 -4 68 C-2.68 45.56 -1.36 23.12 0 0 Z " fill="#3CB1DA" transform="translate(163,94)"/>
<path d="M0 0 C5.61 0 11.22 0 17 0 C16.67 4.62 16.34 9.24 16 14 C13.70967689 14.83719383 11.41789043 15.6698929 9.125 16.5 C8.14853516 16.85771484 8.14853516 16.85771484 7.15234375 17.22265625 C2.2265625 19 2.2265625 19 0 19 C0 12.73 0 6.46 0 0 Z " fill="#34C0F0" transform="translate(120,130)"/>
<path d="M0 0 C0.81855469 0.00386719 1.63710937 0.00773437 2.48046875 0.01171875 C3.67349609 0.00591797 3.67349609 0.00591797 4.890625 0 C9.6501131 0.00781525 14.16199499 0.34398726 18.85546875 1.13671875 C18.85546875 1.79671875 18.85546875 2.45671875 18.85546875 3.13671875 C11.26546875 3.13671875 3.67546875 3.13671875 -4.14453125 3.13671875 C-3.81453125 5.77671875 -3.48453125 8.41671875 -3.14453125 11.13671875 C-3.02964898 15.1438122 -3.09896009 19.12645701 -3.14453125 23.13671875 C4.11546875 23.13671875 11.37546875 23.13671875 18.85546875 23.13671875 C18.85546875 24.12671875 18.85546875 25.11671875 18.85546875 26.13671875 C15.06386578 26.19458543 11.27237564 26.23026929 7.48046875 26.26171875 C5.86011719 26.28685547 5.86011719 26.28685547 4.20703125 26.3125 C3.17578125 26.31894531 2.14453125 26.32539063 1.08203125 26.33203125 C-0.34761963 26.3477417 -0.34761963 26.3477417 -1.80615234 26.36376953 C-4.14453125 26.13671875 -4.14453125 26.13671875 -6.14453125 24.13671875 C-6.47924805 21.81420898 -6.47924805 21.81420898 -6.59375 18.9453125 C-6.63693359 17.91857422 -6.68011719 16.89183594 -6.72460938 15.83398438 C-6.76005859 14.75826172 -6.79550781 13.68253906 -6.83203125 12.57421875 C-6.87908203 11.49462891 -6.92613281 10.41503906 -6.97460938 9.30273438 C-7.20018111 3.41937965 -7.20018111 3.41937965 -7.14453125 1.13671875 C-5.25045709 -0.75735541 -2.51679033 0.00417378 0 0 Z " fill="#147FCD" transform="translate(101.14453125,101.86328125)"/>
<path d="M0 0 C6.27 0 12.54 0 19 0 C19 7 19 7 18 10 C12.06 10 6.12 10 0 10 C0 6.7 0 3.4 0 0 Z " fill="#34C0F0" transform="translate(120,90)"/>
<path d="M0 0 C15.84 0 31.68 0 48 0 C48 13.81034483 48 13.81034483 47.625 18.1875 C47.55539063 19.08855469 47.48578125 19.98960938 47.4140625 20.91796875 C47.27742188 21.60503906 47.14078125 22.29210937 47 23 C46.01 23.495 46.01 23.495 45 24 C45 16.74 45 9.48 45 2 C30.15 2 15.3 2 0 2 C0 1.34 0 0.68 0 0 Z " fill="#32ADD7" transform="translate(120,63)"/>
<path d="M0 0 C7.92 0 15.84 0 24 0 C24 12 24 12 23 20 C15.41 20 7.82 20 0 20 C0 19.34 0 18.68 0 18 C9.9 17.505 9.9 17.505 20 17 C20.144375 15.081875 20.28875 13.16375 20.4375 11.1875 C20.68724328 7.86948218 20.9458482 5.16245541 22 2 C14.74 2 7.48 2 0 2 C0 1.34 0 0.68 0 0 Z " fill="#31ACD7" transform="translate(120,85)"/>
<path d="M0 0 C7.26 0 14.52 0 22 0 C22 12.375 22 12.375 21.5 17.6875 C21.36078125 19.20923828 21.36078125 19.20923828 21.21875 20.76171875 C21.1465625 21.50035156 21.074375 22.23898438 21 23 C19.35 23.33 17.7 23.66 16 24 C16.19916016 23.00033203 16.19916016 23.00033203 16.40234375 21.98046875 C17.67824912 15.32154656 18.47328266 8.75953921 19 2 C12.73 2 6.46 2 0 2 C0 1.34 0 0.68 0 0 Z " fill="#39B0D9" transform="translate(120,125)"/>
<path d="M0 0 C0.33 0 0.66 0 1 0 C1 3.96 1 7.92 1 12 C3.5059375 12.6496875 3.5059375 12.6496875 6.0625 13.3125 C10.5942883 14.54205496 14.74997609 16.01665551 19 18 C19 18.66 19 19.32 19 20 C11.78069368 18.55613874 4.94889267 16.42211826 -2 14 C-2.05389087 12.04196493 -2.09274217 10.08351091 -2.125 8.125 C-2.14820312 7.03445312 -2.17140625 5.94390625 -2.1953125 4.8203125 C-2 2 -2 2 0 0 Z " fill="#1B81CC" transform="translate(101,134)"/>
<path d="M0 0 C0.33 0 0.66 0 1 0 C1.33 2.64 1.66 5.28 2 8 C2.33 8 2.66 8 3 8 C2.67 14.93 2.34 21.86 2 29 C1.01 28.67 0.02 28.34 -1 28 C-1.1598655 18.62122392 -0.66433182 9.34809779 0 0 Z " fill="#47B6DC" transform="translate(163,94)"/>
<path d="M0 0 C5.86809507 0.52393706 10.54873741 1.76108858 16 4 C16 4.99 16 5.98 16 7 C4.47835991 3.92482916 4.47835991 3.92482916 -1 2 C-0.67 1.34 -0.34 0.68 0 0 Z " fill="#127AC9" transform="translate(104,171)"/>
<path d="M0 0 C-1.97420135 2.52259061 -2.96745642 2.9929808 -6.1875 3.6875 C-7.5796875 3.8421875 -7.5796875 3.8421875 -9 4 C-8.67 3.01 -8.34 2.02 -8 1 C-2.59770115 -1.29885057 -2.59770115 -1.29885057 0 0 Z " fill="#37AFD9" transform="translate(129,150)"/>
<path d="M0 0 C0.66 0 1.32 0 2 0 C2 1.65 2 3.3 2 5 C0.35 5.33 -1.3 5.66 -3 6 C-1.125 1.125 -1.125 1.125 0 0 Z " fill="#48B6DB" transform="translate(139,143)"/>
</svg>
