<?xml version="1.0" encoding="UTF-8"?>
<svg version="1.1" xmlns="http://www.w3.org/2000/svg" width="512" height="512">
<path d="M0 0 C1.23219686 -0.00382555 2.46439372 -0.00765109 3.73392987 -0.01159257 C7.11927857 -0.02006538 10.50440767 -0.01971219 13.88974953 -0.01541197 C17.55451191 -0.01292949 21.21924956 -0.02197773 24.88400269 -0.02944946 C32.05062866 -0.04215697 39.2172171 -0.04399506 46.38385245 -0.0416492 C52.21390605 -0.03986126 58.04394831 -0.04162586 63.87400055 -0.04587364 C64.7059142 -0.04646883 65.53782785 -0.04706402 66.394951 -0.04767724 C68.08537489 -0.04888909 69.77579878 -0.05010322 71.46622267 -0.05131962 C87.29675359 -0.06218019 103.12726318 -0.06003985 118.95779529 -0.05393478 C133.41186996 -0.04876834 147.86587718 -0.0600165 162.31993851 -0.07903299 C177.19136523 -0.0984473 192.0627601 -0.10666102 206.93419957 -0.10290974 C215.27130812 -0.10100296 223.6083593 -0.10343391 231.94545746 -0.11762428 C239.04398114 -0.12958504 246.14241214 -0.13089077 253.2409372 -0.11883412 C256.8561387 -0.11297784 260.47117107 -0.11175473 264.08636093 -0.12383652 C291.99331086 -0.21079756 291.99331086 -0.21079756 305.19952393 3.26069641 C306.0280978 3.47795726 306.85667168 3.69521811 307.71035385 3.91906261 C337.82840296 12.66154158 363.41206608 33.34489727 379.19952393 60.26069641 C389.1688463 78.41499854 394.5297069 97.29975667 394.46022034 118.06117249 C394.46404588 119.29336934 394.46787143 120.5255662 394.4718129 121.79510236 C394.48028572 125.18045106 394.47993253 128.56558015 394.47563231 131.95092201 C394.47314983 135.6156844 394.48219807 139.28042205 394.4896698 142.94517517 C394.50237731 150.11180115 394.50421539 157.27838959 394.50186954 164.44502494 C394.50008159 170.27507853 394.5018462 176.10512079 394.50609398 181.93517303 C394.50668917 182.76708668 394.50728436 183.59900033 394.50789758 184.45612349 C394.50910942 186.14654738 394.51032356 187.83697127 394.51153996 189.52739516 C394.52240053 205.35792608 394.52026018 221.18843567 394.51415511 237.01896778 C394.50898867 251.47304245 394.52023684 265.92704966 394.53925333 280.381111 C394.55866764 295.25253772 394.56688135 310.12393259 394.56313008 324.99537206 C394.5612233 333.33248061 394.56365425 341.66953179 394.57784462 350.00662994 C394.58980538 357.10515362 394.5911111 364.20358462 394.57905445 371.30210969 C394.57319818 374.91731118 394.57197506 378.53234356 394.58405685 382.14753342 C394.6710179 410.05448335 394.6710179 410.05448335 391.19952393 423.26069641 C390.98226308 424.08927029 390.76500223 424.91784416 390.54115772 425.77152634 C381.79867875 455.88957545 361.11532307 481.47323856 334.19952393 497.26069641 C316.0452218 507.23001878 297.16046367 512.59087938 276.39904785 512.52139282 C275.16685099 512.52521837 273.93465414 512.52904392 272.66511798 512.53298539 C269.27976928 512.54145821 265.89464018 512.54110501 262.50929832 512.5368048 C258.84453594 512.53432231 255.17979829 512.54337056 251.51504517 512.55084229 C244.34841919 512.56354979 237.18183075 512.56538788 230.0151954 512.56304202 C224.18514181 512.56125408 218.35509954 512.56301868 212.5250473 512.56726646 C211.27717683 512.56815925 211.27717683 512.56815925 210.00409685 512.56907007 C208.31367296 512.57028191 206.62324907 512.57149604 204.93282518 512.57271244 C189.10229426 512.58357301 173.27178467 512.58143267 157.44125256 512.5753276 C142.98717789 512.57016116 128.53317067 512.58140932 114.07910934 512.60042582 C99.20768262 512.61984012 84.33628775 512.62805384 69.46484828 512.62430257 C61.12773973 512.62239579 52.79068855 512.62482673 44.45359039 512.63901711 C37.35506671 512.65097786 30.25663571 512.65228359 23.15811065 512.64022694 C19.54290915 512.63437067 15.92787678 512.63314755 12.31268692 512.64522934 C-15.59426301 512.73219038 -15.59426301 512.73219038 -28.80047607 509.26069641 C-29.62904995 509.04343556 -30.45762383 508.82617472 -31.311306 508.60233021 C-61.42935511 499.85985124 -87.01301823 479.17649556 -102.80047607 452.26069641 C-112.76979845 434.10639428 -118.13065905 415.22163616 -118.06117249 394.46022034 C-118.06499803 393.22802348 -118.06882358 391.99582662 -118.07276505 390.72629046 C-118.08123787 387.34094177 -118.08088468 383.95581267 -118.07658446 380.57047081 C-118.07410198 376.90570842 -118.08315022 373.24097077 -118.09062195 369.57621765 C-118.10332946 362.40959167 -118.10516754 355.24300323 -118.10282169 348.07636788 C-118.10103374 342.24631429 -118.10279835 336.41627203 -118.10704613 330.58621979 C-118.10764132 329.75430614 -118.10823651 328.92239249 -118.10884973 328.06526934 C-118.11006157 326.37484544 -118.11127571 324.68442155 -118.11249211 322.99399766 C-118.12335268 307.16346674 -118.12121233 291.33295716 -118.11510726 275.50242504 C-118.10994082 261.04835038 -118.12118899 246.59434316 -118.14020548 232.14028183 C-118.15961978 217.2688551 -118.1678335 202.39746023 -118.16408223 187.52602077 C-118.16217545 179.18891221 -118.1646064 170.85186103 -118.17879677 162.51476288 C-118.19075753 155.4162392 -118.19206325 148.3178082 -118.1800066 141.21928313 C-118.17415033 137.60408164 -118.17292721 133.98904926 -118.185009 130.37385941 C-118.27197005 102.46690947 -118.27197005 102.46690947 -114.80047607 89.26069641 C-114.58321523 88.43212254 -114.36595438 87.60354866 -114.14210987 86.74986649 C-105.3996309 56.63181737 -84.71627522 31.04815426 -57.80047607 15.26069641 C-39.64617395 5.29137404 -20.76141582 -0.06948656 0 0 Z " fill="#F3F1EC" transform="translate(117.80047607421875,-0.2606964111328125)"/>
<path d="M0 0 C3.51815966 2.64610121 6.87906103 5.45366516 10.19140625 8.3515625 C11.02285156 9.06957031 11.85429687 9.78757813 12.7109375 10.52734375 C28.24639592 24.97450386 37.18783229 45.64271044 40.19140625 66.3515625 C40.39378906 67.50269531 40.59617188 68.65382813 40.8046875 69.83984375 C42.64177646 81.27478525 42.19140625 91.39006967 42.19140625 103.3515625 C-16.54859375 103.3515625 -75.28859375 103.3515625 -135.80859375 103.3515625 C-135.35387945 118.53637086 -135.35387945 118.53637086 -133.05859375 133.2890625 C-132.88376465 134.06572266 -132.70893555 134.84238281 -132.52880859 135.64257812 C-128.90446767 151.03091236 -122.21449159 164.45619301 -111.80859375 176.3515625 C-111.25429687 176.98964844 -110.7 177.62773437 -110.12890625 178.28515625 C-99.94253882 189.22697198 -83.28188338 197.74013327 -68.30395508 198.53833008 C-64.85766903 198.60635027 -61.41913441 198.63267024 -57.97265625 198.61230469 C-55.81351638 198.60158694 -53.65520829 198.6122416 -51.49609375 198.625 C-44.63645414 198.63188192 -38.36928745 198.46313969 -31.80859375 196.3515625 C-30.58269531 196.05185547 -30.58269531 196.05185547 -29.33203125 195.74609375 C-17.93352483 192.65813474 -8.18593817 187.49044184 0.203125 179.171875 C2.19140625 177.3515625 2.19140625 177.3515625 5.19140625 176.3515625 C6.23362633 174.55530831 6.23362633 174.55530831 7.19140625 172.3515625 C8.30265455 170.61352637 9.42899007 168.88508742 10.56640625 167.1640625 C14.68714008 160.7179353 17.63470454 154.54591412 19.62890625 147.1640625 C20.95801883 142.47565438 22.75365409 139.78931466 26.19140625 136.3515625 C30.25669005 134.3189206 34.94310217 135.17251775 39.19140625 136.3515625 C39.41915304 150.82975142 32.69836802 165.92033263 24.19140625 177.3515625 C23.61390625 178.14820313 23.03640625 178.94484375 22.44140625 179.765625 C11.72124513 194.07512578 -1.32166153 202.95566245 -17.80859375 209.3515625 C-18.47294434 209.61590088 -19.13729492 209.88023926 -19.82177734 210.15258789 C-42.76904463 219.08758676 -71.19149044 217.66839229 -93.796875 208.203125 C-119.29634967 196.79033274 -136.92865399 177.61530637 -147.03759766 151.54736328 C-150.68216495 141.16761715 -152.16966025 130.08092468 -153.4140625 119.1953125 C-153.64581641 116.41040169 -153.64581641 116.41040169 -154.80859375 114.3515625 C-157.60524771 82.20420219 -149.66626759 46.10503599 -129.37109375 20.4765625 C-127.87136092 18.74967564 -126.35066586 17.04074882 -124.80859375 15.3515625 C-124.06222656 14.51238281 -123.31585938 13.67320312 -122.546875 12.80859375 C-108.38886606 -2.2854819 -89.76510862 -11.17625465 -69.80859375 -15.6484375 C-68.99390625 -15.84308594 -68.17921875 -16.03773438 -67.33984375 -16.23828125 C-44.52322805 -19.93541805 -18.67775287 -13.41389045 0 0 Z " fill="#141414" transform="translate(210.80859375,156.6484375)"/>
<path d="M0 0 C17.38723009 15.22684072 27.50066636 35.8809322 30.0625 58.6875 C30.0625 62.9775 30.0625 67.2675 30.0625 71.6875 C-22.7375 71.6875 -75.5375 71.6875 -129.9375 71.6875 C-129.9375 63.44202169 -129.82998496 57.33423384 -127.75 49.6875 C-127.4094458 48.39404663 -127.4094458 48.39404663 -127.06201172 47.07446289 C-121.18832247 25.44491683 -108.86280964 6.73446857 -89.69921875 -5.35546875 C-82.7201523 -9.27544739 -75.6606344 -12.21862569 -67.9375 -14.3125 C-67.11507812 -14.53808594 -66.29265625 -14.76367188 -65.4453125 -14.99609375 C-42.34307588 -20.21388863 -18.58817012 -14.46610729 0 0 Z " fill="#F3F1EC" transform="translate(204.9375,172.3125)"/>
<path d="M0 0 C7.83329083 0.13630086 13.34694543 1.8217924 19.28125 6.98828125 C23.77234824 11.76536924 27.3009195 17.41405121 30.97167969 22.82861328 C39.9814179 36.10183445 49.76259617 48.82716698 59.50927734 61.56298828 C65.82062081 69.82267626 71.99281206 78.18157779 78.12817383 86.57250977 C79.57312402 88.5369117 81.03404203 90.48873988 82.5 92.4375 C87.78259874 86.09338615 92.88314141 79.67076514 97.8046875 73.04296875 C100.54553634 69.36055022 103.33631674 65.71692475 106.12548828 62.07104492 C115.60784283 49.67302914 124.95319099 37.17977778 134.05078125 24.49609375 C134.91956909 23.28602661 134.91956909 23.28602661 135.8059082 22.05151367 C136.89492045 20.53185586 137.98095003 19.01005376 139.06323242 17.4855957 C149.55281985 2.82818654 149.55281985 2.82818654 158.5 0.4375 C163.81795877 -0.17941445 167.74519055 -0.0670036 172.5 2.4375 C172.08862793 2.97415283 171.67725586 3.51080566 171.25341797 4.0637207 C163.92505439 13.63204016 156.62141331 23.21377295 149.5 32.9375 C143.1505969 41.60499717 136.65177668 50.15309864 130.125 58.6875 C127.2876561 62.39876913 124.47768152 66.12818481 121.6875 69.875 C118.9799244 73.50057266 116.22526652 77.08210334 113.42236328 80.6340332 C112.48159502 81.82686793 111.54371655 83.02198804 110.60888672 84.21948242 C108.3842323 87.0678754 106.13625867 89.88214673 103.80078125 92.640625 C102.97964844 93.64609375 102.15851563 94.6515625 101.3125 95.6875 C100.57644531 96.55890625 99.84039062 97.4303125 99.08203125 98.328125 C96.81209224 102.78953599 96.51826522 106.53399558 97.5 111.4375 C99.11623625 114.64132218 101.27013623 117.18350632 103.625 119.875 C104.92441829 121.4484239 106.22121771 123.02401363 107.515625 124.6015625 C108.18142578 125.40110352 108.84722656 126.20064453 109.53320312 127.02441406 C112.63038262 130.82437957 115.49874059 134.78178895 118.375 138.75 C123.33744291 145.5413376 128.3867103 152.25905527 133.5 158.9375 C139.14920164 166.3179959 144.70649883 173.75730341 150.19775391 181.25585938 C155.35255038 188.27752808 160.63292092 195.20002545 165.92578125 202.11791992 C170.54326049 208.16007438 175.08920472 214.24207373 179.5 220.4375 C174.60124406 223.7033373 169.22526377 222.98631227 163.5 222.4375 C154.18842274 219.69880081 149.21801185 211.88700613 144 204.25 C142.75635624 202.45102882 141.51153884 200.65286849 140.265625 198.85546875 C139.32493164 197.49687744 139.32493164 197.49687744 138.36523438 196.11083984 C135.53967048 192.06111148 132.65029413 188.0589035 129.75 184.0625 C128.67052317 182.57425483 127.59109498 181.08597438 126.51171875 179.59765625 C126.00044434 178.8927002 125.48916992 178.18774414 124.96240234 177.46142578 C123.21362092 175.04115901 121.48144661 172.60946293 119.75244141 170.17504883 C111.7090017 158.85251295 103.51059391 147.63732797 95.046875 136.625 C93.94206787 135.1865271 93.94206787 135.1865271 92.81494141 133.71899414 C91.37384027 131.84749056 89.92831369 129.97938495 88.47802734 128.11499023 C87.82785645 127.27137939 87.17768555 126.42776855 86.5078125 125.55859375 C85.92660645 124.8102124 85.34540039 124.06183105 84.74658203 123.29077148 C83.5 121.4375 83.5 121.4375 83.5 119.4375 C79.23042406 123.49240453 75.64919782 127.89969174 72.0625 132.5625 C71.45341797 133.35019775 70.84433594 134.13789551 70.21679688 134.94946289 C64.10465822 142.88880435 58.16662344 150.9533106 52.25439453 159.04199219 C49.91194264 162.2404528 47.55502609 165.4281237 45.19848633 168.61621094 C40.04081273 175.59798343 34.90599553 182.59624895 29.8125 189.625 C29.27995605 190.35944336 28.74741211 191.09388672 28.19873047 191.85058594 C25.55871391 195.51173333 22.96897008 199.19758209 20.453125 202.9453125 C19.96545654 203.66952393 19.47778809 204.39373535 18.9753418 205.13989258 C18.06729621 206.49607678 17.16702487 207.85751648 16.27661133 209.2253418 C11.83137931 215.87352066 6.48581337 220.69613013 -1.5 222.4375 C-5.19266673 222.75729793 -8.81826153 222.91476239 -12.5 222.4375 C-13.16 221.7775 -13.82 221.1175 -14.5 220.4375 C-14.08339111 219.89561035 -13.66678223 219.3537207 -13.23754883 218.79541016 C-6.04277731 209.4253375 1.13033003 200.04958584 8 190.4375 C13.35186179 182.95307319 18.89144117 175.62676248 24.48828125 168.32421875 C29.47340862 161.81108299 34.35702719 155.23062683 39.2019043 148.61279297 C43.64474269 142.55993805 48.18368661 136.58508846 52.75 130.625 C58.83715673 122.67795986 64.76413805 114.64143716 70.5 106.4375 C66.6135648 100.43881478 62.50131301 94.72465466 58.0625 89.125 C52.95596215 82.6242789 47.94073841 76.06506856 43 69.4375 C36.46623757 60.68229226 29.7900613 52.04676785 23.06201172 43.44042969 C19.17926186 38.46167385 15.34401275 33.44617224 11.5 28.4375 C9.83390747 26.27039153 8.16694856 24.10395005 6.5 21.9375 C5.67967175 20.87110587 4.85935929 19.80469959 4.0390625 18.73828125 C3.62817383 18.20412598 3.21728516 17.6699707 2.79394531 17.11962891 C-0.97070312 12.22558594 -4.73535156 7.33154297 -8.5 2.4375 C-5.71292883 -0.34957117 -3.89543468 0.07198086 0 0 Z " fill="#121212" transform="translate(276.5,144.5625)"/>
</svg>
