<?xml version="1.0" encoding="UTF-8"?>
<svg version="1.1" xmlns="http://www.w3.org/2000/svg" width="1200" height="1800">
<path d="M0 0 C1.65268653 -0.00307895 1.65268653 -0.00307895 3.33876067 -0.0062201 C7.02679517 -0.01186973 10.71479208 -0.01043536 14.40283012 -0.00901413 C17.07547769 -0.01159894 19.74812228 -0.01457385 22.42076862 -0.01801753 C28.99339656 -0.02557623 35.56601638 -0.02778951 42.13864822 -0.02834659 C50.01450915 -0.02926236 57.89036261 -0.0359363 65.76622032 -0.04269341 C84.80139739 -0.05873524 103.83657364 -0.06465499 122.87175626 -0.06944216 C131.88321556 -0.0717803 140.89467423 -0.07538323 149.90613303 -0.07913754 C180.77459473 -0.09197252 211.64305608 -0.10269089 242.51152039 -0.10614014 C244.44844828 -0.10636177 246.38537617 -0.10658355 248.32230406 -0.10680549 C250.26382342 -0.10702613 252.20534279 -0.10724661 254.14686215 -0.10746694 C258.04166357 -0.10790948 261.93646499 -0.1083566 265.8312664 -0.10880661 C266.79694707 -0.108916 267.76262774 -0.10902539 268.75757146 -0.1091381 C300.04917308 -0.11276636 331.3407515 -0.12867797 362.63234424 -0.15199697 C395.74237375 -0.17662582 428.85239 -0.19031443 461.96242893 -0.19150805 C465.60138504 -0.1916795 469.24034115 -0.19189492 472.87929726 -0.19214249 C473.77526191 -0.19219826 474.67122657 -0.19225402 475.59434167 -0.19231148 C489.97730075 -0.19345938 504.36023592 -0.20445925 518.74318695 -0.21902954 C533.21771089 -0.23343831 547.69220437 -0.23660693 562.16673352 -0.22858956 C570.75119621 -0.22415361 579.33556016 -0.22791177 587.92000976 -0.24382807 C593.6724482 -0.25365215 599.42481825 -0.25232984 605.17725621 -0.24239184 C608.44299 -0.23705262 611.70850095 -0.23782378 614.97422554 -0.24890056 C635.12314995 -0.31286162 654.95577423 1.05502979 674.68527031 5.38142776 C675.65762627 5.59049759 676.62998222 5.79956741 677.63180351 6.01497269 C726.50630407 16.86158911 772.04020175 39.03157345 809.68527031 72.13142776 C810.76808281 73.06535355 810.76808281 73.06535355 811.87277031 74.01814651 C813.82499959 75.70666741 815.75733489 77.41523092 817.68527031 79.13142776 C818.57085625 79.91259964 819.45644218 80.69377151 820.36886406 81.49861526 C825.18094921 85.79488667 829.7519062 90.09513223 833.90011406 95.03767776 C835.96210794 97.45612135 838.13569528 99.75124267 840.31027031 102.06892776 C876.29462176 141.60796439 899.63895256 192.77322529 909.49777031 245.00642776 C909.69274101 246.0380806 909.88771172 247.06973343 910.08859062 248.13264847 C913.14181878 265.3144611 914.06333038 282.33020096 913.99777031 299.75642776 C913.99594749 300.76611618 913.99412468 301.7758046 913.99224663 302.81608963 C913.94577904 318.12965774 913.3832742 333.02419926 910.68527031 348.13142776 C910.43583672 349.61666946 910.43583672 349.61666946 910.18136406 351.13191605 C898.20951324 421.44436954 859.3852698 491.71440986 801.68527031 535.13142776 C800.47770771 536.06694022 799.2707197 537.00319462 798.06417656 537.94002151 C751.75742235 573.59903638 697.63918355 593.91699187 639.68527031 600.13142776 C640.85207329 600.26605423 640.85207329 600.26605423 642.04244804 600.40340042 C666.6268424 603.30120133 690.21525475 608.08177188 713.68527031 616.13142776 C714.65424248 616.45482132 714.65424248 616.45482132 715.64278984 616.78474808 C762.47274879 632.53587351 807.63019969 663.46819562 839.68527031 701.13142776 C840.51929375 702.07759964 841.35331718 703.02377151 842.21261406 703.99861526 C885.55393067 753.53829934 913.55368883 821.21730901 913.88839531 887.38924026 C913.89898476 888.79604301 913.89898476 888.79604301 913.90978813 890.23126602 C914.13723053 929.32409011 914.13723053 929.32409011 910.68527031 948.13142776 C910.48127617 949.27240921 910.27728203 950.41339066 910.06710625 951.5889473 C905.57646002 976.16330609 898.73728798 999.2710551 888.68527031 1022.13142776 C888.33238945 1022.94031448 887.97950859 1023.7492012 887.61593437 1024.58259964 C869.25561456 1066.23126545 838.96060598 1106.37570564 802.68527031 1134.13142776 C801.7197625 1134.90228714 800.75425468 1135.67314651 799.75948906 1136.46736526 C755.78747994 1171.18499139 702.40839869 1193.1076045 646.68527031 1199.13142776 C645.84004814 1199.22569046 644.99482597 1199.31995316 644.12399101 1199.4170723 C634.30967524 1200.37846764 624.47493543 1200.37497815 614.62277031 1200.38142776 C613.69385979 1200.38210251 612.76494926 1200.38277725 611.80788994 1200.38347244 C580.483805 1200.34746775 550.58330102 1195.51713867 520.68527031 1186.13142776 C519.8823455 1185.88199417 519.0794207 1185.63256058 518.25216484 1185.37556839 C484.03147728 1174.57268954 452.563353 1156.56484165 424.68527031 1134.13142776 C423.14612968 1132.90166214 423.14612968 1132.90166214 421.57589531 1131.64705276 C413.56688452 1125.08682892 406.206927 1117.86277078 398.87277031 1110.56892776 C398.38471916 1110.08614365 397.89666801 1109.60335953 397.39382744 1109.10594559 C390.69678659 1102.46485199 384.50776031 1095.55605531 378.68527031 1088.13142776 C378.1418499 1087.44202103 377.59842949 1086.75261429 377.03854179 1086.04231644 C342.87618937 1042.19221738 321.49571357 990.33157244 314.68527031 935.13142776 C314.68467322 936.36596256 314.68407613 937.60049736 314.68346095 938.87244231 C314.6568552 993.34134296 314.62526713 1047.81023896 314.56863213 1102.27911758 C314.56777462 1103.10517323 314.56691711 1103.93122887 314.56603361 1104.7823165 C314.54736322 1122.73946526 314.5278102 1140.69661295 314.50734936 1158.65375975 C314.49731914 1167.46133836 314.48748373 1176.26891718 314.47775078 1185.07649612 C314.47677897 1185.95290494 314.47580717 1186.82931376 314.47480591 1187.73228041 C314.44346018 1216.08316138 314.42495143 1244.43403285 314.41317784 1272.78492813 C314.4009995 1301.94584944 314.37571436 1331.10673122 314.33419417 1360.2676262 C314.32832102 1364.39676103 314.32259601 1368.52589605 314.31696129 1372.6550312 C314.3152911 1373.87390948 314.3152911 1373.87390948 314.31358717 1375.11741157 C314.29612211 1388.14011794 314.29226632 1401.16279363 314.2936411 1414.18551015 C314.29473134 1427.31267315 314.28114811 1440.43975851 314.25310603 1453.56689209 C314.23833668 1460.66528183 314.22976424 1467.76353814 314.23946762 1474.86194038 C314.33597751 1552.28137551 299.55140983 1622.98911127 250.68527031 1685.13142776 C249.90409843 1686.12658401 249.12292656 1687.12174026 248.31808281 1688.14705276 C234.91434113 1704.84210468 219.71697248 1721.10718493 202.68527031 1734.13142776 C201.68495781 1734.92549026 200.68464531 1735.71955276 199.65402031 1736.53767776 C187.05625655 1746.49304029 173.58707478 1755.11958856 159.68527031 1763.13142776 C158.5753875 1763.77595901 157.46550468 1764.42049026 156.32198906 1765.08455276 C113.09438898 1789.17059947 63.41517948 1800.38978046 14.18527031 1800.31892776 C13.34256584 1800.31799118 12.49986137 1800.3170546 11.63162041 1800.31608963 C-1.11597314 1800.28541805 -13.68778771 1800.03773047 -26.31472969 1798.13142776 C-27.88529121 1797.89746292 -27.88529121 1797.89746292 -29.48758125 1797.65877151 C-46.460213 1795.04834111 -62.94401073 1791.31612818 -79.31472969 1786.13142776 C-80.67742989 1785.70120316 -80.67742989 1785.70120316 -82.06765938 1785.26228714 C-119.79806305 1773.06632302 -154.65244227 1752.2702943 -184.31472969 1726.13142776 C-185.12426094 1725.43275589 -185.93379219 1724.73408401 -186.76785469 1724.01424026 C-198.55190776 1713.6739288 -209.71636783 1702.53519318 -219.31472969 1690.13142776 C-220.16669561 1689.07886138 -221.02098554 1688.02817309 -221.87722969 1686.97908401 C-233.19465977 1673.01557258 -242.91386647 1658.01256625 -251.31472969 1642.13142776 C-251.81649727 1641.18565872 -251.81649727 1641.18565872 -252.32840157 1640.22078323 C-272.81690464 1601.25069187 -286.16874268 1557.12763378 -286.55301094 1512.86580276 C-286.56280479 1511.92196228 -286.57259865 1510.9781218 -286.58268929 1510.00568008 C-286.76344157 1488.04647119 -286.36042291 1466.77089183 -282.31472969 1445.13142776 C-282.00922188 1443.48303909 -282.00922188 1443.48303909 -281.69754219 1441.80134964 C-276.86129552 1416.73944176 -268.66019134 1391.99363734 -257.31472969 1369.13142776 C-256.87435371 1368.22908401 -256.43397774 1367.32674026 -255.98025703 1366.39705276 C-235.76413512 1325.21944932 -205.25108248 1287.52764829 -168.31472969 1260.13142776 C-167.46878242 1259.50010941 -167.46878242 1259.50010941 -166.60574532 1258.85603714 C-121.42845437 1225.32078468 -69.21946684 1205.80726984 -13.31472969 1200.13142776 C-14.5488459 1199.95921707 -14.5488459 1199.95921707 -15.80789375 1199.78352737 C-75.20919366 1191.35585473 -129.52796055 1171.35980672 -176.31472969 1133.13142776 C-177.12079659 1132.48198196 -177.12079659 1132.48198196 -177.94314766 1131.81941605 C-186.12351128 1125.19956852 -193.66388727 1117.98324236 -201.12722969 1110.56892776 C-202.43445992 1109.27559525 -202.43445992 1109.27559525 -203.76809883 1107.9561348 C-209.7051835 1101.99024304 -215.09608937 1095.73112366 -220.31472969 1089.13142776 C-220.88505928 1088.42042923 -221.45538887 1087.70943069 -222.04300117 1086.97688675 C-260.83495681 1038.36799467 -286.00943718 975.47719288 -286.55301094 912.86580276 C-286.56280479 911.92196228 -286.57259865 910.9781218 -286.58268929 910.00568008 C-286.76344157 888.04647119 -286.36042291 866.77089183 -282.31472969 845.13142776 C-282.11105782 844.03250198 -281.90738594 842.9335762 -281.69754219 841.80134964 C-276.86459055 816.75651693 -268.68545121 791.96614989 -257.31472969 769.13142776 C-256.89610664 768.28322464 -256.4774836 767.43502151 -256.046175 766.56111526 C-246.3473475 747.06280526 -234.98029172 729.0864455 -221.31472969 712.13142776 C-220.85243965 711.55731155 -220.39014961 710.98319534 -219.91385078 710.39168167 C-204.9153488 691.92145634 -188.26183009 675.50896339 -169.31472969 661.13142776 C-168.72321114 660.67767776 -168.13169258 660.22392776 -167.52224922 659.75642776 C-122.73101338 625.49070646 -68.35990565 605.15441705 -12.31472969 600.13142776 C-13.04248604 600.03643997 -13.77024239 599.94145218 -14.52005196 599.84358597 C-93.00393385 589.4657047 -169.55157032 554.74635932 -219.22488594 490.90877151 C-219.91453438 489.99224808 -220.60418282 489.07572464 -221.31472969 488.13142776 C-222.25024214 486.92386517 -223.18649654 485.71687715 -224.12332344 484.51033401 C-253.39878429 446.49325545 -273.14112245 402.57640568 -282.06472969 355.44392776 C-282.36286568 353.87928787 -282.36286568 353.87928787 -282.66702461 352.28303909 C-285.77490309 335.02252413 -286.72498934 317.89496572 -286.68972969 300.38142776 C-286.68918587 299.35739853 -286.68864204 298.33336929 -286.68808174 297.27830887 C-286.64512541 279.58906549 -285.570755 262.54714339 -282.31472969 245.13142776 C-282.11105782 244.03250198 -281.90738594 242.9335762 -281.69754219 241.80134964 C-276.54180257 215.08379773 -267.43085554 189.45526015 -255.31472969 165.13142776 C-254.92962227 164.35025589 -254.54451485 163.56908401 -254.1477375 162.76424026 C-241.41487095 137.14117253 -224.43636961 112.45752384 -203.75222969 92.56892776 C-202.07284523 90.93884915 -202.07284523 90.93884915 -199.87722969 88.13142776 C-197.29888311 85.11287567 -194.60048655 82.65531764 -191.58426094 80.09236526 C-189.11740159 77.96093085 -186.75521168 75.73646247 -184.37722969 73.50642776 C-135.732453 29.23497125 -66.06198266 -0.11577247 0 0 Z M313.68527031 600.13142776 C313.68527031 690.88142776 313.68527031 781.63142776 313.68527031 875.13142776 C314.01527031 875.13142776 314.34527031 875.13142776 314.68527031 875.13142776 C314.74472832 874.55626419 314.80418633 873.98110062 314.86544609 873.38850784 C318.54405489 838.87529877 326.28327979 804.55683269 341.65646172 773.23006058 C342.7869738 770.92396616 343.88175347 768.60231748 344.97823906 766.27986526 C353.38633368 748.72547037 363.77260472 732.50731303 375.68527031 717.13142776 C376.18107597 716.49140823 376.67688164 715.8513887 377.18771172 715.19197464 C393.05192111 694.88018337 410.97630835 676.51275047 431.68527031 661.13142776 C432.3280291 660.65350784 432.97078789 660.17558792 433.63302422 659.68318558 C449.67726779 647.85372385 466.64833692 637.61468639 484.68527031 629.13142776 C485.42648125 628.77484085 486.16769218 628.41825394 486.93136406 628.05086136 C518.52808306 612.88995646 552.82510947 604.2557326 587.68527031 601.13142776 C587.68527031 600.80142776 587.68527031 600.47142776 587.68527031 600.13142776 C497.26527031 600.13142776 406.84527031 600.13142776 313.68527031 600.13142776 Z " fill="#A159FE" transform="translate(286.31472969055176,-0.13142776489257813)"/>
<path d="M0 0 C1.65268653 -0.00307895 1.65268653 -0.00307895 3.33876067 -0.0062201 C7.02679517 -0.01186973 10.71479208 -0.01043536 14.40283012 -0.00901413 C17.07547769 -0.01159894 19.74812228 -0.01457385 22.42076862 -0.01801753 C28.99339656 -0.02557623 35.56601638 -0.02778951 42.13864822 -0.02834659 C50.01450915 -0.02926236 57.89036261 -0.0359363 65.76622032 -0.04269341 C84.80139739 -0.05873524 103.83657364 -0.06465499 122.87175626 -0.06944216 C131.88321556 -0.0717803 140.89467423 -0.07538323 149.90613303 -0.07913754 C180.77459473 -0.09197252 211.64305608 -0.10269089 242.51152039 -0.10614014 C244.44844828 -0.10636177 246.38537617 -0.10658355 248.32230406 -0.10680549 C250.26382342 -0.10702613 252.20534279 -0.10724661 254.14686215 -0.10746694 C258.04166357 -0.10790948 261.93646499 -0.1083566 265.8312664 -0.10880661 C266.79694707 -0.108916 267.76262774 -0.10902539 268.75757146 -0.1091381 C300.04917308 -0.11276636 331.3407515 -0.12867797 362.63234424 -0.15199697 C395.74237375 -0.17662582 428.85239 -0.19031443 461.96242893 -0.19150805 C465.60138504 -0.1916795 469.24034115 -0.19189492 472.87929726 -0.19214249 C473.77526191 -0.19219826 474.67122657 -0.19225402 475.59434167 -0.19231148 C489.97730075 -0.19345938 504.36023592 -0.20445925 518.74318695 -0.21902954 C533.21771089 -0.23343831 547.69220437 -0.23660693 562.16673352 -0.22858956 C570.75119621 -0.22415361 579.33556016 -0.22791177 587.92000976 -0.24382807 C593.6724482 -0.25365215 599.42481825 -0.25232984 605.17725621 -0.24239184 C608.44299 -0.23705262 611.70850095 -0.23782378 614.97422554 -0.24890056 C635.12314995 -0.31286162 654.95577423 1.05502979 674.68527031 5.38142776 C675.65762627 5.59049759 676.62998222 5.79956741 677.63180351 6.01497269 C726.50630407 16.86158911 772.04020175 39.03157345 809.68527031 72.13142776 C810.76808281 73.06535355 810.76808281 73.06535355 811.87277031 74.01814651 C813.82499959 75.70666741 815.75733489 77.41523092 817.68527031 79.13142776 C818.57085625 79.91259964 819.45644218 80.69377151 820.36886406 81.49861526 C825.18094921 85.79488667 829.7519062 90.09513223 833.90011406 95.03767776 C835.96210794 97.45612135 838.13569528 99.75124267 840.31027031 102.06892776 C876.29462176 141.60796439 899.63895256 192.77322529 909.49777031 245.00642776 C909.69274101 246.0380806 909.88771172 247.06973343 910.08859062 248.13264847 C913.14181878 265.3144611 914.06333038 282.33020096 913.99777031 299.75642776 C913.99594749 300.76611618 913.99412468 301.7758046 913.99224663 302.81608963 C913.94577904 318.12965774 913.3832742 333.02419926 910.68527031 348.13142776 C910.43583672 349.61666946 910.43583672 349.61666946 910.18136406 351.13191605 C898.20951324 421.44436954 859.3852698 491.71440986 801.68527031 535.13142776 C800.47770771 536.06694022 799.2707197 537.00319462 798.06417656 537.94002151 C760.04709799 567.21548236 716.13024822 586.95782052 668.99777031 595.88142776 C667.95467705 596.08018509 666.91158379 596.27894241 665.83688164 596.48372269 C647.21948109 599.83591806 628.9166358 600.42271147 610.04400444 600.39212418 C607.38079767 600.39514955 604.71760233 600.39896103 602.05439913 600.40371674 C596.29369136 600.41242172 590.53301915 600.41381135 584.77230644 600.41021347 C576.20520317 600.40487714 567.63813397 600.41103107 559.07103441 600.4192964 C542.87505399 600.43449377 526.67908926 600.43624585 510.4831032 600.43377338 C497.97089666 600.43193683 485.45869523 600.43370789 472.94648933 600.43799782 C471.14538733 600.43860023 469.34428533 600.43920143 467.54318333 600.43980142 C464.82869108 600.44070873 462.11419883 600.4416174 459.39970658 600.44253377 C434.17855603 600.450957 408.9574074 600.45530338 383.73625565 600.45112705 C382.78651268 600.45097068 381.83676972 600.4508143 380.85824667 600.45065319 C376.0451806 600.44984747 371.23211453 600.4490017 366.41904847 600.44813988 C365.46325384 600.4479688 364.50745921 600.44779771 363.5227011 600.44762144 C361.5898543 600.44727478 359.65700751 600.44692625 357.72416072 600.44657585 C327.65893955 600.44122042 297.59374772 600.44914659 267.52853203 600.46760941 C233.70569598 600.4883557 199.88287811 600.49904707 166.06003535 600.49503392 C162.44900553 600.49463861 158.8379757 600.49427706 155.22694588 600.49393654 C154.33789975 600.49384581 153.44885362 600.49375508 152.5328667 600.49366159 C139.15001943 600.4924988 125.76719059 600.49911963 112.38434792 600.50974846 C97.15167497 600.52183453 81.91904245 600.52332037 66.68636887 600.51095829 C58.17761341 600.50436083 49.66895481 600.50588826 41.16020723 600.51954681 C35.45727131 600.52785654 29.75440714 600.52501021 24.05147692 600.51357154 C20.81499912 600.50737884 17.57874287 600.50725305 14.34226994 600.51743487 C-7.03296996 600.5799555 -28.01528045 598.90298644 -48.93972969 594.38142776 C-50.14935371 594.12321243 -51.35897774 593.8649971 -52.60525703 593.59895706 C-117.08676812 579.4286421 -181.19606529 541.44800793 -221.31472969 488.13142776 C-222.25024214 486.92386517 -223.18649654 485.71687715 -224.12332344 484.51033401 C-253.39878429 446.49325545 -273.14112245 402.57640568 -282.06472969 355.44392776 C-282.36286568 353.87928787 -282.36286568 353.87928787 -282.66702461 352.28303909 C-285.77490309 335.02252413 -286.72498934 317.89496572 -286.68972969 300.38142776 C-286.68918587 299.35739853 -286.68864204 298.33336929 -286.68808174 297.27830887 C-286.64512541 279.58906549 -285.570755 262.54714339 -282.31472969 245.13142776 C-282.11105782 244.03250198 -281.90738594 242.9335762 -281.69754219 241.80134964 C-276.54180257 215.08379773 -267.43085554 189.45526015 -255.31472969 165.13142776 C-254.92962227 164.35025589 -254.54451485 163.56908401 -254.1477375 162.76424026 C-241.41487095 137.14117253 -224.43636961 112.45752384 -203.75222969 92.56892776 C-202.07284523 90.93884915 -202.07284523 90.93884915 -199.87722969 88.13142776 C-197.29888311 85.11287567 -194.60048655 82.65531764 -191.58426094 80.09236526 C-189.11740159 77.96093085 -186.75521168 75.73646247 -184.37722969 73.50642776 C-135.732453 29.23497125 -66.06198266 -0.11577247 0 0 Z " fill="#F24D1D" transform="translate(286.31472969055176,-0.13142776489257813)"/>
<path d="M0 0 C53.13 -0.061875 106.26 -0.12375 161 -0.1875 C177.74878906 -0.21481201 194.49757813 -0.24212402 211.75390625 -0.27026367 C232.27539062 -0.28381348 232.27539062 -0.28381348 241.89575195 -0.28633118 C248.58556317 -0.28911543 255.27529821 -0.30006293 261.96508789 -0.31672668 C269.69953987 -0.33596377 277.43391944 -0.34447525 285.16839546 -0.34033485 C289.11611235 -0.33854491 293.06366792 -0.34117244 297.01135445 -0.35764539 C318.62171548 -0.44347034 339.82050021 0.60563683 361 5.25 C361.97235596 5.45906982 362.94471191 5.66813965 363.9465332 5.88354492 C412.82103376 16.73016135 458.35493144 38.90014568 496 72 C496.721875 72.62261719 497.44375 73.24523437 498.1875 73.88671875 C500.13972929 75.57523964 502.07206458 77.28380315 504 79 C504.88558594 79.78117187 505.77117187 80.56234375 506.68359375 81.3671875 C511.4956789 85.66345891 516.06663589 89.96370446 520.21484375 94.90625 C522.27683763 97.32469358 524.45042498 99.6198149 526.625 101.9375 C562.60935145 141.47653663 585.95368225 192.64179753 595.8125 244.875 C596.0074707 245.90665283 596.20244141 246.93830566 596.40332031 248.0012207 C599.45654848 265.18303333 600.37806007 282.19877319 600.3125 299.625 C600.30976578 301.13953262 600.30976578 301.13953262 600.30697632 302.68466187 C600.26050873 317.99822998 599.6980039 332.89277149 597 348 C596.75056641 349.4852417 596.75056641 349.4852417 596.49609375 351.00048828 C584.52424293 421.31294177 545.69999949 491.5829821 488 535 C486.7924374 535.93551245 485.58544939 536.87176685 484.37890625 537.80859375 C446.36182768 567.0840546 402.44497791 586.82639276 355.3125 595.75 C354.26940674 595.94875732 353.22631348 596.14751465 352.15161133 596.35229492 C332.6076061 599.87133206 313.30033112 600.28719048 293.50151767 600.23214546 C289.4955994 600.22330621 285.48968525 600.22634156 281.48375988 600.2277813 C273.735095 600.22883741 265.98647711 600.21967357 258.23782424 600.20677864 C249.26022961 600.19229043 240.28266258 600.19078434 231.30505371 600.18920898 C207.64086178 600.17873917 183.97668017 600.15081667 160.3125 600.125 C107.409375 600.08375 54.50625 600.0425 0 600 C0 402 0 204 0 0 Z " fill="#FE7161" transform="translate(600,0)"/>
<path d="M0 0 C3.99552394 0.01317522 7.99103719 0.00855604 11.9865768 0.00629318 C18.87957242 0.00473376 25.77248167 0.01400182 32.66545558 0.03100669 C42.6310487 0.05557544 52.59660082 0.06322005 62.56222093 0.06697067 C78.73779984 0.07350742 94.9133329 0.09339246 111.08888698 0.1218785 C126.78517374 0.14949148 142.48144796 0.17068945 158.17775416 0.18340194 C159.14819635 0.18419011 160.11863854 0.18497828 161.11848807 0.18579034 C165.98778407 0.18970596 170.85708015 0.19349696 175.7263763 0.19722605 C216.00723875 0.22823532 256.28805005 0.28099454 296.56886744 0.34819686 C296.66072125 41.09618383 296.73105674 81.84415714 296.77312876 122.59222722 C296.7781307 127.41916844 296.78330808 132.24610946 296.78859401 137.07305038 C296.79016787 138.51429172 296.79016787 138.51429172 296.79177353 139.98464905 C296.80910831 155.47693545 296.84060714 170.96916156 296.87747863 186.46141238 C296.91508206 202.39586317 296.93714395 218.33028272 296.94522142 234.26477605 C296.95066931 244.07182812 296.96778003 253.87870973 297.00053331 263.68570923 C297.02192174 270.44004663 297.02801353 277.19429784 297.02287295 283.94866652 C297.02034829 287.82695857 297.02379754 291.70495607 297.04568934 295.58319366 C297.4158078 364.70416806 276.49172718 430.76385768 233.56886744 485.34819686 C232.78769557 486.34335311 232.00652369 487.33850936 231.20167994 488.36382186 C217.79793827 505.05887378 202.60056961 521.32395403 185.56886744 534.34819686 C184.06839869 535.53929061 184.06839869 535.53929061 182.53761744 536.75444686 C169.93985369 546.70980939 156.47067192 555.33635766 142.56886744 563.34819686 C141.45898463 563.99272811 140.34910182 564.63725936 139.20558619 565.30132186 C95.97798611 589.38736857 46.29877661 600.60654956 -2.93113256 600.53569686 C-3.77383702 600.53476028 -4.61654149 600.5338237 -5.48478246 600.53285873 C-18.232376 600.50218715 -30.80419058 600.25449957 -43.43113256 598.34819686 C-45.00169408 598.11423202 -45.00169408 598.11423202 -46.60398412 597.87554061 C-63.57661586 595.26511021 -80.0604136 591.53289728 -96.43113256 586.34819686 C-97.33959935 586.06138046 -98.24806615 585.77456405 -99.18406224 585.47905624 C-136.91446591 573.28309212 -171.76884514 552.4870634 -201.43113256 526.34819686 C-202.24066381 525.64952499 -203.05019506 524.95085311 -203.88425756 524.23100936 C-215.66831063 513.8906979 -226.8327707 502.75196228 -236.43113256 490.34819686 C-237.28309848 489.29563048 -238.13738841 488.24494219 -238.99363256 487.19585311 C-250.31106263 473.23234168 -260.03026934 458.22933535 -268.43113256 442.34819686 C-268.76564427 441.71768417 -269.10015599 441.08717147 -269.44480443 440.43755233 C-289.9333075 401.46746097 -303.28514554 357.34440288 -303.66941381 313.08257186 C-303.67920766 312.13873138 -303.68900151 311.19489089 -303.69909215 310.22244918 C-303.87984443 288.26324029 -303.47682578 266.98766093 -299.43113256 245.34819686 C-299.22746068 244.24927108 -299.02378881 243.1503453 -298.81394506 242.01811874 C-293.97769839 216.95621086 -285.77659421 192.21040644 -274.43113256 169.34819686 C-273.99075658 168.44585311 -273.5503806 167.54350936 -273.0966599 166.61382186 C-252.88053799 125.43621842 -222.36748534 87.74441739 -185.43113256 60.34819686 C-184.86716771 59.92731796 -184.30320287 59.50643905 -183.72214818 59.07280624 C-148.91992048 33.23899754 -110.01690599 15.74181934 -67.80613256 6.03569686 C-66.82008031 5.80519638 -65.83402806 5.57469589 -64.81809545 5.33721054 C-43.35741581 0.66109382 -21.87192849 -0.09082181 0 0 Z " fill="#09CF83" transform="translate(303.43113255500793,1199.651803135872)"/>
<path d="M0 0 C1.05924179 -0.00979385 2.11848358 -0.01958771 3.20982361 -0.02967834 C42.06612628 -0.31496743 77.74991479 3.56421101 114.703125 16.23828125 C115.67209717 16.5616748 115.67209717 16.5616748 116.66064453 16.89160156 C163.49060348 32.642727 208.64805438 63.57504911 240.703125 101.23828125 C241.53714844 102.18445313 242.37117188 103.130625 243.23046875 104.10546875 C286.57178536 153.64515283 314.57154352 221.3241625 314.90625 287.49609375 C314.91330963 288.43396225 314.92036926 289.37183075 314.92764282 290.33811951 C315.15508522 329.4309436 315.15508522 329.4309436 311.703125 348.23828125 C311.39713379 349.94975342 311.39713379 349.94975342 311.08496094 351.69580078 C306.59431471 376.27015958 299.75514267 399.37790858 289.703125 422.23828125 C289.35024414 423.04716797 288.99736328 423.85605469 288.63378906 424.68945312 C270.27346926 466.33811893 239.97846067 506.48255912 203.703125 534.23828125 C202.25486328 535.39457031 202.25486328 535.39457031 200.77734375 536.57421875 C156.80533463 571.29184488 103.42625338 593.21445799 47.703125 599.23828125 C46.85790283 599.33254395 46.01268066 599.42680664 45.1418457 599.52392578 C35.32752993 600.48532112 25.49279012 600.48183164 15.640625 600.48828125 C14.71171448 600.48895599 13.78280396 600.48963074 12.82574463 600.49032593 C-18.49834031 600.45432123 -48.39884429 595.62399216 -78.296875 586.23828125 C-79.0997998 585.98884766 -79.90272461 585.73941406 -80.72998047 585.48242188 C-114.95066803 574.67954303 -146.41879231 556.67169513 -174.296875 534.23828125 C-175.83601562 533.00851562 -175.83601562 533.00851562 -177.40625 531.75390625 C-185.41526079 525.1936824 -192.77521831 517.96962427 -200.109375 510.67578125 C-200.59742615 510.19299713 -201.08547729 509.71021301 -201.58831787 509.21279907 C-208.28535872 502.57170547 -214.474385 495.6629088 -220.296875 488.23828125 C-220.84029541 487.54887451 -221.38371582 486.85946777 -221.94360352 486.14916992 C-251.84421494 447.76935473 -271.74889844 403.53921169 -281.109375 355.80078125 C-281.3043457 354.80836426 -281.49931641 353.81594727 -281.70019531 352.79345703 C-284.7252885 336.46488964 -285.64650941 320.41673422 -285.61254883 303.83642578 C-285.60939934 300.63799554 -285.6329132 297.44050372 -285.65820312 294.2421875 C-285.70325533 279.70517969 -284.51549418 265.60142067 -282.296875 251.23828125 C-282.13368271 250.17383789 -282.13368271 250.17383789 -281.9671936 249.08789062 C-277.89127387 223.19449094 -269.88912077 196.90036131 -258.32568359 173.33691406 C-257.19517151 171.03081964 -256.10039184 168.70917096 -255.00390625 166.38671875 C-246.59581163 148.83232386 -236.20954059 132.61416652 -224.296875 117.23828125 C-223.80106934 116.59826172 -223.30526367 115.95824219 -222.79443359 115.29882812 C-206.67347972 94.65831323 -188.36996512 75.8428266 -167.296875 60.23828125 C-166.65556641 59.76181152 -166.01425781 59.2853418 -165.35351562 58.79443359 C-149.30793687 46.96296335 -132.33590089 36.72252403 -114.296875 28.23828125 C-113.55566406 27.88169434 -112.81445312 27.52510742 -112.05078125 27.15771484 C-77.55977792 10.60805913 -38.37474108 0.29356233 0 0 Z " fill="#19BCFE" transform="translate(885.296875,599.76171875)"/>
</svg>
