<?xml version="1.0" encoding="UTF-8"?>
<svg version="1.1" xmlns="http://www.w3.org/2000/svg" width="704" height="703">
<path d="M0 0 C7.68781786 5.12892368 11.79310014 17.21188622 16 25.125 C16.64974228 26.34285885 17.29964935 27.56062979 17.94970703 28.77832031 C24.18112581 40.46060909 30.37045125 52.16536926 36.55995178 63.86990356 C41.30091708 72.8351998 46.05297146 81.79454595 50.8125 90.75 C51.3355069 91.73413879 51.3355069 91.73413879 51.86907959 92.73815918 C53.62627649 96.04459347 55.38364658 99.35093567 57.14111328 102.65722656 C60.32550659 108.64818816 63.50826414 114.64001877 66.69116211 120.6317749 C68.43857467 123.92121761 70.18608903 127.21060625 71.93359375 130.5 C72.63916066 131.82812473 73.34472706 133.15624974 74.05029297 134.484375 C74.58598907 135.49274414 74.58598907 135.49274414 75.13250732 136.52148438 C81.17167155 147.88932292 87.21083577 159.25716146 93.25 170.625 C95.87322278 167.36944195 97.72908791 163.94941418 99.62109375 160.2265625 C99.93967346 159.60330078 100.25825317 158.98003906 100.58648682 158.33789062 C101.26903108 157.00247614 101.95006846 155.66629058 102.62973022 154.32940674 C104.41549592 150.81887608 106.21456563 147.31520396 108.015625 143.8125 C108.37520798 143.11315338 108.73479095 142.41380676 109.10527039 141.69326782 C113.57718309 133.01924949 118.24444069 124.45227812 122.97949219 115.91943359 C123.86136875 114.32683637 124.73655797 112.730525 125.60644531 111.13134766 C126.26338379 109.92937744 126.26338379 109.92937744 126.93359375 108.703125 C127.32216553 107.98801758 127.7107373 107.27291016 128.11108398 106.53613281 C131.3008514 101.18361421 135.34330488 98.39700854 141.25 96.625 C147.23334453 96.36394657 151.70830163 97.58793478 156.25 101.625 C161.6635205 108.63470055 165.50870241 116.6362713 169.5 124.5 C170.16642827 125.80257644 170.83350918 127.10481917 171.5012207 128.40673828 C172.4988999 130.35208768 173.49627734 132.29758113 174.49165344 134.24411011 C177.10276192 139.3495286 179.75596559 144.43130011 182.4375 149.5 C186.06309752 156.36392216 189.66291131 163.24087149 193.25 170.125 C196.88042046 177.09154465 200.52264911 184.05150849 204.1875 191 C208.24441915 198.70036231 212.28494508 206.40923825 216.3125 214.125 C216.88540771 215.2186084 217.45831543 216.3122168 218.04858398 217.43896484 C218.58040283 218.45941895 219.11222168 219.47987305 219.66015625 220.53125 C220.13590088 221.44197266 220.61164551 222.35269531 221.10180664 223.29101562 C222.25 225.625 222.25 225.625 223.25 228.625 C228.82282502 223.87316137 234.09254215 218.91010025 239.23901367 213.7019043 C239.99292892 212.94331619 240.74684418 212.18472809 241.52360535 211.40315247 C243.14624332 209.77008118 244.76777532 208.13591035 246.38829613 206.50073814 C248.95375938 203.91311903 251.52328641 201.32960113 254.09407043 198.74726868 C261.39797278 191.40988399 268.69760162 184.06828866 275.98706055 176.71655273 C280.45726117 172.20874287 284.93471259 167.70824599 289.41692543 163.21238136 C291.12094979 161.50030114 292.82219235 159.78544754 294.52058983 158.06778526 C296.8899559 155.67199167 299.26841552 153.2855924 301.64916992 150.90112305 C302.34798279 150.18995331 303.04679565 149.47878357 303.76678467 148.74606323 C308.16335337 144.36756909 311.27839715 141.90014841 317.625 141.3125 C323.18249318 141.79159424 326.8409416 143.23256754 330.82983589 147.17439556 C333.8883932 151.00434297 334.56629247 154.96044229 335.34762573 159.70967102 C335.58680829 161.02609257 335.58680829 161.02609257 335.83082283 162.3691085 C336.32414938 165.11797264 336.7895253 167.87046109 337.25 170.625 C337.53833248 172.29314277 337.82708938 173.96121224 338.1163063 175.62920189 C339.00745839 180.83749125 339.84883995 186.05338806 340.68798828 191.27026367 C341.01109588 193.2613688 341.33452763 195.25242134 341.65825176 197.24342632 C342.53310116 202.62982395 343.40341398 208.0169456 344.27289224 213.40421247 C345.20638674 219.1829269 346.1442002 224.96094058 347.08146667 230.73904419 C348.89219569 241.90621633 350.69901815 253.07401691 352.50430518 264.24206996 C353.95912696 273.241685 355.41527572 282.24108437 356.87240601 291.24032593 C357.07919765 292.51747363 357.28598929 293.79462133 357.49904734 295.11047047 C357.9176028 297.69541518 358.33616365 300.28035901 358.75472987 302.86530197 C361.48928619 319.75355459 364.22291645 336.6419566 366.95396423 353.53077698 C371.63750323 382.49299589 376.33035176 411.45367106 381.03783488 440.41200775 C383.0329672 452.68620747 385.02421982 464.96103671 387.01473618 477.23598576 C388.42362302 485.92341152 389.83428095 494.61054198 391.24932861 503.29696655 C392.43280151 510.56189568 393.6126166 517.82740627 394.78743178 525.0937407 C395.37584595 528.73240423 395.96600818 532.37075999 396.56111717 536.00833511 C397.19684176 539.89433233 397.82408137 543.78167087 398.45043945 547.66918945 C398.63551622 548.79182284 398.82059299 549.91445623 399.01127815 551.07110882 C399.85063993 556.3257948 400.46744971 561.30292493 400.25 566.625 C399.64341553 566.95072998 399.03683105 567.27645996 398.41186523 567.61206055 C386.23842834 574.15715233 374.12005739 580.78366218 362.10229492 587.6105957 C354.75712936 591.78095055 347.385785 595.90203266 340 600 C338.87392334 600.62487305 337.74784668 601.24974609 336.58764648 601.89355469 C331.99000603 604.44376493 327.39146863 606.99235552 322.79296875 609.54101562 C311.08919006 616.02912397 299.39187849 622.52631522 287.75 629.125 C273.81580863 637.02298112 259.80193945 644.77672169 245.79296875 652.54101562 C234.0891853 659.02912661 222.39209771 665.52669586 210.75 672.125 C202.78829015 676.63460328 194.8159447 681.12476066 186.82373047 685.58007812 C185.12630792 686.52690767 183.43031285 687.47629492 181.734375 688.42578125 C157.38589717 701.97572396 157.38589717 701.97572396 143.5 702 C142.778125 702.02449219 142.05625 702.04898438 141.3125 702.07421875 C130.16987737 702.13265908 120.43429672 697.01928789 110.9375 691.6875 C109.90407471 691.11757324 108.87064941 690.54764648 107.8059082 689.96044922 C104.61343245 688.19448141 101.43024119 686.41289432 98.25 684.625 C96.81140625 683.81699951 96.81140625 683.81699951 95.34375 682.99267578 C90.62796481 680.3392279 85.91986242 677.67248246 81.21484375 675 C74.83063899 671.37920289 68.41777691 667.8108727 62 664.25 C60.87392334 663.62512695 59.74784668 663.00025391 58.58764648 662.35644531 C55.14213431 660.44529534 51.69615626 658.5349883 48.25 656.625 C34.50102442 649.00480506 20.7648551 641.3663174 7.09277344 633.60888672 C-1.27618839 628.87089541 -9.69716511 624.22932604 -18.12347412 619.59451294 C-27.12056817 614.64447987 -36.07863068 609.63026784 -45.0078125 604.55859375 C-52.72165827 600.18598201 -60.48119188 595.89879016 -68.25 591.625 C-77.4172677 586.57951869 -86.57098906 581.51189412 -95.6875 576.375 C-96.62207031 575.85035156 -97.55664062 575.32570313 -98.51953125 574.78515625 C-103.05431985 572.22172234 -107.465716 569.58941397 -111.75 566.625 C-111.17189617 554.67880365 -109.22230016 542.97140926 -107.35571289 531.17382812 C-106.99878688 528.89372345 -106.64230898 526.61354859 -106.28623867 524.33331013 C-105.51363913 519.3921875 -104.7378072 514.45158694 -103.95948792 509.51136208 C-102.80280422 502.16949775 -101.65192505 494.82673444 -100.50246139 487.48373676 C-98.331817 473.61838837 -96.15476543 459.75405093 -93.97569144 445.8900252 C-90.08501164 421.13587106 -86.20208087 396.38049972 -82.31923229 371.62511617 C-81.05980126 363.59556598 -79.800126 355.56605427 -78.53988838 347.53663063 C-71.61238997 303.39737308 -64.73469181 259.25067345 -57.90892082 215.09557068 C-56.19857428 204.03198865 -54.48562496 192.96881215 -52.77085876 181.90591431 C-52.53023907 180.35343599 -52.28961963 178.80095764 -52.04900044 177.24847925 C-51.09737197 171.10877415 -50.14566394 164.96908141 -49.19363773 158.82943797 C-46.52258247 141.60339071 -43.85846767 124.3763146 -41.2095211 107.14685281 C-39.36583211 95.15625669 -37.51154986 83.16733743 -35.64651835 71.18004209 C-34.63704665 64.68956887 -33.63301831 58.1983348 -32.64204407 51.70500755 C-31.7360594 45.76884304 -30.81647863 39.83495447 -29.88586795 33.9026022 C-29.55117361 31.75291811 -29.22159465 29.60243029 -28.89755929 27.4511137 C-28.45751784 24.53449936 -27.99921399 21.62133154 -27.53614807 18.70829773 C-27.35250104 17.44594741 -27.35250104 17.44594741 -27.16514397 16.15809506 C-26.13453088 9.87037122 -24.01054562 5.66500458 -19.1875 1.3125 C-13.37296335 -2.71294845 -6.43228908 -2.358506 0 0 Z " fill="#FBC93F" transform="translate(202.75,1.375)"/>
<path d="M0 0 C7.89362241 5.1080291 11.87746409 17.29741165 16 25.375 C20.33071542 33.81008632 24.73128044 42.19741577 29.3125 50.5 C34.32148131 59.58793985 39.10293817 68.78404671 43.84500122 78.01275635 C47.87841735 85.85776407 51.98370572 93.65335994 56.25 101.375 C61.69554472 111.2366577 66.84285539 121.24162454 71.97210693 131.26998901 C77.11296718 141.31751061 82.36218555 151.28399637 87.88476562 161.12890625 C88.33529297 161.9384375 88.78582031 162.74796875 89.25 163.58203125 C89.63929688 164.27272705 90.02859375 164.96342285 90.4296875 165.67504883 C91.38539141 167.64643498 91.92554564 169.48620689 92.375 171.625 C93.365 171.295 94.355 170.965 95.375 170.625 C95.375 171.285 95.375 171.945 95.375 172.625 C96.035 172.625 96.695 172.625 97.375 172.625 C97.61347656 171.81828857 97.85195313 171.01157715 98.09765625 170.18041992 C99.66160929 165.82723793 101.68758056 161.84027448 103.8125 157.73828125 C104.47185547 156.45355171 104.47185547 156.45355171 105.14453125 155.14286804 C106.5507141 152.40568061 107.9628599 149.67161788 109.375 146.9375 C110.29333874 145.15058072 111.21131066 143.36347288 112.12890625 141.57617188 C113.95805925 138.01610028 115.79601264 134.46077582 117.640625 130.90869141 C119.46464603 127.3956509 121.26402965 123.87150267 123.046875 120.33740234 C123.9060351 118.65581467 124.76540137 116.9743323 125.625 115.29296875 C126.00076172 114.53615311 126.37652344 113.77933746 126.76367188 112.99958801 C129.83070801 107.04935686 133.76167254 99.82944249 140.375 97.625 C142.57421875 97.28125 142.57421875 97.28125 145.0625 97.125 C145.87074219 97.0528125 146.67898438 96.980625 147.51171875 96.90625 C153.23450676 98.34280252 156.95282265 102.48262122 160.14672852 107.29394531 C161.96167834 110.48783827 163.65136768 113.72347569 165.3125 117 C165.94929593 118.22529259 166.58759967 119.44980256 167.22729492 120.67358398 C168.93882349 123.95860314 170.62879162 127.25425716 172.31408691 130.55279541 C174.12314939 134.08630594 175.94945762 137.61089265 177.7734375 141.13671875 C180.69161904 146.78299823 183.59909693 152.43467037 186.5 158.08984375 C189.90589622 164.72689988 193.3540508 171.34040208 196.84326172 177.93408203 C198.99793666 182.006262 201.13708054 186.08579818 203.2578125 190.17578125 C209.78567707 202.76051389 216.47615829 215.23956457 223.375 227.625 C217.52860434 234.75060702 210.9519716 241.11491988 204.40014648 247.5793457 C202.8908987 249.07025571 201.38486342 250.56436107 199.87890625 252.05859375 C198.99017822 252.93572021 198.1014502 253.81284668 197.18579102 254.71655273 C195.17320638 256.75151872 193.30364754 258.86498346 191.45189571 261.04669189 C186.3516472 266.89100789 180.82290436 272.31194957 175.33387756 277.78637695 C174.11080678 279.00988433 172.88795598 280.23361165 171.66530508 281.4575386 C168.31989677 284.8051746 164.97139251 288.14969853 161.62235868 291.49370694 C158.00577273 295.10596374 154.3920882 298.7211211 150.77804565 302.33592224 C144.52102828 308.59346329 138.26218645 314.84917467 132.00209236 321.1036377 C122.95111258 330.14648127 113.90290407 339.19209359 104.85536378 348.23837829 C90.17530737 362.91624751 75.49302042 377.59188341 60.80932617 392.26611328 C46.54773617 406.51852054 32.28719962 420.77198048 18.02807617 435.02685547 C17.14875154 435.90591738 16.26942691 436.78497928 15.36345608 437.69067943 C10.95203229 442.10079816 6.54062917 446.51093757 2.12923634 450.92108727 C-34.45230391 487.49226529 -71.03746617 524.0598183 -107.625 560.625 C-108.80878675 557.07363975 -108.42129943 555.21251161 -107.82739258 551.52978516 C-107.62533707 550.25399094 -107.42328156 548.97819672 -107.21510315 547.66374207 C-106.9833414 546.24716657 -106.75148079 544.83060725 -106.51953125 543.4140625 C-106.28135547 541.92603465 -106.04385861 540.437898 -105.80699158 538.94966125 C-105.29468837 535.73912146 -104.77800627 532.52932831 -104.25793457 529.32003784 C-103.42873236 524.20221792 -102.60932363 519.08286226 -101.79199219 513.96313477 C-101.51169933 512.20789923 -101.23139529 510.45266548 -100.95108032 508.69743347 C-100.81088093 507.81948812 -100.67068153 506.94154278 -100.52623367 506.03699303 C-100.09383806 503.33157911 -99.6604902 500.62631922 -99.22689819 497.9210968 C-96.34880476 479.95630994 -93.54608194 461.98003397 -90.75396729 444.00171661 C-89.74977549 437.53825286 -88.74312555 431.07517112 -87.73695755 424.61201477 C-87.37456808 422.28403772 -87.0122726 419.95604605 -86.6499939 417.62805176 C-83.32911685 396.29043918 -79.9826299 374.95685778 -76.625 353.625 C-76.45673706 352.55568237 -76.28847412 351.48636475 -76.1151123 350.38464355 C-74.84906641 342.33952698 -73.58138576 334.29466914 -72.3125 326.25 C-72.03832245 324.51135178 -72.03832245 324.51135178 -71.75860596 322.73757935 C-69.56178866 308.81264666 -67.3504897 294.89012033 -65.12012291 280.97052765 C-64.74976216 278.65867164 -64.37969182 276.34676933 -64.00971985 274.03485107 C-63.76339873 272.4957273 -63.5170761 270.95660376 -63.27075195 269.41748047 C-63.14911588 268.65740189 -63.0274798 267.8973233 -62.90215778 267.11421204 C-62.3072254 263.39787371 -61.71131872 259.6816968 -61.11312866 255.96588135 C-58.60706725 240.39778105 -56.19027947 224.82423817 -53.99613953 209.20831299 C-52.79143614 200.67148818 -51.45097399 192.1672679 -49.98773193 183.67129517 C-47.86557796 171.33384254 -45.86291113 158.98524939 -44.09375 146.59155273 C-43.06901644 139.45285756 -41.94157604 132.33389826 -40.79345703 125.21411133 C-38.92590286 113.58639728 -37.13199121 101.94849965 -35.36120605 90.30572128 C-34.3307812 83.5482068 -33.28730919 76.79269113 -32.24530029 70.03695488 C-31.33728218 64.14534244 -30.43466655 58.25299305 -29.54296875 52.35888672 C-28.66893798 46.58338263 -27.78107363 40.81015868 -26.88366699 35.03824234 C-26.54698144 32.85659095 -26.21528183 30.67416375 -25.88879395 28.49096298 C-25.43384017 25.45384832 -24.96120201 22.4199768 -24.484375 19.38623047 C-24.35542847 18.49689819 -24.22648193 17.60756592 -24.09362793 16.69128418 C-23.12013962 10.66434073 -21.55865114 5.41196859 -16.984375 1.06640625 C-10.99834812 -2.20266183 -6.3795488 -2.41982886 0 0 Z " fill="#F9A311" transform="translate(201.625,4.375)"/>
<path d="M0 0 C0.80824219 -0.0721875 1.61648438 -0.144375 2.44921875 -0.21875 C8.17200676 1.21780252 11.89032265 5.35762122 15.08422852 10.16894531 C16.89917834 13.36283827 18.58886768 16.59847569 20.25 19.875 C20.88679593 21.10029259 21.52509967 22.32480256 22.16479492 23.54858398 C23.87632349 26.83360314 25.56629162 30.12925716 27.25158691 33.42779541 C29.06064939 36.96130594 30.88695762 40.48589265 32.7109375 44.01171875 C35.62911904 49.65799823 38.53659693 55.30967037 41.4375 60.96484375 C44.84339622 67.60189988 48.2915508 74.21540208 51.78076172 80.80908203 C53.93543666 84.881262 56.07458054 88.96079818 58.1953125 93.05078125 C64.72317707 105.63551389 71.41365829 118.11456457 78.3125 130.5 C72.46610434 137.62560702 65.8894716 143.98991988 59.33764648 150.4543457 C57.8283987 151.94525571 56.32236342 153.43936107 54.81640625 154.93359375 C53.92767822 155.81072021 53.0389502 156.68784668 52.12329102 157.59155273 C50.10765082 159.62961783 48.23491795 161.74652035 46.37990475 163.93118286 C41.3294497 169.71853833 35.85879489 175.08861931 30.42323303 180.50952148 C29.21666146 181.71652967 28.01030988 182.9237578 26.80415815 184.13118553 C23.50435595 187.43321512 20.20145842 190.73213305 16.89803064 194.03053498 C13.33052467 197.59371134 9.7659206 201.15978872 6.20095825 204.72550964 C0.02906454 210.897927 -6.14465342 217.0685148 -12.31962395 223.237854 C-21.24752756 232.15762103 -30.17265953 241.08015715 -39.09712345 250.00336552 C-53.57752264 264.48157758 -68.06015229 278.95755635 -82.54418945 293.43212891 C-96.61176911 307.49052567 -110.67829521 321.54997522 -124.7434082 335.61083984 C-125.61078485 336.47795377 -126.4781615 337.34506769 -127.37182229 338.2384578 C-131.7233098 342.58864024 -136.07477662 346.93884337 -140.42623317 351.28905678 C-176.51011684 387.36257841 -212.59762251 423.43247498 -248.6875 459.5 C-249.6775 459.17 -250.6675 458.84 -251.6875 458.5 C-244.20254458 443.39052459 -236.50486006 428.41769953 -228.57617188 413.53710938 C-226.57857299 409.78790268 -224.58414921 406.03701708 -222.59085083 402.28552246 C-221.402953 400.05254527 -220.21119774 397.82165742 -219.01928711 395.59082031 C-214.97795438 388.00134651 -211.09809319 380.40066184 -207.6875 372.5 C-207.0275 372.5 -206.3675 372.5 -205.6875 372.5 C-205.56149414 371.92797852 -205.43548828 371.35595703 -205.30566406 370.76660156 C-204.20142214 366.71771452 -202.23694295 363.02941254 -200.4375 359.25 C-200.05464844 358.42886719 -199.67179687 357.60773438 -199.27734375 356.76171875 C-197.07006865 352.10355624 -194.6581679 347.73664399 -191.87060547 343.40332031 C-189.98810378 340.3748467 -188.43437563 337.20354867 -186.875 334 C-186.19022829 332.61191793 -185.50532838 331.22389909 -184.8203125 329.8359375 C-184.47258789 329.12791992 -184.12486328 328.41990234 -183.76660156 327.69042969 C-181.94519814 323.99322798 -180.09620853 320.30985923 -178.25 316.625 C-177.58451 315.29433355 -176.91913545 313.96360935 -176.25390625 312.6328125 C-175.3984375 310.921875 -174.54296875 309.2109375 -173.6875 307.5 C-173.0275 307.5 -172.3675 307.5 -171.6875 307.5 C-171.53825073 306.4634729 -171.53825073 306.4634729 -171.38598633 305.40600586 C-170.55201459 301.93632199 -169.1581881 299.17133742 -167.51171875 296.00390625 C-167.19058105 295.38264862 -166.86944336 294.76139099 -166.53857422 294.12130737 C-165.49038472 292.0983406 -164.43294947 290.0803773 -163.375 288.0625 C-162.64332274 286.65584327 -161.91196142 285.24902217 -161.1809082 283.84204102 C-156.53914301 274.93088996 -151.77437534 266.09257188 -146.91674805 257.29711914 C-143.02224781 250.21049241 -139.4077891 243.00420941 -135.83300781 235.75219727 C-132.58649673 229.2026583 -129.15785379 222.77414203 -125.625 216.375 C-121.78756906 209.42296295 -118.08326252 202.4304124 -114.5625 195.3125 C-108.7404001 183.54198244 -102.62541557 171.93972338 -96.390625 160.3828125 C-87.80104048 144.44733637 -79.46062015 128.3988051 -71.21382141 112.28356934 C-70.82486191 111.52354614 -70.4359024 110.76352295 -70.03515625 109.98046875 C-69.65381027 109.23526978 -69.27246429 108.4900708 -68.87956238 107.72229004 C-65.88842138 101.88174892 -62.87002739 96.05611022 -59.8125 90.25 C-59.45051514 89.56156006 -59.08853027 88.87312012 -58.71557617 88.16381836 C-56.11008677 83.23651931 -53.40819334 78.36448207 -50.6875 73.5 C-50.3575 74.16 -50.0275 74.82 -49.6875 75.5 C-49.0275 75.5 -48.3675 75.5 -47.6875 75.5 C-47.44902344 74.69328857 -47.21054687 73.88657715 -46.96484375 73.05541992 C-45.40089071 68.70223793 -43.37491944 64.71527448 -41.25 60.61328125 C-40.81042969 59.75679489 -40.37085938 58.90030853 -39.91796875 58.01786804 C-38.5117859 55.28068061 -37.0996401 52.54661788 -35.6875 49.8125 C-34.76916126 48.02558072 -33.85118934 46.23847288 -32.93359375 44.45117188 C-31.10444075 40.89110028 -29.26648736 37.33577582 -27.421875 33.78369141 C-25.59785397 30.2706509 -23.79847035 26.74650267 -22.015625 23.21240234 C-21.1564649 21.53081467 -20.29709863 19.8493323 -19.4375 18.16796875 C-18.87385742 17.03274529 -18.87385742 17.03274529 -18.29882812 15.87458801 C-14.12416905 7.77550296 -9.68209694 0.60798097 0 0 Z " fill="#F6820C" transform="translate(346.6875,101.5)"/>
<path d="M0 0 C0.80824219 -0.0721875 1.61648438 -0.144375 2.44921875 -0.21875 C8.17200676 1.21780252 11.89032265 5.35762122 15.08422852 10.16894531 C16.89917834 13.36283827 18.58886768 16.59847569 20.25 19.875 C20.88679593 21.10029259 21.52509967 22.32480256 22.16479492 23.54858398 C23.87632349 26.83360314 25.56629162 30.12925716 27.25158691 33.42779541 C29.06064939 36.96130594 30.88695762 40.48589265 32.7109375 44.01171875 C35.62911904 49.65799823 38.53659693 55.30967037 41.4375 60.96484375 C44.84339622 67.60189988 48.2915508 74.21540208 51.78076172 80.80908203 C53.93543666 84.881262 56.07458054 88.96079818 58.1953125 93.05078125 C64.72317707 105.63551389 71.41365829 118.11456457 78.3125 130.5 C72.46610434 137.62560702 65.8894716 143.98991988 59.33764648 150.4543457 C52.44560459 157.20836999 52.44560459 157.20836999 45.9609375 164.34765625 C40.48806541 170.75478048 34.34951551 176.56674173 28.375 182.5 C27.10588627 183.7640885 25.83700411 185.02840956 24.56835938 186.29296875 C21.4857368 189.36466724 18.39999572 192.43320008 15.3125 195.5 C12.80888815 193.23151391 11.35304938 190.9834972 9.81640625 187.984375 C9.34638184 187.07461914 8.87635742 186.16486328 8.39208984 185.22753906 C7.8914502 184.24495117 7.39081055 183.26236328 6.875 182.25 C5.79571348 180.15617754 4.71628233 178.06242962 3.63671875 175.96875 C3.0854834 174.89496094 2.53424805 173.82117188 1.96630859 172.71484375 C-0.60548951 167.71551729 -3.20895389 162.73284518 -5.8125 157.75 C-6.31628174 156.78457275 -6.82006348 155.81914551 -7.33911133 154.82446289 C-16.19636155 137.85297696 -25.1460769 120.93013311 -34.11793518 104.01899719 C-34.8527805 102.62921701 -35.58371011 101.23735914 -36.31065369 99.84342957 C-38.2377648 96.16113044 -40.23356043 92.54623011 -42.35717773 88.97314453 C-43.00431984 87.84998337 -43.00431984 87.84998337 -43.66453552 86.70413208 C-44.4888087 85.2769069 -45.33652251 83.86286218 -46.21131897 82.46603394 C-47.87539497 79.53519206 -48.85744564 77.59596503 -48.33026123 74.19619751 C-46.99854546 70.15225409 -45.16827266 66.43345692 -42.890625 62.8359375 C-39.88805107 57.90849252 -37.24782199 52.85040556 -34.63500977 47.70727539 C-32.86987344 44.23992965 -31.07068176 40.79231369 -29.26171875 37.34765625 C-26.91653335 32.87256242 -24.6073789 28.38208319 -22.33203125 23.87109375 C-21.80134033 22.82791992 -21.27064941 21.78474609 -20.72387695 20.70996094 C-19.73038647 18.75550167 -18.74525419 16.79676133 -17.77026367 14.83300781 C-13.6731787 6.82803564 -9.64852174 0.60587264 0 0 Z " fill="#FBA20E" transform="translate(346.6875,101.5)"/>
<path d="M0 0 C7.68781786 5.12892368 11.79310014 17.21188622 16 25.125 C16.64974228 26.34285885 17.29964935 27.56062979 17.94970703 28.77832031 C24.18112581 40.46060909 30.37045125 52.16536926 36.55995178 63.86990356 C41.30091708 72.8351998 46.05297146 81.79454595 50.8125 90.75 C51.3355069 91.73413879 51.3355069 91.73413879 51.86907959 92.73815918 C53.62627649 96.04459347 55.38364658 99.35093567 57.14111328 102.65722656 C60.32550659 108.64818816 63.50826414 114.64001877 66.69116211 120.6317749 C68.43857467 123.92121761 70.18608903 127.21060625 71.93359375 130.5 C72.63916066 131.82812473 73.34472706 133.15624974 74.05029297 134.484375 C74.58598907 135.49274414 74.58598907 135.49274414 75.13250732 136.52148438 C81.17167155 147.88932292 87.21083577 159.25716146 93.25 170.625 C95.87322278 167.36944195 97.72908791 163.94941418 99.62109375 160.2265625 C99.93967346 159.60330078 100.25825317 158.98003906 100.58648682 158.33789062 C101.26903108 157.00247614 101.95006846 155.66629058 102.62973022 154.32940674 C104.41549592 150.81887608 106.21456563 147.31520396 108.015625 143.8125 C108.37520798 143.11315338 108.73479095 142.41380676 109.10527039 141.69326782 C113.57718309 133.01924949 118.24444069 124.45227812 122.97949219 115.91943359 C123.86136875 114.32683637 124.73655797 112.730525 125.60644531 111.13134766 C126.26338379 109.92937744 126.26338379 109.92937744 126.93359375 108.703125 C127.32216553 107.98801758 127.7107373 107.27291016 128.11108398 106.53613281 C131.3008514 101.18361421 135.34330488 98.39700854 141.25 96.625 C147.23334453 96.36394657 151.70830163 97.58793478 156.25 101.625 C161.6635205 108.63470055 165.50870241 116.6362713 169.5 124.5 C170.16642827 125.80257644 170.83350918 127.10481917 171.5012207 128.40673828 C172.4988999 130.35208768 173.49627734 132.29758113 174.49165344 134.24411011 C177.10276192 139.3495286 179.75596559 144.43130011 182.4375 149.5 C186.06309752 156.36392216 189.66291131 163.24087149 193.25 170.125 C196.88042046 177.09154465 200.52264911 184.05150849 204.1875 191 C208.24441915 198.70036231 212.28494508 206.40923825 216.3125 214.125 C216.88540771 215.2186084 217.45831543 216.3122168 218.04858398 217.43896484 C218.58040283 218.45941895 219.11222168 219.47987305 219.66015625 220.53125 C220.13590088 221.44197266 220.61164551 222.35269531 221.10180664 223.29101562 C222.25 225.625 222.25 225.625 223.25 228.625 C228.82282502 223.87316137 234.09254215 218.91010025 239.23901367 213.7019043 C239.99292892 212.94331619 240.74684418 212.18472809 241.52360535 211.40315247 C243.14624332 209.77008118 244.76777532 208.13591035 246.38829613 206.50073814 C248.95375938 203.91311903 251.52328641 201.32960113 254.09407043 198.74726868 C261.39797278 191.40988399 268.69760162 184.06828866 275.98706055 176.71655273 C280.45726117 172.20874287 284.93471259 167.70824599 289.41692543 163.21238136 C291.12094979 161.50030114 292.82219235 159.78544754 294.52058983 158.06778526 C296.8899559 155.67199167 299.26841552 153.2855924 301.64916992 150.90112305 C302.34798279 150.18995331 303.04679565 149.47878357 303.76678467 148.74606323 C308.16335337 144.36756909 311.27839715 141.90014841 317.625 141.3125 C323.18249318 141.79159424 326.8409416 143.23256754 330.82983589 147.17439556 C333.8883932 151.00434297 334.56629247 154.96044229 335.34762573 159.70967102 C335.58680829 161.02609257 335.58680829 161.02609257 335.83082283 162.3691085 C336.32414938 165.11797264 336.7895253 167.87046109 337.25 170.625 C337.53833248 172.29314277 337.82708938 173.96121224 338.1163063 175.62920189 C339.00745835 180.83749125 339.84884065 186.05338794 340.68798828 191.27026367 C341.01109309 193.26135734 341.33452198 195.25239844 341.65824318 197.24339199 C342.53308947 202.6297845 343.4033997 208.01690094 344.2728796 213.40416193 C345.20641429 219.18307791 346.14428401 224.96129051 347.081604 230.73959351 C348.89239169 241.90691318 350.69926815 253.07486202 352.5045557 264.24307203 C353.95906371 273.24099316 355.41477581 282.23871865 356.87139893 291.23629761 C357.07809255 292.51305325 357.28478618 293.7898089 357.49774325 295.10525411 C357.91609787 297.68939526 358.33445783 300.27353554 358.75282311 302.85767496 C361.48637105 319.74244905 364.21912007 336.62735191 366.94943237 353.51264954 C371.6400097 382.51918835 376.34340593 411.52358941 381.06606352 440.52492231 C383.06973698 452.83045691 385.06852662 465.13678504 387.0665493 477.44323826 C388.62091019 487.01572611 390.17937538 496.58752796 391.74295139 506.15851498 C392.79402687 512.59491885 393.8399227 519.03215024 394.88152027 525.47009468 C395.47292103 529.12443272 396.06666465 532.77834842 396.66684723 536.43125534 C397.30696126 540.3273615 397.93607 544.2251958 398.56396484 548.12329102 C398.75263689 549.26030551 398.94130894 550.39732 399.13569832 551.56878948 C399.38145261 553.11195449 399.38145261 553.11195449 399.63217163 554.68629456 C399.77677008 555.5746679 399.92136852 556.46304125 400.07034874 557.378335 C400.25 559.625 400.25 559.625 399.25 562.625 C398.59 562.625 397.93 562.625 397.25 562.625 C397.13519287 561.88080811 397.02038574 561.13661621 396.90209961 560.36987305 C394.30166598 543.54645218 391.62721991 526.73675941 388.875 509.9375 C386.01361655 492.47039645 383.25756435 474.98834803 380.55908203 457.49536133 C378.45480414 443.85913011 376.19385054 430.26046763 373.78930664 416.67407227 C371.34941018 402.87840526 368.94083297 389.08653531 366.87060547 375.22973633 C365.18737019 364.03147411 363.33651985 352.8614606 361.5 341.6875 C358.19757011 321.58104073 355.0006519 301.45941721 351.86425781 281.32641602 C349.77143772 267.89472514 347.59448099 254.48947696 345.19506836 241.10864258 C342.88939786 228.23830972 340.68549652 215.35931666 338.6875 202.4375 C338.48680908 201.14312012 338.28611816 199.84874023 338.0793457 198.51513672 C337.24478161 193.11549025 336.41427739 187.71530081 335.59716797 182.31298828 C335.05424622 178.72621185 334.50144438 175.1410695 333.94265747 171.55673218 C333.63338986 169.55432172 333.33497464 167.55024459 333.03686523 165.54614258 C332.75178101 163.72505981 332.75178101 163.72505981 332.4609375 161.8671875 C332.21802979 160.27173096 332.21802979 160.27173096 331.97021484 158.64404297 C330.8396193 153.90473973 329.24779673 150.52776847 325.625 147.25 C321.21948488 145.12882605 318.03583836 144.66163721 313.25 145.625 C307.38946363 149.01037157 302.54929522 154.04084421 297.81564331 158.81326103 C296.75584968 159.86959313 296.75584968 159.86959313 295.67464608 160.94726527 C293.31463097 163.30199774 290.9618021 165.66377912 288.60888672 168.02560425 C286.89886641 169.73475214 285.18840655 171.44346035 283.47754574 173.1517669 C279.76214712 176.86362811 276.04986048 180.57857234 272.34031105 184.296278 C266.8243727 189.82431049 261.30268498 195.34657344 255.77982018 200.86768489 C246.48863987 210.15624016 237.20211398 219.44943561 227.91824341 228.74529648 C218.727735 237.94764412 209.5351568 247.14791603 200.33981323 256.34543228 C199.76780193 256.91758106 199.19579063 257.48972985 198.60644565 258.07921647 C195.70140815 260.98493065 192.79633369 263.89060787 189.89124501 266.79627086 C169.3214427 287.37027256 148.75627992 307.94890606 128.19384766 328.53027344 C108.21931015 348.52318343 88.24267019 368.51398885 68.26318359 388.50195312 C67.64719071 389.11820906 67.03119783 389.73446499 66.3965385 390.36939535 C60.21041021 396.55816071 54.02423919 402.74688335 47.83803686 408.9355747 C35.23634076 421.54234306 22.63492984 434.14939648 10.03369141 446.75662231 C9.1646385 447.62608709 9.1646385 447.62608709 8.27802896 448.51311682 C-30.40275934 487.21230247 -69.07687834 525.91815304 -107.75 564.625 C-108.41 564.295 -109.07 563.965 -109.75 563.625 C-109.11575118 562.9911309 -108.48150235 562.35726179 -107.82803386 561.70418453 C-70.2393516 524.13787918 -32.65327877 486.56896475 4.92940605 448.99665928 C9.44176925 444.48554679 13.95415425 439.97445611 18.46655273 435.46337891 C19.36489161 434.56530234 20.26323048 433.66722578 21.18879174 432.74193478 C35.73558585 418.19949226 50.28414554 403.65881731 64.83335824 389.11879456 C79.76157852 374.19992501 94.68790047 359.27915815 109.61246103 344.35662746 C118.82212752 335.14833324 128.0332724 325.94152299 137.24631243 316.73660403 C143.56345276 310.42474866 149.87874861 304.11105169 156.19259752 297.79590386 C159.83565015 294.1522106 163.47951012 290.50933442 167.12556267 286.86864281 C170.46563302 283.53344761 173.80337313 280.19593849 177.13929992 276.85659897 C178.34446372 275.65101353 179.55046931 274.44626886 180.75741542 273.24246776 C186.29602973 267.71744378 191.80141475 262.20548353 196.86628908 256.23431969 C199.10709932 253.62815392 201.52749625 251.23607718 203.96484375 248.8125 C204.46544815 248.31331055 204.96605255 247.81412109 205.48182678 247.29980469 C207.04800764 245.7391263 208.61766471 244.18200153 210.1875 242.625 C211.26390654 241.55362113 212.34008014 240.48200818 213.41601562 239.41015625 C216.02466745 236.81240362 218.63644471 234.21782038 221.25 231.625 C212.82051594 214.58886045 203.97665984 197.77221873 195.10546875 180.96289062 C192.77286242 176.53758209 190.45851141 172.10335993 188.16015625 167.66015625 C182.4148928 156.55563385 176.61464937 145.49271903 170.57006836 134.54760742 C168.14521744 130.14739998 165.77762409 125.73257949 163.5234375 121.2421875 C163.08668701 120.38028809 162.64993652 119.51838867 162.19995117 118.63037109 C161.38988574 117.02277267 160.59203008 115.40892964 159.80981445 113.78759766 C157.19818815 108.62864537 154.20347764 104.73458525 149.25 101.625 C144.7780136 100.47783827 140.61351836 101.06180763 136.375 102.8125 C131.1728146 107.24965814 128.41157121 112.84813097 125.3984375 118.8515625 C124.93950104 119.7538559 124.48056458 120.65614929 124.00772095 121.58578491 C122.54137264 124.47113389 121.08286775 127.36035825 119.625 130.25 C117.71837239 134.01415198 115.80861086 137.77670887 113.8984375 141.5390625 C113.43016541 142.46277649 112.96189331 143.38649048 112.47943115 144.3381958 C108.14745491 152.86695518 103.70214555 161.33410877 99.21450806 169.78182983 C98.2015139 171.7176567 97.22137522 173.66800395 96.25 175.625 C93.93188477 175.42456055 93.93188477 175.42456055 91.25 174.625 C89.67944336 172.56567383 89.67944336 172.56567383 88.33984375 169.83203125 C87.83163086 168.82140625 87.32341797 167.81078125 86.79980469 166.76953125 C86.26774414 165.66996094 85.73568359 164.57039062 85.1875 163.4375 C84.02680776 161.12005675 82.86401005 158.80366695 81.69921875 156.48828125 C81.11833496 155.32377441 80.53745117 154.15926758 79.93896484 152.95947266 C77.570966 148.28440353 75.04568251 143.70494971 72.5 139.125 C67.00892694 129.17179337 61.81962671 119.07281525 56.63934326 108.95593262 C51.7946593 99.49956697 46.84812546 90.11713651 41.71142578 80.81518555 C37.55355019 73.25534723 33.57628625 65.60650682 29.625 57.9375 C29.30406372 57.31481232 28.98312744 56.69212463 28.65246582 56.05056763 C27.39080583 53.602297 26.12950119 51.15384379 24.86871338 48.7051239 C20.71924826 40.648113 16.53315792 32.61181901 12.25 24.625 C11.85055176 23.87847168 11.45110352 23.13194336 11.03955078 22.36279297 C9.84998954 20.15225102 8.64656182 17.94992615 7.4375 15.75 C7.0883252 15.10119873 6.73915039 14.45239746 6.37939453 13.78393555 C3.61814812 8.82567453 0.7833262 4.46944207 -4.75 2.625 C-10.30242746 2.2609064 -14.04460283 2.30983381 -18.75 5.625 C-22.47172975 11.07637271 -23.6709443 15.91396098 -24.609375 22.38623047 C-24.75959106 23.34195953 -24.90980713 24.2976886 -25.0645752 25.28237915 C-25.55649082 28.43373333 -26.02826865 31.58775429 -26.5 34.7421875 C-26.84216613 36.95935187 -27.18561299 39.17631893 -27.53027344 41.39309692 C-28.43552284 47.23745282 -29.32384845 53.08425773 -30.20849609 58.9317627 C-31.09801553 64.79324662 -32.00250724 70.65241393 -32.90625 76.51171875 C-33.92900624 83.1472871 -34.95042918 89.78302889 -35.95996094 96.42062378 C-37.71205147 107.93561366 -39.50991979 119.44194819 -41.35883331 130.94180775 C-42.59988907 138.66542843 -43.80319685 146.3934903 -44.96875 154.12890625 C-45.34761766 156.62695898 -45.7265251 159.12500567 -46.10546875 161.62304688 C-46.67853736 165.40867645 -47.2510405 169.19439012 -47.82275391 172.98022461 C-49.90050961 186.72872166 -52.0274678 200.46365455 -54.34129333 214.17453003 C-55.79545052 222.81640698 -57.11969917 231.47459693 -58.41323853 240.14175415 C-61.49583316 260.76189246 -64.76307377 281.35126305 -68.0625 301.9375 C-71.59612181 323.98817877 -75.06924829 346.04658385 -78.44382477 368.12217331 C-81.94916278 391.0521291 -85.52630419 413.96939251 -89.1875 436.875 C-89.30061523 437.58276958 -89.41373047 438.29053917 -89.53027344 439.01975632 C-90.79308564 446.92017729 -92.05797858 454.82026438 -93.32373047 462.72021484 C-95.44051355 475.93200257 -97.55136565 489.14473766 -99.65978527 502.35786247 C-100.37086897 506.81379301 -101.08289755 511.26957092 -101.79585171 515.72520256 C-102.23759885 518.48727628 -102.67837879 521.24950399 -103.11912346 524.01173782 C-103.43238431 525.97189599 -103.74725337 527.93179692 -104.06214905 529.89169312 C-104.96615377 535.54786413 -105.84490579 541.20317204 -106.62109375 546.87841797 C-106.75104736 547.81314438 -106.88100098 548.74787079 -107.01489258 549.71092224 C-107.245455 551.39411587 -107.46627207 553.07869095 -107.67456055 554.76478577 C-108.24879346 558.94755839 -109.09386876 561.3841547 -111.75 564.625 C-110.28596652 551.01998159 -108.26614303 537.52562992 -106.14697266 524.0090332 C-105.78046403 521.65600325 -105.41423304 519.30293004 -105.04825401 516.94981766 C-104.15457909 511.20856096 -103.25797874 505.46776671 -102.36007407 499.72717013 C-101.28892027 492.87788259 -100.22143761 486.02802418 -99.15405443 479.1781482 C-97.07682796 465.84844037 -94.99600372 452.51929612 -92.91366127 439.19038665 C-91.09962717 427.57876262 -89.2870316 415.96691507 -87.47576904 404.3548584 C-87.35567049 403.58491475 -87.23557194 402.81497111 -87.11183403 402.02169584 C-86.62512319 398.90141804 -86.13841673 395.78113957 -85.6517173 392.66085999 C-73.55857635 315.13124312 -61.43720393 237.60602711 -36.16772389 76.20895141 C-35.863026 74.26427058 -35.55845077 72.31957053 -35.25400424 70.37485033 C-34.53786234 65.80116309 -33.81987991 61.22778445 -33.09712601 56.65513706 C-31.92562895 49.23114767 -30.76483869 41.80718045 -29.69406903 34.36789203 C-29.26136621 31.36424012 -28.81869269 28.36209239 -28.3756187 25.35995531 C-28.08265615 23.34155248 -27.80603987 21.32137528 -27.53005409 19.30059433 C-26.35935141 11.38645627 -25.22050664 6.75692063 -19.1875 1.3125 C-13.37296335 -2.71294845 -6.43228908 -2.358506 0 0 Z " fill="#FEC046" transform="translate(202.75,1.375)"/>
<path d="M0 0 C0 1.65 0 3.3 0 5 C-0.60658447 5.32572998 -1.21316895 5.65145996 -1.83813477 5.98706055 C-14.01157166 12.53215233 -26.12994261 19.15866218 -38.14770508 25.9855957 C-45.49287064 30.15595055 -52.864215 34.27703266 -60.25 38.375 C-61.37607666 38.99987305 -62.50215332 39.62474609 -63.66235352 40.26855469 C-68.25999397 42.81876493 -72.85853137 45.36735552 -77.45703125 47.91601562 C-89.16080994 54.40412397 -100.85812151 60.90131522 -112.5 67.5 C-126.43419137 75.39798112 -140.44806055 83.15172169 -154.45703125 90.91601562 C-166.1608147 97.40412661 -177.85790229 103.90169586 -189.5 110.5 C-197.46170985 115.00960328 -205.4340553 119.49976066 -213.42626953 123.95507812 C-215.12369208 124.90190767 -216.81968715 125.85129492 -218.515625 126.80078125 C-242.86410283 140.35072396 -242.86410283 140.35072396 -256.75 140.375 C-257.471875 140.39949219 -258.19375 140.42398438 -258.9375 140.44921875 C-270.08012263 140.50765908 -279.81570328 135.39428789 -289.3125 130.0625 C-290.34592529 129.49257324 -291.37935059 128.92264648 -292.4440918 128.33544922 C-295.63656755 126.56948141 -298.81975881 124.78789432 -302 123 C-302.9590625 122.46133301 -303.918125 121.92266602 -304.90625 121.36767578 C-309.62203519 118.7142279 -314.33013758 116.04748246 -319.03515625 113.375 C-325.41936101 109.75420289 -331.83222309 106.1858727 -338.25 102.625 C-339.37607666 102.00012695 -340.50215332 101.37525391 -341.66235352 100.73144531 C-345.10786569 98.82029534 -348.55384374 96.9099883 -352 95 C-365.74897558 87.37980506 -379.4851449 79.7413174 -393.15722656 71.98388672 C-401.52618839 67.24589541 -409.94716511 62.60432604 -418.37347412 57.96951294 C-427.37056817 53.01947987 -436.32863068 48.00526784 -445.2578125 42.93359375 C-452.97165827 38.56098201 -460.73119188 34.27379016 -468.5 30 C-477.6672677 24.95451869 -486.82098906 19.88689412 -495.9375 14.75 C-496.87207031 14.22535156 -497.80664062 13.70070313 -498.76953125 13.16015625 C-503.30431985 10.59672234 -507.715716 7.96441397 -512 5 C-511.34 3.68 -510.68 2.36 -510 1 C-509.60780273 1.43707275 -509.21560547 1.87414551 -508.81152344 2.32446289 C-506.69526004 4.28186393 -504.56444629 5.46198972 -502.015625 6.80859375 C-501.03400391 7.33179199 -500.05238281 7.85499023 -499.04101562 8.39404297 C-498.03748047 8.92400879 -497.03394531 9.45397461 -496 10 C-494.16059375 10.98927954 -492.32204039 11.98014666 -490.484375 12.97265625 C-489.55544434 13.47289307 -488.62651367 13.97312988 -487.66943359 14.48852539 C-477.54648254 19.94618264 -467.49575847 25.51447208 -457.49804688 31.19799805 C-450.21973123 35.32895071 -442.8898337 39.35628082 -435.53491211 43.34887695 C-428.31206597 47.27371301 -421.12016172 51.25214251 -413.9375 55.25 C-404.46920735 60.51993425 -394.99040389 65.77000446 -385.5 71 C-372.76535047 78.0190898 -360.05042662 85.07324823 -347.34277344 92.14111328 C-340.6135266 95.88318788 -333.88230425 99.62170916 -327.15087891 103.35986328 C-320.77768085 106.89949796 -314.40714696 110.44384688 -308.0393219 113.99313354 C-302.98930596 116.80677641 -297.93156575 119.60636413 -292.87255859 122.40380859 C-290.37182645 123.79338762 -287.88142729 125.19916389 -285.39453125 126.61328125 C-271.99109633 134.15374127 -258.9449917 137.32634657 -243.6875 133.8125 C-232.40759039 130.26095418 -222.23009854 123.81101818 -212 118 C-210.09670914 116.92775508 -208.19307382 115.85612131 -206.2890625 114.78515625 C-202.5152007 112.6585968 -198.74662412 110.52298582 -194.98046875 108.3828125 C-188.51033159 104.71298949 -182.00637326 101.10507556 -175.5 97.5 C-167.14582891 92.86949346 -158.80889493 88.21127393 -150.5 83.5 C-138.85253326 76.89787693 -127.14911626 70.39823677 -115.43945312 63.90722656 C-109.79097899 60.77506586 -104.14561203 57.63731567 -98.5 54.5 C-91.72736865 50.73682728 -84.95435577 46.9743485 -78.1796875 43.21484375 C-66.25883367 36.59822305 -54.34869511 29.96327867 -42.45751953 23.29345703 C-36.84789959 20.14881894 -31.23267202 17.01462642 -25.609375 13.89453125 C-24.99304199 13.55251678 -24.37670898 13.21050232 -23.74169922 12.85812378 C-20.75108779 11.19895502 -17.75975148 9.54111733 -14.76757812 7.88476562 C-13.69443359 7.28986328 -12.62128906 6.69496094 -11.515625 6.08203125 C-10.56977539 5.55843018 -9.62392578 5.0348291 -8.64941406 4.49536133 C-6.82115483 3.46346971 -5.011306 2.39850689 -3.21777344 1.30737305 C-1 0 -1 0 0 0 Z " fill="#EFAF3A" transform="translate(603,563)"/>
<path d="M0 0 C4.33499682 2.40833157 7.42532004 5.19359695 9.09401679 9.90513003 C9.65018866 12.24820027 10.08169516 14.58345236 10.47262573 16.95967102 C10.71180829 18.27609257 10.71180829 18.27609257 10.95582283 19.6191085 C11.44914938 22.36797264 11.9145253 25.12046109 12.375 27.875 C12.66333248 29.54314277 12.95208938 31.21121224 13.2413063 32.87920189 C14.13245835 38.08749125 14.97384065 43.30338794 15.81298828 48.52026367 C16.13609309 50.51135734 16.45952198 52.50239844 16.78324318 54.49339199 C17.65808947 59.8797845 18.5283997 65.26690094 19.3978796 70.65416193 C20.33141429 76.43307791 21.26928401 82.21129051 22.206604 87.98959351 C24.01739169 99.15691318 25.82426815 110.32486202 27.6295557 121.49307203 C29.08406371 130.49099316 30.53977581 139.48871865 31.99639893 148.48629761 C32.30643937 150.40143108 32.30643937 150.40143108 32.62274325 152.35525411 C33.04109787 154.93939526 33.45945783 157.52353554 33.87782311 160.10767496 C36.61137105 176.99244905 39.34412007 193.87735191 42.07443237 210.76264954 C46.7650097 239.76918835 51.46840593 268.77358941 56.19106352 297.77492231 C58.19473698 310.08045691 60.19352662 322.38678504 62.1915493 334.69323826 C63.74591019 344.26572611 65.30437538 353.83752796 66.86795139 363.40851498 C67.91902687 369.84491885 68.9649227 376.28215024 70.00652027 382.72009468 C70.59792103 386.37443272 71.19166465 390.02834842 71.79184723 393.68125534 C72.43196126 397.5773615 73.06107 401.4751958 73.68896484 405.37329102 C73.87763689 406.51030551 74.06630894 407.64732 74.26069832 408.81878948 C74.50645261 410.36195449 74.50645261 410.36195449 74.75717163 411.93629456 C74.90177008 412.8246679 75.04636852 413.71304125 75.19534874 414.628335 C75.375 416.875 75.375 416.875 74.375 419.875 C73.715 419.875 73.055 419.875 72.375 419.875 C72.26019287 419.13080811 72.14538574 418.38661621 72.02709961 417.61987305 C69.42666598 400.79645218 66.75221991 383.98675941 64 367.1875 C61.13861655 349.72039645 58.38256435 332.23834803 55.68408203 314.74536133 C53.57980414 301.10913011 51.31885054 287.51046763 48.91430664 273.92407227 C46.47441018 260.12840526 44.06583297 246.33653531 41.99560547 232.47973633 C40.31237019 221.28147411 38.46151985 210.1114606 36.625 198.9375 C33.32257011 178.83104073 30.1256519 158.70941721 26.98925781 138.57641602 C24.89643772 125.14472514 22.71948099 111.73947696 20.32006836 98.35864258 C18.01439786 85.48830972 15.81049652 72.60931666 13.8125 59.6875 C13.61180908 58.39312012 13.41111816 57.09874023 13.2043457 55.76513672 C12.36978161 50.36549025 11.53927739 44.96530081 10.72216797 39.56298828 C10.17924622 35.97621185 9.62644438 32.3910695 9.06765747 28.80673218 C8.75838986 26.80432172 8.45997464 24.80024459 8.16186523 22.79614258 C7.87678101 20.97505981 7.87678101 20.97505981 7.5859375 19.1171875 C7.42399902 18.0535498 7.26206055 16.98991211 7.09521484 15.89404297 C5.9646193 11.15473973 4.37279673 7.77776847 0.75 4.5 C-3.65551512 2.37882605 -6.83916164 1.91163721 -11.625 2.875 C-17.48553637 6.26037157 -22.32570478 11.29084421 -27.05935669 16.06326103 C-28.11915032 17.11959313 -28.11915032 17.11959313 -29.20035392 18.19726527 C-31.56036903 20.55199774 -33.9131979 22.91377912 -36.26611328 25.27560425 C-37.97613359 26.98475214 -39.68659345 28.69346035 -41.39745426 30.4017669 C-45.11285288 34.11362811 -48.82513952 37.82857234 -52.53468895 41.546278 C-58.0506273 47.07431049 -63.57231502 52.59657344 -69.09517982 58.11768489 C-78.38636013 67.40624016 -87.67288602 76.69943561 -96.95675659 85.99529648 C-106.147265 95.19764412 -115.3398432 104.39791603 -124.53518677 113.59543228 C-125.10719807 114.16758106 -125.67920937 114.73972985 -126.26855435 115.32921647 C-129.17359185 118.23493065 -132.07866631 121.14060787 -134.98375499 124.04627086 C-155.5535573 144.62027256 -176.11872008 165.19890606 -196.68115234 185.78027344 C-216.65568985 205.77318343 -236.63232981 225.76398885 -256.61181641 245.75195312 C-257.22780929 246.36820906 -257.84380217 246.98446499 -258.4784615 247.61939535 C-264.66458979 253.80816071 -270.85076081 259.99688335 -277.03696314 266.1855747 C-289.63865924 278.79234306 -302.24007016 291.39939648 -314.84130859 304.00662231 C-315.7103615 304.87608709 -315.7103615 304.87608709 -316.59697104 305.76311682 C-355.27775934 344.46230247 -393.95187834 383.16815304 -432.625 421.875 C-433.285 421.545 -433.945 421.215 -434.625 420.875 C-433.99075118 420.2411309 -433.35650235 419.60726179 -432.70303386 418.95418453 C-395.1143516 381.38787918 -357.52827877 343.81896475 -319.94559395 306.24665928 C-315.43323075 301.73554679 -310.92084575 297.22445611 -306.40844727 292.71337891 C-305.51010839 291.81530234 -304.61176952 290.91722578 -303.68620826 289.99193478 C-289.13941415 275.44949226 -274.59085446 260.90881731 -260.04164176 246.36879456 C-245.11342148 231.44992501 -230.18709953 216.52915815 -215.26253897 201.60662746 C-206.05287248 192.39833324 -196.8417276 183.19152299 -187.62868757 173.98660403 C-181.31154724 167.67474866 -174.99625139 161.36105169 -168.68240248 155.04590386 C-165.03934985 151.4022106 -161.39548988 147.75933442 -157.74943733 144.11864281 C-154.40936698 140.78344761 -151.07162687 137.44593849 -147.73570008 134.10659897 C-146.53053628 132.90101353 -145.32453069 131.69626886 -144.11758458 130.49246776 C-138.59532898 124.98376236 -133.13441125 119.47428819 -128.0627864 113.54046035 C-126.0097517 111.16232693 -123.81973238 108.93747613 -121.60287476 106.71243286 C-121.1471473 106.25373428 -120.69141984 105.7950357 -120.22188246 105.32243717 C-118.72364277 103.81565947 -117.22197645 102.3123489 -115.72021484 100.80908203 C-114.63352394 99.7177529 -113.5470273 98.62623029 -112.46070862 97.53453064 C-109.53156919 94.59237503 -106.59919221 91.65346834 -103.66577101 88.71558237 C-101.83118426 86.87805163 -99.99718048 85.03994096 -98.16334915 83.20165634 C-92.41889482 77.443565 -86.67247007 71.6874511 -80.92313135 65.93423665 C-74.29663619 59.3032486 -67.67675616 52.6657479 -61.06247365 46.02257836 C-55.93807744 40.87658192 -50.80794673 35.73634888 -45.67340815 30.60047233 C-42.61078622 27.5368026 -39.5506411 24.47075291 -36.49644089 21.39868546 C-33.62853389 18.51432321 -30.75358093 15.63717694 -27.87304497 12.76542854 C-26.81789574 11.71105064 -25.76530572 10.65410445 -24.71549034 9.59441566 C-23.28166936 8.14790344 -21.83765374 6.7115177 -20.39315796 5.27566528 C-19.58830648 4.46934725 -18.78345501 3.66302921 -17.9542141 2.8322773 C-12.41731374 -1.82047205 -6.79518117 -2.10884933 0 0 Z " fill="#FCDC63" transform="translate(527.625,144.125)"/>
<path d="M0 0 C7.51542541 6.68037814 11.57618005 16.53596905 16.0625 25.375 C16.72892827 26.67757644 17.39600918 27.97981917 18.0637207 29.28173828 C19.0613999 31.22708768 20.05877734 33.17258113 21.05415344 35.11911011 C23.66526192 40.2245286 26.31846559 45.30630011 29 50.375 C32.62559752 57.23892216 36.22541131 64.11587149 39.8125 71 C43.44291965 77.96654309 47.08487314 84.92665488 50.75 91.875 C54.7966337 99.54910414 58.80952736 107.24053675 62.8125 114.9375 C63.37702881 116.02272949 63.94155762 117.10795898 64.52319336 118.22607422 C68.90205949 126.65277194 68.90205949 126.65277194 70.8125 130.5 C69.4925 130.5 68.1725 130.5 66.8125 130.5 C66.02770264 128.9679895 66.02770264 128.9679895 65.22705078 127.4050293 C53.37725923 104.21263979 53.37725923 104.21263979 41.31445312 81.13085938 C39.10519172 76.96121351 36.91790659 72.78117422 34.75 68.58984375 C28.99651121 57.46660339 23.18701188 46.38557737 17.13256836 35.42260742 C14.70771744 31.02239998 12.34012409 26.60757949 10.0859375 22.1171875 C9.43081177 20.82433838 9.43081177 20.82433838 8.76245117 19.50537109 C7.95238574 17.89777267 7.15453008 16.28392964 6.37231445 14.66259766 C3.76068815 9.50364537 0.76597764 5.60958525 -4.1875 2.5 C-8.6594864 1.35283827 -12.82398164 1.93680763 -17.0625 3.6875 C-22.2646854 8.12465814 -25.02592879 13.72313097 -28.0390625 19.7265625 C-28.49799896 20.6288559 -28.95693542 21.53114929 -29.42977905 22.46078491 C-30.89612736 25.34613389 -32.35463225 28.23535825 -33.8125 31.125 C-35.71912761 34.88915198 -37.62888914 38.65170887 -39.5390625 42.4140625 C-40.00733459 43.33777649 -40.47560669 44.26149048 -40.95806885 45.2131958 C-45.29004509 53.74195518 -49.73535445 62.20910877 -54.22299194 70.65682983 C-55.2359861 72.5926567 -56.21612478 74.54300395 -57.1875 76.5 C-57.8475 76.5 -58.5075 76.5 -59.1875 76.5 C-58.68585486 71.17677491 -57.31733741 67.10238483 -54.79296875 62.37109375 C-54.44931778 61.70759415 -54.10566681 61.04409454 -53.75160217 60.36048889 C-52.63625827 58.21399479 -51.50609708 56.0757285 -50.375 53.9375 C-49.59991176 52.45477931 -48.82550224 50.97170364 -48.05175781 49.48828125 C-42.31079457 38.51075321 -36.46054206 27.59018035 -30.44189453 16.76220703 C-29.56649253 15.18348477 -28.6982281 13.60079281 -27.83544922 12.01513672 C-27.3973291 11.21350098 -26.95920898 10.41186523 -26.5078125 9.5859375 C-25.92410889 8.51158447 -25.92410889 8.51158447 -25.32861328 7.41552734 C-19.53384461 -2.31184857 -9.84933282 -4.63498015 0 0 Z " fill="#F4BB5E" transform="translate(356.1875,100.5)"/>
<path d="M0 0 C0.66 0 1.32 0 2 0 C1.835 0.598125 1.67 1.19625 1.5 1.8125 C0.8885876 4.11344336 0.8885876 4.11344336 1 7 C0.01 7.66 -0.98 8.32 -2 9 C-1.34 6.03 -0.68 3.06 0 0 Z " fill="#F59316" transform="translate(95,556)"/>
</svg>
