<?xml version="1.0" encoding="UTF-8"?>
<svg version="1.1" xmlns="http://www.w3.org/2000/svg" width="480" height="480">
<path d="M0 0 C1.65322266 -0.03287109 1.65322266 -0.03287109 3.33984375 -0.06640625 C12.07673683 1.40960612 18.57973086 6.3365358 24.65402222 12.519104 C25.34986455 13.20714638 26.04570688 13.89518877 26.76263535 14.60408092 C29.06970748 16.89135694 31.35866478 19.19590806 33.64794922 21.50097656 C35.30690575 23.15315163 36.9669227 24.80426249 38.62791443 26.45439148 C43.12058329 30.92432594 47.59736389 35.40985989 52.07072973 39.89910221 C56.28465771 44.12442977 60.50863009 48.33968685 64.73191763 52.55565414 C73.60425252 61.41375783 82.46124407 70.28707524 91.31299914 79.16573748 C98.89858391 86.773666 106.4971922 94.36837998 114.10546875 101.95361328 C122.95549461 110.77684727 131.79730889 119.60817953 140.62627995 128.4524858 C145.29468745 133.12878253 149.96650145 137.80156646 154.64712143 142.46564484 C159.04651132 146.85057014 163.43344909 151.24758748 167.81115913 155.65415382 C169.41768973 157.26728395 171.02846871 158.87619611 172.64381599 160.48049736 C174.85196192 162.67493364 177.04405973 164.8842717 179.23287964 167.09796143 C179.87197734 167.72590552 180.51107504 168.35384961 181.16953933 169.00082231 C187.15037612 175.11372299 190.63514111 181.80906849 190.625 190.5 C190.64691406 191.60214844 190.66882813 192.70429688 190.69140625 193.83984375 C189.21539388 202.57673683 184.2884642 209.07973086 178.105896 215.15402222 C177.41785362 215.84986455 176.72981123 216.54570688 176.02091908 217.26263535 C173.73364306 219.56970748 171.42909194 221.85866478 169.12402344 224.14794922 C167.47184837 225.80690575 165.82073751 227.4669227 164.17060852 229.12791443 C159.70067406 233.62058329 155.21514011 238.09736389 150.72589779 242.57072973 C146.50057023 246.78465771 142.28531315 251.00863009 138.06934586 255.23191763 C129.21124217 264.10425252 120.33792476 272.96124407 111.45926252 281.81299914 C103.851334 289.39858391 96.25662002 296.9971922 88.67138672 304.60546875 C79.84815273 313.45549461 71.01682047 322.29730889 62.1725142 331.12627995 C57.49621747 335.79468745 52.82343354 340.46650145 48.15935516 345.14712143 C43.77442986 349.54651132 39.37741252 353.93344909 34.97084618 358.31115913 C33.35771605 359.91768973 31.74880389 361.52846871 30.14450264 363.14381599 C27.95006636 365.35196192 25.7407283 367.54405973 23.52703857 369.73287964 C22.89909448 370.37197734 22.27115039 371.01107504 21.62417769 371.66953933 C15.51127701 377.65037612 8.81593151 381.13514111 0.125 381.125 C-0.97714844 381.14691406 -2.07929688 381.16882813 -3.21484375 381.19140625 C-11.95173683 379.71539388 -18.45473086 374.7884642 -24.52902222 368.605896 C-25.22486455 367.91785362 -25.92070688 367.22981123 -26.63763535 366.52091908 C-28.94470748 364.23364306 -31.23366478 361.92909194 -33.52294922 359.62402344 C-35.18190575 357.97184837 -36.8419227 356.32073751 -38.50291443 354.67060852 C-42.99558329 350.20067406 -47.47236389 345.71514011 -51.94572973 341.22589779 C-56.15965771 337.00057023 -60.38363009 332.78531315 -64.60691763 328.56934586 C-73.47925252 319.71124217 -82.33624407 310.83792476 -91.18799914 301.95926252 C-98.77358391 294.351334 -106.3721922 286.75662002 -113.98046875 279.17138672 C-122.83049461 270.34815273 -131.67230889 261.51682047 -140.50127995 252.6725142 C-145.16968745 247.99621747 -149.84150145 243.32343354 -154.52212143 238.65935516 C-158.92151132 234.27442986 -163.30844909 229.87741252 -167.68615913 225.47084618 C-169.29268973 223.85771605 -170.90346871 222.24880389 -172.51881599 220.64450264 C-174.72696192 218.45006636 -176.91905973 216.2407283 -179.10787964 214.02703857 C-179.74697734 213.39909448 -180.38607504 212.77115039 -181.04453933 212.12417769 C-187.02537612 206.01127701 -190.51014111 199.31593151 -190.5 190.625 C-190.17868371 181.28674524 -187.08578288 175.4830847 -180.5625 168.9375 C-179.85351562 168.28523437 -179.14453125 167.63296875 -178.4140625 166.9609375 C-176.43413131 165.0434647 -174.68715862 163.13507447 -172.90611267 161.04309082 C-168.48070091 155.96234245 -163.7351498 151.22776895 -158.96313477 146.47460938 C-157.97667801 145.48843533 -156.99044265 144.50203977 -156.00440979 143.51544189 C-153.35011756 140.86086494 -150.69277255 138.20936377 -148.03483319 135.55843925 C-145.24903166 132.77892572 -142.466097 129.99654468 -139.68284607 127.21447754 C-134.42227351 121.95700232 -129.15915901 116.70207954 -123.89510721 111.44808817 C-117.89790686 105.46209874 -111.90357512 99.47324017 -105.90947258 93.48414898 C-93.58865186 81.17375646 -81.26426619 68.86693908 -68.9375 56.5625 C-65.74877793 58.08572153 -63.52427723 59.69659576 -60.97924805 62.16674805 C-60.21553391 62.90479172 -59.45181976 63.64283539 -58.66496277 64.40324402 C-57.44441948 65.60162651 -57.44441948 65.60162651 -56.19921875 66.82421875 C-55.35905716 67.64823685 -54.51889557 68.47225494 -53.65327454 69.32124329 C-51.88101181 71.06586546 -50.11181142 72.81360316 -48.34545898 74.56420898 C-45.6349692 77.24015784 -42.89905057 79.88825817 -40.16210938 82.53710938 C-38.44366272 84.23531133 -36.72681045 85.93512853 -35.01171875 87.63671875 C-34.18790207 88.42551926 -33.36408539 89.21431976 -32.51530457 90.02702332 C-26.94216871 95.64375704 -26.94216871 95.64375704 -26.91796875 100.40600586 C-27.25441406 101.44764893 -27.59085938 102.48929199 -27.9375 103.5625 C-28.67190204 114.13307359 -27.63902734 121.06308795 -21.75 129.8125 C-19.23596127 132.2706712 -17.30527992 133.59574586 -14.26171875 135.234375 C-13.45178467 135.67362305 -12.64185059 136.11287109 -11.80737305 136.56542969 C-11.19031494 136.89446289 -10.57325684 137.22349609 -9.9375 137.5625 C-9.70369064 151.40952219 -9.52812381 165.25623757 -9.41937828 179.10482979 C-9.36718496 185.53542656 -9.29639481 191.96469759 -9.18310547 198.39453125 C-9.07445794 204.59974053 -9.01465995 210.80367482 -8.98872757 217.00976181 C-8.97024793 219.37743077 -8.93415924 221.74502978 -8.88019943 224.11215591 C-8.80758946 227.42933144 -8.79760761 230.74123985 -8.80224609 234.05908203 C-8.76629333 235.0380394 -8.73034058 236.01699677 -8.69329834 237.02561951 C-8.73627007 239.86576768 -8.87100136 241.92512735 -9.9375 244.5625 C-12.31933681 246.57342245 -14.63469126 247.89551206 -17.4481144 249.22863579 C-22.34400716 251.85195623 -25.04977499 256.34624859 -27.0703125 261.390625 C-29.31995268 269.61903864 -28.90214801 278.6375152 -25.25390625 286.37890625 C-21.49398922 292.61568256 -16.68371468 296.48506379 -9.80859375 298.90234375 C-0.58658853 301.0227776 8.86901301 300.50204403 17.0625 295.5625 C23.03504437 291.22406218 26.41587421 285.73360403 28.0625 278.5625 C29.21648466 268.09336085 27.67697507 260.93257725 21.875 252.3125 C18.40867991 248.68123906 18.40867991 248.68123906 10.0625 244.5625 C10.0625 209.5825 10.0625 174.6025 10.0625 138.5625 C14.9944115 139.5488823 15.80992327 139.80486357 19.13427734 143.05322266 C19.89791595 143.79134186 20.66155457 144.52946106 21.44833374 145.28994751 C22.25686798 146.09403046 23.06540222 146.8981134 23.8984375 147.7265625 C25.15655746 148.96471207 25.15655746 148.96471207 26.44009399 150.22787476 C28.20865549 151.97619538 29.97183168 153.72997802 31.72998047 155.48876953 C34.42770782 158.17773961 37.15576368 160.83311768 39.88671875 163.48828125 C41.60091364 165.1907418 43.31321922 166.89510726 45.0234375 168.6015625 C45.84411713 169.39350006 46.66479675 170.18543762 47.51034546 171.00137329 C53.05834909 176.64105714 53.05834909 176.64105714 53.07983398 181.41040039 C52.74411377 182.45059326 52.40839355 183.49078613 52.0625 184.5625 C51.38118167 194.26849395 51.676204 202.52407129 57.53515625 210.58984375 C62.70558469 216.37143394 68.81310756 219.08926112 76.46484375 219.94140625 C85.92106918 220.25969397 93.74862846 218.86644854 100.9375 212.4375 C107.36644854 205.24862846 108.75969397 197.42106918 108.44140625 187.96484375 C107.58926112 180.31310756 104.87143394 174.20558469 99.08984375 169.03515625 C91.02407129 163.176204 82.76849395 162.88118167 73.0625 163.5625 C72.02826904 163.90128174 70.99403809 164.24006348 69.9284668 164.58911133 C64.65226417 164.55279266 62.98653302 162.47937688 59.29760742 158.90917969 C58.47752197 158.07290039 57.65743652 157.23662109 56.8125 156.375 C55.95438721 155.52454102 55.09627441 154.67408203 54.2121582 153.79785156 C52.40388315 151.99501865 50.60566478 150.18205047 48.81689453 148.35986328 C46.07227321 145.57242567 43.28763925 142.83019533 40.49609375 140.08984375 C38.744825 138.33328852 36.99603954 136.57425323 35.25 134.8125 C34.4137207 133.99241455 33.57744141 133.1723291 32.71582031 132.32739258 C27.06890291 126.49268458 27.06890291 126.49268458 27.03588867 121.6965332 C27.54406128 120.14518677 27.54406128 120.14518677 28.0625 118.5625 C28.74381833 108.85650605 28.448796 100.60092871 22.58984375 92.53515625 C17.42001977 86.75424197 11.25869073 83.88959727 3.5546875 83.2890625 C-3.36256229 83.16415064 -3.36256229 83.16415064 -10.06005859 84.61816406 C-15.43676447 84.54097675 -17.13276052 82.27640247 -20.82920837 78.5771637 C-21.66803055 77.69705124 -22.50685272 76.81693878 -23.37109375 75.91015625 C-24.24903091 75.02089951 -25.12696808 74.13164276 -26.0315094 73.21543884 C-28.35623346 70.85353308 -30.66208135 68.47589045 -32.96063232 66.08868408 C-35.31257741 63.65473098 -37.68748734 61.24341768 -40.06054688 58.83007812 C-44.70762657 54.09478163 -49.33113259 49.3373913 -53.9375 44.5625 C-52.54970871 41.44770045 -50.9337031 39.29404892 -48.54858398 36.8671875 C-47.8570372 36.15965332 -47.16549042 35.45211914 -46.45298767 34.72314453 C-45.70408768 33.96888184 -44.95518768 33.21461914 -44.18359375 32.4375 C-43.40871109 31.65358887 -42.63382843 30.86967773 -41.83546448 30.06201172 C-40.19310584 28.40514977 -38.54792422 26.75108204 -36.90014648 25.09960938 C-34.39642714 22.58402865 -31.91198015 20.05041871 -29.42773438 17.515625 C-27.8266774 15.90509941 -26.22449882 14.2956879 -24.62109375 12.6875 C-23.88636337 11.9332373 -23.151633 11.17897461 -22.39463806 10.40185547 C-15.90044816 3.96297563 -9.36643094 -0.01092932 0 0 Z " fill="#F3501D" transform="translate(239.9375,49.4375)"/>
</svg>
