<?xml version="1.0" encoding="UTF-8"?>
<svg version="1.1" xmlns="http://www.w3.org/2000/svg" width="512" height="512">
<path d="M0 0 C1.36975479 -0.01469078 1.36975479 -0.01469078 2.7671814 -0.02967834 C22.93986466 -0.20141578 42.4158679 0.00205223 62.2265625 4.23828125 C63.28665527 4.45790527 64.34674805 4.6775293 65.43896484 4.90380859 C102.96349486 12.8258407 137.93147865 28.61544375 168.2265625 52.23828125 C169.11085938 52.91117188 169.99515625 53.5840625 170.90625 54.27734375 C184.48129808 64.81643858 197.15557787 77.1179867 208.2265625 90.23828125 C209.38285156 91.57826172 209.38285156 91.57826172 210.5625 92.9453125 C216.61991013 100.05578009 222.1185653 107.40657759 227.2265625 115.23828125 C227.64518555 115.87411133 228.06380859 116.50994141 228.49511719 117.16503906 C240.66855996 135.81774938 250.29083199 156.07737226 257.2265625 177.23828125 C257.4539209 177.92196777 257.6812793 178.6056543 257.91552734 179.31005859 C260.80793039 188.1355961 262.96629696 197.09844526 264.9140625 206.17578125 C265.11660645 207.10350342 265.31915039 208.03122559 265.52783203 208.98706055 C268.76825107 224.71214662 269.60546682 240.40928361 269.5390625 256.42578125 C269.53757202 257.3208136 269.53608154 258.21584595 269.5345459 259.13800049 C269.4930468 273.03803037 268.81545163 286.55176175 266.2265625 300.23828125 C266.08734375 301.03137695 265.948125 301.82447266 265.8046875 302.64160156 C258.97891866 341.24195637 242.54035896 377.86194982 219.2265625 409.23828125 C218.53844482 410.17631592 218.53844482 410.17631592 217.83642578 411.13330078 C210.41740122 421.13308793 201.81124304 429.9382266 193.0390625 438.73828125 C192.20323639 439.57962112 192.20323639 439.57962112 191.3505249 440.43795776 C184.64034025 447.17121631 177.83986415 453.5145786 170.2265625 459.23828125 C169.60676514 459.70685547 168.98696777 460.17542969 168.34838867 460.65820312 C113.97390013 501.10989313 113.97390013 501.10989313 88.5859375 498.9453125 C84.56204992 497.73947864 81.82789542 495.48784276 79.2265625 492.23828125 C77.76148318 489.30812262 78.07747356 486.70008373 78.05297852 483.42797852 C78.0462915 482.72668823 78.03960449 482.02539795 78.03271484 481.30285645 C78.01864203 479.77454441 78.00675512 478.24621108 77.99676704 476.7178669 C77.98030374 474.28025523 77.95705061 471.84279446 77.93186951 469.40525818 C77.86133531 462.47199138 77.80174923 455.53865437 77.74975586 448.60522461 C77.7174583 444.36229279 77.67604166 440.11952125 77.62956047 435.87672234 C77.61380503 434.27641717 77.60136594 432.67607503 77.59265327 431.07571602 C77.5444994 422.33810959 77.20386682 413.7035771 76.31225586 405.00756836 C76.23313996 404.22605943 76.15402407 403.4445505 76.07251072 402.63935947 C74.84401838 391.62324042 71.06207912 379.07379787 63.0390625 371.05078125 C62.4409375 370.45265625 61.8428125 369.85453125 61.2265625 369.23828125 C61.2265625 368.57828125 61.2265625 367.91828125 61.2265625 367.23828125 C62.01603271 367.11300049 62.80550293 366.98771973 63.61889648 366.85864258 C98.13073032 361.31896189 132.57117637 353.31837691 154.3515625 323.48828125 C173.66551382 296.0883194 178.5935025 259.48584125 174.796875 226.703125 C171.75937044 209.47184915 164.61565032 192.73842858 153.1640625 179.48828125 C150.78705904 176.50622237 149.77509204 174.82241865 150.1640625 170.98828125 C150.48752298 169.39839075 150.84473653 167.81517294 151.2265625 166.23828125 C155.02979614 146.06460716 153.29953954 126.79240592 147.2265625 107.23828125 C121.60723872 108.02778275 99.2458013 119.22545538 78.2265625 133.23828125 C72.11925521 133.73003846 66.32369324 132.49206199 60.3515625 131.36328125 C43.71138181 128.22581701 27.57745289 126.85941673 10.6640625 126.92578125 C9.74646149 126.92693939 8.82886047 126.92809753 7.88345337 126.92929077 C-10.08173599 126.97403327 -27.76543212 127.92937222 -45.1875 132.6875 C-49.13197109 133.52763659 -52.35372047 133.95921208 -56.02734375 132.09375 C-56.78917969 131.54332031 -57.55101562 130.99289063 -58.3359375 130.42578125 C-74.60501344 119.55025766 -94.95144418 107.98992946 -115.0234375 108.17578125 C-116.91835937 108.18931641 -116.91835937 108.18931641 -118.8515625 108.203125 C-119.81578125 108.21472656 -120.78 108.22632812 -121.7734375 108.23828125 C-125.33068875 119.20873548 -127.86578569 129.72875199 -128.7734375 141.23828125 C-128.845625 142.11613281 -128.9178125 142.99398437 -128.9921875 143.8984375 C-129.25950824 150.57031774 -127.85176403 156.99854707 -126.52734375 163.50390625 C-126.27855469 164.73625 -126.02976562 165.96859375 -125.7734375 167.23828125 C-125.495 168.285 -125.2165625 169.33171875 -124.9296875 170.41015625 C-124.7734375 173.23828125 -124.7734375 173.23828125 -126.36328125 175.73828125 C-127.13800781 176.56328125 -127.91273437 177.38828125 -128.7109375 178.23828125 C-147.54278948 200.01899687 -152.23862466 227.64817264 -150.31713867 255.62182617 C-147.93493925 285.80054473 -139.64390451 315.41330943 -117.1484375 336.92578125 C-106.68719543 345.84571179 -94.62702429 352.48087789 -81.7734375 357.23828125 C-80.08541016 357.88023437 -80.08541016 357.88023437 -78.36328125 358.53515625 C-64.93561034 363.18816734 -50.76699421 365.03228159 -36.7734375 367.23828125 C-36.7734375 370.76054359 -37.36017311 371.28595614 -39.5234375 373.92578125 C-46.31899655 382.70404459 -49.34035825 392.29598453 -50.7734375 403.23828125 C-53.14659868 404.05650858 -55.5217317 404.86796832 -57.8984375 405.67578125 C-58.89617187 406.02092773 -58.89617187 406.02092773 -59.9140625 406.37304688 C-73.25373557 410.88499512 -88.85033444 411.23648815 -101.7734375 405.23828125 C-105.73591083 402.87854746 -109.26298773 400.22354562 -112.7734375 397.23828125 C-113.45792969 396.6659375 -114.14242187 396.09359375 -114.84765625 395.50390625 C-119.43866461 391.29470589 -122.76792149 386.44314754 -126.2109375 381.30078125 C-134.75342395 368.61736563 -144.22133042 360.22739259 -159.0859375 355.73828125 C-164.8631968 354.95492406 -169.84819992 354.95478953 -174.7734375 358.23828125 C-173.40828893 363.03749921 -170.76562018 365.10826576 -166.8359375 367.86328125 C-152.5851211 378.42002906 -144.04979992 390.26779391 -137.2734375 406.42578125 C-130.94686994 421.49015378 -121.36091082 431.04923938 -106.7734375 438.23828125 C-97.3154599 441.79037238 -88.44945393 443.41798976 -78.3984375 443.42578125 C-77.60566406 443.43802734 -76.81289062 443.45027344 -75.99609375 443.46289062 C-67.83495299 443.48204823 -59.84195537 442.35033295 -51.7734375 441.23828125 C-51.62090392 448.08816898 -51.51606186 454.9376165 -51.44384766 461.78881836 C-51.41373411 464.11776089 -51.37283372 466.44659056 -51.32080078 468.77514648 C-51.24775021 472.12902713 -51.21392562 475.48140455 -51.1875 478.8359375 C-51.15653229 479.87162369 -51.12556458 480.90730988 -51.09365845 481.97438049 C-51.0908015 488.15551304 -51.888252 491.55555962 -56.28622437 496.01023865 C-59.81758883 498.92620671 -63.35647275 498.87719025 -67.80078125 498.82421875 C-98.41118999 495.63877109 -133.5045364 468.58462 -155.5078125 448.3203125 C-157.58235786 446.41387685 -159.69609681 444.57062515 -161.8359375 442.73828125 C-169.04530335 436.44462114 -175.62714714 429.56475284 -181.7734375 422.23828125 C-182.22170898 421.71443848 -182.66998047 421.1905957 -183.13183594 420.65087891 C-192.38556868 409.8069416 -200.28255315 398.35680949 -207.7734375 386.23828125 C-208.16370117 385.61775879 -208.55396484 384.99723633 -208.95605469 384.35791016 C-231.80330579 347.83389445 -243.18639098 301.7590704 -243.08911133 259.01367188 C-243.08596414 256.13762984 -243.10946504 253.26263378 -243.13476562 250.38671875 C-243.19575161 232.76881781 -241.18996342 215.5114777 -237.0859375 198.36328125 C-236.83175049 197.28868652 -236.57756348 196.2140918 -236.31567383 195.10693359 C-222.799826 139.80563463 -190.66754072 87.64374203 -144.7734375 53.23828125 C-144.15484863 52.76503418 -143.53625977 52.29178711 -142.89892578 51.80419922 C-102.6480725 21.11733811 -51.04916798 0.45397014 0 0 Z " fill="#000000" transform="translate(242.7734375,-0.23828125)"/>
</svg>
