<?xml version="1.0" encoding="UTF-8"?>
<svg version="1.1" xmlns="http://www.w3.org/2000/svg" width="480" height="480">
<path d="M0 0 C118.8 0 237.6 0 360 0 C360 118.8 360 237.6 360 360 C241.2 360 122.4 360 0 360 C0 241.2 0 122.4 0 0 Z " fill="#FED500" transform="translate(60,60)"/>
<path d="M0 0 C5.20209285 4.36158003 9.55093325 9.15158247 13 15 C11.66345315 18.14814397 10.47011786 19.66991947 7.55078125 21.4375 C6.86693359 21.85773438 6.18308594 22.27796875 5.47851562 22.7109375 C4.40633789 23.34902344 4.40633789 23.34902344 3.3125 24 C2.26932617 24.63808594 2.26932617 24.63808594 1.20507812 25.2890625 C-3.15078299 27.94080989 -7.56258762 30.48759876 -12 33 C-12.36351562 32.46890625 -12.72703125 31.9378125 -13.1015625 31.390625 C-17.09669717 25.77694859 -20.97153862 21.40306972 -28 20 C-33.6757747 19.4633813 -38.18231429 19.63882392 -43 23 C-46.75331369 27.14839934 -47.44318813 30.3714603 -47.43359375 35.75390625 C-46.70731606 39.51615554 -44.98228268 42.22881467 -41.97216797 44.59204102 C-34.15051464 49.07372025 -26.0397767 52.75218998 -17.80859375 56.41210938 C-2.72211071 63.22334403 13.05292165 71.04235469 20 87 C24.46648067 100.1786654 24.81226156 113.91275942 18.78125 126.5546875 C11.90522385 139.1225353 0.92779556 145.49304798 -12.48046875 149.421875 C-30.84329965 153.63536178 -49.800587 151.77550785 -66 142 C-74.9196549 136.01730464 -83.52124377 127.43626868 -87 117 C-83.64585041 114.6898195 -80.28280786 112.39330302 -76.91088867 110.10913086 C-75.76479776 109.32997088 -74.62121837 108.54710335 -73.48022461 107.76049805 C-71.84110596 106.6314224 -70.19215676 105.51665997 -68.54296875 104.40234375 C-67.0583313 103.38901978 -67.0583313 103.38901978 -65.54370117 102.35522461 C-64.70427979 101.90800049 -63.8648584 101.46077637 -63 101 C-59.28350445 102.23883185 -58.82538368 103.44350074 -56.75 106.6875 C-51.96248491 113.71320349 -46.62478711 119.34138709 -38 121 C-30.50473415 121.62460549 -23.55811348 121.99189516 -17 118 C-14.01126101 115.40451614 -12.16206178 113.62593128 -11.76171875 109.609375 C-11.64706184 105.19206652 -11.66561751 101.80555781 -13.375 97.6875 C-21.05648653 89.82312093 -32.39641875 85.94883334 -42.27929688 81.58789062 C-57.281011 74.83490663 -70.70859251 66.89275225 -77 51 C-77.54914063 49.68515625 -77.54914063 49.68515625 -78.109375 48.34375 C-79.33094819 43.75749276 -79.32922217 39.41318388 -79.3125 34.6875 C-79.32861328 33.78837891 -79.34472656 32.88925781 -79.36132812 31.96289062 C-79.36942981 20.75825463 -75.58585699 12.04317861 -67.99609375 3.83203125 C-49.92078381 -13.4025666 -20.13592227 -13.44091904 0 0 Z " fill="#020100" transform="translate(357,229)"/>
<path d="M0 0 C10.89 0 21.78 0 33 0 C33.09055131 15.81269699 33.16412721 31.62518605 33.20724869 47.43806744 C33.22780947 54.78147907 33.25580467 62.1247173 33.30175781 69.46801758 C33.34182567 75.87394503 33.36747984 82.27974679 33.37635398 88.68579608 C33.38153532 92.07282609 33.39357467 95.45949676 33.42292023 98.84641075 C33.45217154 102.64220417 33.45594679 106.4372654 33.45410156 110.2331543 C33.46848267 111.33655655 33.48286377 112.4399588 33.49768066 113.57679749 C33.43368954 125.82898767 29.96286821 137.51547052 22 147 C10.83838444 157.31104144 -1.75988991 160.3440426 -16.609375 160.140625 C-33.8063958 159.42738451 -46.43115156 152.25454007 -58 140 C-60.17082127 137.4279569 -62.15541574 134.81332276 -64 132 C-64.66 131.01 -65.32 130.02 -66 129 C-65.90942383 127.01245117 -65.90942383 127.01245117 -65 125 C-63.0222168 123.3684082 -63.0222168 123.3684082 -60.44921875 121.80078125 C-59.05993164 120.94709961 -59.05993164 120.94709961 -57.64257812 120.07617188 C-56.66740234 119.49416016 -55.69222656 118.91214844 -54.6875 118.3125 C-53.24213867 117.42208008 -53.24213867 117.42208008 -51.76757812 116.51367188 C-43.9421805 111.75769563 -43.9421805 111.75769563 -40 111 C-39.40832031 111.68707031 -38.81664062 112.37414062 -38.20703125 113.08203125 C-37.41683594 113.98308594 -36.62664062 114.88414062 -35.8125 115.8125 C-35.03519531 116.70582031 -34.25789063 117.59914063 -33.45703125 118.51953125 C-27.98003272 124.04877459 -23.12403715 125.14640843 -15.5625 125.3125 C-13.89380859 125.36857422 -13.89380859 125.36857422 -12.19140625 125.42578125 C-8.20218501 124.89355957 -6.75011389 123.91993225 -4 121 C-0.66966851 114.92325633 -0.55819429 109.58164403 -0.56762695 102.74047852 C-0.5574353 101.62754929 -0.54724365 100.51462006 -0.53674316 99.3679657 C-0.50665125 95.70489441 -0.49735272 92.04208482 -0.48828125 88.37890625 C-0.47143181 85.83299391 -0.45328121 83.28708988 -0.43388367 80.74119568 C-0.39125408 74.73488759 -0.36170649 68.72865412 -0.33856028 62.72225088 C-0.31146038 55.88054269 -0.26755199 49.03897414 -0.22227156 42.19736588 C-0.12955359 28.13163708 -0.06003275 14.06590433 0 0 Z " fill="#010000" transform="translate(220,220)"/>
</svg>
