<?xml version="1.0" encoding="UTF-8"?>
<svg version="1.1" xmlns="http://www.w3.org/2000/svg" width="694" height="694">
<path d="M0 0 C0.66 0 1.32 0 2 0 C16.93190562 17.04854173 20.45632014 39.0649108 19.27050781 60.87988281 C16.70804366 90.43610296 -0.82786383 121.16618756 -22.23046875 141.3046875 C-23.99425954 142.99450031 -25.55118481 144.75829117 -27.125 146.625 C-30.55835828 150.61085272 -34.2254286 154.33864737 -37.9375 158.0625 C-38.79722412 158.9289917 -38.79722412 158.9289917 -39.67431641 159.81298828 C-46.46241018 166.57806507 -53.77135061 172.69102061 -61.1875 178.75 C-68.51737845 184.76584311 -75.80505422 190.82329755 -83 197 C-83.89332031 197.75667969 -84.78664063 198.51335937 -85.70703125 199.29296875 C-91.89564283 204.66403717 -97.03749442 210.48776998 -102 217 C-102.41282227 217.53254395 -102.82564453 218.06508789 -103.25097656 218.61376953 C-116.17974877 235.38980716 -124.57509765 254.39866079 -123 276 C-119.18897666 302.82122269 -102.94593558 324.27543538 -88 346 C-82.05537355 354.64519497 -76.18890105 363.26569767 -71.1875 372.5 C-70.84340088 373.12962646 -70.49930176 373.75925293 -70.14477539 374.40795898 C-69.36186259 375.90500534 -68.67088441 377.44951158 -68 379 C-68.33 379.66 -68.66 380.32 -69 381 C-69.4125 380.57589844 -69.825 380.15179688 -70.25 379.71484375 C-73.40098142 376.51462825 -76.59637902 373.43163447 -80 370.5 C-82.60647609 368.2544206 -85.08934521 365.95448488 -87.5 363.5 C-89.77012583 361.18924552 -92.09124494 359.03098358 -94.5625 356.9375 C-103.03299568 349.62507991 -111.08481104 341.51417717 -118.30859375 332.96875 C-120.41155623 330.52095995 -122.61535338 328.17604567 -124.8125 325.8125 C-144.53662932 304.0891019 -161.39688757 278.30289269 -160.2421875 247.98046875 C-158.66283981 222.02312525 -137.24317073 201.57849796 -118.95605469 185.16552734 C-116.98053574 183.43189909 -114.99424424 181.71203744 -113 180 C-112.46431396 179.537146 -111.92862793 179.07429199 -111.37670898 178.59741211 C-103.67441892 171.96145882 -95.78268631 165.60496138 -87.75732422 159.36621094 C-77.70384847 151.55025508 -67.73691575 143.63436685 -57.89453125 135.55371094 C-56.68846484 134.56461214 -55.48034886 133.57800339 -54.26953125 132.59472656 C-26.64098427 110.13422727 -1.71279184 80.85829087 2.7890625 44.26367188 C3.9865678 31.41266589 3.31657017 18.85034477 0.65625 6.23828125 C0 3 0 3 0 0 Z " fill="#E66E00" transform="translate(407,0)"/>
<path d="M0 0 C1.37418091 -0.02090698 1.37418091 -0.02090698 2.77612305 -0.04223633 C8.66336892 -0.00071229 13.04664642 0.99723728 18.4375 3.375 C18.4375 3.705 18.4375 4.035 18.4375 4.375 C17.77967529 4.46475098 17.12185059 4.55450195 16.4440918 4.64697266 C-1.42061079 7.14203417 -17.80629891 10.94145523 -34.4375 17.9375 C-35.085979 18.20602783 -35.73445801 18.47455566 -36.40258789 18.7512207 C-40.63527684 20.62686083 -43.5610292 22.85738843 -46.5625 26.375 C-47.31335106 28.96236705 -47.31335106 28.96236705 -46.5625 31.375 C-35.60383056 40.94264496 -15.53772598 43.13800916 -1.5625 45.375 C-0.33772949 45.57335449 0.88704102 45.77170898 2.14892578 45.97607422 C26.80676071 49.91160005 51.51458156 52.01964928 76.4375 53.375 C77.75331055 53.44702637 79.06912109 53.51905273 80.42480469 53.59326172 C89.42630054 54.04975404 98.42604669 54.26818177 107.4375 54.375 C108.8233429 54.39143555 108.8233429 54.39143555 110.23718262 54.40820312 C249.64654311 57.3550953 249.64654311 57.3550953 375.2265625 22.7890625 C377.68523062 20.10450968 378.36135197 19.21262828 378.6875 15.625 C378.40198944 11.91336266 377.27019825 9.58222194 375.4375 6.375 C381.30066189 8.01123123 384.95187706 10.09704483 388.3125 15.25 C389.68931244 19.074479 389.81829212 20.53946633 388.4375 24.375 C375.2225964 45.37882028 339.82712798 51.61015589 317.64199829 56.73426819 C290.27243569 62.96150155 262.70538257 67.0625411 234.8125 70.0625 C233.88041718 70.16532288 232.94833435 70.26814575 231.98800659 70.37408447 C199.04800282 73.96822577 165.9974856 74.75975028 132.8882103 74.69285583 C130.07225155 74.68739776 127.25630124 74.68504295 124.44033813 74.6829834 C96.21968674 74.65086183 68.14964546 74.1005023 40.02294922 71.60284424 C37.40917161 71.37250354 34.79465036 71.15345044 32.1796875 70.93701172 C6.23674142 68.7708147 -19.54878838 65.49624309 -45.30163574 61.70703125 C-47.35585213 61.40534837 -49.4107983 61.10864528 -51.46582031 60.8125 C-82.46686168 56.27619443 -82.46686168 56.27619443 -90.5625 47.9375 C-92.96738877 44.41550161 -93.33274845 41.61136648 -92.5625 37.375 C-85.05677128 22.36354256 -65.18535208 15.05379072 -50.29296875 9.9375 C-48.7174116 9.41285008 -47.14061133 8.89191635 -45.5625 8.375 C-44.82854004 8.13265625 -44.09458008 7.8903125 -43.33837891 7.640625 C-29.02840901 2.98802698 -15.08462198 0.14723457 0 0 Z " fill="#5281A0" transform="translate(174.5625,586.625)"/>
<path d="M0 0 C-0.73186523 0.41548096 -1.46373047 0.83096191 -2.21777344 1.2590332 C-21.08871746 12.02168926 -39.19295886 23.5607908 -57 36 C-58.43321489 36.9888306 -59.86674586 37.97720344 -61.30078125 38.96484375 C-69.60727479 44.73533879 -77.47442096 51.03618995 -85.22998047 57.52050781 C-86.76196248 58.80103346 -88.30391951 60.0696075 -89.84765625 61.3359375 C-102.45355937 72.08391829 -114.48517055 87.41976655 -116.25 104.40625 C-117.13669574 123.69188231 -104.92602433 139.39200807 -94.3203125 154.3046875 C-83.55271951 169.45885446 -76.47287378 181.82393406 -78 201 C-80.66426899 215.03926177 -88.18903079 225.94375656 -98 236 C-98.9173599 236.97851722 -99.83399898 237.9577106 -100.75 238.9375 C-109.57292782 248.22103874 -119.58299629 256.10376422 -131 262 C-131.66 261.67 -132.32 261.34 -133 261 C-132.26394531 260.10539062 -131.52789062 259.21078125 -130.76953125 258.2890625 C-119.92608231 244.92616628 -112.91405331 232.37217877 -114.17578125 214.51171875 C-116.19343862 203.36365225 -122.8144296 194.7262137 -129.89428711 186.27514648 C-146.92833609 165.78154772 -159.27502936 141.32642713 -157 114 C-154.87486724 98.20666364 -147.58915781 83.77873171 -137 72 C-136.22785156 71.09765625 -135.45570313 70.1953125 -134.66015625 69.265625 C-128.96148694 62.74771571 -122.85112246 57.27374891 -116 52 C-115.12214844 51.29488281 -114.24429688 50.58976562 -113.33984375 49.86328125 C-84.19358704 27.02999716 -47.93384103 12.65465463 -12.875 1.75 C-11.91480957 1.449729 -10.95461914 1.14945801 -9.96533203 0.84008789 C-9.08731934 0.57832764 -8.20930664 0.31656738 -7.3046875 0.046875 C-6.54140137 -0.18161133 -5.77811523 -0.41009766 -4.99169922 -0.64550781 C-3 -1 -3 -1 0 0 Z " fill="#E66F00" transform="translate(496,142)"/>
<path d="M0 0 C-0.969375 0.70125 -1.93875 1.4025 -2.9375 2.125 C-5.40548158 4.18360075 -5.98086672 4.94372564 -7.0625 8.125 C-7.27954007 10.9383318 -7.27954007 10.9383318 -5.84277344 12.55151367 C2.10058109 18.79527657 15.15277002 19.01730255 24.85498047 19.95581055 C27.23427827 20.18597911 29.61115854 20.43399301 31.98828125 20.68554688 C68.88270985 24.51190601 104.33290478 22.66114385 140.88267517 16.72311401 C143.93036313 16.23453004 146.98190591 15.7731833 150.0340271 15.31323242 C151.7521791 15.03948454 153.46184505 14.71350945 155.16918945 14.37890625 C163.25510028 13.0538949 168.52871483 16.12360871 175.4375 20.125 C177.53766266 21.29911691 179.64052484 22.46841853 181.74609375 23.6328125 C182.76815918 24.20032227 183.79022461 24.76783203 184.84326172 25.35253906 C189.75398135 27.91538021 194.84348263 29.98767241 200 32 C200 32.66 200 33.32 200 34 C160.96331461 48.70591016 121.95391272 57.39990481 80.15039062 57.31567383 C76.89939462 57.31252364 73.64932142 57.33604565 70.3984375 57.36132812 C39.88514091 57.45251134 -6.0624542 55.4167106 -29.5625 32.875 C-33.2338341 29.07390981 -35 26.56954749 -35 21.1875 C-34.10694025 16.10175974 -32.07374566 13.14945042 -28 10 C-6.41217007 -3.20608503 -6.41217007 -3.20608503 0 0 Z " fill="#5281A0" transform="translate(248,537)"/>
<path d="M0 0 C-2.97991227 1.60969829 -5.85208334 2.60812295 -9.12109375 3.48046875 C-10.12857666 3.75366943 -11.13605957 4.02687012 -12.17407227 4.30834961 C-13.25100342 4.59846924 -14.32793457 4.88858887 -15.4375 5.1875 C-45.01136842 12.70152733 -45.01136842 12.70152733 -71 28 C-70.81077047 30.43937685 -70.81077047 30.43937685 -70 33 C-50.06450785 47.85932517 -8.70874078 42.37272097 14.9111557 42.31785583 C17.34842586 42.31241987 19.78568629 42.31004815 22.22296143 42.3079834 C49.93466936 42.27149809 77.49728911 41.39934986 105.13287354 39.22460938 C107.96622286 39.00264609 110.80011929 38.78948468 113.63427734 38.578125 C147.93144519 35.98853926 182.10593964 31.59328512 216.02418518 25.89170837 C219.72037257 25.28559687 223.25181884 24.84796553 227 25 C223.48961295 27.90144236 219.57627436 29.78752731 215.5 31.75 C210.55199885 34.14763396 205.91054056 36.65531453 201.3125 39.6875 C192.87244462 44.64168921 183.49962435 46.15568405 174 48 C172.77941895 48.24105469 171.55883789 48.48210937 170.30126953 48.73046875 C139.82047363 54.69728684 108.99433659 58.11213446 78 60 C76.72785645 60.08685059 75.45571289 60.17370117 74.14501953 60.26318359 C56.08316938 61.40016097 37.96490841 61.24583892 19.875 61.25 C18.55609835 61.25066278 18.55609835 61.25066278 17.21055222 61.25133896 C-99.66113904 61.28212221 -99.66113904 61.28212221 -120 43 C-122.125 40.5 -122.125 40.5 -123 38 C-122.20088823 32.8057735 -117.97483463 29.99860264 -114 27 C-111.53849823 25.50934717 -109.0006331 24.29824226 -106.375 23.125 C-105.63902588 22.79113281 -104.90305176 22.45726562 -104.14477539 22.11328125 C-101.77197834 21.05396586 -99.38857769 20.02319215 -97 19 C-95.85168701 18.50064941 -95.85168701 18.50064941 -94.68017578 17.99121094 C-64.7681144 5.17980679 -32.43146994 -0.86834225 0 0 Z " fill="#5281A0" transform="translate(260,382)"/>
<path d="M0 0 C-0.49371094 0.49628906 -0.98742187 0.99257813 -1.49609375 1.50390625 C-4.66444887 4.86351017 -6.77536711 7.29063299 -8.1875 11.75 C-8.2831822 15.01014787 -8.2831822 15.01014787 -6.4375 17.25 C-1.16186802 21.03763322 3.94439365 22.63984055 10.3125 23.5625 C11.13008789 23.68544434 11.94767578 23.80838867 12.79003906 23.93505859 C23.80749292 25.50575412 34.89840244 26.29969421 46 27 C46.9379541 27.05929687 47.8759082 27.11859375 48.84228516 27.1796875 C96.31558395 30.02250133 143.24783886 25.95466738 189.96459961 17.4362793 C191.10421143 17.23301025 192.24382324 17.02974121 193.41796875 16.8203125 C194.40563232 16.63742676 195.3932959 16.45454102 196.41088867 16.26611328 C199.7128407 15.92673302 201.90655788 16.25117353 204.6484375 18.12890625 C205.21820313 18.60199219 205.78796875 19.07507813 206.375 19.5625 C210.13341899 22.48571477 214.06006544 24.89646808 218.1875 27.25 C218.78159668 27.5910376 219.37569336 27.9320752 219.98779297 28.28344727 C223.24689081 30.1202854 226.49005043 31.70442539 230 33 C230 33.66 230 34.32 230 35 C206.81729143 41.12829149 183.69304317 46.2887388 160 50 C158.94651367 50.16725586 157.89302734 50.33451172 156.80761719 50.50683594 C133.19521329 54.1925586 109.50196847 55.35632784 85.62451172 55.31567383 C81.76631354 55.31251336 77.90888573 55.33610375 74.05078125 55.36132812 C51.15176892 55.4204234 28.04209056 54.18072014 5.625 49.1875 C4.43148926 48.92888184 3.23797852 48.67026367 2.00830078 48.40380859 C-28.65982282 41.51026577 -28.65982282 41.51026577 -37 29 C-37.89297267 24.99347662 -37.8228983 21.46057834 -35.78515625 17.84375 C-29.69613991 10.39365941 -9.93722476 -3.31240825 0 0 Z " fill="#5281A0" transform="translate(230,462)"/>
<path d="M0 0 C0.33 0 0.66 0 1 0 C1.8229015 6.2540514 -0.67147674 10.89425618 -4 16 C-33.23857632 51.97757904 -98.01238831 56.76731949 -140.9375 61.625 C-145.24908642 62.06005789 -149.5633555 62.44985013 -153.88122559 62.81707764 C-156.09768352 63.00843341 -158.312923 63.211306 -160.52832031 63.41455078 C-189.79656245 66.0392797 -219.05673186 66.29576009 -248.42005539 66.31052017 C-251.3926035 66.31247054 -254.36513361 66.31758179 -257.337677 66.3230896 C-288.2314968 66.36542881 -318.95782415 65.5388864 -349.6875 62.125 C-350.47120972 62.04007294 -351.25491943 61.95514587 -352.06237793 61.86764526 C-401.18118827 56.52115768 -401.18118827 56.52115768 -419 46 C-419 45.67 -419 45.34 -419 45 C-412.80993391 45.44174434 -406.66242585 46.00560663 -400.515625 46.8671875 C-383.89490423 49.19235407 -367.31444554 50.66881394 -350.5625 51.6875 C-349.08396545 51.77822784 -349.08396545 51.77822784 -347.57556152 51.87078857 C-324.09786073 53.29250954 -300.64771609 54.20953898 -277.125 54.1875 C-275.45738113 54.18709213 -275.45738113 54.18709213 -273.756073 54.18667603 C-192.80658521 54.09680485 -96.50144544 50.9754975 -2 3 C-1.34 2.01 -0.68 1.02 0 0 Z " fill="#5281A0" transform="translate(593,628)"/>
<path d="M0 0 C9.08409136 7.80033686 16.13063202 17.70950659 18.08984375 29.7421875 C19.11167921 45.48238379 15.84173766 59.73034232 5.43359375 71.984375 C2.749666 75.00210608 -0.0697316 77.87204241 -2.91015625 80.7421875 C-3.49410156 81.38671875 -4.07804688 82.03125 -4.6796875 82.6953125 C-24.11636182 103.75581025 -55.27083306 114.64922856 -81.91015625 122.7421875 C-83.14636719 123.12117187 -84.38257813 123.50015625 -85.65625 123.890625 C-88.71962392 124.6923243 -90.03381869 124.89272252 -92.91015625 123.7421875 C-89.16013745 119.28838366 -84.24878625 116.9861221 -79.22265625 114.2421875 C-65.12073631 106.3602694 -52.19017649 97.23095681 -39.91015625 86.7421875 C-38.76353516 85.83146484 -38.76353516 85.83146484 -37.59375 84.90234375 C-24.25875203 73.93285847 -14.11006382 56.87608303 -11.91015625 39.7421875 C-11.55220683 28.61592644 -15.54625024 18.97766693 -22.91015625 10.7421875 C-30.82765759 2.32735567 -42.12639176 -1.89597264 -53.5234375 -2.42578125 C-58.61250063 -2.38015803 -63.45162115 -1.32447412 -68.41015625 -0.2578125 C-69.32796875 -0.06703125 -70.24578125 0.12375 -71.19140625 0.3203125 C-73.43257202 0.78722203 -75.67195708 1.26129442 -77.91015625 1.7421875 C-60.47761015 -20.18860442 -20.1340852 -15.62080704 0 0 Z " fill="#5281A0" transform="translate(575.91015625,387.2578125)"/>
<path d="M0 0 C0.99 0 1.98 0 3 0 C3 0.99 3 1.98 3 3 C2.01 3 1.02 3 0 3 C0 2.01 0 1.02 0 0 Z " fill="#000000" transform="translate(691,344)"/>
<path d="M0 0 C0.99 0.495 0.99 0.495 2 1 C1.01 1.495 1.01 1.495 0 2 C0 1.34 0 0.68 0 0 Z " fill="#E66D00" transform="translate(361,404)"/>
<path d="" fill="#4F839E" transform="translate(0,0)"/>
<path d="" fill="#5381A0" transform="translate(0,0)"/>
<path d="" fill="#5484A0" transform="translate(0,0)"/>
<path d="" fill="#5181A0" transform="translate(0,0)"/>
<path d="" fill="#55AAAA" transform="translate(0,0)"/>
<path d="" fill="#E86E00" transform="translate(0,0)"/>
<path d="" fill="#E56600" transform="translate(0,0)"/>
</svg>
