<?xml version="1.0" encoding="UTF-8"?>
<svg version="1.1" xmlns="http://www.w3.org/2000/svg" width="512" height="443">
<path d="M0 0 C6.87777019 3.55686758 13.609462 7.29146551 20.26733398 11.24389648 C22.37344307 12.48330292 24.48024269 13.72153651 26.58764648 14.95874023 C27.67851563 15.59924316 28.76938477 16.23974609 29.89331055 16.8996582 C35.62001919 20.24203388 41.38111727 23.52402825 47.14233398 26.80639648 C49.51234027 28.15758288 51.88210815 29.50918667 54.25170898 30.86108398 C54.83691315 31.19494614 55.42211731 31.52880829 56.02505493 31.87278748 C67.53530396 38.44345779 79.00111206 45.09179502 90.47631836 51.72338867 C110.94197712 63.54918658 110.94197712 63.54918658 131.46508789 75.27490234 C136.43794991 78.10120775 141.40253097 80.9319809 146.30639648 83.87670898 C147.03391113 84.30677246 147.76142578 84.73683594 148.51098633 85.17993164 C149.78285186 85.9336412 151.04731009 86.70011341 152.30102539 87.48364258 C156.54527996 89.97259561 160.4569532 90.79784391 165.26733398 89.86889648 C168.45972918 88.6363058 171.32764603 86.98583445 174.26733398 85.24389648 C175.12907227 84.75171631 175.99081055 84.25953613 176.87866211 83.75244141 C179.68568439 82.14251682 182.47701965 80.50758417 185.26733398 78.86889648 C187.15233335 77.77312622 189.03775355 76.6780796 190.92358398 75.58374023 C194.91039809 73.2654418 198.89088256 70.93663256 202.86889648 68.60327148 C209.59899585 64.66400614 216.3674306 60.79285342 223.14233398 56.93139648 C232.19831844 51.76850978 241.24202894 46.58531936 250.26733398 41.36889648 C259.87796109 35.81417064 269.50987966 30.2977655 279.15447998 24.80233765 C288.57363949 19.43389882 297.95007299 13.99521935 307.27954102 8.47216797 C326.10983786 -2.60398476 326.10983786 -2.60398476 334.26733398 -1.13110352 C338.98095704 0.85909288 341.98906225 4.31235302 344.26733398 8.86889648 C344.36400029 10.20670758 344.40008723 11.54916782 344.40434837 12.89046001 C344.41196019 14.15965551 344.41196019 14.15965551 344.41972578 15.45449132 C344.42022353 16.38939123 344.42072129 17.32429115 344.42123413 18.28752136 C344.42561638 19.27659447 344.42999864 20.26566759 344.43451369 21.28471261 C344.44793695 24.62031157 344.45408847 27.9558841 344.46020508 31.29150391 C344.46810328 33.67450074 344.47637205 36.05749637 344.48498535 38.44049072 C344.50897155 45.60770911 344.52413865 52.7749328 344.53704542 59.94217798 C344.54075687 61.96639447 344.54473015 63.99061026 344.54879808 66.01482606 C344.57403592 78.5833008 344.5960904 91.15177662 344.60852623 103.72027111 C344.61145596 106.63219901 344.61441762 109.54412687 344.61743164 112.45605469 C344.61817769 113.1798069 344.61892374 113.90355911 344.6196924 114.64924321 C344.63234383 126.37150706 344.6655632 138.09361916 344.70723347 149.81581207 C344.74966017 161.84941227 344.77322217 173.88293479 344.77844679 185.91660959 C344.78186028 192.6736124 344.79360756 199.43037815 344.82654953 206.18730736 C344.85657112 212.54438374 344.86296275 218.90104661 344.85116577 225.25817871 C344.85094454 227.59185131 344.85929005 229.92554278 344.87681961 232.25914955 C344.89944917 235.44505089 344.8912439 238.62944498 344.87533569 241.81535339 C344.88921778 242.7390997 344.90309987 243.66284601 344.91740263 244.61458462 C344.83931976 250.96028582 343.45497242 254.07356864 339.26733398 258.86889648 C336.94091797 260.69482422 336.94091797 260.69482422 334.51342773 262.05249023 C333.59110352 262.57907227 332.6687793 263.1056543 331.71850586 263.64819336 C330.72399414 264.19540039 329.72948242 264.74260742 328.70483398 265.30639648 C327.12992187 266.19875 327.12992187 266.19875 325.52319336 267.10913086 C322.69323867 268.71127452 319.85638737 270.30039663 317.01751709 271.88665771 C314.10332066 273.52216471 311.20263365 275.18130569 308.30249023 276.84155273 C307.72372635 277.17284683 307.14496246 277.50414093 306.54866028 277.84547424 C305.37580564 278.51696383 304.20299991 279.18853886 303.03024292 279.86019897 C301.2658944 280.86972018 299.50034175 281.87710167 297.734375 282.88378906 C289.84723665 287.38092723 281.98440495 291.91853513 274.14233398 296.49389648 C273.1897168 297.04948242 272.23709961 297.60506836 271.25561523 298.17749023 C269.46300566 299.2255166 267.67207112 300.27641482 265.88305664 301.33056641 C264.07514454 302.39381581 262.26194736 303.44811118 260.44458008 304.49511719 C259.54562012 305.01936279 258.64666016 305.5436084 257.72045898 306.08374023 C256.91511719 306.54901123 256.10977539 307.01428223 255.2800293 307.49365234 C252.30557099 309.52605453 251.24852932 311.4347128 250.26733398 314.86889648 C249.69787772 320.1838216 250.24869602 323.457041 253.26733398 327.86889648 C256.84910972 330.407748 260.69538812 332.39636961 264.57983398 334.43139648 C266.84694366 335.6539076 269.11253939 336.87922994 271.37670898 338.10717773 C272.52461914 338.7267334 273.6725293 339.34628906 274.85522461 339.98461914 C281.02008265 343.38905348 287.02546192 347.06845728 293.00878906 350.78125 C301.23796936 356.0071639 301.23796936 356.0071639 310.59741211 356.31274414 C317.23947486 353.84617828 323.27864505 350.13431764 329.32983398 346.49389648 C331.4549918 345.23415163 333.58133161 343.97639902 335.70874023 342.72045898 C336.79300293 342.08011719 337.87726563 341.43977539 338.99438477 340.7800293 C344.21022962 337.73440543 349.48726331 334.80130211 354.76733398 331.86889648 C364.07303098 326.68979628 373.30823467 321.40382495 382.48291016 315.99584961 C387.39693872 313.10356245 392.32934206 310.266447 397.33374023 307.53295898 C398.30085938 306.99944824 399.26797852 306.4659375 400.2644043 305.91625977 C402.08827163 304.91386026 403.91931574 303.92436595 405.75854492 302.95043945 C406.57226562 302.50071777 407.38598633 302.05099609 408.22436523 301.58764648 C408.93568604 301.20543945 409.64700684 300.82323242 410.37988281 300.42944336 C414.12890762 297.32974519 415.18872026 293.68420333 415.64587402 288.94303894 C415.66301558 287.44080071 415.66411909 285.9383231 415.65209961 284.43603516 C415.65747238 283.61080856 415.66284515 282.78558197 415.66838074 281.93534851 C415.67813095 280.15117413 415.68111125 278.36695249 415.67802429 276.58275414 C415.6735295 273.75255775 415.68759455 270.92298115 415.7064209 268.09284973 C415.74314119 262.08070866 415.7568967 256.06863315 415.76733398 250.05639648 C415.7794398 243.09638916 415.80112957 236.13668478 415.84733582 229.17681313 C415.86083781 226.39999387 415.85674716 223.62356428 415.85192871 220.84672546 C415.86127711 219.12779252 415.87144788 217.4088638 415.88256836 215.68994141 C415.87334602 214.54637177 415.87334602 214.54637177 415.86393738 213.37969971 C415.93125635 207.41062668 416.77307057 200.88158079 420.69379425 196.14595318 C425.95555359 191.13749418 432.86646643 187.97826129 439.20483398 184.55639648 C440.41421222 183.89564449 441.62311271 183.23401733 442.83154297 182.5715332 C445.21304487 181.26659736 447.59639352 179.96514329 449.98120117 178.66625977 C454.28509537 176.31222789 458.56115673 173.91103815 462.82983398 171.49389648 C469.22835908 167.87538141 473.72111664 165.48487409 481.26733398 166.86889648 C484.95919787 169.16205422 488.30231156 171.93885163 490.26733398 175.86889648 C490.37013566 177.9583954 490.40686552 180.05123719 490.414505 182.14324951 C490.41818169 182.79409334 490.42185838 183.44493718 490.42564648 184.11550355 C490.43669996 186.30642106 490.44052997 188.49729117 490.44433594 190.68823242 C490.45059937 192.25512849 490.45724606 193.82202307 490.46424866 195.38891602 C490.48167032 199.65352207 490.49221375 203.91811691 490.50045419 208.18274975 C490.50560224 210.8465488 490.51167808 213.51034435 490.51796532 216.17414093 C490.5370213 224.50674839 490.55125114 232.83934697 490.55957729 241.17197204 C490.56934996 250.79376204 490.5956685 260.415322 490.63607818 270.03703094 C490.66623123 277.47150041 490.68104541 284.90590392 490.6843583 292.34043336 C490.68670986 296.78182564 490.69568382 301.22297228 490.72081947 305.66429901 C490.74409091 309.84385459 490.7483373 314.02300265 490.73805809 318.2026062 C490.73756238 319.73525599 490.74389336 321.26792577 490.75761414 322.80051422 C490.77532517 324.89636652 490.76823286 326.99075507 490.75508118 329.08660889 C490.75746953 330.25837551 490.75985788 331.43014214 490.76231861 332.63741684 C489.9770774 337.76382045 487.59707847 340.87542539 483.49658203 343.93896484 C482.45542236 344.54361572 481.4142627 345.1482666 480.34155273 345.77124023 C479.77224533 346.10655258 479.20293793 346.44186493 478.61637878 346.78733826 C476.84094128 347.82827281 475.0552744 348.84961947 473.26733398 349.86889648 C471.65205811 350.80693115 471.65205811 350.80693115 470.00415039 351.76391602 C466.70536316 353.6698931 463.39443108 355.55306156 460.07983398 357.43139648 C457.60654958 358.83784577 455.13422554 360.24597979 452.66186523 361.65405273 C452.04135284 362.00718536 451.42084045 362.36031799 450.78152466 362.72415161 C444.59524248 366.24664707 438.43009716 369.80543579 432.26733398 373.36889648 C423.24213248 378.5855056 414.1980551 383.76804673 405.14233398 388.93139648 C395.50959458 394.4241187 385.91395615 399.97698547 376.3449707 405.58007812 C368.09657527 410.40266818 359.80459242 415.1468292 351.50149536 419.8742981 C345.06965671 423.53682169 338.64909831 427.21617101 332.26342773 430.95874023 C331.15805664 431.60649414 330.05268555 432.25424805 328.91381836 432.92163086 C326.82111764 434.15075818 324.72989738 435.38241065 322.64038086 436.61694336 C321.71161133 437.16286133 320.7828418 437.7087793 319.82592773 438.27124023 C319.01438232 438.75069092 318.20283691 439.2301416 317.36669922 439.72412109 C312.81000973 442.20886548 308.33922586 442.65753387 303.26733398 441.86889648 C295.16778696 438.52128682 287.59917634 433.83968389 280.07983398 429.36889648 C271.55411863 424.34482624 262.97729391 419.43037434 254.32983398 414.61889648 C246.82828739 410.44095019 239.37035466 406.2105383 231.98803711 401.82568359 C225.9073978 398.2230636 219.77528917 394.71230968 213.63577271 391.21130371 C211.83345273 390.18346021 210.03164172 389.15473007 208.22998047 388.12573242 C200.91423625 383.94783448 200.91423625 383.94783448 193.59301758 379.77954102 C191.2027231 378.420606 188.81409013 377.058834 186.42724609 375.69384766 C184.21824986 374.43063774 182.00696073 373.1714256 179.79296875 371.91699219 C163.47016987 362.5599153 163.47016987 362.5599153 161.26733398 356.86889648 C161.0420139 354.23775266 160.92240308 351.70764816 160.89746094 349.07446289 C160.87533791 347.90298454 160.87533791 347.90298454 160.85276794 346.70783997 C160.80831982 344.12872587 160.7800416 341.54983693 160.75561523 338.97045898 C160.74621603 338.08797863 160.73681683 337.20549828 160.7271328 336.29627609 C160.67960605 331.62747104 160.64590259 326.95877774 160.62207031 322.28979492 C160.59433108 317.47139876 160.51511908 312.655266 160.42452717 307.8377018 C160.36469931 304.12815037 160.34480333 300.41913868 160.33556175 296.70914841 C160.32398423 294.93322696 160.29714767 293.15733576 160.25463295 291.38188553 C159.94187602 277.50085868 159.94187602 277.50085868 163.19563293 273.49468994 C165.51506325 271.91922112 167.65864397 270.87572864 170.26733398 269.86889648 C171.6019199 269.12682558 172.92816697 268.36925286 174.23999023 267.58764648 C175.60162133 266.84502947 176.96498289 266.10557876 178.32983398 265.36889648 C185.50209462 261.439824 192.58825001 257.38117042 199.64233398 253.24389648 C208.44487425 248.08510311 217.27872987 242.98439175 226.14233398 237.93139648 C235.13787831 232.80146394 244.12766428 227.66195805 253.09967041 222.49093628 C254.79366338 221.51474049 256.48825593 220.53958539 258.18286133 219.56445312 C259.20202637 218.97656006 260.22119141 218.38866699 261.27124023 217.78295898 C262.61424194 217.00879639 262.61424194 217.00879639 263.984375 216.21899414 C265.77921462 215.15756081 267.53233654 214.02556145 269.26733398 212.86889648 C269.5754278 210.42759826 269.68731692 208.23714767 269.67138672 205.79223633 C269.67824997 205.06352325 269.68511322 204.33481018 269.69218445 203.58401489 C269.7105397 201.16575826 269.70660008 198.74814562 269.70092773 196.32983398 C269.70548806 194.64791655 269.71079319 192.96600098 269.71681213 191.28408813 C269.72576233 187.75157121 269.72330172 184.21928006 269.71337891 180.68676758 C269.70193484 176.17415852 269.72202009 171.66233729 269.75129604 167.14983177 C269.7697135 163.67179454 269.76935377 160.19394371 269.76365852 156.7158699 C269.76350573 155.05340095 269.76951557 153.39091901 269.78195 151.72849655 C270.09150413 139.64719045 270.09150413 139.64719045 265.26733398 128.86889648 C260.8816283 126.33438422 257.23257356 126.08373402 252.26733398 126.86889648 C249.72914974 127.98353639 249.72914974 127.98353639 247.18920898 129.49389648 C246.22490967 130.03981445 245.26061035 130.58573242 244.26708984 131.14819336 C243.27717041 131.71602539 242.28725098 132.28385742 241.26733398 132.86889648 C239.36879791 133.92315006 237.46905387 134.97523119 235.56811523 136.02514648 C224.03921825 142.45299068 212.57938834 148.98329705 201.19335938 155.66088867 C194.00137359 159.87332898 186.77343294 164.01789767 179.51733398 168.11889648 C178.06109619 168.94272827 178.06109619 168.94272827 176.57543945 169.78320312 C171.4882335 172.65072764 171.4882335 172.65072764 169.26733398 173.86889648 C168.24978027 174.42988037 168.24978027 174.42988037 167.21166992 175.00219727 C163.20673736 176.78741959 159.15074124 176.58724733 155.13452148 175.05541992 C152.78665302 173.86991465 150.5301169 172.58472841 148.26733398 171.24389648 C147.4055957 170.75171631 146.54385742 170.25953613 145.65600586 169.75244141 C142.84898358 168.14251682 140.05764832 166.50758417 137.26733398 164.86889648 C135.38233462 163.77312622 133.49691442 162.6780796 131.61108398 161.58374023 C127.63991001 159.27452901 123.67502053 156.95488817 119.71264648 154.63061523 C109.40661878 148.59824748 99.0279999 142.68915797 88.63916016 136.80078125 C86.25053991 135.43222343 83.87869095 134.04770438 81.51464844 132.63818359 C80.89051056 132.27030731 80.26637268 131.90243103 79.62332153 131.52340698 C77.87944308 130.49453226 76.14096292 129.45652364 74.40283203 128.41796875 C69.91619594 126.20137559 66.12765766 125.78779787 61.26733398 126.86889648 C57.66201359 128.24965749 56.60978175 129.28451228 54.66166592 132.60895538 C53.20258679 136.02027511 52.89342002 138.22112211 52.89552307 141.9029541 C52.88876556 143.08892685 52.88200806 144.2748996 52.87504578 145.49681091 C52.88276505 146.78426712 52.89048431 148.07172333 52.8984375 149.39819336 C52.89596747 150.77849119 52.89212701 152.15878715 52.88702393 153.53907776 C52.87870536 156.50361901 52.87947681 159.46796804 52.88720894 162.43251038 C52.89881792 167.12261805 52.88660812 171.81247978 52.87059021 176.50256348 C52.83444226 188.14982637 52.82816634 199.79708306 52.83068848 211.44439697 C52.83240025 220.50126427 52.82526804 229.55792997 52.79070991 238.61474085 C52.7739312 243.27471517 52.77569673 247.93419737 52.79153264 252.59416962 C52.797336 255.49534026 52.78657844 258.39627829 52.77128601 261.29740715 C52.76579407 263.27860714 52.78015736 265.25983118 52.79515076 267.24098206 C52.70830197 277.99557429 52.70830197 277.99557429 48.26733398 282.86889648 C47.75170898 283.46702148 47.23608398 284.06514648 46.70483398 284.68139648 C43.33362881 287.4663051 39.17200512 287.27019525 35.0144043 287.2175293 C30.12287144 286.59674109 26.32800602 284.23030022 22.14233398 281.74389648 C21.21163086 281.21272217 20.28092773 280.68154785 19.32202148 280.13427734 C17.33429566 278.99520075 15.35231758 277.84604485 13.37573242 276.68774414 C10.16821256 274.81089659 6.9426451 272.96847202 3.71264648 271.13061523 C1.56332855 269.89907762 -0.58513067 268.66603994 -2.73266602 267.43139648 C-4.24497803 266.56393799 -4.24497803 266.56393799 -5.7878418 265.67895508 C-19.32259056 257.78464032 -19.32259056 257.78464032 -21.73266602 251.86889648 C-21.98451501 249.82729542 -21.98451501 249.82729542 -21.98714161 247.61406136 C-21.9929738 246.76681563 -21.998806 245.9195699 -22.00481492 245.04665005 C-22.0010356 244.12078465 -21.99725628 243.19491925 -21.99336243 242.24099731 C-21.99718797 241.25359334 -22.00101352 240.26618936 -22.00495499 239.24886405 C-22.01529697 235.93091099 -22.01129053 232.61313059 -22.00732422 229.29516602 C-22.01167004 226.92010335 -22.01685275 224.54504208 -22.02281189 222.16998291 C-22.0348332 216.38257624 -22.03735151 210.59522356 -22.03501163 204.80780591 C-22.0332291 200.10352301 -22.0349767 195.3992542 -22.03923607 190.69497299 C-22.03983126 190.02560987 -22.04042645 189.35624675 -22.04103967 188.66659989 C-22.04225142 187.30680641 -22.04346555 185.94701294 -22.04468205 184.58721946 C-22.055561 171.83203139 -22.05339353 159.07686974 -22.0472972 146.32168017 C-22.04212876 134.65387427 -22.05338091 122.98615187 -22.07239542 111.31836249 C-22.09176993 99.3378075 -22.10003044 87.35729202 -22.09627217 75.37672126 C-22.0943594 68.65059593 -22.09685494 61.92454166 -22.11098671 55.19842911 C-22.12353874 48.87340219 -22.12164571 42.54854265 -22.10857582 36.22351837 C-22.10620472 33.90072702 -22.10896372 31.57792399 -22.11719894 29.25514603 C-22.12762282 26.08682274 -22.1196004 22.91906562 -22.10688782 19.75076294 C-22.1142621 18.82935898 -22.12163639 17.90795502 -22.12923414 16.95862973 C-22.07600852 10.6625776 -20.95931407 6.4434583 -16.73266602 1.55639648 C-11.97857297 -2.45486952 -5.51397205 -2.28234008 0 0 Z " fill="#007FFF" transform="translate(21.732666015625,1.131103515625)"/>
<path d="M0 0 C2.73568495 2.22197035 4.42259167 4.84518335 6 8 C6.1066325 9.94418936 6.14884461 11.89203871 6.16113281 13.83911133 C6.17074036 15.06410843 6.1803479 16.28910553 6.19024658 17.55122375 C6.19509493 18.89482436 6.19937367 20.23842713 6.203125 21.58203125 C6.20887734 22.95724998 6.21463507 24.33246869 6.22039795 25.70768738 C6.23090877 28.59362156 6.23675058 31.47952788 6.24023438 34.36547852 C6.24571286 38.0576739 6.26972623 41.74949934 6.29820633 45.44157887 C6.31686286 48.28379885 6.32203995 51.12593037 6.32357025 53.96820641 C6.32659161 55.32893581 6.33460273 56.68966384 6.34775543 58.05033302 C6.36487345 59.95771576 6.36108255 61.86525116 6.35644531 63.77270508 C6.36191376 65.39913689 6.36191376 65.39913689 6.36749268 67.0584259 C5.80916994 71.52748831 3.99984737 74.09979815 0.69726562 77.07324219 C-2.18548958 79.13250215 -5.12057945 81.00139048 -8.15625 82.828125 C-8.73983276 83.18082458 -9.32341553 83.53352417 -9.92468262 83.89691162 C-11.78111432 85.0179778 -13.64042459 86.13415785 -15.5 87.25 C-17.32281429 88.34806333 -19.14500806 89.44714953 -20.96704102 90.54650879 C-22.17407402 91.27444829 -23.38159213 92.00158405 -24.58959961 92.72790527 C-27.63891649 94.56355857 -30.67735811 96.41435968 -33.69921875 98.29492188 C-34.29118042 98.66276794 -34.88314209 99.03061401 -35.49304199 99.40960693 C-37.12137208 100.42372819 -38.74728815 101.44172258 -40.37304688 102.45996094 C-45.40230203 105.4083384 -50.29085686 105.90942103 -56 105 C-60.25496092 102.8101504 -63.46388012 100.60835963 -65 96 C-65.12381446 94.00349184 -65.18989185 92.00321621 -65.22460938 90.00317383 C-65.24712769 88.76791458 -65.269646 87.53265533 -65.29284668 86.25996399 C-65.36872867 80.6056824 -65.42154075 74.95128092 -65.45996094 69.29663086 C-65.48221005 66.31557426 -65.52394003 63.33577487 -65.58300781 60.35522461 C-65.65436988 56.74653586 -65.69083133 53.13902685 -65.70307922 49.52966881 C-65.71343403 48.16012893 -65.73574977 46.79062144 -65.77067566 45.42148781 C-66.06126305 33.40657829 -66.06126305 33.40657829 -61.86132812 28.35791016 C-58.69011732 25.35458255 -55.30529532 22.97075834 -51.5 20.81640625 C-50.9060997 20.47427597 -50.3121994 20.13214569 -49.70030212 19.77964783 C-47.80779662 18.69325957 -45.90446895 17.62774867 -44 16.5625 C-42.69128115 15.81660673 -41.38342213 15.06920287 -40.07641602 14.3203125 C-37.52941962 12.86190013 -34.979036 11.40971004 -32.42626953 9.96142578 C-27.09740302 6.91082627 -21.87432974 3.69756417 -16.65234375 0.46875 C-10.93217153 -2.69882696 -6.09208346 -2.19827607 0 0 Z " fill="#007EFF" transform="translate(506,2)"/>
</svg>
