<?xml version="1.0" encoding="UTF-8"?>
<svg version="1.1" xmlns="http://www.w3.org/2000/svg" width="512" height="512">
<path d="M0 0 C1.36130591 -0.00418644 2.72260833 -0.00967105 4.08390445 -0.01631981 C7.77785391 -0.03062171 11.47157739 -0.02657824 15.16553843 -0.019153 C19.16772206 -0.01438529 23.16985928 -0.02696277 27.17202759 -0.03717041 C34.99465584 -0.05429405 42.81720353 -0.05521181 50.63984565 -0.04995751 C57.00375797 -0.04590233 63.36764664 -0.0473753 69.73155785 -0.05270576 C70.64019769 -0.05345419 71.54883754 -0.05420261 72.48501193 -0.05497371 C74.33141576 -0.05650532 76.17781959 -0.05804367 78.02422341 -0.05958868 C95.30745304 -0.07329058 112.59063729 -0.06789243 129.87386587 -0.05640347 C145.65205481 -0.04647474 161.43012643 -0.05940965 177.20829729 -0.08333766 C193.44714946 -0.10777692 209.68594709 -0.11732461 225.92481726 -0.11068493 C235.0265508 -0.10720326 244.12819418 -0.10935485 253.22991371 -0.12693596 C260.97830617 -0.14171853 268.72654498 -0.14221488 276.47493462 -0.12486505 C280.42055916 -0.11640196 284.36590996 -0.11408907 288.31151962 -0.1295166 C306.99112498 -0.19739668 325.11876652 -0.07480679 342.53923035 7.57518005 C343.57624084 8.01954407 343.57624084 8.01954407 344.63420105 8.47288513 C370.79117663 20.1032099 390.77593298 41.75081468 401.10173035 68.32518005 C405.70727323 80.45266978 407.24003696 92.69970012 407.1769104 105.59844971 C407.18109684 106.95975562 407.18658145 108.32105804 407.19323021 109.68235415 C407.20753211 113.37630362 407.20348864 117.0700271 407.1960634 120.76398814 C407.19129569 124.76617177 407.20387317 128.76830899 407.21408081 132.77047729 C407.23120445 140.59310554 407.23212221 148.41565324 407.22686791 156.23829535 C407.22281273 162.60220768 407.2242857 168.96609635 407.22961617 175.33000755 C407.23036459 176.2386474 407.23111301 177.14728725 407.23188411 178.08346164 C407.23341572 179.92986547 407.23495407 181.7762693 407.23649908 183.62267312 C407.25020098 200.90590274 407.24480283 218.189087 407.23331387 235.47231557 C407.22338514 251.25050452 407.23632005 267.02857614 407.26024806 282.806747 C407.28468732 299.04559916 407.29423502 315.2843968 407.28759533 331.52326697 C407.28411366 340.6250005 407.28626525 349.72664389 407.30384636 358.82836342 C407.31862893 366.57675587 407.31912528 374.32499469 407.30177545 382.07338432 C407.29331236 386.01900887 407.29099947 389.96435967 407.306427 393.90996933 C407.37430708 412.58957469 407.25171719 430.71721623 399.60173035 448.13768005 C399.30548767 448.82902039 399.009245 449.52036072 398.70402527 450.23265076 C387.0737005 476.38962633 365.42609572 496.37438268 338.85173035 506.70018005 C326.72424062 511.30572294 314.47721028 512.83848666 301.57846069 512.77536011 C300.21715478 512.77954655 298.85585236 512.78503116 297.49455625 512.79167992 C293.80060678 512.80598181 290.1068833 512.80193835 286.41292226 512.79451311 C282.41073863 512.7897454 278.40860141 512.80232288 274.40643311 512.81253052 C266.58380486 512.82965416 258.76125716 512.83057192 250.93861505 512.82531761 C244.57470272 512.82126244 238.21081405 512.82273541 231.84690285 512.82806587 C230.938263 512.82881429 230.02962315 512.82956272 229.09344876 512.83033382 C227.24704493 512.83186543 225.4006411 512.83340378 223.55423728 512.83494879 C206.27100766 512.84865069 188.9878234 512.84325254 171.70459483 512.83176357 C155.92640588 512.82183485 140.14833426 512.83476976 124.3701634 512.85869776 C108.13131124 512.88313702 91.8925136 512.89268472 75.65364343 512.88604504 C66.5519099 512.88256337 57.45026652 512.88471496 48.34854698 512.90229607 C40.60015453 512.91707863 32.85191572 512.91757498 25.10352608 512.90022516 C21.15790153 512.89176207 17.21255073 512.88944918 13.26694107 512.90487671 C-5.41266428 512.97275679 -23.54030583 512.8501669 -40.96076965 505.20018005 C-41.65210999 504.90393738 -42.34345032 504.6076947 -43.05574036 504.30247498 C-69.21271593 492.67215021 -89.19747228 471.02454542 -99.52326965 444.45018005 C-104.12881254 432.32269033 -105.66157626 420.07565999 -105.59844971 407.1769104 C-105.60263615 405.81560449 -105.60812076 404.45430207 -105.61476952 403.09300596 C-105.62907141 399.39905649 -105.62502795 395.70533301 -105.61760271 392.01137197 C-105.612835 388.00918834 -105.62541248 384.00705112 -105.63562012 380.00488281 C-105.65274376 372.18225456 -105.65366152 364.35970687 -105.64840721 356.53706475 C-105.64435204 350.17315243 -105.64582501 343.80926376 -105.65115547 337.44535255 C-105.65190389 336.53671271 -105.65265232 335.62807286 -105.65342342 334.69189847 C-105.65495503 332.84549464 -105.65649338 330.99909081 -105.65803839 329.15268699 C-105.67174029 311.86945736 -105.66634214 294.58627311 -105.65485317 277.30304454 C-105.64492445 261.52485559 -105.65785936 245.74678397 -105.68178736 229.96861311 C-105.70622662 213.72976094 -105.71577432 197.49096331 -105.70913464 181.25209314 C-105.70565297 172.1503596 -105.70780456 163.04871622 -105.72538567 153.94699669 C-105.74016823 146.19860423 -105.74066458 138.45036542 -105.72331475 130.70197579 C-105.71485167 126.75635124 -105.71253878 122.81100044 -105.72796631 118.86539078 C-105.79584639 100.18578542 -105.67325649 82.05814388 -98.02326965 64.63768005 C-97.72702698 63.94633972 -97.4307843 63.25499939 -97.12556458 62.54270935 C-85.49523981 36.38573377 -63.84763502 16.40097742 -37.27326965 6.07518005 C-25.14577993 1.46963717 -12.89874959 -0.06312655 0 0 Z " fill="#FEFEFE" transform="translate(105.21076965332031,-0.3876800537109375)"/>
<path d="M0 0 C0.66 0 1.32 0 2 0 C2.50789063 1.0621875 3.01578125 2.124375 3.5390625 3.21875 C8.78063928 14.04110206 14.15467856 22.34262591 22.78515625 30.80078125 C26.05532131 34.04787636 29.05777822 37.45501067 32 41 C33.21623047 42.45792969 33.21623047 42.45792969 34.45703125 43.9453125 C66.69355096 83.32918956 81.97416502 130.59934386 81 181 C80.98694824 182.13332764 80.98694824 182.13332764 80.97363281 183.28955078 C80.37128482 224.40499426 59.97445144 262.11031046 32 291 C30.90365234 292.15628906 30.90365234 292.15628906 29.78515625 293.3359375 C25.85510114 297.3982915 21.83757629 300.70889872 17.078125 303.7734375 C9.25979548 312.15021912 10.34013505 323.93665955 10.25 334.625 C10.22179336 336.31383206 10.1918595 338.00263621 10.16015625 339.69140625 C10.08685041 343.79422009 10.03693794 347.89670419 10 352 C5.05 350.515 5.05 350.515 0 349 C-0.02578125 347.62070312 -0.0515625 346.24140625 -0.078125 344.8203125 C-0.44166491 331.44228293 -1.74739422 318.75781735 -6 306 C-7.051875 305.62875 -7.051875 305.62875 -8.125 305.25 C-11.63987768 303.72179231 -13.51198751 301.65260773 -16.12890625 298.90625 C-17.92307927 297.078366 -19.78452704 295.45240382 -21.75 293.8125 C-51.78064177 267.70894215 -73.20214488 226.64409341 -77 187 C-77.08821895 184.34177987 -77.14071716 181.71155682 -77.1328125 179.0546875 C-77.13376923 178.32234894 -77.13472595 177.59001038 -77.13571167 176.83547974 C-77.13638755 175.2942903 -77.13457491 173.75309792 -77.13037109 172.21191406 C-77.12506119 169.90162442 -77.13031225 167.59153334 -77.13671875 165.28125 C-77.14341161 152.13515243 -76.88865417 138.88610569 -74 126 C-73.505 125.505 -73.505 125.505 -73 125 C-72.6814428 123.3840598 -72.40540299 121.75968378 -72.1484375 120.1328125 C-69.48632046 104.97584156 -63.55703534 90.50679386 -56.9375 76.6875 C-56.45555176 75.68122559 -55.97360352 74.67495117 -55.47705078 73.63818359 C-50.66127087 63.87524008 -44.85681784 54.81499582 -38.3125 46.125 C-37.80630127 45.45154541 -37.30010254 44.77809082 -36.77856445 44.08422852 C-31.6074235 37.31509736 -25.92295032 31.11234698 -20 25 C-19.319375 24.29101562 -18.63875 23.58203125 -17.9375 22.8515625 C-15.78596918 20.65200644 -13.696602 18.52399265 -11.234375 16.671875 C-5.41336615 12.26815526 -2.90975652 6.58692136 0 0 Z " fill="#58AA50" transform="translate(253,81)"/>
<path d="M0 0 C1.36130591 -0.00418644 2.72260833 -0.00967105 4.08390445 -0.01631981 C7.77785391 -0.03062171 11.47157739 -0.02657824 15.16553843 -0.019153 C19.16772206 -0.01438529 23.16985928 -0.02696277 27.17202759 -0.03717041 C34.99465584 -0.05429405 42.81720353 -0.05521181 50.63984565 -0.04995751 C57.00375797 -0.04590233 63.36764664 -0.0473753 69.73155785 -0.05270576 C70.64019769 -0.05345419 71.54883754 -0.05420261 72.48501193 -0.05497371 C74.33141576 -0.05650532 76.17781959 -0.05804367 78.02422341 -0.05958868 C95.30745304 -0.07329058 112.59063729 -0.06789243 129.87386587 -0.05640347 C145.65205481 -0.04647474 161.43012643 -0.05940965 177.20829729 -0.08333766 C193.44714946 -0.10777692 209.68594709 -0.11732461 225.92481726 -0.11068493 C235.0265508 -0.10720326 244.12819418 -0.10935485 253.22991371 -0.12693596 C260.97830617 -0.14171853 268.72654498 -0.14221488 276.47493462 -0.12486505 C280.42055916 -0.11640196 284.36590996 -0.11408907 288.31151962 -0.1295166 C306.99112498 -0.19739668 325.11876652 -0.07480679 342.53923035 7.57518005 C343.57624084 8.01954407 343.57624084 8.01954407 344.63420105 8.47288513 C370.79117663 20.1032099 390.77593298 41.75081468 401.10173035 68.32518005 C405.70727323 80.45266978 407.24003696 92.69970012 407.1769104 105.59844971 C407.18109684 106.95975562 407.18658145 108.32105804 407.19323021 109.68235415 C407.20753211 113.37630362 407.20348864 117.0700271 407.1960634 120.76398814 C407.19129569 124.76617177 407.20387317 128.76830899 407.21408081 132.77047729 C407.23120445 140.59310554 407.23212221 148.41565324 407.22686791 156.23829535 C407.22281273 162.60220768 407.2242857 168.96609635 407.22961617 175.33000755 C407.23036459 176.2386474 407.23111301 177.14728725 407.23188411 178.08346164 C407.23341572 179.92986547 407.23495407 181.7762693 407.23649908 183.62267312 C407.25020098 200.90590274 407.24480283 218.189087 407.23331387 235.47231557 C407.22338514 251.25050452 407.23632005 267.02857614 407.26024806 282.806747 C407.28468732 299.04559916 407.29423502 315.2843968 407.28759533 331.52326697 C407.28411366 340.6250005 407.28626525 349.72664389 407.30384636 358.82836342 C407.31862893 366.57675587 407.31912528 374.32499469 407.30177545 382.07338432 C407.29331236 386.01900887 407.29099947 389.96435967 407.306427 393.90996933 C407.37430708 412.58957469 407.25171719 430.71721623 399.60173035 448.13768005 C399.30548767 448.82902039 399.009245 449.52036072 398.70402527 450.23265076 C387.0737005 476.38962633 365.42609572 496.37438268 338.85173035 506.70018005 C326.72424062 511.30572294 314.47721028 512.83848666 301.57846069 512.77536011 C300.21715478 512.77954655 298.85585236 512.78503116 297.49455625 512.79167992 C293.80060678 512.80598181 290.1068833 512.80193835 286.41292226 512.79451311 C282.41073863 512.7897454 278.40860141 512.80232288 274.40643311 512.81253052 C266.58380486 512.82965416 258.76125716 512.83057192 250.93861505 512.82531761 C244.57470272 512.82126244 238.21081405 512.82273541 231.84690285 512.82806587 C230.938263 512.82881429 230.02962315 512.82956272 229.09344876 512.83033382 C227.24704493 512.83186543 225.4006411 512.83340378 223.55423728 512.83494879 C206.27100766 512.84865069 188.9878234 512.84325254 171.70459483 512.83176357 C155.92640588 512.82183485 140.14833426 512.83476976 124.3701634 512.85869776 C108.13131124 512.88313702 91.8925136 512.89268472 75.65364343 512.88604504 C66.5519099 512.88256337 57.45026652 512.88471496 48.34854698 512.90229607 C40.60015453 512.91707863 32.85191572 512.91757498 25.10352608 512.90022516 C21.15790153 512.89176207 17.21255073 512.88944918 13.26694107 512.90487671 C-5.41266428 512.97275679 -23.54030583 512.8501669 -40.96076965 505.20018005 C-41.65210999 504.90393738 -42.34345032 504.6076947 -43.05574036 504.30247498 C-69.21271593 492.67215021 -89.19747228 471.02454542 -99.52326965 444.45018005 C-104.12881254 432.32269033 -105.66157626 420.07565999 -105.59844971 407.1769104 C-105.60263615 405.81560449 -105.60812076 404.45430207 -105.61476952 403.09300596 C-105.62907141 399.39905649 -105.62502795 395.70533301 -105.61760271 392.01137197 C-105.612835 388.00918834 -105.62541248 384.00705112 -105.63562012 380.00488281 C-105.65274376 372.18225456 -105.65366152 364.35970687 -105.64840721 356.53706475 C-105.64435204 350.17315243 -105.64582501 343.80926376 -105.65115547 337.44535255 C-105.65190389 336.53671271 -105.65265232 335.62807286 -105.65342342 334.69189847 C-105.65495503 332.84549464 -105.65649338 330.99909081 -105.65803839 329.15268699 C-105.67174029 311.86945736 -105.66634214 294.58627311 -105.65485317 277.30304454 C-105.64492445 261.52485559 -105.65785936 245.74678397 -105.68178736 229.96861311 C-105.70622662 213.72976094 -105.71577432 197.49096331 -105.70913464 181.25209314 C-105.70565297 172.1503596 -105.70780456 163.04871622 -105.72538567 153.94699669 C-105.74016823 146.19860423 -105.74066458 138.45036542 -105.72331475 130.70197579 C-105.71485167 126.75635124 -105.71253878 122.81100044 -105.72796631 118.86539078 C-105.79584639 100.18578542 -105.67325649 82.05814388 -98.02326965 64.63768005 C-97.72702698 63.94633972 -97.4307843 63.25499939 -97.12556458 62.54270935 C-85.49523981 36.38573377 -63.84763502 16.40097742 -37.27326965 6.07518005 C-25.14577993 1.46963717 -12.89874959 -0.06312655 0 0 Z M-38.96076965 22.51268005 C-39.74951477 22.89810974 -40.53825989 23.28353943 -41.35090637 23.6806488 C-48.72429624 27.41461868 -55.01003493 31.92512804 -61.21076965 37.38768005 C-62.02803528 38.10568787 -62.8453009 38.82369568 -63.68733215 39.5634613 C-72.21626011 47.57948122 -78.39969409 57.1992875 -83.52326965 67.63768005 C-83.99325378 68.56387146 -83.99325378 68.56387146 -84.47273254 69.5087738 C-92.34872852 86.37598826 -91.79639238 104.31014503 -91.73366833 122.47420239 C-91.72452508 126.39934815 -91.73863308 130.3244258 -91.74958801 134.2495575 C-91.767281 141.91719979 -91.7635744 149.58468458 -91.75193745 157.25233279 C-91.74286551 163.49081205 -91.7416953 169.7292475 -91.74603271 175.96773148 C-91.74664565 176.85915945 -91.74725858 177.75058743 -91.74789008 178.66902838 C-91.74916913 180.48056142 -91.75046598 182.29209444 -91.75178045 184.10362746 C-91.76315958 201.05118177 -91.75011523 217.99864924 -91.72857898 234.9461893 C-91.71071661 249.450981 -91.71381021 263.95564458 -91.73225403 278.46043396 C-91.75371869 295.34854967 -91.76205474 312.23658942 -91.74980497 329.12471688 C-91.74853093 330.92981027 -91.74727344 332.73490368 -91.74603271 334.5399971 C-91.74541561 335.42788051 -91.74479851 336.31576391 -91.74416271 337.23055287 C-91.74072609 343.45203379 -91.74650162 349.67346605 -91.75595093 355.89493942 C-91.767235 363.49065104 -91.76399778 371.08619759 -91.74282795 378.68189059 C-91.73240195 382.54866359 -91.72804875 386.4151626 -91.74142456 390.28193283 C-91.84113094 421.80859867 -87.86455974 447.97773976 -65.07795715 471.5400238 C-54.68189964 481.98146371 -41.32058412 491.3069952 -26.74327749 494.7754249 C-25.02128287 495.19173164 -23.30864657 495.64835924 -21.60667568 496.14016396 C-13.8295097 498.3149883 -6.64324773 498.81524348 1.40472412 498.77536011 C2.72464243 498.78074565 4.04456075 498.78613118 5.40447658 498.79167992 C9.03486493 498.80602994 12.66502425 498.80192282 16.29542458 498.79451311 C20.22406033 498.78975739 24.15264821 498.80231269 28.08126831 498.81253052 C35.76627876 498.82967941 43.4512073 498.83056634 51.13623191 498.82531761 C57.3891282 498.82126589 63.6420004 498.82273136 69.89489555 498.82806587 C70.78700098 498.82881429 71.67910641 498.82956272 72.59824533 498.83033382 C74.41098604 498.83186541 76.22372673 498.83340376 78.03646743 498.83494879 C95.01736419 498.84866073 111.99821483 498.84324626 128.97911053 498.83176357 C144.47875486 498.82184173 159.97827963 498.83475604 175.47790552 498.85869776 C191.42625458 498.88314519 207.37454809 498.89268224 223.32291549 498.88604504 C232.26320015 498.88256415 241.20339302 498.88470929 250.14366341 498.90229607 C257.75778697 498.91708921 265.37175417 498.91756181 272.9858749 498.90022516 C276.86274511 498.89176913 280.73933689 498.88943117 284.61619186 498.90487671 C316.17907994 499.02135846 342.33700103 495.05855989 365.93766785 472.26268005 C387.1509886 451.14868588 393.24872617 425.88668677 393.33034271 396.77713074 C393.33171522 393.8646234 393.32220381 390.95219559 393.31212902 388.03970838 C393.30296893 384.11190963 393.31710165 380.18417818 393.32804871 376.25639343 C393.3457222 368.58835949 393.34204452 360.92048323 393.33039814 353.25244342 C393.32132103 347.01494828 393.32015818 340.77749697 393.32449341 334.5399971 C393.32541281 333.20239543 393.32541281 333.20239543 393.32635078 331.83777151 C393.32762983 330.02559008 393.32892668 328.21340866 393.33024114 326.40122725 C393.34161386 309.45753981 393.3285847 292.51393932 393.30703968 275.57026614 C393.28916554 261.06486196 393.29228184 246.55958585 393.31071472 232.05418396 C393.33216947 215.1631431 393.340522 198.27217816 393.32826567 181.38112557 C393.32699162 179.57666088 393.32573413 177.77219619 393.32449341 175.96773148 C393.32387631 175.08015662 393.3232592 174.19258177 393.3226234 173.27811071 C393.31918475 167.05466511 393.3249665 160.83126811 393.33441162 154.60783005 C393.34568407 147.01430554 393.34248191 139.4209462 393.32128865 131.82744037 C393.3108492 127.96090117 393.30653334 124.09463636 393.31988525 120.22809982 C393.37923261 101.486738 393.25977499 83.79385964 384.66423035 66.63768005 C384.27880066 65.84893494 383.89337097 65.06018982 383.4962616 64.24754333 C379.76229172 56.87415347 375.25178236 50.58841477 369.78923035 44.38768005 C369.07122253 43.57041443 368.35321472 42.7531488 367.6134491 41.91111755 C352.49851241 25.82904598 330.31390185 15.91433438 308.39365995 14.10784447 C304.89919771 14.00270515 301.41576217 13.98261092 297.91976929 14 C296.58336245 13.99581454 295.24695918 13.99033045 293.91056234 13.98368019 C290.28083118 13.96936543 286.65132976 13.9734259 283.02158678 13.980847 C279.09029791 13.98561145 275.15905645 13.97304005 271.2277832 13.96282959 C263.54238115 13.9456996 255.85706106 13.94478953 248.17164489 13.95004249 C241.91973272 13.95409652 235.66784464 13.95262606 229.41593361 13.94729424 C228.52352172 13.94654581 227.63110982 13.94579739 226.71165514 13.94502629 C224.89826605 13.94349469 223.08487696 13.94195634 221.27148787 13.94041132 C204.294458 13.92670709 187.3174743 13.93210919 170.3404455 13.94359653 C154.83957724 13.95352526 139.33882841 13.94059078 123.83797856 13.91666234 C107.88731582 13.89222676 91.93670861 13.8826745 75.98602754 13.88931507 C67.04471857 13.89279759 58.10350137 13.89063951 49.16220665 13.87306404 C41.55027022 13.8582861 33.93849019 13.85777915 26.32655665 13.87513495 C22.44992028 13.88360185 18.57356263 13.88590141 14.69694138 13.8704834 C-4.07025342 13.8011635 -21.7799856 13.90480814 -38.96076965 22.51268005 Z " fill="#134514" transform="translate(105.21076965332031,-0.3876800537109375)"/>
<path d="M0 0 C0.66 0 1.32 0 2 0 C3.54613882 2.58093231 5.00121508 5.17141017 6.4375 7.8125 C11.01368238 15.93060877 16.14457834 21.66537782 23 28 C25.45411358 30.5724461 27.73844806 33.2575707 30 36 C30.80824219 36.969375 31.61648438 37.93875 32.44921875 38.9375 C64.69533452 78.31491195 79.97414225 125.6005215 79 176 C78.98694824 177.13332764 78.98694824 177.13332764 78.97363281 178.28955078 C78.37129458 219.40432789 57.97486782 257.11118053 30 286 C28.88625 287.17369141 28.88625 287.17369141 27.75 288.37109375 C18.85337155 297.56311807 18.85337155 297.56311807 14 300 C11.25796633 299.86892764 10.29092383 299.30728385 8.40234375 297.3125 C-2.49981223 280.10162976 -0.04916122 255.78997412 1.5078125 236.3515625 C2.31595436 224.93948682 2.15168355 213.50098415 2.12877274 202.0662117 C2.12494343 199.9690164 2.12291145 197.87182579 2.12130737 195.77462769 C2.06317354 130.51453263 1.07024284 65.250306 0 0 Z " fill="#499D4A" transform="translate(255,86)"/>
<path d="M0 0 C0.33 0 0.66 0 1 0 C1.10957031 1.08796875 1.21914063 2.1759375 1.33203125 3.296875 C2.77326637 20.12407366 2.77326637 20.12407366 10 35 C10 35.66 10 36.32 10 37 C11.485 37.495 11.485 37.495 13 38 C12.71995117 38.5772583 12.43990234 39.1545166 12.15136719 39.74926758 C8.21956534 48.94346116 8.33325503 57.86631063 8.25 67.6875 C8.22178552 69.37177472 8.19185062 71.05602154 8.16015625 72.74023438 C8.0869463 76.82677195 8.03697795 80.91298057 8 85 C4.7 84.01 1.4 83.02 -2 82 C-2.02578125 80.62070312 -2.0515625 79.24140625 -2.078125 77.8203125 C-2.39966644 58.40629726 -2.39966644 58.40629726 -8 40 C-7.01 39.505 -7.01 39.505 -6 39 C-5.35918419 37.12502662 -5.35918419 37.12502662 -4.96484375 34.8359375 C-4.71118042 33.53342041 -4.71118042 33.53342041 -4.45239258 32.20458984 C-4.28247803 31.2708252 -4.11256348 30.33706055 -3.9375 29.375 C-3.76049561 28.42963379 -3.58349121 27.48426758 -3.40112305 26.51025391 C-2.16175235 19.61110981 -1.44615981 12.83487973 -1.17578125 5.8359375 C-1 3 -1 3 0 0 Z " fill="#A6A587" transform="translate(255,348)"/>
</svg>
