<?xml version="1.0" encoding="UTF-8"?>
<svg version="1.1" xmlns="http://www.w3.org/2000/svg" width="512" height="503">
<path d="M0 0 C5.22823597 3.3856082 10.03074185 7.32432876 14.8828125 11.21923828 C18.23440751 13.45363496 19.52321322 13.50356058 23.45703125 13.64111328 C24.58810303 13.69372314 25.7191748 13.74633301 26.88452148 13.80053711 C28.70898804 13.88404419 28.70898804 13.88404419 30.5703125 13.96923828 C64.47449048 15.95253976 91.44902443 29.19761176 118.8828125 48.21923828 C119.49576172 48.64172852 120.10871094 49.06421875 120.74023438 49.49951172 C124.84053678 52.33589705 128.87950331 55.24765582 132.8828125 58.21923828 C133.57342773 58.73180176 134.26404297 59.24436523 134.97558594 59.77246094 C146.30822426 68.24567198 156.77444412 77.32573138 166.8828125 87.21923828 C167.57713379 87.8930957 168.27145508 88.56695312 168.98681641 89.26123047 C176.32965756 96.40080377 183.49145984 103.53125469 189.8203125 111.59814453 C192.05579444 114.4390695 194.4022819 117.16475344 196.7578125 119.90673828 C202.66062086 126.99375202 207.81686497 134.51892987 212.8828125 142.21923828 C213.38635254 142.98220215 213.88989258 143.74516602 214.40869141 144.53125 C223.91265738 159.01532993 231.43846254 173.45947331 237.8828125 189.53173828 C247.94659595 214.60492584 259.59659131 238.91540358 271.6328125 263.09423828 C272.1145694 264.06569794 272.59632629 265.03715759 273.09268188 266.03805542 C274.46879362 268.8077762 275.85378772 271.57284787 277.2421875 274.33642578 C277.65198349 275.16194443 278.06177948 275.98746307 278.48399353 276.83799744 C281.54358319 282.88396642 284.14195202 287.91806383 290.671875 290.61376953 C292.07070923 291.20448242 292.07070923 291.20448242 293.49780273 291.80712891 C294.49110596 292.21125 295.48440918 292.61537109 296.5078125 293.03173828 C298.59517023 293.9129689 300.68240854 294.79448244 302.76953125 295.67626953 C304.80689437 296.52488025 306.84463333 297.37258942 308.8828125 298.21923828 C345.16154383 313.34166877 386.7953843 341.08809598 408.8828125 374.21923828 C408.5078125 376.90673828 408.5078125 376.90673828 407.8828125 379.21923828 C394.93360544 383.14071207 381.90844236 385.4896715 368.53125 387.34301758 C360.71461127 388.46651443 353.40683133 390.02596134 345.86987305 392.35668945 C342.18538961 393.42062734 338.69760945 393.91405453 334.8828125 394.21923828 C341.54661507 406.65833641 353.6311062 412.68313639 365.51757812 419.48681641 C372.90007941 423.79819716 379.42868577 428.61790122 385.8828125 434.21923828 C386.50454346 434.75137939 387.12627441 435.28352051 387.7668457 435.83178711 C394.6101969 441.77139725 400.71152687 448.09497561 406.48608398 455.06640625 C409.74440148 458.98029137 413.18935538 462.53035087 416.8828125 466.03173828 C421.12794806 470.184855 424.64320895 474.26914124 425.8828125 480.21923828 C425.5528125 481.20923828 425.2228125 482.19923828 424.8828125 483.21923828 C421.38135631 481.03082816 418.28418114 478.74314523 415.2265625 475.96533203 C410.99922845 472.23730087 406.54650275 469.00153241 401.8828125 465.84423828 C401.05249512 465.28115967 400.22217773 464.71808105 399.36669922 464.13793945 C388.37752028 456.77365599 377.04097308 450.70166959 365.0703125 445.09423828 C357.62201306 441.59633428 350.5934901 438.02022838 343.8828125 433.21923828 C343.17382812 432.71875977 342.46484375 432.21828125 341.734375 431.70263672 C327.13781352 421.36340567 316.0205749 411.65513971 306.8828125 396.21923828 C306.12871094 394.98173828 306.12871094 394.98173828 305.359375 393.71923828 C303.72583911 390.82491967 302.82841952 388.81756102 303.1328125 385.46923828 C311.24633472 375.03756686 334.40521507 371.78002208 346.8046875 370.00683594 C359.07109548 368.52198047 371.54327262 368.45179312 383.8828125 368.21923828 C382.38333437 364.3363453 380.24343242 362.80076437 376.81640625 360.53173828 C375.78201416 359.83902832 374.74762207 359.14631836 373.68188477 358.43261719 C372.56142578 357.69472535 371.44090024 356.95693457 370.3203125 356.21923828 C368.59804515 355.07159168 366.87795397 353.92073913 365.15812683 352.7694397 C364.01116561 352.00167965 362.8635514 351.23489421 361.71528625 350.46908569 C357.74541832 347.81665928 353.8391537 345.08966959 349.96582031 342.29882812 C346.6323945 339.89905154 343.26008201 337.55671214 339.8828125 335.21923828 C339.21926758 334.75324219 338.55572266 334.28724609 337.87207031 333.80712891 C324.27491687 324.3872185 309.49825159 319.38496366 293.8828125 314.21923828 C270.6952306 306.40558714 262.27770287 297.88147068 251.21484375 276.02783203 C245.75184752 265.00553937 240.77325052 253.75680073 235.73979187 242.53410339 C233.58268281 237.73811034 231.37665736 232.96741774 229.1328125 228.21142578 C228.82939438 227.56824905 228.52597626 226.92507233 228.21336365 226.2624054 C227.60931232 224.98275158 227.00514185 223.703154 226.40084839 222.4236145 C222.00709753 213.11555323 217.77251314 203.77808391 213.9453125 194.21923828 C205.78072814 173.82801407 194.76285355 155.92929473 181.8828125 138.21923828 C181.480625 137.66107422 181.0784375 137.10291016 180.6640625 136.52783203 C168.70222822 119.95570745 154.80257237 102.97285934 138.6328125 90.37548828 C136.15670557 88.43399535 133.77629534 86.41277607 131.40551758 84.3449707 C117.97187905 72.68648417 103.41165735 62.85137192 87.8828125 54.21923828 C87.23715332 53.85459473 86.59149414 53.48995117 85.92626953 53.11425781 C76.87995772 48.01777661 67.69356685 43.65698681 57.8828125 40.21923828 C56.99335938 39.88520996 56.10390625 39.55118164 55.1875 39.20703125 C44.813165 35.60646896 34.52544291 35.21812641 23.65576172 34.73388672 C6.07993744 33.90506838 6.07993744 33.90506838 -1.1171875 27.21923828 C-1.88546875 26.57599609 -2.65375 25.93275391 -3.4453125 25.27001953 C-4.07953125 24.69638672 -4.71375 24.12275391 -5.3671875 23.53173828 C-19.19790998 12.32112162 -43.76951635 -1.2369261 -62.1171875 0.21923828 C-64.99677306 0.88402393 -64.99677306 0.88402393 -67.1171875 2.21923828 C-69.46592944 9.26546409 -68.44199728 14.25429401 -65.3671875 20.84423828 C-62.26846326 26.87030253 -58.33231857 31.99132934 -54.0234375 37.19262695 C-49.74824089 42.36310779 -45.75181604 47.6868366 -41.8671875 53.15673828 C-41.03658813 54.29876709 -41.03658813 54.29876709 -40.18920898 55.46386719 C-31.70116623 67.52721069 -26.24884774 80.67554531 -21.84292603 94.66976929 C-20.59465271 98.62486564 -19.29769214 102.56399801 -18.00390625 106.50439453 C-17.6277845 107.65328911 -17.6277845 107.65328911 -17.24406433 108.82539368 C-10.888558 128.14843824 -3.27580534 149.91117749 11.9375 164.14111328 C15.88192134 167.97464728 17.38608603 170.64733219 17.6328125 176.21923828 C17.17580435 184.29615786 14.57764417 191.67076241 11.8828125 199.21923828 C-0.49011046 234.10536615 -1.07955713 272.77560112 13.8828125 307.03173828 C14.20266113 307.76650391 14.52250977 308.50126953 14.85205078 309.25830078 C17.63501694 315.30981368 20.85088589 320.79838927 27.1953125 323.59423828 C27.89269531 323.91134766 28.59007813 324.22845703 29.30859375 324.55517578 C29.82808594 324.77431641 30.34757812 324.99345703 30.8828125 325.21923828 C30.90859375 324.35427734 30.934375 323.48931641 30.9609375 322.59814453 C31.97234649 300.1402676 34.14491248 276.05559992 48.8828125 258.21923828 C49.63949219 257.26275391 50.39617187 256.30626953 51.17578125 255.32080078 C53.06072196 252.93876951 54.96293755 250.57312752 56.8828125 248.21923828 C59.96510026 251.00983834 61.596859 253.31059863 63.0390625 257.19970703 C63.41514648 258.18592041 63.79123047 259.17213379 64.17871094 260.18823242 C64.57606445 261.25033936 64.97341797 262.31244629 65.3828125 263.40673828 C73.9490021 285.45810931 84.56717515 306.03969697 96.8828125 326.21923828 C97.41438965 327.09370605 97.9459668 327.96817383 98.49365234 328.86914062 C108.48823189 345.23216972 119.32756158 362.05370914 133.19921875 375.45751953 C134.8828125 377.21923828 134.8828125 377.21923828 134.8828125 379.21923828 C135.6253125 379.46673828 136.3678125 379.71423828 137.1328125 379.96923828 C140.11304337 381.32388868 141.78200502 382.72939238 143.8828125 385.21923828 C143.8828125 385.87923828 143.8828125 386.53923828 143.8828125 387.21923828 C137.95507975 385.85340124 134.76994347 382.72458259 130.5703125 378.59423828 C129.23761305 377.3175346 127.90428294 376.04148891 126.5703125 374.76611328 C125.93351563 374.151875 125.29671875 373.53763672 124.640625 372.90478516 C119.74651006 368.21187272 114.66684649 363.80834681 109.30859375 359.65673828 C85.67468443 340.79040758 71.29969127 319.29729246 58.8828125 292.21923828 C58.59615723 293.8830957 58.59615723 293.8830957 58.30371094 295.58056641 C57.58577432 299.72771018 56.85121765 303.87177084 56.11181641 308.01513672 C55.79515732 309.80275957 55.48290439 311.59116913 55.17529297 313.38037109 C54.73023241 315.96431495 54.26896688 318.54493693 53.8046875 321.12548828 C53.67221619 321.91540161 53.53974487 322.70531494 53.40325928 323.51916504 C51.8479295 331.97390458 49.0393915 338.25344877 41.8828125 343.21923828 C37.4422136 345.7395782 32.86242769 345.7610617 27.8828125 345.21923828 C14.42027565 340.96791085 5.36475014 329.13980495 -1.13085938 317.17822266 C-7.61786819 304.29412396 -10.86920494 290.38420107 -13.1171875 276.21923828 C-13.2929834 275.12289063 -13.4687793 274.02654297 -13.64990234 272.89697266 C-17.26180733 244.46973296 -11.56584857 217.61652036 -4.17578125 190.37939453 C-3.9987265 189.71669556 -3.82167175 189.05399658 -3.63925171 188.37121582 C-2.92013425 185.75582602 -2.18644012 183.3526428 -0.93383789 180.93969727 C0.18307381 179.09549992 0.18307381 179.09549992 -0.9921875 176.53173828 C-2.81639929 173.68811402 -4.59424517 171.55399191 -6.8828125 169.10595703 C-10.909115 164.61081357 -14.04145816 159.970303 -16.9921875 154.71923828 C-17.50048096 153.81834473 -18.00877441 152.91745117 -18.5324707 151.98925781 C-27.96692533 134.7744317 -34.06527872 116.02862462 -40.109375 97.41845703 C-40.44308105 96.39292725 -40.77678711 95.36739746 -41.12060547 94.31079102 C-41.79710208 92.21219312 -42.46242858 90.10996808 -43.11767578 88.00463867 C-44.95511973 82.22346732 -46.86427359 77.32367989 -50.2421875 72.28173828 C-50.62834229 71.70238525 -51.01449707 71.12303223 -51.41235352 70.52612305 C-56.07015907 63.63802971 -61.20441395 57.09869707 -66.40380859 50.61474609 C-72.86029264 42.55944366 -78.34560018 34.3848053 -83.1171875 25.21923828 C-83.50003906 24.52701172 -83.88289063 23.83478516 -84.27734375 23.12158203 C-87.66368626 15.95513626 -87.42068361 5.68588496 -85.23828125 -1.79248047 C-81.87177338 -9.0476938 -76.92773698 -14.72800971 -69.6796875 -18.21826172 C-46.46113577 -26.33246058 -19.31107243 -11.79624409 0 0 Z " fill="#00536B" transform="translate(86.1171875,19.78076171875)"/>
<path d="M0 0 C4.85301109 4.16312225 8.91524678 8.22316217 9.66015625 14.80859375 C9.9264308 21.41614732 8.73843241 25.72224545 4.328125 30.80078125 C2.390625 32.42578125 2.390625 32.42578125 0.390625 32.42578125 C-0.08246094 31.31460938 -0.55554688 30.2034375 -1.04296875 29.05859375 C-4.67483266 20.80005102 -8.08900187 13.92690338 -14.7265625 7.6015625 C-16.95621981 5.02496682 -17.722661 2.68795538 -18.609375 -0.57421875 C-5.57572103 -3.36379577 -5.57572103 -3.36379577 0 0 Z " fill="#00536A" transform="translate(120.609375,87.57421875)"/>
</svg>
