<?xml version="1.0" encoding="UTF-8"?>
<svg version="1.1" xmlns="http://www.w3.org/2000/svg" width="511" height="512">
<path d="M0 0 C5.17515847 0.30479461 9.64251675 1.81609863 14.375 3.8125 C15.03274414 4.08312256 15.69048828 4.35374512 16.36816406 4.63256836 C22.18246163 7.03801569 27.92278493 9.58220165 33.63671875 12.21484375 C38.84774494 14.60595619 44.07474917 16.87389422 49.41015625 18.97265625 C53.27227155 20.50468691 57.10146206 22.11346367 60.93359375 23.71875 C62.94385933 24.5587081 64.95680835 25.39227885 66.97265625 26.21875 C72.24805005 28.38729133 77.45583203 30.65062561 82.625 33.0625 C88.01617417 35.57495423 93.45503823 37.85268637 99 40 C105.17690848 42.40978117 111.2299015 44.99036646 117.25 47.76953125 C120.75645683 49.33847145 124.3177124 50.73646496 127.90625 52.10546875 C130 53 130 53 133 55 C131.37238997 58.9786023 128.60077598 61.80309944 125.6875 64.875 C122.81747934 67.92854579 119.98642491 70.97801057 117.33203125 74.22265625 C114.80316953 77.23441619 112.04795936 79.52353302 109 82 C107.31288577 83.6459651 105.6454378 85.31237149 104 87 C103.154375 87.825 102.30875 88.65 101.4375 89.5 C99.00543753 91.89390968 99.00543753 91.89390968 97.1875 94.375 C95.25056181 96.69932583 93.35436679 98.48469216 91.0625 100.4375 C88.588648 102.54688025 86.59687631 104.48374843 84.5 107 C81.8719317 110.15368196 79.03075335 112.62366663 75.9140625 115.2734375 C74.21135635 116.80934795 72.79803925 118.33472481 71.375 120.125 C68.83741692 123.19681109 66.08720122 125.49164901 63 128 C62.2575 128.94875 61.515 129.8975 60.75 130.875 C57.06089941 133.72566864 55.25953112 132.982929 50.81005859 132.42724609 C46.15403071 131.71933569 41.54867697 130.82969032 36.9375 129.875 C35.88546387 129.66053223 34.83342773 129.44606445 33.74951172 129.22509766 C30.16481881 128.49058452 26.58229075 127.74613828 23 127 C21.59946059 126.70956804 20.19890673 126.41920571 18.79833984 126.12890625 C15.13035909 125.36770825 11.46350749 124.60125428 7.7973938 123.83111572 C6.36746173 123.53088724 4.93735118 123.2315074 3.50704956 122.93304443 C-1.00335667 121.99008803 -5.50439179 121.01172581 -10 120 C-11.10504883 119.75523926 -12.21009766 119.51047852 -13.34863281 119.25830078 C-14.33959961 119.01837402 -15.33056641 118.77844727 -16.3515625 118.53125 C-17.20830566 118.32822266 -18.06504883 118.12519531 -18.94775391 117.91601562 C-21 117 -21 117 -22.25732422 115.09985352 C-23.01515801 113.08469324 -23.50828409 111.09389027 -24 109 C-25.87653748 105.45010404 -25.87653748 105.45010404 -28.6875 102.6875 C-30.8998724 99.8430212 -30.26319241 96.43983988 -30 93 C-29.36698224 88.92914739 -28.52838473 84.90736339 -27.6875 80.875 C-25.82368602 71.60815606 -24.28208118 62.38021216 -23.09887695 53.00415039 C-22.14874178 45.65522804 -20.79672487 38.42154812 -19.34399414 31.15722656 C-18.28772342 25.79390761 -17.50707718 20.53115401 -17.2734375 15.05859375 C-16.94375381 12.57654656 -16.4308151 11.0652744 -15 9 C-12.79296875 7.91015625 -12.79296875 7.91015625 -10.1875 7.0625 C-6.52813393 5.7518388 -5.07443207 5.07789403 -2.3125 2.1875 C-1.549375 1.465625 -0.78625 0.74375 0 0 Z " fill="#3BAABB" transform="translate(377,212)"/>
<path d="M0 0 C5.28941304 1.32450343 10.04685456 3.64951804 14.94921875 5.99609375 C18.34490496 7.60413704 21.77610001 9.00796254 25.2734375 10.375 C29.03153408 11.85764632 32.76534961 13.39691068 36.5 14.9375 C37.23726318 15.24147705 37.97452637 15.5454541 38.73413086 15.85864258 C43.91878701 17.99822361 49.09989262 20.14616716 54.2734375 22.3125 C56.29581187 23.15469426 58.32230121 23.98703778 60.3515625 24.8125 C61.41117187 25.245625 62.47078125 25.67875 63.5625 26.125 C64.98369141 26.70121094 64.98369141 26.70121094 66.43359375 27.2890625 C71.9006831 29.74885597 71.9006831 29.74885597 74.125 31.5 C74.40234375 33.99609375 74.40234375 33.99609375 74.0625 36.9375 C73.74957091 43.376016 75.56999892 47.37489172 78.71484375 52.90625 C79.95614541 55.18941981 80.77132023 56.94003216 81.125 59.5 C80.795 60.16 80.465 60.82 80.125 61.5 C79.465 61.5 78.805 61.5 78.125 61.5 C78.0425 62.221875 77.96 62.94375 77.875 63.6875 C76.95317453 67.14434551 75.40381361 68.72846993 73.125 71.5 C71.53708348 74.13975891 70.00448653 76.80453815 68.4921875 79.48828125 C68.04101562 80.15214844 67.58984375 80.81601563 67.125 81.5 C66.465 81.5 65.805 81.5 65.125 81.5 C65.03089844 82.22058594 64.93679687 82.94117188 64.83984375 83.68359375 C64.01161218 86.94673561 62.68957448 88.86948089 60.6875 91.5625 C58.5447929 94.46566682 56.63389426 97.21682807 55.125 100.5 C54.465 100.5 53.805 100.5 53.125 100.5 C52.815625 101.7065625 52.815625 101.7065625 52.5 102.9375 C50.98314593 106.867531 48.97310839 109.93091809 46.58203125 113.375 C45.00561224 115.61200362 45.00561224 115.61200362 43.375 118.5625 C42.9625 119.201875 42.55 119.84125 42.125 120.5 C41.465 120.5 40.805 120.5 40.125 120.5 C39.89039063 121.34304687 39.65578125 122.18609375 39.4140625 123.0546875 C37.92329867 127.03909266 35.91150405 130.14942376 33.5 133.625 C32.60272883 134.9426159 31.70559545 136.26032564 30.80859375 137.578125 C30.35983887 138.23232422 29.91108398 138.88652344 29.44873047 139.56054688 C27.45672799 142.47911341 25.51197906 145.42786711 23.5625 148.375 C20.24752964 153.37747036 20.24752964 153.37747036 19.125 154.5 C16.15395987 154.65357265 13.22222447 154.73168121 10.25 154.75 C9.00669922 154.7809375 9.00669922 154.7809375 7.73828125 154.8125 C6.54138672 154.82023437 6.54138672 154.82023437 5.3203125 154.828125 C4.58828613 154.8374707 3.85625977 154.84681641 3.10205078 154.85644531 C0.56024806 154.39818007 -0.26209005 153.47485286 -1.875 151.5 C-2.89906982 149.84801369 -3.89768744 148.18007081 -4.875 146.5 C-5.94304632 144.92701099 -7.02692971 143.36467879 -8.125 141.8125 C-9.05119141 140.49765625 -9.05119141 140.49765625 -9.99609375 139.15625 C-11.1752708 137.48922215 -12.35489064 135.82250733 -13.53515625 134.15625 C-17.53953433 128.47628109 -21.40416544 122.71444326 -25.23120117 116.91430664 C-27.95757598 112.80501097 -30.79541074 108.84071169 -33.9140625 105.015625 C-34.875 103.5 -34.875 103.5 -34.875 100.5 C-35.535 100.5 -36.195 100.5 -36.875 100.5 C-38.6015625 98.1640625 -38.6015625 98.1640625 -40.5 95.125 C-41.13164063 94.12726563 -41.76328125 93.12953125 -42.4140625 92.1015625 C-43.875 89.5 -43.875 89.5 -43.875 87.5 C-45.36 87.005 -45.36 87.005 -46.875 86.5 C-47.92226899 84.52434121 -48.91569813 82.51983661 -49.875 80.5 C-51.12786404 78.6809882 -52.42062969 76.88887267 -53.75 75.125 C-58.8118713 68.24796598 -58.8118713 68.24796598 -60.9375 65.0625 C-61.54271484 64.16724609 -61.54271484 64.16724609 -62.16015625 63.25390625 C-63.10929456 60.92514613 -62.79225047 59.81184558 -61.875 57.5 C-60.2527546 55.79006566 -58.58086575 54.12652316 -56.875 52.5 C-56.215 51.675 -55.555 50.85 -54.875 50 C-51.04372157 45.21090196 -46.57033104 41.41277586 -41.875 37.5 C-39.35406917 35.09911349 -37.04966419 32.71833024 -34.875 30 C-31.04372157 25.21090196 -26.57033104 21.41277586 -21.875 17.5 C-20.18788577 15.8540349 -18.5204378 14.18762851 -16.875 12.5 C-16.05 11.695625 -15.225 10.89125 -14.375 10.0625 C-12.54173825 8.18340671 -10.89548835 6.34226407 -9.25 4.3125 C-5.0572883 -0.65255333 -5.0572883 -0.65255333 0 0 Z " fill="#31B4BA" transform="translate(138.875,109.5)"/>
<path d="M0 0 C9.22307123 0.47832417 17.83858442 2.62802461 26.7734375 4.86108398 C33.12100955 6.44084169 39.37040809 7.74272864 45.859375 8.6015625 C50.42321637 9.32552211 54.87328246 10.46069217 59.35913086 11.55908203 C64.38101987 12.77062328 69.40460471 13.74412043 74.5 14.58984375 C80.14271855 15.52813389 85.65367953 16.70419768 91.1875 18.15234375 C95.79193867 19.35632536 100.34285619 20.37762655 105.0625 21.02734375 C107.35539911 21.37344173 109.64686896 21.72903969 111.9375 22.08984375 C112.79811035 22.21875 113.6587207 22.34765625 114.54541016 22.48046875 C132.19896772 25.25763461 132.19896772 25.25763461 136.40234375 29.6875 C137.8125 32.58984375 137.8125 32.58984375 138.84375 35.51171875 C140.41495423 39.21527158 142.79084919 40.21294641 146.3984375 41.69921875 C147.9375 43.08984375 147.9375 43.08984375 148.24609375 46.28515625 C147.94277648 50.02478942 147.38531792 53.54192334 146.625 57.21484375 C145.33944345 63.64874819 144.32708282 70.08981712 143.4375 76.58984375 C142.58362806 82.79364392 141.63686467 88.94309981 140.4375 95.08984375 C139.26322433 101.11333037 138.33260543 107.13520033 137.5 113.21484375 C136.34943536 121.60819355 134.91655209 129.92141263 133.35229492 138.24682617 C132.13746952 144.78055329 131.17974985 151.29329662 130.4296875 157.8984375 C129.38291727 164.68582862 128.04522316 168.45725763 122.9375 173.08984375 C121.21902089 175.05115143 119.58405368 177.06693494 117.9375 179.08984375 C114.16608011 177.62045938 112.84157689 175.78621555 110.8125 172.33984375 C107.99372644 167.72675411 105.02928881 163.28838028 101.875 158.90234375 C101.44614502 158.30526611 101.01729004 157.70818848 100.57543945 157.09301758 C97.83670821 153.29773065 95.05552658 149.53791989 92.19140625 145.8359375 C90.9375 144.08984375 90.9375 144.08984375 89.58984375 141.8125 C87.54269875 138.43930836 85.25546243 135.28045085 82.9375 132.08984375 C80.09014342 128.17054116 77.42066864 124.25340323 74.9375 120.08984375 C73.68472236 118.32687309 72.41287916 116.57733753 71.125 114.83984375 C68.11437098 110.73593886 65.22797866 106.58240864 62.4296875 102.33203125 C59.15134288 97.40593226 55.70822542 92.5906787 52.2890625 87.76171875 C47.85204372 81.47073438 43.56866763 75.0845253 39.31640625 68.66796875 C37.88002266 66.50109457 36.43038456 64.34674389 34.96484375 62.19921875 C34.41957031 61.4 33.87429687 60.60078125 33.3125 59.77734375 C32.84585938 59.10058594 32.37921875 58.42382812 31.8984375 57.7265625 C30.9375 56.08984375 30.9375 56.08984375 30.9375 54.08984375 C29.9475 53.75984375 28.9575 53.42984375 27.9375 53.08984375 C26.39453125 50.97265625 26.39453125 50.97265625 24.75 48.21484375 C21.58864551 43.04049004 18.12727592 38.2142571 14.44140625 33.40234375 C12.9375 31.08984375 12.9375 31.08984375 12.9375 28.08984375 C12.2775 28.08984375 11.6175 28.08984375 10.9375 28.08984375 C9.75390625 26.734375 9.75390625 26.734375 8.5 24.90234375 C8.08878906 24.31066406 7.67757812 23.71898437 7.25390625 23.109375 C6.30318667 21.65085268 5.39392338 20.16501888 4.51171875 18.6640625 C2.34334326 15.11825741 -0.20285363 11.88287968 -2.734375 8.58984375 C-4.0625 6.08984375 -4.0625 6.08984375 -3.828125 3.33984375 C-2.73214822 0.11901403 -2.73214822 0.11901403 0 0 Z " fill="#41A5BC" transform="translate(177.0625,306.91015625)"/>
<path d="M0 0 C1.81883009 2.3832946 3 3.95818337 3 7 C3.99 7.33 4.98 7.66 6 8 C7.54296875 10.1171875 7.54296875 10.1171875 9.1875 12.875 C12.34885449 18.04935371 15.81022408 22.87558665 19.49609375 27.6875 C21 30 21 30 21 33 C21.66 33 22.32 33 23 33 C24.7265625 35.3359375 24.7265625 35.3359375 26.625 38.375 C27.25664062 39.37273437 27.88828125 40.37046875 28.5390625 41.3984375 C30 44 30 44 30 46 C31.485 46.495 31.485 46.495 33 47 C34.04320721 48.97780654 35.03650534 50.98216006 36 53 C37.35867171 54.9431863 38.7548586 56.86068784 40.1875 58.75 C44 63.77837838 44 63.77837838 44 66 C44.66 66 45.32 66 46 66 C46.37125 66.825 46.7425 67.65 47.125 68.5 C48.93274783 71.87446262 50.94254171 74.65931333 53.26953125 77.67578125 C55.24240461 80.3255773 57.05822047 83.05342224 58.875 85.8125 C62.15907836 90.78875614 65.60128953 95.61537233 69.1328125 100.41796875 C71.32628972 103.45120817 73.38222017 106.55990026 75.4375 109.6875 C77.22961321 112.33982755 79.10706334 114.91872273 81 117.5 C84.47625351 122.24869348 87.76727681 127.08387718 91 132 C92.22431243 133.84121404 93.45124711 135.68066087 94.67871094 137.51977539 C95.55526082 138.83346646 96.43092115 140.14775153 97.30566406 141.46264648 C99.18235727 144.28305441 101.06610223 147.09680188 102.9765625 149.89453125 C103.52054688 150.69246094 104.06453125 151.49039063 104.625 152.3125 C105.32496094 153.32763672 105.32496094 153.32763672 106.0390625 154.36328125 C107 156 107 156 107 158 C107.66 158 108.32 158 109 158 C110.40178569 159.90993301 111.72290372 161.87953707 113 163.875 C115.7098883 168.1715518 115.7098883 168.1715518 119 172 C119.4609375 174.8203125 119.4609375 174.8203125 119 178 C116.6640625 180.5546875 116.6640625 180.5546875 113.625 182.875 C112.62726563 183.65617188 111.62953125 184.43734375 110.6015625 185.2421875 C108 187 108 187 106 187 C106 187.66 106 188.32 106 189 C101.70953177 191.09923494 97.75394488 191.33428015 93.0625 191.3125 C92.02706055 191.33666992 92.02706055 191.33666992 90.97070312 191.36132812 C83.72870179 191.36819258 78.69283587 188.20774825 73 184 C71.62131719 182.37064759 70.28725907 180.70250393 69 179 C66.60312046 176.48020356 64.21594333 174.17275467 61.5 172 C57.06118344 168.44894675 53.5364545 164.42056813 50 160 C47.5844822 157.46060949 45.20100612 155.15688282 42.4375 153 C39.85522947 150.88121393 38.05109914 148.62797078 36 146 C34.3545622 144.31237149 32.68711423 142.6459651 31 141 C30.195625 140.175 29.39125 139.35 28.5625 138.5 C25.9925025 135.92746981 25.9925025 135.92746981 23 133.5 C18.09399689 129.41166407 14.0794215 124.8953058 10 120 C7.59911349 117.47906917 5.21833024 115.17466419 2.5 113 C-1.93881656 109.44894675 -5.4635455 105.42056813 -9 101 C-11.4155178 98.46060949 -13.79899388 96.15688282 -16.5625 94 C-19.14477053 91.88121393 -20.94890086 89.62797078 -23 87 C-24.6454378 85.31237149 -26.31288577 83.6459651 -28 82 C-29.2065625 80.7625 -29.2065625 80.7625 -30.4375 79.5 C-33.0074975 76.92746981 -33.0074975 76.92746981 -36 74.5 C-40.90600311 70.41166407 -44.9205785 65.8953058 -49 61 C-51.8336706 58.02810157 -54.64031973 55.36421945 -58 53 C-57.125 48.25 -57.125 48.25 -56 46 C-55.34 46 -54.68 46 -54 46 C-53.74347656 45.12859375 -53.48695312 44.2571875 -53.22265625 43.359375 C-51.97768865 39.93869726 -50.44151832 37.27903812 -48.4375 34.25 C-46.07275702 30.70883131 -46.07275702 30.70883131 -44 27 C-43.34 27 -42.68 27 -42 27 C-41.7421875 26.278125 -41.484375 25.55625 -41.21875 24.8125 C-39.54998189 20.96149667 -37.1374007 17.86427213 -34.65625 14.5 C-33.03891653 12.05874194 -31.98212682 9.7499551 -31 7 C-30.34 7 -29.68 7 -29 7 C-28.690625 6.195625 -28.38125 5.39125 -28.0625 4.5625 C-27 2 -27 2 -26 1 C-24.16290646 1.14613244 -22.32978014 1.3430188 -20.5 1.5625 C-13.63484478 2.21554687 -6.44265629 -1.32642924 0 0 Z " fill="#44A1BD" transform="translate(163,321)"/>
<path d="M0 0 C1.175625 -0.00515625 2.35125 -0.0103125 3.5625 -0.015625 C7.01937245 0.25149696 9.77517473 1.01119517 13 2.25 C13 2.91 13 3.57 13 4.25 C13.99 4.5284375 13.99 4.5284375 15 4.8125 C21.21505825 7.79054875 25.86290422 12.82897795 30 18.25 C31.6454378 19.93762851 33.31288577 21.6040349 35 23.25 C36.2065625 24.4875 36.2065625 24.4875 37.4375 25.75 C39.32327611 27.58978157 41.12379838 29.14712496 43.1875 30.75 C46.0826988 33.32351004 47.04864556 34.5662671 48 38.25 C47.12890625 40.3203125 47.12890625 40.3203125 45.5625 42.375 C44.9953125 43.15359375 44.428125 43.9321875 43.84375 44.734375 C43.2353125 45.56453125 42.626875 46.3946875 42 47.25 C40.83984206 49.03242448 39.69428807 50.82442808 38.5625 52.625 C37.68271484 54.01138672 37.68271484 54.01138672 36.78515625 55.42578125 C35.60272914 57.29644821 34.42300326 59.16882554 33.24609375 61.04296875 C30.3521077 65.63320612 27.39942284 70.14272172 24.25 74.5625 C21.80007759 78.0173795 19.8633397 81.44230582 18 85.25 C16.51288073 87.56974037 14.97506422 89.84903955 13.421875 92.125 C12.29475679 93.80948436 11.25557009 95.55275234 10.25 97.3125 C9.8375 97.951875 9.425 98.59125 9 99.25 C8.34 99.25 7.68 99.25 7 99.25 C6.690625 100.4565625 6.690625 100.4565625 6.375 101.6875 C4.01823598 107.79366133 0.01695452 112.85950004 -3.8125 118.125 C-6.10119683 121.07864004 -6.10119683 121.07864004 -7 124.25 C-7.87140625 124.14300781 -8.7428125 124.03601563 -9.640625 123.92578125 C-17.7396848 123.11061614 -25.40107912 122.89636066 -33 126.25 C-33.495 127.735 -33.495 127.735 -34 129.25 C-38.64661924 128.77342367 -42.28320707 127.35621812 -46.4609375 125.4140625 C-49.19680525 124.15977236 -51.96434956 123.01425018 -54.75 121.875 C-59.09310033 120.0791888 -63.36686655 118.1762988 -67.625 116.1875 C-73.01888316 113.67589327 -78.45811545 111.40958825 -84 109.25 C-86.50076605 108.25186344 -89.00075786 107.25193304 -91.5 106.25 C-92.78250754 105.73686781 -94.06505891 105.22384517 -95.34765625 104.7109375 C-99.8984375 102.890625 -104.44921875 101.0703125 -109 99.25 C-107.25364969 95.46090048 -104.99068175 93.16947504 -102 90.25 C-101.34 89.425 -100.68 88.6 -100 87.75 C-96.16872157 82.96090196 -91.69533104 79.16277586 -87 75.25 C-84.47906917 72.84911349 -82.17466419 70.46833024 -80 67.75 C-76.16872157 62.96090196 -71.69533104 59.16277586 -67 55.25 C-65.31288577 53.6040349 -63.6454378 51.93762851 -62 50.25 C-61.175 49.445625 -60.35 48.64125 -59.5 47.8125 C-56.92746981 45.2425025 -56.92746981 45.2425025 -54.5 42.25 C-50.41166407 37.34399689 -45.8953058 33.3294215 -41 29.25 C-38.47906917 26.84911349 -36.17466419 24.46833024 -34 21.75 C-30.16881465 16.96101831 -25.70250851 13.13468095 -21 9.25 C-20.484375 8.734375 -19.96875 8.21875 -19.4375 7.6875 C-13.5619596 1.8119596 -8.27589041 -0.03629776 0 0 Z " fill="#26BFB8" transform="translate(256,-0.25)"/>
<path d="M0 0 C0.99 0.99 0.99 0.99 2 2 C1.5665977 9.3304768 0.02038616 16.48916107 -1.375 23.6875 C-3.1957754 33.25994928 -4.73873385 42.81554104 -5.97387695 52.47973633 C-6.802822 58.8625541 -7.96213141 65.08468587 -9.31640625 71.37890625 C-10.22436937 76.18851659 -10.76223357 81.02388142 -11.17797852 85.89990234 C-11.375 87.83203125 -11.375 87.83203125 -12 91 C-14.90201794 92.93467863 -16.0812834 93.30101841 -19.375 93.8125 C-23.90793572 94.74705006 -26.04341804 96.3477517 -29 100 C-29.45391113 100.71486572 -29.90782227 101.42973145 -30.37548828 102.16625977 C-32 104 -32 104 -33.87841797 104.29272461 C-34.98660889 104.13042358 -34.98660889 104.13042358 -36.1171875 103.96484375 C-37.4489502 103.77317627 -37.4489502 103.77317627 -38.80761719 103.57763672 C-44.83852509 102.48639107 -50.84456544 101.30749897 -56.84130859 100.04370117 C-59.1262074 99.56224559 -61.41252791 99.08809795 -63.69921875 98.61523438 C-65.17717124 98.30771383 -66.65503885 97.99978502 -68.1328125 97.69140625 C-68.80386017 97.55174942 -69.47490784 97.41209259 -70.16629028 97.26820374 C-73.56589647 96.55049031 -76.94350831 95.77551279 -80.3112793 94.92285156 C-83.46340694 94.13424593 -86.47096656 93.59573507 -89.6875 93.1875 C-95.6391075 92.31855151 -101.41093763 90.99765319 -107.25 89.5625 C-114.13018834 87.87693589 -120.96128646 86.398186 -127.95043945 85.23901367 C-135.4820936 83.96624439 -142.95757987 82.41789872 -150.4375 80.875 C-151.09435791 80.74062531 -151.75121582 80.60625061 -152.42797852 80.46780396 C-154.3054964 80.0832397 -156.182066 79.69405456 -158.05859375 79.3046875 C-159.15486084 79.07765137 -160.25112793 78.85061523 -161.38061523 78.61669922 C-164 78 -164 78 -166 77 C-166.6328125 74.93359375 -166.6328125 74.93359375 -167.125 72.4375 C-167.29257813 71.61121094 -167.46015625 70.78492188 -167.6328125 69.93359375 C-167.75398437 69.29550781 -167.87515625 68.65742188 -168 68 C-166.98292969 67.65388672 -166.98292969 67.65388672 -165.9453125 67.30078125 C-160.20994514 65.29101956 -154.83768243 62.99774679 -149.44140625 60.2109375 C-146.31850414 58.66197806 -143.1184474 57.41379626 -139.87109375 56.15234375 C-136.3580805 54.74235884 -132.89909484 53.21799494 -129.4375 51.6875 C-121.65396019 48.25407559 -113.80127626 45.00595859 -105.92626953 41.7890625 C-102.21939233 40.27060532 -98.52399748 38.72468337 -94.828125 37.1796875 C-92.88206399 36.36793277 -90.93402583 35.56090701 -88.984375 34.7578125 C-81.1654016 31.52997989 -73.45698162 28.10574652 -65.80859375 24.4921875 C-59.8665943 21.70007914 -53.9511754 19.17189617 -47.7578125 16.99609375 C-40.63208393 14.42235326 -33.71837866 11.4292382 -26.984375 7.96484375 C-23.92081638 6.47527883 -20.76564062 5.24776702 -17.58984375 4.01953125 C-15.8181372 3.32207211 -14.0604044 2.58832856 -12.31640625 1.82421875 C-11.44886719 1.44910156 -10.58132813 1.07398438 -9.6875 0.6875 C-8.51767578 0.16736328 -8.51767578 0.16736328 -7.32421875 -0.36328125 C-4.49158143 -1.13928105 -2.78584794 -0.87261904 0 0 Z " fill="#38AEBB" transform="translate(346,216)"/>
<path d="M0 0 C1.11531514 0.76599859 2.22648942 1.53802814 3.3359375 2.3125 C3.9551709 2.74175781 4.5744043 3.17101563 5.21240234 3.61328125 C7.92078483 5.71429362 9.8803138 8.32250164 12 11 C13.6459651 12.68711423 15.31237149 14.3545622 17 16 C17.825 16.845625 18.65 17.69125 19.5 18.5625 C21.92915533 21.02015888 21.92915533 21.02015888 24.5625 23 C27.14477053 25.11878607 28.94890086 27.37202922 31 30 C32.6454378 31.68762851 34.31288577 33.3540349 36 35 C36.804375 35.825 37.60875 36.65 38.4375 37.5 C41.00940708 40.08280067 41.00940708 40.08280067 44.0625 42.5 C46.79196642 44.82295015 48.81016392 47.18449647 51 50 C51.66 50.33 52.32 50.66 53 51 C51.86532153 59.54346143 50.48909667 67.98327191 48.78125 76.4296875 C48.04508386 80.40964515 47.56420266 84.40821578 47.078125 88.42578125 C46.11367609 96.36419306 44.96777781 104.25957157 43.61523438 112.14135742 C43.36812765 113.61028796 43.1320989 115.08111801 42.90625 116.5534668 C42.57216755 118.72429092 42.20412702 120.88687542 41.828125 123.05078125 C41.5172998 124.94824097 41.5172998 124.94824097 41.20019531 126.8840332 C40 130 40 130 36.94824219 131.87182617 C35.97532227 132.24412354 35.00240234 132.6164209 34 133 C33.67 133.33 33.34 133.66 33 134 C27.16129634 134.72983796 23.09830532 132.47700683 18 130 C16.19003645 129.16117186 14.3774413 128.32800288 12.5625 127.5 C11.73878906 127.1184375 10.91507812 126.736875 10.06640625 126.34375 C7.49300359 125.21604234 4.91160194 124.15738164 2.30078125 123.12109375 C-2.96635721 121.02914583 -8.17269855 118.81002142 -13.375 116.5625 C-20.16580094 113.63596818 -26.96474679 110.74468934 -33.8203125 107.97265625 C-36 107 -36 107 -39 105 C-40.5064018 104.43879149 -42.02907729 103.92001028 -43.5625 103.4375 C-45.81449343 102.72381407 -47.88644704 102.05677648 -50 101 C-51.10546875 98.234375 -51.10546875 98.234375 -52.1875 94.75 C-52.55230469 93.61046875 -52.91710937 92.4709375 -53.29296875 91.296875 C-54.75564544 84.47643784 -51.68367085 79.6375247 -48.0625 73.96484375 C-47.0415625 72.46630859 -47.0415625 72.46630859 -46 70.9375 C-43.55812728 67.34406231 -41.21499226 63.73705913 -39 60 C-35.86494724 54.96311428 -32.72945629 49.93297596 -29.25 45.125 C-27.33607174 42.4667663 -25.67225699 39.81055073 -24 37 C-22.84013099 35.14157351 -21.6732866 33.28748478 -20.5 31.4375 C-19.9121875 30.50808594 -19.324375 29.57867187 -18.71875 28.62109375 C-17 26 -17 26 -15.53125 24.09765625 C-13.85784169 21.80525762 -12.50195088 19.39045824 -11.11523438 16.91748047 C-9.14650111 13.53253496 -6.94036286 10.30665662 -4.75 7.0625 C-4.29109375 6.37865234 -3.8321875 5.69480469 -3.359375 4.99023438 C-2.24171649 3.32538888 -1.12116281 1.6624876 0 0 Z " fill="#2BBAB9" transform="translate(314,47)"/>
<path d="M0 0 C6.22764073 1.12301718 11.42456944 2.94053299 17.1328125 5.65234375 C19.95561554 6.9791381 22.80241191 8.19047196 25.6875 9.375 C30.47110859 11.34545017 35.20705818 13.40657572 39.9375 15.5 C45.85971801 18.11338309 51.83162172 20.5201594 57.88671875 22.8125 C61.12714483 24.0484969 64.34941203 25.3195616 67.5625 26.625 C68.98755859 27.20121094 68.98755859 27.20121094 70.44140625 27.7890625 C72.99648509 28.99833645 74.99693989 29.99693989 77 32 C77.171875 34.26171875 77.171875 34.26171875 76.75 36.6875 C76.62109375 37.49574219 76.4921875 38.30398437 76.359375 39.13671875 C76.18148437 40.05904297 76.18148437 40.05904297 76 41 C75.37738281 41.25652344 74.75476563 41.51304687 74.11328125 41.77734375 C66.28604002 45.01959012 58.49925503 48.35188945 50.71533203 51.6965332 C46.04999822 53.69924365 41.37994853 55.68639609 36.6875 57.625 C32.09788055 59.52370134 27.54664736 61.50130424 23 63.5 C14.7040815 67.14557732 6.36885566 70.67775468 -2.0625 74 C-6.53884443 75.77621347 -10.90005617 77.76312446 -15.2734375 79.77734375 C-18.67824755 81.30414253 -22.13407017 82.67237015 -25.60546875 84.0390625 C-30.35707618 85.94590659 -35.00618693 88.08225957 -39.65625 90.22265625 C-44.98138224 92.66832794 -50.32927675 94.95621743 -55.78515625 97.09375 C-57.64317126 97.853996 -59.45440678 98.72720339 -61.25 99.625 C-64 101 -64 101 -66.6875 101.875 C-69.74106043 102.91205826 -72.47384005 104.16594162 -75.375 105.5625 C-80.04563577 107.73488873 -83.87516957 108.70991526 -89 109 C-88.35298612 105.42483357 -86.85939015 102.95857828 -84.875 99.9375 C-84.24464844 98.96941406 -83.61429688 98.00132812 -82.96484375 97.00390625 C-82.31644531 96.01261719 -81.66804687 95.02132812 -81 94 C-79.81011648 92.12651169 -78.62255014 90.25154934 -77.4375 88.375 C-74.8899552 84.36686285 -72.27224916 80.41516789 -69.61328125 76.48046875 C-68.33960666 74.52215552 -67.11807998 72.55387203 -65.91796875 70.55078125 C-65.37934204 69.65528564 -65.37934204 69.65528564 -64.82983398 68.74169922 C-63.79177574 67.00729939 -62.76287781 65.26742699 -61.734375 63.52734375 C-61.16203125 62.69332031 -60.5896875 61.85929687 -60 61 C-59.34 61 -58.68 61 -58 61 C-57.7628125 60.16210938 -57.525625 59.32421875 -57.28125 58.4609375 C-55.80010399 54.46003701 -53.82324849 51.18038667 -51.5 47.625 C-51.09652344 46.98433594 -50.69304687 46.34367187 -50.27734375 45.68359375 C-49.2433319 44.08309356 -48.12773229 42.53590405 -47 41 C-46.34 41 -45.68 41 -45 41 C-44.75765625 40.15050781 -44.5153125 39.30101562 -44.265625 38.42578125 C-42.87353044 34.65767344 -40.96951097 31.50298638 -38.75 28.1875 C-37.93184094 26.9599357 -37.11413299 25.73207063 -36.296875 24.50390625 C-35.70229492 23.61276123 -35.70229492 23.61276123 -35.09570312 22.70361328 C-34.13133266 21.20419771 -33.25338887 19.6499386 -32.390625 18.08984375 C-31.0727452 15.75393882 -29.94923505 13.84361147 -28 12 C-25.62709359 11.50231176 -23.71049114 11.61578883 -21.3046875 11.875 C-17.47464829 12.08273094 -14.44523748 10.51106907 -11 9 C-10.0925 8.71125 -9.185 8.4225 -8.25 8.125 C-5.3241173 6.66205865 -3.96234076 4.57134307 -2 2 C-1.34 2 -0.68 2 0 2 C0 1.34 0 0.68 0 0 Z " fill="#32B3BA" transform="translate(260,162)"/>
<path d="M0 0 C0.66 0 1.32 0 2 0 C2.495 0.928125 2.99 1.85625 3.5 2.8125 C5.99914919 7.20386215 8.98967126 11.20289746 12 15.25390625 C14.08569323 18.11766083 16.035792 21.05183148 18 24 C20.10054647 26.97698137 22.23948154 29.92641658 24.37695312 32.87695312 C26.74918614 36.17352655 28.93179796 39.50085705 31 43 C32.06804632 44.57298901 33.15192971 46.13532121 34.25 47.6875 C34.87132813 48.56921875 35.49265625 49.4509375 36.1328125 50.359375 C36.74898438 51.23078125 37.36515625 52.1021875 38 53 C43.17166105 60.32868551 48.24326359 67.72376017 53.29345703 75.13647461 C53.82825684 75.92030518 54.36305664 76.70413574 54.9140625 77.51171875 C55.43145996 78.27081543 55.94885742 79.02991211 56.48193359 79.81201172 C57.91580772 81.87865371 59.39650062 83.90252076 60.890625 85.92578125 C63 89 63 89 63.125 91.5 C62.0770712 93.82873066 60.92370829 95.60016994 59.4296875 97.65625 C58.97577637 98.28337891 58.52186523 98.91050781 58.05419922 99.55664062 C57.70631348 100.03294922 57.35842773 100.50925781 57 101 C55.27716797 100.60167969 55.27716797 100.60167969 53.51953125 100.1953125 C43.03668221 97.79628989 43.03668221 97.79628989 32.4375 96 C26.82410475 95.20108981 21.37068692 93.94989874 15.87011719 92.60375977 C9.17620096 90.98837211 2.4347617 89.7008592 -4.34179688 88.48291016 C-9.93376421 87.45990907 -15.41084812 86.1623611 -20.91821289 84.75610352 C-26.01664579 83.50522443 -31.1609745 82.50520514 -36.3125 81.5 C-37.39394287 81.28641846 -38.47538574 81.07283691 -39.58959961 80.8527832 C-41.7359456 80.4288987 -43.88250499 80.00609306 -46.02929688 79.58447266 C-50.04227148 78.79493771 -54.05254053 77.9921808 -58.0625 77.1875 C-59.22910156 76.95417969 -60.39570312 76.72085938 -61.59765625 76.48046875 C-62.39042969 76.32191406 -63.18320312 76.16335938 -64 76 C-64.29429167 70.31036113 -64.03649593 66.98852903 -61 62 C-60.38125 60.96875 -59.7625 59.9375 -59.125 58.875 C-56.97257916 55.96290122 -54.87376462 54.17284642 -52 52 C-50.31237149 50.3545622 -48.6459651 48.68711423 -47 47 C-46.175 46.195625 -45.35 45.39125 -44.5 44.5625 C-41.92746981 41.9925025 -41.92746981 41.9925025 -39.5 39 C-35.41166407 34.09399689 -30.8953058 30.0794215 -26 26 C-24.31288577 24.3540349 -22.6454378 22.68762851 -21 21 C-20.175 20.195625 -19.35 19.39125 -18.5 18.5625 C-15.91719933 15.99059292 -15.91719933 15.99059292 -13.5 12.9375 C-11.15961608 10.18754889 -8.84091652 8.2017103 -6 6 C-4.3142876 4.35259924 -2.6436814 2.68933922 -1 1 C-0.67 0.67 -0.34 0.34 0 0 Z " fill="#39ACBB" transform="translate(64,180)"/>
<path d="M0 0 C7.87562358 0.411905 15.55122122 2.24625939 23.25 3.875 C24.48363281 4.13152344 25.71726562 4.38804687 26.98828125 4.65234375 C32.95778851 5.90148354 38.91008254 7.20048931 44.84765625 8.59375 C49.93928843 9.78130496 55.02905558 10.78045468 60.1875 11.625 C67.73823529 12.86911765 67.73823529 12.86911765 70 14 C66.81817869 20.82456067 61.54226914 25.5049444 55.87890625 30.30859375 C54.18796796 31.83078976 52.78776071 33.34882817 51.375 35.125 C48.83741692 38.19681109 46.08720122 40.49164901 43 43 C41.31288577 44.6459651 39.6454378 46.31237149 38 48 C37.154375 48.825 36.30875 49.65 35.4375 50.5 C32.97984112 52.92915533 32.97984112 52.92915533 31 55.5625 C28.88121393 58.14477053 26.62797078 59.94890086 24 62 C22.31237149 63.6454378 20.6459651 65.31288577 19 67 C18.154375 67.825 17.30875 68.65 16.4375 69.5 C13.98847492 71.91746748 13.98847492 71.91746748 12.0625 74.5 C9.65085484 77.42320625 6.9327108 79.60595036 4 82 C2.31126121 83.64429829 0.64694485 85.31384218 -1 87 C-2.33197348 88.3346918 -3.66541764 89.66791686 -5 91 C-5.68707031 91.68707031 -6.37414062 92.37414062 -7.08203125 93.08203125 C-14 100 -14 100 -16.5625 102.5 C-19.05079126 104.94465916 -19.05079126 104.94465916 -21.0625 107.75 C-23.17340327 110.20137154 -23.95694118 110.41795964 -27 111 C-26.38762986 104.49912653 -25.66690362 98.02756694 -24.75 91.5625 C-24.62431641 90.6748999 -24.49863281 89.7872998 -24.36914062 88.87280273 C-23.10405933 80.23179267 -21.47210986 71.66868033 -19.83911133 63.09106445 C-18.50567929 55.99567806 -17.36557511 48.9091584 -16.4375 41.75 C-16.19951691 39.98433479 -15.96123559 38.21870975 -15.72265625 36.453125 C-15.339816 33.60916884 -14.97204144 30.76548972 -14.63232422 27.91601562 C-14.25056149 24.77117874 -13.81697773 21.63687289 -13.375 18.5 C-13.2711499 17.53803711 -13.1672998 16.57607422 -13.06030273 15.58496094 C-12.4509855 11.52958817 -12.00519564 8.92280256 -8.91503906 6.0859375 C-6.66218502 4.59185409 -4.36935214 3.29672124 -2 2 C-1.34 1.34 -0.68 0.68 0 0 Z " fill="#42A3BD" transform="translate(351,343)"/>
<path d="M0 0 C2.4914671 1.99317368 4.67463958 4.19987513 6.875 6.5 C8.37227025 8.00272479 9.87251038 9.50249376 11.375 11 C41.875 41.5 41.875 41.5 44.09375 43.72265625 C46.35974799 45.98547166 48.63166435 48.2419291 50.90625 50.49609375 C52.3958898 51.97650569 53.88547176 53.45697582 55.375 54.9375 C56.12136719 55.67548828 56.86773437 56.41347656 57.63671875 57.17382812 C69.43099576 68.91591807 69.43099576 68.91591807 69.875 77.5 C63.65363915 76.37811526 58.46059173 74.56389175 52.7578125 71.85546875 C46.96486941 69.13168657 41.0040886 66.78226987 35.08203125 64.35546875 C28.12739152 61.4872794 21.25543745 58.45571593 14.390625 55.38061523 C9.62462433 53.25344295 4.83107206 51.2515442 -0.03515625 49.36328125 C-2.15170133 48.48897011 -4.15671212 47.49445977 -6.1875 46.4375 C-8.80621275 45.08422646 -11.34894057 44.05148522 -14.1640625 43.18359375 C-19.75083763 41.36014431 -25.07010808 39.00705227 -30.4375 36.625 C-38.29182053 33.12139521 -38.29182053 33.12139521 -46.25390625 29.875 C-47.32511719 29.4625 -48.39632813 29.05 -49.5 28.625 C-50.39460938 28.29757813 -51.28921875 27.97015625 -52.2109375 27.6328125 C-54.125 26.5 -54.125 26.5 -54.9140625 24.3671875 C-54.98367188 23.75101563 -55.05328125 23.13484375 -55.125 22.5 C-48.74194393 19.20976491 -42.37985063 16.08234641 -35.6796875 13.4921875 C-30.78858302 11.59258423 -25.96504977 9.52535585 -21.125 7.5 C-18.02625434 6.21107389 -14.92755294 4.92237474 -11.82421875 3.64453125 C-10.18564623 2.94973856 -8.55861547 2.22548209 -6.95703125 1.44921875 C-2.66653226 -0.62741935 -2.66653226 -0.62741935 0 0 Z " fill="#37AFBB" transform="translate(441.125,173.5)"/>
<path d="M0 0 C6.58436399 0.66312516 13.05390009 1.62122201 19.5625 2.8125 C20.52631592 2.98773193 21.49013184 3.16296387 22.4831543 3.34350586 C29.38106603 4.62773118 36.13367946 6.22747554 42.91674805 8.00927734 C46.83035603 8.99336969 50.77450213 9.70724022 54.75390625 10.3671875 C63.59209351 11.88232107 72.36214473 13.67369191 81.13330078 15.53442383 C83.65704693 16.06929184 86.181963 16.59836569 88.70703125 17.12695312 C90.33861326 17.47101485 91.97012634 17.81540364 93.6015625 18.16015625 C94.34330719 18.31541275 95.08505188 18.47066925 95.84927368 18.63063049 C100.29572317 19.57825374 104.64205824 20.70363213 109 22 C108 25 108 25 106.06640625 26.24609375 C100.98071629 28.66596183 95.8770445 30.92760707 90.62890625 32.97265625 C82.86706988 36.00588503 75.24456579 39.32151314 67.67578125 42.8046875 C64.22193947 44.34757157 60.71854934 45.73993559 57.19140625 47.10546875 C54.97832696 47.96812694 54.97832696 47.96812694 52.87109375 49.1171875 C51 50 51 50 48.5 49.9375 C45.15851314 48.68444243 44.08436992 46.86600865 42 44 C40.3545622 42.31237149 38.68711423 40.6459651 37 39 C36.195625 38.175 35.39125 37.35 34.5625 36.5 C31.9925025 33.92746981 31.9925025 33.92746981 29 31.5 C24.09399689 27.41166407 20.0794215 22.8953058 16 18 C14.3540349 16.31288577 12.68762851 14.6454378 11 13 C10.175 12.154375 9.35 11.30875 8.5 10.4375 C6.05534084 7.94920874 6.05534084 7.94920874 3.25 5.9375 C0.79862846 3.82659673 0.58204036 3.04305882 0 0 Z " fill="#3DA8BC" transform="translate(6,272)"/>
<path d="M0 0 C3.78909952 1.74635031 6.08052496 4.00931825 9 7 C10.2375 7.9590625 10.2375 7.9590625 11.5 8.9375 C14.42320625 11.34914516 16.60595036 14.0672892 19 17 C20.64429829 18.68873879 22.31384218 20.35305515 24 22 C25.3346918 23.33197348 26.66791686 24.66541764 28 26 C28.6909375 26.6909375 29.381875 27.381875 30.09375 28.09375 C41 39 41 39 43.0625 41.0703125 C44.23942177 42.24248862 45.42476919 43.40638975 46.625 44.5546875 C47.78460557 45.66817239 48.89817447 46.82931038 50 48 C50 48.66 50 49.32 50 50 C41.36769699 53.84519787 32.7303635 57.54723666 23.88671875 60.88671875 C18.87909771 62.81793931 14.01331885 65.02959147 9.1796875 67.359375 C7.72949219 68.04773438 7.72949219 68.04773438 6.25 68.75 C5.36828125 69.17796875 4.4865625 69.6059375 3.578125 70.046875 C0.86357154 71.05043719 -1.13163644 71.18572138 -4 71 C-4.2475 70.38125 -4.495 69.7625 -4.75 69.125 C-6.22246063 66.62181694 -7.41028837 66.16954719 -10 65 C-11.26556401 62.46887197 -10.87193028 61.48113164 -10.328125 58.73046875 C-10.15990234 57.85245605 -9.99167969 56.97444336 -9.81835938 56.06982422 C-9.63080078 55.11865723 -9.44324219 54.16749023 -9.25 53.1875 C-7.80508339 45.60168778 -6.52546224 38.02869703 -5.5 30.375 C-4.11647189 20.1533972 -2.13471536 10.08842641 0 0 Z " fill="#30B5BA" transform="translate(379,113)"/>
<path d="M0 0 C1.67542976 0.28604898 3.34385343 0.61781233 5 1 C5.88223377 4.43369392 6.30745473 6.32542005 4.8125 9.60546875 C4.214375 10.45753906 3.61625 11.30960937 3 12.1875 C2.35289063 13.13496094 1.70578125 14.08242188 1.0390625 15.05859375 C0.02972656 16.51458984 0.02972656 16.51458984 -1 18 C-2.21626642 19.91164237 -3.42486111 21.82819169 -4.625 23.75 C-6.62518184 26.90343984 -8.67117805 29.98557688 -10.875 33 C-13.11088069 35.84879906 -13.11088069 35.84879906 -14 39 C-14.66 39 -15.32 39 -16 39 C-16.226875 39.66 -16.45375 40.32 -16.6875 41 C-18.40571358 44.92734533 -20.66774607 48.41260178 -23 52 C-27.89158866 51.58072097 -29.79999207 49.60000892 -33 46 C-34.66666667 44 -36.33333333 42 -38 40 C-39.6459651 38.31288577 -41.31237149 36.6454378 -43 35 C-44.2375 33.7315625 -44.2375 33.7315625 -45.5 32.4375 C-47.95634455 29.94067421 -47.95634455 29.94067421 -50.8125 27.875 C-51.534375 27.25625 -52.25625 26.6375 -53 26 C-53 25.01 -53 24.02 -53 23 C-47.74973772 20.22627653 -42.52809064 18.04504246 -36.93359375 16.06640625 C-30.50355306 13.728988 -24.13370535 11.16314901 -18.0625 8 C-13.4315222 5.59620856 -8.54593327 3.8626136 -3.66015625 2.05078125 C-1.11785484 1.25048098 -1.11785484 1.25048098 0 0 Z " fill="#3FA7BC" transform="translate(119,309)"/>
</svg>
