<?xml version="1.0" encoding="UTF-8"?>
<svg version="1.1" xmlns="http://www.w3.org/2000/svg" width="360" height="360">
<path d="M0 0 C14.58142719 15.60021686 15.88520603 29.8686728 15.19091797 50.61376953 C12.83408281 92.41594804 -6.47807113 134.24709265 -27 170 C-25.79085938 169.7834375 -24.58171875 169.566875 -23.3359375 169.34375 C1.72619413 165.01046968 1.72619413 165.01046968 9.625 168.6875 C14.18045177 173.12307146 16.76407728 176.21611193 17.3125 182.6875 C17.19566119 189.06689882 14.28613452 193.86660989 10.0625 198.5 C0.31637495 207.65926161 -12.45894775 213.72676105 -25.5 216.25 C-26.3549707 216.41983398 -27.20994141 216.58966797 -28.09082031 216.76464844 C-36.42557175 218.29489279 -44.55967388 218.39359034 -53 218 C-53.02187378 218.87229248 -53.02187378 218.87229248 -53.04418945 219.76220703 C-54.67945739 278.82831614 -54.67945739 278.82831614 -74.0078125 299.23046875 C-86.78451218 310.57918435 -105.69699835 316.83972158 -122.8125 316 C-131.29469123 314.8104244 -140.10958583 311.3013733 -146 305 C-160.15694387 286.18784485 -161.87529975 263.58640495 -162.5625 240.875 C-162.60581131 239.52342758 -162.64942902 238.17186494 -162.69335938 236.8203125 C-162.79857434 233.54695806 -162.90071479 230.27353875 -163 227 C-163.75853271 227.28004883 -164.51706543 227.56009766 -165.29858398 227.84863281 C-166.29188721 228.21311523 -167.28519043 228.57759766 -168.30859375 228.953125 C-169.29400146 229.31567383 -170.27940918 229.67822266 -171.29467773 230.05175781 C-183.73249679 234.4113363 -199.79003593 232.419039 -211.66796875 227.21875 C-215.66318897 225.13079571 -219.3534615 222.6424192 -223 220 C-223.67546875 220.42152344 -224.3509375 220.84304688 -225.046875 221.27734375 C-226.38492188 222.09912109 -226.38492188 222.09912109 -227.75 222.9375 C-228.63171875 223.48277344 -229.5134375 224.02804687 -230.421875 224.58984375 C-236.56472462 227.94979634 -243.898903 228.0130686 -250.625 226.3515625 C-268.19202619 219.92861855 -277.6707047 203.4994755 -285.22753906 187.38183594 C-306.3620571 140.60167913 -330.27554634 70.81361104 -312 20 C-307.92248279 9.90687144 -302.93232806 1.58009325 -295 -6 C-294.08154297 -6.94746094 -294.08154297 -6.94746094 -293.14453125 -7.9140625 C-281.28012894 -19.39900632 -263.16551602 -24.40795085 -247 -25 C-245.60007813 -25.05994141 -245.60007813 -25.05994141 -244.171875 -25.12109375 C-228.64514589 -25.45269475 -213.80249224 -23.04030602 -198.8046875 -19.21875 C-197.60706787 -18.91735107 -197.60706787 -18.91735107 -196.38525391 -18.60986328 C-194.77379721 -18.19784498 -193.16664882 -17.76865276 -191.56396484 -17.32373047 C-186.89597291 -16.11208003 -184.23140066 -15.60892701 -179.875 -18.125 C-164.22271097 -26.18229646 -146.44435245 -27.23560298 -129.1875 -25.5 C-120.11706043 -24.60365863 -112.28491018 -25.02901457 -103.375 -26.9375 C-66.15057759 -34.80239838 -27.86009282 -26.8492958 0 0 Z " fill="#F5F9F9" transform="translate(331,37)"/>
<path d="M0 0 C15.05343307 11.80661417 27.45183518 27.81801687 34.1015625 45.875 C34.1015625 46.865 34.1015625 47.855 34.1015625 48.875 C32.92980469 48.90078125 31.75804687 48.9265625 30.55078125 48.953125 C18.92295165 49.32350116 8.74660292 50.17010304 -0.4609375 58.01953125 C-6.21760663 65.4500145 -5.89850459 74.26663422 -5.23876953 83.21191406 C-2.58592829 103.97030163 9.8306675 124.0454464 20.00292969 141.91992188 C21.52467269 144.6279481 22.96585344 147.37711614 24.4140625 150.125 C26.05580434 153.18333051 27.73430971 155.78057883 30.0390625 158.375 C31.06 159.6125 31.06 159.6125 32.1015625 160.875 C31.1015625 163.875 31.1015625 163.875 29.39453125 164.91015625 C28.69972656 165.24917969 28.00492188 165.58820313 27.2890625 165.9375 C23.01895344 168.55466362 21.34838541 171.02730589 19.76171875 175.74609375 C18.83912116 180.11887878 18.6732397 184.44610679 18.52685547 188.89599609 C18.09104434 200.3160731 16.24397803 211.59607556 14.64990234 222.89990234 C14.0955506 226.87322489 13.59064733 230.85159925 13.08984375 234.83203125 C12.92395752 236.11875732 12.75807129 237.4054834 12.5871582 238.73120117 C12.27371835 241.16386635 11.96828086 243.59758228 11.67260742 246.0324707 C10.21684899 257.06898413 7.81032686 269.59857823 -0.65625 277.51953125 C-10.94128212 285.24308199 -25.26778614 288.56876551 -37.8984375 286.875 C-45.36842437 284.91944246 -50.33904913 279.22835217 -54.15234375 272.7421875 C-60.31231668 260.05855321 -60.03247979 244.75906697 -60.03653717 230.97988701 C-60.04093433 227.41684006 -60.07202103 223.85396142 -60.09765625 220.29101562 C-60.12797257 215.79266744 -60.15075146 211.29460287 -60.14892578 206.79614258 C-60.14813378 203.12617236 -60.17168708 199.45703202 -60.2108078 195.78727913 C-60.22117607 194.40283004 -60.2228604 193.01828415 -60.21515656 191.63381767 C-60.17253236 183.13346413 -60.67451432 175.88379452 -65.8984375 168.875 C-70.49010292 165.02123376 -75.00564736 163.69724979 -80.8984375 162.875 C-79.60155751 156.22347636 -77.64171239 150.30063518 -75.0234375 144.0625 C-64.44104296 118.2188268 -61.95557754 91.53398145 -70.99609375 64.60546875 C-73.55721903 58.6758126 -77.02946011 55.51481201 -82.8984375 52.875 C-93.65547869 49.2893196 -106.63679467 51.94640691 -116.8984375 55.875 C-117.97738281 56.41511719 -119.05632812 56.95523438 -120.16796875 57.51171875 C-122.8984375 58.875 -122.8984375 58.875 -124.8984375 58.875 C-125.40482902 44.38441176 -120.97390141 29.88292021 -114.8984375 16.875 C-114.45886719 15.90304688 -114.01929688 14.93109375 -113.56640625 13.9296875 C-105.96512987 -1.44811083 -93.22953516 -11.7019327 -77.1953125 -17.1796875 C-50.67515822 -24.78380757 -21.54187855 -15.79350665 0 0 Z " fill="#336590" transform="translate(244.8984375,48.125)"/>
<path d="M0 0 C1.20237305 0.00281982 2.40474609 0.00563965 3.64355469 0.00854492 C18.70569803 0.27391803 33.81036923 2.842741 47.8125 8.5 C47.44898438 8.97308594 47.08546875 9.44617187 46.7109375 9.93359375 C36.50117918 23.36335278 28.85759413 37.02840231 24.8125 53.5 C24.55210938 54.50853027 24.29171875 55.51706055 24.0234375 56.55615234 C20.91395188 70.41679608 21.28322744 84.4857026 21.1875 98.625 C21.15087583 102.52161854 21.11023752 106.41814047 21.06484985 110.31466675 C21.03784364 112.72307607 21.01639863 115.1315561 21.00131226 117.54006958 C20.98591904 119.17369949 20.98591904 119.17369949 20.97021484 120.84033203 C20.96047134 122.26685593 20.96047134 122.26685593 20.95053101 123.72219849 C20.80199034 126.71150142 20.33327176 129.55474604 19.8125 132.5 C18.67786516 147.26646194 21.10573345 160.73499238 30.8125 172.5 C32.41668277 174.27635945 34.04111287 175.88491174 35.8125 177.5 C34.21456173 181.36244507 31.59097591 184.08211344 28.75 187.0625 C25.06441364 191.00005085 21.51812797 194.99042534 18.125 199.1875 C15.29498042 202.68698658 12.4461152 206.15979131 9.5 209.5625 C8.88511719 210.27535156 8.27023438 210.98820313 7.63671875 211.72265625 C4.64637576 214.63615959 1.77410861 215.83781215 -2.375 216.125 C-7.62351893 215.96152154 -10.36707097 213.68823875 -14.00390625 210.0703125 C-18.08837396 205.26247752 -21.21857775 200.04626004 -24.1875 194.5 C-24.53248535 193.86852051 -24.8774707 193.23704102 -25.23291016 192.58642578 C-47.36793349 151.36285465 -68.70270221 84.01738531 -56.0625 37.625 C-52.30260618 25.16926339 -45.41787329 14.78300988 -34.296875 7.64453125 C-23.3425699 1.8376025 -12.30614415 -0.0654211 0 0 Z " fill="#336590" transform="translate(90.1875,29.5)"/>
<path d="M0 0 C14.58142719 15.60021686 15.88520603 29.8686728 15.19091797 50.61376953 C12.83408281 92.41594804 -6.47807113 134.24709265 -27 170 C-25.79085938 169.7834375 -24.58171875 169.566875 -23.3359375 169.34375 C1.72619413 165.01046968 1.72619413 165.01046968 9.625 168.6875 C14.18045177 173.12307146 16.76407728 176.21611193 17.3125 182.6875 C17.19566119 189.06689882 14.28613452 193.86660989 10.0625 198.5 C0.31637495 207.65926161 -12.45894775 213.72676105 -25.5 216.25 C-26.3549707 216.41983398 -27.20994141 216.58966797 -28.09082031 216.76464844 C-36.42557175 218.29489279 -44.55967388 218.39359034 -53 218 C-53.02187378 218.87229248 -53.02187378 218.87229248 -53.04418945 219.76220703 C-54.67945739 278.82831614 -54.67945739 278.82831614 -74.0078125 299.23046875 C-86.78451218 310.57918435 -105.69699835 316.83972158 -122.8125 316 C-131.29469123 314.8104244 -140.10958583 311.3013733 -146 305 C-160.15694387 286.18784485 -161.87529975 263.58640495 -162.5625 240.875 C-162.60581131 239.52342758 -162.64942902 238.17186494 -162.69335938 236.8203125 C-162.79857434 233.54695806 -162.90071479 230.27353875 -163 227 C-163.75853271 227.28004883 -164.51706543 227.56009766 -165.29858398 227.84863281 C-166.29188721 228.21311523 -167.28519043 228.57759766 -168.30859375 228.953125 C-169.29400146 229.31567383 -170.27940918 229.67822266 -171.29467773 230.05175781 C-183.73249679 234.4113363 -199.79003593 232.419039 -211.66796875 227.21875 C-215.66318897 225.13079571 -219.3534615 222.6424192 -223 220 C-223.67546875 220.42152344 -224.3509375 220.84304688 -225.046875 221.27734375 C-226.38492188 222.09912109 -226.38492188 222.09912109 -227.75 222.9375 C-228.63171875 223.48277344 -229.5134375 224.02804687 -230.421875 224.58984375 C-236.56472462 227.94979634 -243.898903 228.0130686 -250.625 226.3515625 C-268.19202619 219.92861855 -277.6707047 203.4994755 -285.22753906 187.38183594 C-306.3620571 140.60167913 -330.27554634 70.81361104 -312 20 C-307.92248279 9.90687144 -302.93232806 1.58009325 -295 -6 C-294.08154297 -6.94746094 -294.08154297 -6.94746094 -293.14453125 -7.9140625 C-281.28012894 -19.39900632 -263.16551602 -24.40795085 -247 -25 C-245.60007813 -25.05994141 -245.60007813 -25.05994141 -244.171875 -25.12109375 C-228.64514589 -25.45269475 -213.80249224 -23.04030602 -198.8046875 -19.21875 C-197.60706787 -18.91735107 -197.60706787 -18.91735107 -196.38525391 -18.60986328 C-194.77379721 -18.19784498 -193.16664882 -17.76865276 -191.56396484 -17.32373047 C-186.89597291 -16.11208003 -184.23140066 -15.60892701 -179.875 -18.125 C-164.22271097 -26.18229646 -146.44435245 -27.23560298 -129.1875 -25.5 C-120.11706043 -24.60365863 -112.28491018 -25.02901457 -103.375 -26.9375 C-66.15057759 -34.80239838 -27.86009282 -26.8492958 0 0 Z M-110.375 -16.1875 C-115.96381341 -14.57165827 -121.09499671 -15.36089632 -126.74682617 -16.12451172 C-145.36664555 -18.59124815 -163.29006122 -17.98724986 -179.78125 -8.328125 C-186.00185489 -5.76137055 -192.26202394 -8.55198869 -198.4375 -10.375 C-211.90630507 -14.15617338 -224.23454614 -16.2566287 -238.25 -16.3125 C-240.00836182 -16.32083862 -240.00836182 -16.32083862 -241.80224609 -16.3293457 C-258.85277705 -16.18872029 -275.135789 -12.86657831 -288 -1 C-288.61101562 -0.47921875 -289.22203125 0.0415625 -289.8515625 0.578125 C-304.00899913 13.42584282 -308.12651186 33.31927537 -309.359375 51.5859375 C-310.45801191 77.57250753 -302.52495357 104.02584505 -296 129 C-295.71398926 130.09683105 -295.42797852 131.19366211 -295.13330078 132.32373047 C-291.89915899 144.51217278 -287.91585643 156.38278414 -283.5 168.1875 C-283.06131592 169.36924805 -282.62263184 170.55099609 -282.1706543 171.76855469 C-277.57428105 183.76056438 -271.6975902 194.71781747 -264 205 C-263.236875 206.0725 -262.47375 207.145 -261.6875 208.25 C-256.3155905 213.74683763 -250.81978841 217.32730873 -243 217.75 C-233.72804378 217.14761813 -228.25782909 212.64438657 -222.28125 205.92163086 C-220.03594984 203.31656637 -217.83836835 200.67512223 -215.65673828 198.01660156 C-212.9925961 194.77377598 -210.27962018 191.57342881 -207.5625 188.375 C-207.09086426 187.8078125 -206.61922852 187.240625 -206.13330078 186.65625 C-203.03750089 182.99169962 -199.76180037 179.98063122 -196 177 C-195.38253906 177.28875 -194.76507813 177.5775 -194.12890625 177.875 C-188.07411225 180.52915627 -183.59779591 181.42566425 -177 181 C-178.21884607 182.61202222 -179.45056485 184.21431577 -180.6875 185.8125 C-181.37199219 186.70582031 -182.05648437 187.59914062 -182.76171875 188.51953125 C-187.27164744 193.51744525 -191.96838681 194.644397 -198.3125 195.9375 C-204.37244482 197.27426202 -209.73909287 198.56430555 -215 202 C-216.62195557 204.63435267 -217.0046102 205.78332041 -216.9375 208.9375 C-215.70243687 212.97203957 -214.34478807 214.40608272 -211 217 C-198.70195087 223.10803107 -184.24110979 223.98165104 -171.05419922 220.15527344 C-167.7540397 218.9069637 -165.08587067 217.31480101 -162.140625 215.37890625 C-161.17157227 214.74670166 -160.20251953 214.11449707 -159.20410156 213.46313477 C-158.47674805 212.98030029 -157.74939453 212.49746582 -157 212 C-156.98018066 212.70157227 -156.96036133 213.40314453 -156.93994141 214.12597656 C-158.19196668 259.51496897 -158.19196668 259.51496897 -140.2578125 299.01953125 C-132.11191801 306.16480548 -122.72923476 307.79652519 -112.23242188 307.2265625 C-99.02624214 305.88630279 -85.70545329 300.84344304 -76.52734375 291.0390625 C-69.6048397 281.79725402 -66.94878438 269.47906415 -65.4296875 258.25 C-65.30312775 257.35240967 -65.17656799 256.45481934 -65.0461731 255.5300293 C-64.78197594 253.64148535 -64.52167708 251.75239225 -64.26513672 249.86279297 C-63.87951316 247.0331172 -63.47781731 244.20606736 -63.07421875 241.37890625 C-61.47270817 229.92431397 -60.42985499 218.55792673 -60 207 C-59.27796387 207.16008545 -58.55592773 207.3201709 -57.81201172 207.48510742 C-39.12215335 210.90730844 -19.81995096 207.49219973 -4 197 C2.32709213 192.22705643 2.32709213 192.22705643 7 186 C7.34092041 180.67032792 7.34092041 180.67032792 5 176 C-0.1247639 174.92545273 -4.13605678 174.91178073 -9.25 175.9375 C-15.17431886 177.07178097 -20.92728689 177.19626275 -26.9375 177.1875 C-28.30600098 177.18834595 -28.30600098 177.18834595 -29.70214844 177.18920898 C-33.95786752 177.1549395 -37.83031092 176.92408827 -42 176 C-41.64808594 175.41734375 -41.29617188 174.8346875 -40.93359375 174.234375 C-33.79045928 162.37266867 -26.92643721 150.51647771 -21 138 C-20.39091732 136.73683817 -19.78154132 135.47381774 -19.171875 134.2109375 C-17.39300412 130.49811469 -15.67965544 126.7586482 -14 123 C-13.50886719 121.90300781 -13.01773437 120.80601562 -12.51171875 119.67578125 C-0.66764302 91.67779092 13.47425641 50.21339341 3.29296875 19.89453125 C-3.43033172 4.51383017 -20.62294429 -7.30859488 -35.65234375 -13.49145508 C-59.58918307 -22.69588079 -85.90568152 -24.45466039 -110.375 -16.1875 Z " fill="#040404" transform="translate(331,37)"/>
<path d="M0 0 C8.8640275 7.76772244 16.44002912 14.58577361 17.33984375 26.83203125 C19.22003812 66.82889329 2.51572968 106.49818903 -15.47265625 141.33203125 C-16.01172607 142.37665527 -16.5507959 143.4212793 -17.10620117 144.49755859 C-19.9600691 149.92190027 -22.95086857 154.95030699 -26.66015625 159.83203125 C-27.32015625 159.50203125 -27.98015625 159.17203125 -28.66015625 158.83203125 C-27.84736389 154.15847518 -26.28532092 149.96849172 -24.59765625 145.55078125 C-23.09722007 141.19951633 -22.53318978 137.18831455 -22.52734375 132.59375 C-22.52605469 131.60826172 -22.52476562 130.62277344 -22.5234375 129.60742188 C-22.52923828 128.07891602 -22.52923828 128.07891602 -22.53515625 126.51953125 C-22.53128906 125.51212891 -22.52742188 124.50472656 -22.5234375 123.46679688 C-22.52985111 118.54435426 -22.73061182 113.81215679 -23.42871094 108.94360352 C-23.93760647 104.30073704 -23.8447441 99.62230014 -23.84765625 94.95703125 C-23.85990234 93.93222656 -23.87214844 92.90742188 -23.88476562 91.8515625 C-23.89582312 86.05006527 -23.39092601 80.77655205 -22.12524414 75.11914062 C-18.54690849 57.52236981 -25.56121892 41.52086722 -34.66015625 26.83203125 C-37.73629378 22.28691902 -41.15514503 18.05013096 -44.66015625 13.83203125 C-45.44132812 12.82269531 -45.44132812 12.82269531 -46.23828125 11.79296875 C-55.14329736 0.58493123 -68.86141625 -8.01063241 -81.66015625 -14.16796875 C-64.22959626 -31.59852874 -15.04472015 -12.26111554 0 0 Z " fill="#34658F" transform="translate(310.66015625,43.16796875)"/>
<path d="M0 0 C8.43662275 7.49922022 9.34459819 19.87332145 10.00146484 30.58007812 C10.54330226 43.71719038 10.61462635 56.11729606 5.8125 68.5 C5.43673828 69.47453125 5.06097656 70.4490625 4.67382812 71.453125 C2.15629602 77.92130491 -0.43948816 84.3537999 -3.10595703 90.76196289 C-4.24420673 93.64355891 -5.2329033 96.55300115 -6.1875 99.5 C-15.47245425 100.42849542 -22.37284942 97.0022125 -29.82421875 91.58203125 C-37.58124524 84.74815502 -42.71667894 75.01750862 -43.4609375 64.71484375 C-43.50887231 59.84946084 -43.45379103 55.1348358 -42.67041016 50.32543945 C-42.13268432 46.06577001 -42.14179196 41.99720664 -42.22265625 37.71484375 C-42.22868161 36.03321077 -42.23185102 34.35156555 -42.23242188 32.66992188 C-42.23414408 30.04601625 -42.25026449 27.42664994 -42.31420898 24.8034668 C-42.64361116 10.19085844 -42.64361116 10.19085844 -39.09008789 6.06445312 C-36.49057325 4.47341903 -34.08160644 3.43524135 -31.1875 2.5 C-30.17300781 2.01789063 -29.15851563 1.53578125 -28.11328125 1.0390625 C-19.56407396 -1.95124319 -8.54340553 -4.10670137 0 0 Z " fill="#336590" transform="translate(161.1875,109.5)"/>
<path d="M0 0 C0.93134766 0.00902344 1.86269531 0.01804687 2.82226562 0.02734375 C5.1109436 0.05081737 7.39908672 0.08365271 9.6875 0.125 C9.54465908 2.14604705 9.39807617 4.16682977 9.25 6.1875 C9.16878906 7.31285156 9.08757812 8.43820313 9.00390625 9.59765625 C8.6875 13.125 8.6875 13.125 8.16015625 16.31640625 C7.51022028 21.5534936 7.54299915 26.72827082 7.5625 32 C7.55863281 33.03769531 7.55476563 34.07539063 7.55078125 35.14453125 C7.55748523 40.46078684 7.79229952 45.61474223 8.45605469 50.88671875 C8.89642121 55.1454532 8.87190254 59.40991134 8.875 63.6875 C8.88724609 64.58146484 8.89949219 65.47542969 8.91210938 66.39648438 C8.92741479 73.37065204 8.2823015 79.96248314 4.6875 86.125 C1.70487778 82.48375458 -0.34456838 78.46973637 -2.5 74.3125 C-3.30272067 72.7717889 -4.1061185 71.23143043 -4.91015625 69.69140625 C-5.31250488 68.92070801 -5.71485352 68.15000977 -6.12939453 67.35595703 C-7.20232013 65.33276386 -8.30645576 63.3331934 -9.43359375 61.33984375 C-16.80312076 48.21220753 -23.37963278 33.86393535 -23.5625 18.625 C-23.58828125 17.3359375 -23.6140625 16.046875 -23.640625 14.71875 C-23.18571729 9.73642752 -21.56268523 7.27648639 -17.9375 3.9375 C-12.00750274 -0.15702191 -7.00231744 -0.12866449 0 0 Z " fill="#35668F" transform="translate(271.3125,105.875)"/>
<path d="M0 0 C3.6875 0.375 3.6875 0.375 6.125 2.375 C8.11334213 6.1926169 8.80600132 9.23041633 7.6875 13.375 C3.26821253 20.69015596 -4.10954217 25.80779539 -12 28.75 C-21.28182894 30.56923847 -33.62048853 30.98456825 -41.875 25.75 C-42.349375 25.29625 -42.82375 24.8425 -43.3125 24.375 C-38.84519515 22.55161026 -34.4915914 21.15003524 -29.78955078 20.03955078 C-17.43302369 17.05799312 -11.87490057 11.38905163 -4.3125 1.375 C-3.3125 0.375 -3.3125 0.375 0 0 Z " fill="#36658D" transform="translate(167.3125,220.625)"/>
<path d="M0 0 C0.94617188 0.5053125 1.89234375 1.010625 2.8671875 1.53125 C8.17172284 3.81445862 13.70178019 3.35704188 19.375 3.25 C20.46039063 3.24484375 21.54578125 3.2396875 22.6640625 3.234375 C28.84653855 3.17464093 34.86973911 2.80016037 41 2 C34.21321298 10.24109852 23.20186009 13.98337268 13 16 C8.98725697 16.36032795 5.02605151 16.37794297 1 16.3125 C-0.02222656 16.31572266 -1.04445313 16.31894531 -2.09765625 16.32226562 C-9.59812843 16.26791438 -9.59812843 16.26791438 -13 14 C-12.88286074 9.11209834 -12.73371871 5.92680259 -9.625 2 C-6.06322967 -0.71372977 -4.16632334 -1.38877445 0 0 Z " fill="#36678F" transform="translate(285,220)"/>
<path d="M0 0 C1.25425781 0.01804687 2.50851562 0.03609375 3.80078125 0.0546875 C5.22970703 0.08949219 5.22970703 0.08949219 6.6875 0.125 C7.0175 0.785 7.3475 1.445 7.6875 2.125 C6.75171005 4.48481813 5.75402192 6.82131264 4.6875 9.125 C4.29433594 8.63644531 3.90117187 8.14789063 3.49609375 7.64453125 C1.13466947 5.66052683 -0.20204706 5.75291596 -3.25 5.8125 C-4.10464844 5.81636719 -4.95929688 5.82023437 -5.83984375 5.82421875 C-8.41278192 6.13719859 -10.08755475 6.82926622 -12.3125 8.125 C-12.03632467 10.06574861 -12.03632467 10.06574861 -11.3125 12.125 C-7.86799263 14.42133824 -5.37437717 14.66516485 -1.3125 15.125 C-1.6425 16.775 -1.9725 18.425 -2.3125 20.125 C-2.9725 20.125 -3.6325 20.125 -4.3125 20.125 C-4.6425 20.785 -4.9725 21.445 -5.3125 22.125 C-5.3125 21.465 -5.3125 20.805 -5.3125 20.125 C-7.6225 20.125 -9.9325 20.125 -12.3125 20.125 C-12.60253906 21.04732422 -12.60253906 21.04732422 -12.8984375 21.98828125 C-13.15882813 22.79652344 -13.41921875 23.60476562 -13.6875 24.4375 C-13.94273437 25.23800781 -14.19796875 26.03851563 -14.4609375 26.86328125 C-15.3125 29.125 -15.3125 29.125 -17.3125 32.125 C-16.6525 32.125 -15.9925 32.125 -15.3125 32.125 C-15.9725 33.445 -16.6325 34.765 -17.3125 36.125 C-20.52153419 28.00690756 -21.32381611 19.80050583 -20.3125 11.125 C-17.96482763 6.32294287 -14.89497654 3.41852365 -10.10546875 1.01953125 C-6.62402219 -0.09550548 -3.64843257 -0.068195 0 0 Z " fill="#336289" transform="translate(268.3125,105.875)"/>
<path d="M0 0 C4.36752181 0.06304822 7.21458497 0.43836343 10.6875 3.3125 C10.37056247 6.24417219 10.05524166 7.90232661 8.0625 10.125 C4.70373433 11.80438284 2.39772229 11.76814133 -1.3125 11.3125 C-4.55992346 9.40640362 -5.97884831 8.24672473 -7.25 4.6875 C-7.270625 3.90375 -7.29125 3.12 -7.3125 2.3125 C-4.73034328 -0.26965672 -3.58546873 0.01455535 0 0 Z " fill="#566C7E" transform="translate(152.3125,113.6875)"/>
<path d="M0 0 C5.02166958 2.35711021 7.84597175 5.24902302 9.75 10.4375 C11.93576873 17.83930776 13.2484434 25.71369712 13.0625 33.4375 C12.4025 33.4375 11.7425 33.4375 11.0625 33.4375 C10.97613281 32.48488281 10.88976562 31.53226563 10.80078125 30.55078125 C10.66027344 29.29652344 10.51976562 28.04226562 10.375 26.75 C10.24738281 25.50863281 10.11976563 24.26726562 9.98828125 22.98828125 C8.89453298 18.79327208 7.19381249 17.3279423 4.0625 14.4375 C3.75 11.125 3.75 11.125 4.0625 8.4375 C0.94339144 6.64474134 -1.61432428 6.09459282 -5.1875 5.8125 C-6.07953125 5.73773438 -6.9715625 5.66296875 -7.890625 5.5859375 C-8.90382812 5.51246094 -8.90382812 5.51246094 -9.9375 5.4375 C-8.9475 4.7775 -7.9575 4.1175 -6.9375 3.4375 C-6.9375 2.7775 -6.9375 2.1175 -6.9375 1.4375 C-4.28786689 -0.39686139 -3.22179193 -0.61693888 0 0 Z " fill="#406B8E" transform="translate(157.9375,108.5625)"/>
<path d="M0 0 C-7.69420529 6.47268 -15.8829092 10.66276364 -26 11 C-23 9 -23 9 -21 9 C-21 8.34 -21 7.68 -21 7 C-22.98 7 -24.96 7 -27 7 C-27 6.34 -27 5.68 -27 5 C-26.34 4.67 -25.68 4.34 -25 4 C-27.97 3.505 -27.97 3.505 -31 3 C-31 2.67 -31 2.34 -31 2 C-25.72 2 -20.44 2 -15 2 C-15 2.66 -15 3.32 -15 4 C-14.01 4 -13.02 4 -12 4 C-12.66 3.34 -13.32 2.68 -14 2 C-9.27249283 -0.08566493 -5.03603003 -1.67867668 0 0 Z " fill="#30618A" transform="translate(326,223)"/>
<path d="M0 0 C0.89203125 0.01804687 1.7840625 0.03609375 2.703125 0.0546875 C3.71632813 0.08949219 3.71632813 0.08949219 4.75 0.125 C5.5 2.375 5.5 2.375 5.75 5.125 C3.61363632 8.32954552 2.01699532 9.04732863 -1.6875 10.125 C-5.25 10.125 -5.25 10.125 -8.1875 8.1875 C-8.868125 7.506875 -9.54875 6.82625 -10.25 6.125 C-10 4.25 -10 4.25 -9.25 2.125 C-6.13870062 0.08851313 -3.66596268 -0.0964727 0 0 Z " fill="#EEF7FA" transform="translate(265.25,110.875)"/>
<path d="M0 0 C0.33 0 0.66 0 1 0 C1 1.98 1 3.96 1 6 C1.66 6 2.32 6 3 6 C3.19601608 7.74906659 3.38147403 9.49931846 3.5625 11.25 C3.66691406 12.22453125 3.77132813 13.1990625 3.87890625 14.203125 C4.10625538 19.45415649 2.22099553 22.715223 -0.375 27.25 C-0.98085938 28.32765625 -1.58671875 29.4053125 -2.2109375 30.515625 C-3.09652344 31.74539062 -3.09652344 31.74539062 -4 33 C-4.99 33 -5.98 33 -7 33 C-6.39855083 29.50291408 -5.43898496 26.51200963 -4.0625 23.25 C-1.22972985 15.74058387 -0.70700517 7.93520271 0 0 Z " fill="#37658A" transform="translate(289,169)"/>
<path d="M0 0 C7.59064664 0.48701051 14.67059167 1.99763587 22 4 C22 7.77910478 21.00296038 8.46106101 18.5 11.1875 C17.8503125 11.90292969 17.200625 12.61835937 16.53125 13.35546875 C16.0259375 13.89816406 15.520625 14.44085938 15 15 C13 12 13 12 13 9 C13.66 8.34 14.32 7.68 15 7 C14.34 6.67 13.68 6.34 13 6 C13 5.01 13 4.02 13 3 C12.39671875 2.95101562 11.7934375 2.90203125 11.171875 2.8515625 C10.37265625 2.77679688 9.5734375 2.70203125 8.75 2.625 C7.96109375 2.55539063 7.1721875 2.48578125 6.359375 2.4140625 C3.914123 1.98492887 2.15163097 1.21399362 0 0 Z " fill="#376589" transform="translate(115,33)"/>
<path d="M0 0 C4.36752181 0.06304822 7.21458497 0.43836343 10.6875 3.3125 C10.37056247 6.24417219 10.05524166 7.90232661 8.0625 10.125 C4.70373433 11.80438284 2.39772229 11.76814133 -1.3125 11.3125 C-4.55992346 9.40640362 -5.97884831 8.24672473 -7.25 4.6875 C-7.270625 3.90375 -7.29125 3.12 -7.3125 2.3125 C-4.73034328 -0.26965672 -3.58546873 0.01455535 0 0 Z M-4.3125 1.3125 C-5.17608623 3.09391747 -5.17608623 3.09391747 -5.3125 5.3125 C-3.89959872 7.72723019 -3.89959872 7.72723019 -1.3125 9.3125 C3.42204491 9.90671274 3.42204491 9.90671274 7.625 8 C8.95390663 6.22173892 8.95390663 6.22173892 8.6875 3.3125 C4.19093896 1.06421948 0.60877034 1.14567728 -4.3125 1.3125 Z " fill="#D9F1F8" transform="translate(152.3125,113.6875)"/>
<path d="M0 0 C0.268125 0.598125 0.53625 1.19625 0.8125 1.8125 C2.03585242 4.06604393 2.97960332 5.42858036 5 7 C6.66194453 7.35613097 8.328451 7.69208308 10 8 C10.33 8.66 10.66 9.32 11 10 C14.58646443 11.74199701 18.06693147 12.45119974 22 13 C22.33 11.02 22.66 9.04 23 7 C23.93423645 10.01031744 24.04449911 10.86650268 23 14 C14.79491863 14.82050814 8.88137718 12.5049256 2 8 C0.12890625 5.9375 0.12890625 5.9375 -1 4 C-0.6875 1.75 -0.6875 1.75 0 0 Z " fill="#3B607F" transform="translate(132,195)"/>
<path d="M0 0 C-3.18483911 2.63886669 -6.2898821 5.14494105 -10 7 C-10.99 6.67 -11.98 6.34 -13 6 C-12.34 6 -11.68 6 -11 6 C-11.99 4.68 -12.98 3.36 -14 2 C-9.27249283 -0.08566493 -5.03603003 -1.67867668 0 0 Z " fill="#2F5E84" transform="translate(326,223)"/>
<path d="M0 0 C1.21816406 0.03480469 1.21816406 0.03480469 2.4609375 0.0703125 C3.68683594 0.09738281 3.68683594 0.09738281 4.9375 0.125 C5.87722656 0.15980469 5.87722656 0.15980469 6.8359375 0.1953125 C6.5059375 1.8453125 6.1759375 3.4953125 5.8359375 5.1953125 C7.4859375 6.1853125 9.1359375 7.1753125 10.8359375 8.1953125 C10.5059375 8.8553125 10.1759375 9.5153125 9.8359375 10.1953125 C2.9059375 6.2353125 2.9059375 6.2353125 -4.1640625 2.1953125 C-2.1640625 0.1953125 -2.1640625 0.1953125 0 0 Z " fill="#3C6180" transform="translate(233.1640625,26.8046875)"/>
<path d="M0 0 C0.66 0.66 1.32 1.32 2 2 C6.67364524 4.08431723 10.97424715 5.78333166 16 4 C16.33 5.32 16.66 6.64 17 8 C16.01 8.66 15.02 9.32 14 10 C13.443125 9.54625 12.88625 9.0925 12.3125 8.625 C8.11572254 5.67591314 4.04099188 4.70339422 -1 4 C-0.67 2.68 -0.34 1.36 0 0 Z " fill="#366288" transform="translate(165,207)"/>
<path d="M0 0 C3.3 0 6.6 0 10 0 C10 1.32 10 2.64 10 4 C9 5 9 5 6.6875 5.375 C4 5 4 5 1.6875 2.5 C1.130625 1.675 0.57375 0.85 0 0 Z " fill="#EFF8FA" transform="translate(148,117)"/>
<path d="M0 0 C1.98 0.495 1.98 0.495 4 1 C4 1.99 4 2.98 4 4 C3.01 4 2.02 4 1 4 C1.33 5.65 1.66 7.3 2 9 C4.97 8.01 7.94 7.02 11 6 C9.66144904 8.67710191 8.27941912 8.95129094 5.5625 10.125 C4.75941406 10.47820312 3.95632812 10.83140625 3.12890625 11.1953125 C1 12 1 12 -1 12 C-1.08159574 7.83861737 -0.98248524 4.0527516 0 0 Z " fill="#3E6483" transform="translate(121,95)"/>
<path d="M0 0 C1.90492784 1.57050717 3.38692805 3.11808272 5 5 C4.29875 4.71125 3.5975 4.4225 2.875 4.125 C-0.05452503 2.97866412 -3.00921653 1.97374346 -6 1 C-6 0.34 -6 -0.32 -6 -1 C-7.093125 -1 -8.18625 -1 -9.3125 -1 C-11.54166667 -1 -13.77083333 -1 -16 -1 C-15.67 -1.99 -15.34 -2.98 -15 -4 C-8.93550289 -5.75437238 -5.12675609 -3.18531239 0 0 Z " fill="#3A6283" transform="translate(304,38)"/>
<path d="M0 0 C0.66 0.33 1.32 0.66 2 1 C0.82331114 4.53006657 0.33394437 4.57049612 -2.8125 6.1875 C-7.55951363 8.96582396 -8.95654588 11.97650863 -11 17 C-11.33 17 -11.66 17 -12 17 C-12.5 13.875 -12.5 13.875 -12 10 C-8.64358192 6.38785483 -4.85729297 3.94082702 0 3 C0 2.01 0 1.02 0 0 Z " fill="#365B7B" transform="translate(275,208)"/>
<path d="M0 0 C2.97 0 5.94 0 9 0 C8.67 0.66 8.34 1.32 8 2 C7.01 2 6.02 2 5 2 C5 2.66 5 3.32 5 4 C6.65 4 8.3 4 10 4 C10 4.33 10 4.66 10 5 C6.7 5.33 3.4 5.66 0 6 C0 4.02 0 2.04 0 0 Z " fill="#2B5C83" transform="translate(146,108)"/>
<path d="M0 0 C-0.33 1.32 -0.66 2.64 -1 4 C-3.97 4.66 -6.94 5.32 -10 6 C-10 4.68 -10 3.36 -10 2 C-6.49223216 0.39644899 -3.85645121 -0.22036864 0 0 Z " fill="#406A8F" transform="translate(266,106)"/>
<path d="M0 0 C2.60045875 2.3024119 3.84739183 4.49896677 5.1875 7.6875 C5.53167969 8.49574219 5.87585938 9.30398437 6.23046875 10.13671875 C6.48441406 10.75160156 6.73835937 11.36648437 7 12 C5.68 12.33 4.36 12.66 3 13 C1.99575197 9.98725592 1.51090123 7.12927001 1 4 C0.68325425 2.66262906 0.35729936 1.32711192 0 0 Z " fill="#386285" transform="translate(247,159)"/>
<path d="M0 0 C1.46055379 3.84209373 0.49637507 6.39037478 -0.8125 10.1875 C-1.34810547 11.78658203 -1.34810547 11.78658203 -1.89453125 13.41796875 C-3 16 -3 16 -5 17 C-4.71515154 15.26969709 -4.42180062 13.54079286 -4.125 11.8125 C-3.96257812 10.84957031 -3.80015625 9.88664063 -3.6328125 8.89453125 C-2.16062176 2.16062176 -2.16062176 2.16062176 0 0 Z " fill="#355F80" transform="translate(318,124)"/>
<path d="M0 0 C2 1 2 1 2.6875 3 C2.790625 3.66 2.89375 4.32 3 5 C2 6 2 6 -0.06640625 6.09765625 C-0.89011719 6.08605469 -1.71382812 6.07445313 -2.5625 6.0625 C-3.38878906 6.05347656 -4.21507812 6.04445313 -5.06640625 6.03515625 C-5.70449219 6.02355469 -6.34257812 6.01195313 -7 6 C-6.01 5.34 -5.02 4.68 -4 4 C-4 3.34 -4 2.68 -4 2 C-2.125 0.9375 -2.125 0.9375 0 0 Z " fill="#4B799D" transform="translate(155,108)"/>
<path d="M0 0 C0.66 0 1.32 0 2 0 C2.33 0.66 2.66 1.32 3 2 C4.32 2 5.64 2 7 2 C7 2.66 7 3.32 7 4 C1.39 4 -4.22 4 -10 4 C-10 3.67 -10 3.34 -10 3 C-8.72125 2.87625 -7.4425 2.7525 -6.125 2.625 C-2.65209064 2.30957601 -2.65209064 2.30957601 0 0 Z " fill="#345D7D" transform="translate(272,93)"/>
<path d="M0 0 C1.32 0.33 2.64 0.66 4 1 C4 1.66 4 2.32 4 3 C3.01 2.67 2.02 2.34 1 2 C0.87625 2.556875 0.7525 3.11375 0.625 3.6875 C-0.05976855 6.22114364 -0.99133763 8.57921032 -2 11 C-2.33 11 -2.66 11 -3 11 C-3.36923077 4.6 -3.36923077 4.6 -1.5 1.5625 C-1.005 1.046875 -0.51 0.53125 0 0 Z " fill="#355D7F" transform="translate(276,221)"/>
<path d="M0 0 C1.65 0.33 3.3 0.66 5 1 C5.33 2.32 5.66 3.64 6 5 C4.02 5 2.04 5 0 5 C0 3.33333333 0 1.66666667 0 0 Z " fill="#30618A" transform="translate(293,230)"/>
<path d="M0 0 C0.66 0.66 1.32 1.32 2 2 C1.8125 4.5 1.8125 4.5 1 7 C0.01 7.66 -0.98 8.32 -2 9 C-2.6875 7.3125 -2.6875 7.3125 -3 5 C-1.5625 2.25 -1.5625 2.25 0 0 Z " fill="#40637F" transform="translate(285,194)"/>
<path d="M0 0 C0.33 0.99 0.66 1.98 1 3 C-1.0625 5.5 -1.0625 5.5 -4 8 C-7.8125 8.3125 -7.8125 8.3125 -11 8 C-9 6 -9 6 -6.0625 5.125 C-2.75230833 3.90901122 -1.77816117 2.96360195 0 0 Z " fill="#C7E1EE" transform="translate(162,117)"/>
<path d="M0 0 C0.66 0.33 1.32 0.66 2 1 C2.40729228 3.32156597 2.74438677 5.6568787 3 8 C2.67 7.01 2.34 6.02 2 5 C1.34 5 0.68 5 0 5 C-0.33 5.99 -0.66 6.98 -1 8 C-2.15392455 5.6921509 -2.53437166 3.52769669 -3 1 C-2.01 0.67 -1.02 0.34 0 0 Z " fill="#305B7A" transform="translate(164,114)"/>
<path d="M0 0 C5.60461531 0.42089996 10.72086547 0.91613111 16 3 C16 3.66 16 4.32 16 5 C10.72 3.68 5.44 2.36 0 1 C0 0.67 0 0.34 0 0 Z " fill="#355D7C" transform="translate(115,33)"/>
<path d="M0 0 C0.99 0.33 1.98 0.66 3 1 C2.67 1.99 2.34 2.98 2 4 C3.65 4.99 5.3 5.98 7 7 C6.67 7.66 6.34 8.32 6 9 C3.36 7.35 0.72 5.7 -2 4 C-1.34 2.68 -0.68 1.36 0 0 Z " fill="#3D678A" transform="translate(237,28)"/>
<path d="M0 0 C3 1 3 1 4 3 C4.13415472 5.6723621 4.04318541 8.32250488 4 11 C3.01 11.495 3.01 11.495 2 12 C1.93941406 11.30132812 1.87882813 10.60265625 1.81640625 9.8828125 C1.73261719 8.97273437 1.64882812 8.06265625 1.5625 7.125 C1.48128906 6.22007812 1.40007812 5.31515625 1.31640625 4.3828125 C1.13010715 1.98889139 1.13010715 1.98889139 0 0 Z " fill="#365D7D" transform="translate(171,223)"/>
<path d="M0 0 C3.96 0 7.92 0 12 0 C12.66 1.65 13.32 3.3 14 5 C12.02 4.34 10.04 3.68 8 3 C8 2.67 8 2.34 8 2 C5.36 1.67 2.72 1.34 0 1 C0 0.67 0 0.34 0 0 Z " fill="#4D799C" transform="translate(301,224)"/>
<path d="M0 0 C-1.125 1.5 -1.125 1.5 -3 3 C-6.1875 3.1875 -6.1875 3.1875 -9 3 C-9 2.01 -9 1.02 -9 0 C-3.375 -1.125 -3.375 -1.125 0 0 Z " fill="#3F5F78" transform="translate(326,223)"/>
<path d="M0 0 C2.09350689 3.4019487 2.17942163 6.05272412 2 10 C1.01 10 0.02 10 -1 10 C-2.31223496 6.06329512 -1.24296256 3.87511856 0 0 Z " fill="#456D8F" transform="translate(287,186)"/>
<path d="M0 0 C0.66 0.33 1.32 0.66 2 1 C-1.3 3.97 -4.6 6.94 -8 10 C-8 7 -8 7 -6.25 5.17578125 C-5.5075 4.56089844 -4.765 3.94601563 -4 3.3125 C-3.2575 2.68988281 -2.515 2.06726562 -1.75 1.42578125 C-1.1725 0.95527344 -0.595 0.48476563 0 0 Z " fill="#315A7D" transform="translate(150,40)"/>
<path d="M0 0 C0.99 0.33 1.98 0.66 3 1 C2.67 2.65 2.34 4.3 2 6 C1.01 6.33 0.02 6.66 -1 7 C-0.67 4.69 -0.34 2.38 0 0 Z " fill="#376385" transform="translate(167,199)"/>
<path d="M0 0 C0.33 0 0.66 0 1 0 C1.41176754 3.60296594 1.1535853 4.78402067 -1 7.8125 C-1.66 8.534375 -2.32 9.25625 -3 10 C-3.66 9.67 -4.32 9.34 -5 9 C-3.35 6.03 -1.7 3.06 0 0 Z " fill="#E3F3FA" transform="translate(291,190)"/>
<path d="M0 0 C0.33 0 0.66 0 1 0 C1 1.98 1 3.96 1 6 C1.66 6 2.32 6 3 6 C3 7.65 3 9.3 3 11 C2.34 11 1.68 11 1 11 C-0.20272819 8.59454362 -0.10071472 7.05003047 -0.0625 4.375 C-0.05347656 3.55773437 -0.04445313 2.74046875 -0.03515625 1.8984375 C-0.02355469 1.27195313 -0.01195312 0.64546875 0 0 Z " fill="#476B8D" transform="translate(289,169)"/>
<path d="M0 0 C0.33 0.99 0.66 1.98 1 3 C-0.32 4.32 -1.64 5.64 -3 7 C-3.99 6.67 -4.98 6.34 -6 6 C-4.02 4.02 -2.04 2.04 0 0 Z " fill="#DCEFF7" transform="translate(173,236)"/>
<path d="M0 0 C0.33 0 0.66 0 1 0 C0.25 6.75 0.25 6.75 -2 9 C-2.125 5.625 -2.125 5.625 -2 2 C-1.34 1.34 -0.68 0.68 0 0 Z " fill="#3C6281" transform="translate(265,216)"/>
<path d="M0 0 C0.66 0.66 1.32 1.32 2 2 C4.31765729 2.71927295 6.65095874 3.3909893 9 4 C5.42355152 5.2380014 2.66305234 4.74926071 -1 4 C-0.67 2.68 -0.34 1.36 0 0 Z " fill="#31597A" transform="translate(165,207)"/>
<path d="M0 0 C1.9375 0.8125 1.9375 0.8125 4 2 C4.33 2.99 4.66 3.98 5 5 C4.34 5.66 3.68 6.32 3 7 C0 3.375 0 3.375 0 0 Z " fill="#3B6486" transform="translate(122,186)"/>
<path d="M0 0 C0 0.66 0 1.32 0 2 C-2.64 2.33 -5.28 2.66 -8 3 C-8 2.34 -8 1.68 -8 1 C-5.29120665 -0.35439668 -2.99066732 -0.06501451 0 0 Z " fill="#315F84" transform="translate(274,27)"/>
<path d="M0 0 C0.33 1.32 0.66 2.64 1 4 C1.99 4 2.98 4 4 4 C4 4.66 4 5.32 4 6 C4.66 6.33 5.32 6.66 6 7 C4.33388095 7.042721 2.66617115 7.04063832 1 7 C0 6 0 6 -0.0625 2.9375 C-0.041875 1.968125 -0.02125 0.99875 0 0 Z " fill="#446A89" transform="translate(272,228)"/>
<path d="M0 0 C0.66 0.33 1.32 0.66 2 1 C1.67 3.64 1.34 6.28 1 9 C0.34 8.67 -0.32 8.34 -1 8 C-0.67 5.36 -0.34 2.72 0 0 Z " fill="#346084" transform="translate(33,75)"/>
<path d="M0 0 C3.36720387 1.39332574 4.9859524 2.9789286 7 6 C6.01 6 5.02 6 4 6 C3.67 5.01 3.34 4.02 3 3 C2.01 2.67 1.02 2.34 0 2 C0 1.34 0 0.68 0 0 Z " fill="#436B8A" transform="translate(248,52)"/>
</svg>
