<?xml version="1.0" encoding="UTF-8"?>
<!DOCTYPE svg PUBLIC "-//W3C//DTD SVG 1.1//EN" "http://www.w3.org/Graphics/SVG/1.1/DTD/svg11.dtd">
<svg xmlns="http://www.w3.org/2000/svg" version="1.1" width="480px" height="480px" style="shape-rendering:geometricPrecision; text-rendering:geometricPrecision; image-rendering:optimizeQuality; fill-rule:evenodd; clip-rule:evenodd" xmlns:xlink="http://www.w3.org/1999/xlink">
<g><path style="opacity:0.995" fill="#8bc34a" d="M 393.5,36.5 C 394.75,36.5774 395.583,37.244 396,38.5C 408.617,73.6821 419.617,109.349 429,145.5C 438.924,185.665 441.924,226.331 438,267.5C 426.981,334.154 392.147,383.988 333.5,417C 284.03,441.723 232.697,446.389 179.5,431C 98.4837,401.977 51.9837,344.811 40,259.5C 34.8987,188.09 59.3987,129.256 113.5,83C 176.535,36.2437 244.868,26.9104 318.5,55C 337.098,62.8715 353.932,73.3715 369,86.5C 377.962,70.2419 386.129,53.5752 393.5,36.5 Z"/></g>
<g><path style="opacity:1" fill="#fefefe" d="M 374.5,198.5 C 375.693,196.03 376.193,193.364 376,190.5C 374.872,192.345 374.372,194.345 374.5,196.5C 347.854,253.199 305.52,293.699 247.5,318C 212.575,330.314 176.908,339.314 140.5,345C 125.274,336.078 115.774,322.911 112,305.5C 104.502,262.979 117.669,228.479 151.5,202C 164.931,192.955 179.598,186.621 195.5,183C 218.103,180.396 240.77,178.396 263.5,177C 311.153,169.934 349.986,147.767 380,110.5C 384.503,104.165 388.503,97.4982 392,90.5C 411.316,141.375 420.316,194.042 419,248.5C 412.488,327.347 369.655,367.514 290.5,369C 249.833,369.667 209.167,369.667 168.5,369C 196.178,359.996 223.844,350.996 251.5,342C 303.031,317.468 340.865,279.302 365,227.5C 368.677,217.971 371.843,208.304 374.5,198.5 Z"/></g>
<g><path style="opacity:1" fill="#d2e7b8" d="M 374.5,198.5 C 374.5,197.833 374.5,197.167 374.5,196.5C 374.372,194.345 374.872,192.345 376,190.5C 376.193,193.364 375.693,196.03 374.5,198.5 Z"/></g>
<g><path style="opacity:1" fill="#fcfdfb" d="M 140.5,359.5 C 154.054,358.885 160.221,365.219 159,378.5C 154.298,388.769 146.798,391.602 136.5,387C 126.216,376.156 127.549,366.99 140.5,359.5 Z"/></g>
</svg>
