<?xml version="1.0" standalone="no"?>
<!DOCTYPE svg PUBLIC "-//W3C//DTD SVG 20010904//EN"
 "http://www.w3.org/TR/2001/REC-SVG-20010904/DTD/svg10.dtd">
<svg version="1.0" xmlns="http://www.w3.org/2000/svg"
 width="640.000000pt" height="640.000000pt" viewBox="0 0 640.000000 640.000000"
 preserveAspectRatio="xMidYMid meet">

<g transform="translate(0.000000,640.000000) scale(0.100000,-0.100000)"
fill="#000000" stroke="none">
<path d="M2855 6383 c-725 -94 -1362 -391 -1849 -864 -309 -299 -480 -527
-656 -874 -333 -654 -430 -1384 -279 -2100 130 -618 426 -1162 874 -1610 254
-254 523 -446 846 -605 698 -343 1479 -420 2234 -220 715 189 1357 636 1791
1250 236 333 416 740 508 1151 39 177 55 296 68 522 43 766 -193 1516 -672
2137 -83 107 -407 435 -520 527 -456 367 -1103 634 -1655 682 -112 10 -623 13
-690 4z m1169 -2933 l786 -1375 -148 -6 c-191 -8 -2580 -8 -2824 0 l-186 6
230 405 c273 479 1222 2137 1297 2263 29 49 54 87 56 85 2 -2 357 -622 789
-1378z"/>
</g>
</svg>
